<?xml version="1.0" encoding="utf-8"?>
<!-- Generator: Adobe Illustrator 23.0.0, SVG Export Plug-In . SVG Version: 6.00 Build 0)  -->
<svg version="1.1" id="Capa_1" xmlns="http://www.w3.org/2000/svg" xmlns:xlink="http://www.w3.org/1999/xlink" x="0px" y="0px"
	 viewBox="0 0 820 1180" style="enable-background:new 0 0 820 1180;" xml:space="preserve">
<style type="text/css">
	.st0{fill:none;}
	.st1{fill:url(#SVGID_1_);}
	.st2{fill:#FFFFFF;}
	.st3{fill:url(#SVGID_2_);}
	.st4{fill:url(#SVGID_3_);}
	.st5{fill:url(#SVGID_4_);}
	.st6{fill:url(#SVGID_5_);}
	.st7{fill:url(#SVGID_6_);}
	.st8{fill:url(#SVGID_7_);}
	.st9{fill:#C17A49;}
	.st10{fill:url(#SVGID_8_);}
	.st11{fill:url(#SVGID_9_);}
	.st12{fill:#F49F42;}
	.st13{fill:#E08F3F;}
	.st14{fill:#493836;}
	.st15{fill:#96603C;}
	.st16{fill:#AA6D43;}
	.st17{fill:#EDBA94;}
	.st18{fill:#68504B;}
	.st19{fill:#EADBC3;}
	.st20{fill:#231F20;}
	.st21{opacity:0.3;fill:#FFFFFF;}
	.st22{fill:#E29040;}
	.st23{fill:#F2BB40;}
	.st24{opacity:0.2;fill:#FFFFFF;}
	.st25{opacity:0.39;fill:#FFFFFF;}
	.st26{fill:#DDCFB8;}
	.st27{fill:#EAC3B0;}
	.st28{fill:#F7E8CB;}
</style>
<rect x="-268.7" y="814.6" class="st0" width="498.5" height="187.9"/>
<linearGradient id="SVGID_1_" gradientUnits="userSpaceOnUse" x1="-13" y1="579.7265" x2="834" y2="579.7265">
	<stop  offset="0" style="stop-color:#FFFFFF"/>
	<stop  offset="5.586614e-04" style="stop-color:#33B1E7"/>
	<stop  offset="0.8318" style="stop-color:#519DFD"/>
</linearGradient>
<rect x="-13" y="-6.3" class="st1" width="847" height="1172"/>
<g>
	
		<image style="overflow:visible;opacity:3.000000e-02;" width="808" height="157" xlink:href="B26C4E8.png"  transform="matrix(1 0 0 1 37.1492 33.1492)">
	</image>
	<g>
		<g>
			<circle class="st2" cx="120.6" cy="159.7" r="14.2"/>
			<path class="st2" d="M146.6,93l-52.5-1.4v0c-6.6-0.1-11.9-5.5-11.9-12.1s5.3-12,11.9-12.1v0H834V32.7H41.6v21.5v13.2v24.2v4.1
				v10.5v14.6v51.6l29.7,0.5c1.1,0.3,2.9,0,4.1,0c7.3,0,13.2-5.9,13.2-13.2c0-7.3-5.9-14.2-13.2-14.2c-0.9,0-1.9-0.2-2.7,0
				c-5.9-0.5-3.8-0.5-5.9-0.5c-6.7,0-12.1-5.4-12.1-12.1c0-6.7,5.4-12.1,12.1-12.1c2.2,0,0,0,5.9,0l74-1.4c7.3,0,13.2-5.9,13.2-13.2
				C159.9,99,153.9,93,146.6,93z"/>
		</g>
	</g>
</g>
<g>
	<g>
		<linearGradient id="SVGID_2_" gradientUnits="userSpaceOnUse" x1="444.4749" y1="1070.6074" x2="493.2934" y2="1070.6074">
			<stop  offset="0" style="stop-color:#FFFFFF"/>
			<stop  offset="5.592048e-04" style="stop-color:#8EE048"/>
		</linearGradient>
		<path class="st3" d="M455,1081.1h27.8c5.8,0,10.5-4.7,10.5-10.5l0,0c0-5.8-4.7-10.5-10.5-10.5H455c-5.8,0-10.5,4.7-10.5,10.5l0,0
			C444.5,1076.4,449.2,1081.1,455,1081.1z"/>
		<linearGradient id="SVGID_3_" gradientUnits="userSpaceOnUse" x1="-13" y1="1080.3711" x2="662" y2="1080.3711">
			<stop  offset="0" style="stop-color:#FFFFFF"/>
			<stop  offset="5.592048e-04" style="stop-color:#8EE048"/>
		</linearGradient>
		<path class="st4" d="M606.4,1041.6h-5.4h-11.3h-71.2c-6.8,0-12.4,7-12.4,15.6l0,0c0,8.6,5.6,15.6,12.4,15.6h11.9h0.2v0
			c5.6,0.1,10.1,5.9,10.1,12.9s-4.5,12.8-10.1,12.9v0h-0.2h-12.8H-13v20.5h543.5h75.9H662v-77.6H606.4z"/>
		<linearGradient id="SVGID_4_" gradientUnits="userSpaceOnUse" x1="610" y1="1089" x2="850" y2="1089">
			<stop  offset="0" style="stop-color:#FFFFFF"/>
			<stop  offset="5.592048e-04" style="stop-color:#8EE048"/>
		</linearGradient>
		<rect x="610" y="1042" class="st5" width="240" height="94"/>
	</g>
</g>
<path class="st2" d="M604.1,682.2h25.6c5.3,0,9.6-4.3,9.6-9.6l0,0c0-5.3-4.3-9.6-9.6-9.6h-25.6c-5.3,0-9.6,4.3-9.6,9.6l0,0
	C594.5,677.9,598.8,682.2,604.1,682.2z"/>
<path class="st2" d="M151.4,343.3h36.2c7.5,0,13.6-6.1,13.6-13.6l0,0c0-7.5-6.1-13.6-13.6-13.6h-36.2c-7.5,0-13.6,6.1-13.6,13.6l0,0
	C137.8,337.2,143.9,343.3,151.4,343.3z"/>
<path class="st2" d="M761.8,404c-0.7-0.1-1.3-0.1-2-0.1l0-0.1h1.9v-86.9h-56.9c-16,0-29,13.1-29,29c0,16,13.1,29,29,29h28.7l0.1,0.1
	l0.9,0c7.6,0.3,13.8,6.6,13.8,14.4c0,5.3-2.9,9.9-7.2,12.4l-7.2,2c0,0,0,0,0,0h0l-0.3,0.1h-9.8c-7.5,0-13.6,6.1-13.6,13.6
	c0,7.5,6.1,13.6,13.6,13.6h36c0.7,0,1.3-0.1,2-0.1V404z"/>
<path class="st2" d="M200.2,601.1c-1,0.2-1.9,0.3-3,0.3h-38.3c-7.4,0-13.5-5.2-13.5-11.5l0,0c0-6.3,6.1-11.5,13.5-11.5
	c0,0,1.3,0.3,9.4,0c0,0,0-0.1,0-0.1c9.1-2.5,15.7-9.7,15.7-18.2c0-10.5-10.1-19.1-22.5-19.1h-24h-35.7h-24
	c-12.4,0-22.5,8.6-22.5,19.1c0,9.4,8.1,17.3,18.6,18.8h21.5c7.4,0,13.5,5,13.5,11.1v0c0,6-5.8,10.9-13.1,11.1v0.1h-9.5
	c-12.4,0-22.5,8.6-22.5,19.1s10.1,19.1,22.5,19.1h30.5h3h8.5c3.3,0,6,2.2,6,5s-2.7,5-6,5c0,0-8-0.4-10.7,0
	c-5.6,0.9-9.2,6.1-9.2,11.1c0,6.6,6.5,12,14.5,12h38.5c8,0,14.5-5.4,14.5-12c0-5.5-4.5-10.9-10.8-11.6c-0.7-0.1-2.8,0-2.8,0
	c-3.3,0-6-2.2-6-5s2.7-5,6-5h1v0h34.2c12.4,0,22.5-8.6,22.5-19.1C220,610.3,211.3,602.2,200.2,601.1z"/>
<g>
	<g>
		
			<image style="overflow:visible;opacity:4.000000e-02;" width="149" height="199" xlink:href="B26C4E9.png"  transform="matrix(1 0 0 1 203.1428 134.1428)">
		</image>
		<g>
			<linearGradient id="SVGID_5_" gradientUnits="userSpaceOnUse" x1="207.1512" y1="224.8727" x2="340.8228" y2="224.8727">
				<stop  offset="0" style="stop-color:#C17A49"/>
				<stop  offset="0.9877" style="stop-color:#96603C"/>
			</linearGradient>
			<path class="st6" d="M340.4,252c-3.5-27.6-26.1-48.2-52.8-50.2l0-0.1c-4.6-0.3-8.4-3.8-9-8.5c-0.3-2.5,0.4-4.9,1.7-6.9
				c2.7-6.1,3.9-13.1,2.9-20.3c-2.7-20.9-21.8-35.7-42.7-33c-20.9,2.7-35.7,21.8-33,42.7c0.2,1.8,0.6,3.5,1,5.2l18,89.9l0.2,0
				c5.9,29.4,33.6,49.6,63.8,45.7C322,312.5,344.4,283.6,340.4,252z M279.9,283.8c-11.4,0-20.6-9.2-20.6-20.6
				c0-11.4,9.2-20.6,20.6-20.6c11.4,0,20.6,9.2,20.6,20.6C300.5,274.5,291.3,283.8,279.9,283.8z"/>
		</g>
	</g>
	<g>
		
			<image style="overflow:visible;opacity:4.000000e-02;" width="109" height="115" xlink:href="B26C4EA.png"  transform="matrix(1 0 0 1 361.1428 186.1428)">
		</image>
		<g>
			<linearGradient id="SVGID_6_" gradientUnits="userSpaceOnUse" x1="365.088" y1="234.8174" x2="459.7041" y2="234.8174">
				<stop  offset="0" style="stop-color:#C17A49"/>
				<stop  offset="0.9877" style="stop-color:#96603C"/>
			</linearGradient>
			<path class="st7" d="M459.5,197.8c-1.2-7.6-7.7-13.3-15.6-13.3s-14.4,5.8-15.6,13.3h-0.2v9.1v7.3v17v9.1H428
				c-1,7.7-7.6,13.6-15.6,13.6c-8,0-14.6-5.9-15.6-13.6h-0.1v-9.1v-17v-7.3v-9.1h-0.2c-1.2-7.6-7.7-13.3-15.6-13.3
				s-14.4,5.8-15.6,13.3h-0.2v16.4v17v6.7c0,26.1,21.2,47.3,47.3,47.3c26.1,0,47.3-21.2,47.3-47.3v-6.7v-17v-16.4H459.5z"/>
		</g>
	</g>
	<g>
		<g>
			
				<image style="overflow:visible;opacity:4.000000e-02;" width="82" height="81" xlink:href="B26C4F7.png"  transform="matrix(1 0 0 1 542.1428 203.1428)">
			</image>
			<g>
				<linearGradient id="SVGID_7_" gradientUnits="userSpaceOnUse" x1="546.7388" y1="234.9289" x2="612.8488" y2="234.9289">
					<stop  offset="0" style="stop-color:#F7E8CB"/>
					<stop  offset="0.9877" style="stop-color:#DDCFB8"/>
				</linearGradient>
				<circle class="st8" cx="579.8" cy="234.9" r="33.1"/>
			</g>
		</g>
		<g>
			
				<image style="overflow:visible;opacity:4.000000e-02;" width="38" height="53" xlink:href="B26C4F8.png"  transform="matrix(1 0 0 1 585.1428 224.1428)">
			</image>
			<g>
				<path class="st9" d="M593.9,241c0.3,3.6-2,6.7-3.4,10c-1.4,3.3-1.6,7.9,1.6,9.6c1.7,0.9,3.7,0.6,5.5,0c2.1-0.7,4-1.9,5.9-3
					c8.8-9.2,11.3-22.3,7.4-33.7c-1.7-0.3-3.4,0.4-5.1,0.7c-4.9,1-15-5.6-16.4,3.2C588.8,232.5,593.5,236.3,593.9,241z"/>
			</g>
		</g>
	</g>
	<g>
		<g>
			
				<image style="overflow:visible;opacity:4.000000e-02;" width="116" height="179" xlink:href="B26C4FD.png"  transform="matrix(1 0 0 1 480.1428 154.1428)">
			</image>
			<g>
				<linearGradient id="SVGID_8_" gradientUnits="userSpaceOnUse" x1="484.2679" y1="235.1207" x2="585.527" y2="235.1207">
					<stop  offset="0" style="stop-color:#F7E8CB"/>
					<stop  offset="0.9877" style="stop-color:#DDCFB8"/>
				</linearGradient>
				<path class="st10" d="M571,287.5L571,287.5c-27.7-1.5-49.7-24.3-49.7-52.3c0-28,22-50.9,49.7-52.3v-0.1
					c8-0.1,14.5-6.7,14.5-14.8c0-8.2-6.6-14.8-14.8-14.8c-0.5,0-1,0-1.4,0.1c-1,0-2.1-0.1-3.2-0.1c-45.2,0-81.9,36.7-81.9,81.9
					s36.7,81.9,81.9,81.9c1.1,0,2.1,0,3.2-0.1c0.5,0,1,0.1,1.4,0.1c8.2,0,14.8-6.6,14.8-14.8C585.5,294.1,579,287.6,571,287.5z"/>
			</g>
		</g>
		<path class="st9" d="M511.8,271.5c1.7,0.9,3.7,0.5,5.6,0.5c5,0,13.6,8.5,16.7,0.1c0.3-0.8,0.4-1.6,0.4-2.4
			c-6.8-7.8-11.4-17.6-12.7-28.4c-2.4,0.3-4.8,0-6.7-1.4c-1.8-1.4-3-3.6-5.1-4.5c-2.2-0.8-4.7,0.2-6.2,2c-1.5,1.8-2,4.2-2.2,6.5
			c-0.6,8.3,3.3,16.2,7.1,23.7C509.4,269.1,510.2,270.7,511.8,271.5z"/>
		<g>
			
				<image style="overflow:visible;opacity:4.000000e-02;" width="61" height="44" xlink:href="B26C4FE.png"  transform="matrix(1 0 0 1 535.1428 289.1428)">
			</image>
			<g>
				<path class="st9" d="M585.5,302.2c0-7.5-5.6-13.7-12.9-14.7c-0.4,2.7-1.9,5.4-4.3,6.6c-5.3,2.7-11.4-2-17.3-1.7
					c-6.9,0.3-11.8,7.8-11.4,14.7c0.1,2.1,0.7,4.1,1.5,6c7.9,2.5,16.3,3.9,25,3.9c1.1,0,2.1,0,3.2-0.1c0.5,0,1,0.1,1.4,0.1
					C578.9,317,585.5,310.4,585.5,302.2z"/>
			</g>
		</g>
		<g>
			
				<image style="overflow:visible;opacity:4.000000e-02;" width="76" height="62" xlink:href="B26C4FF.png"  transform="matrix(1 0 0 1 484.1428 166.1428)">
			</image>
			<g>
				<path class="st9" d="M516.5,193.9c5.7,1.8,6.7,9.5,11,13.5c0.4,0.3,0.8,0.6,1.2,0.9c5-8.3,12.2-15.2,20.9-19.7
					c-1.5-5.1-5.4-9.4-10.4-11.4c-2.7-1.1-5.7-1.5-8.4-2.5c-2.7-1-5.4-2.9-6.2-5.7c-0.4-1.4-0.3-2.9-0.3-4.4
					c-16.9,10.1-29.9,26-36.1,45.1c2.6,2.2,6.4,3,9.3,1.3c2.6-1.5,3.9-4.4,5.1-7.1c1.3-2.8,2.8-5.7,5.1-7.8
					C510.2,194.1,513.5,192.9,516.5,193.9z"/>
			</g>
		</g>
	</g>
</g>
<linearGradient id="SVGID_9_" gradientUnits="userSpaceOnUse" x1="0" y1="1180.5" x2="834" y2="1180.5">
	<stop  offset="0" style="stop-color:#FFFFFF"/>
	<stop  offset="5.592048e-04" style="stop-color:#8EE048"/>
</linearGradient>
<rect y="1110" class="st11" width="834" height="141"/>
<g>
	<path class="st12" d="M577.8,999.1c-1.4,2.7-1.8,5.9-1.6,9c0.2,3.6,1,7.5-0.9,10.5c-0.2,0.3-0.5,0.7-0.4,1.1
		c0.1,0.3,0.4,0.6,0.7,0.8c2,1.3,4.4,1.8,6.8,2c4.2,0.5,8.5,0.4,12.7-0.2c1.8-0.2,3.6-0.6,5.1-1.5c0.4-0.3,0.8-0.6,1-1.1
		c0.2-0.5,0.2-1.1-0.2-1.4c-0.2-0.2-0.4-0.3-0.7-0.4c-1.5-0.7-2.2-2.5-2.6-4.2c-0.7-3.1-0.7-6.2-1.2-9.3c-0.5-3.1-1.7-6.3-4.2-8.2
		C587.4,992.4,580.7,993.5,577.8,999.1z"/>
	<path class="st13" d="M601,1018.4c-0.2-0.2-0.4-0.3-0.7-0.4c-1.5-0.7-2.2-2.5-2.6-4.2c-0.7-3.1-0.7-6.2-1.2-9.3
		c-0.5-3.1-1.7-6.3-4.2-8.2c-1.8-1.4-3.8-2.2-5.8-2.3c0.8,0.4,1.6,0.8,2.4,1.4c2.5,1.9,3.7,5.1,4.2,8.2c0.5,3.1,0.6,6.3,1.2,9.3
		c0.4,1.7,1.1,3.4,2.6,4.2c0.2,0.1,0.5,0.2,0.7,0.4c0.4,0.3,0.4,0.9,0.2,1.4c-0.2,0.5-0.6,0.8-1,1.1c-1.5,1-3.3,1.3-5.1,1.5
		c-4.2,0.6-8.5,0.6-12.7,0.2c-0.4,0-0.8-0.1-1.2-0.2c1.5,0.5,3.1,0.8,4.6,1c4.2,0.5,8.5,0.4,12.7-0.2c1.8-0.2,3.6-0.6,5.1-1.5
		c0.4-0.3,0.8-0.6,1-1.1C601.4,1019.3,601.3,1018.7,601,1018.4z"/>
	<path class="st14" d="M578.5,960.4c-0.1-4.2-0.1-8.5,1.1-12.6c0.3-1.1,0.8-2.3,1.8-3c1.9-1.3,4.7,0.2,5.6,2.3
		c0.9,2.1,0.6,4.6,0.2,6.9c-1.5,11.3-1.3,22.9,0.7,34.1c0.4,2.3,0.2,8.3-3.2,5.4c-2.2-1.9-3.1-7.9-3.8-10.6
		C579.2,975.5,578.7,967.9,578.5,960.4z"/>
	<path class="st15" d="M740.7,986.4c-5,17.1-16,82.1-17.1,97.7c-5.2,0.4-14.6-1.1-19.8-0.7c-1.7-14.6-4.1-28.9-7.6-43.1
		c-5.6-22.7-18.1-45-14-68c3.7-21.2,18.1-41.2,39.4-43C750.4,926.8,745.7,969.2,740.7,986.4z"/>
	<path class="st15" d="M611.6,1082.7c6.2,1.9,12.7,3,19.2,3.3c1.4-20.4,6.6-40.3,13.3-59.7c2.6-7.5,5.5-15.2,5.2-23.2
		c-0.3-9.9-5.3-19.2-11.3-27.5c-3.9-5.5-8.5-10.8-14.5-14.2c-8.3-4.7-18-4.3-24.9,2.2c-7.4,7-3.8,13-1.4,21.8
		c5.6,20.3,9.5,41,11.9,61.8C610.5,1059,611.3,1070.9,611.6,1082.7z"/>
	<path class="st9" d="M642.2,918.2c1.3,1,2.6,2.1,2.7,3.5c0,0.8-0.4,1.5-0.8,2.3c-8.7,15.3-20.9,29.3-35.9,41.1
		c-0.4,0.3-0.9,0.6-1.4,0.7c-0.7,0,4.7,44.8,4.3,44.3c-22.5-24.5-40.9-91.3-45-117.8c-0.8-5.3-1.3-10.7-0.2-16
		c1.2-5.3,4.2-10.5,9.4-13.9c8.9-5.9,26.6-8.9,30.8,2.1c4.9,13,9,25,18.5,36.6C629.6,907.2,635.5,913,642.2,918.2z"/>
	<path class="st9" d="M729.7,903.2c10.1,0.4,20.8,1.8,28.9,7.9c12.1,9,15.3,25.7,16.1,40.8c0.6,11.8,0.2,23.8-3.1,35.1
		c-3.4,11.3-10.1,21.9-20.1,28.2c-7.9,5-17.2,7-26.4,8.6c-23,3.9-46.4,5.5-69.7,3.5c-16.9-1.4-35.1-5.5-45.7-18.7
		c-7.8-9.7-10-22.5-12-34.8c-1.4-8.5-2.8-16.9-4.1-25.4c-0.9-5.5-1.8-11.3,0.1-16.5c2.4-6.8,8.8-11.2,14.6-15.4
		c7.1-5.2,15.6-16.2,23.9-15.9c10.8,0.4,21.6,3.6,32.6,3.8C686.4,904.9,708,902.3,729.7,903.2z"/>
	<path class="st16" d="M585.4,962.4c-0.5-17.5,13.9-32.3,15.9-49.8c0.3-2.4,0.2-5-1.3-6.9c-1.4-1.8-4-2.4-6.2-2.2
		c-2.3,0.3-4.4,1.4-6.3,2.6c-4.1,2.5-7.9,5.5-10.6,9.5c-5.1,7.5-2.6,13.9-0.7,21.8C578.1,946,581.3,954.5,585.4,962.4z"/>
	<path class="st15" d="M534.3,851.7c-6.7-0.5-13.4,0.8-19.7,2.9c-0.4,0.1-0.9,0.3-1.1,0.7c-0.3,0.5-0.1,1,0.1,1.5
		c2.8,7.1,9.1,12.4,15.8,16c4.8,2.6,10.4,4.7,15.8,3.6c5.4-1.1,10.3-6.1,9.5-11.6C553.4,855.7,542.4,852.3,534.3,851.7z"/>
	<path class="st17" d="M522.1,856.9c4.6,5.1,10,9.6,16,13c2.1,1.2,4.7,2.2,6.8,1c1.1-0.7,1.8-1.9,2.4-3c0.9-1.9,3-6,1.3-7.6
		c-1.9-1.7-5.9-2.6-8.4-3.2C534.3,855.5,528,855.4,522.1,856.9z"/>
	<path class="st18" d="M533.5,833.5c-1.4-9.4,2.2-19.4,9.3-25.8c0.9-0.8,2.6-1.6,3.3-0.5c0.4,0.7,0,1.6-0.4,2.4
		c-3.2,5.9-2.3,13.6,1.4,19.3c3.6,5.7,9.6,9.6,16,11.8c1.6,0.6,3.5,1.2,4.3,2.7c0.4,0.8,0.4,1.7,0.4,2.6c-0.3,4.3-3.1,8.4-7,10.2
		C547.7,862.3,535.1,844.3,533.5,833.5z"/>
	<path class="st16" d="M655.5,1016.1c23.2,1.9,46.7,0.4,69.7-3.5c9.2-1.6,18.6-3.6,26.4-8.6c10-6.3,16.7-16.9,20.1-28.2
		c2-6.8,3-13.8,3.3-20.9c0.4,10.8-0.2,21.7-3.3,32.1c-3.4,11.3-10.1,21.9-20.1,28.2c-7.9,5-17.2,7-26.4,8.6
		c-23,3.9-46.4,5.5-69.7,3.5C638.6,1025.9,638.6,1014.7,655.5,1016.1z"/>
	<path class="st9" d="M600.7,854.6c3.7,7.4,3.8,16.1,2.8,24.3c-3,24.9-16.2,48.9-36.9,63.1c-4.2,2.9-8.6,5.3-13.4,6.8
		c-14.1,4.3-30.6-1.1-39.3-13c-8.7-11.8-9.1-29.2-0.9-41.4c6.4-9.5,17-15.4,24.4-24.1c6.1-7.1,10-15.9,17-22.2
		C567.7,836.2,592.1,837.2,600.7,854.6z"/>
	<path class="st17" d="M566.2,942.2c-4.1,2.8-8.4,5.1-13.1,6.6c-14.1,4.3-30.6-1.1-39.3-13c-8.6-11.7-9.1-28.8-1.2-40.9
		c7.1-2.8,15.5-1.1,22.8,1.5c11.5,4.1,22.7,10.6,28.8,21.2C568.5,924.8,568.9,934.1,566.2,942.2z"/>
	<path class="st16" d="M707.8,1015.9c-1.1-7.8-2.1-15.7-1.5-23.6c0.6-7.9,2.6-15.8,7.1-22.3c1.7-2.5,4-4.9,6.9-5.2
		c0.2,10,2.8,19.9,7.5,28.7c1.7,3.1,3.6,6.1,4,9.6c0.6,4.9-2.2,9.8-6,13c-3.1,2.7-6.9,4.6-10.9,5.5c-1.5,0.3-4.1,1.1-5.4,0.2
		C708.3,1020.6,708,1017.5,707.8,1015.9z"/>
	<path class="st9" d="M772.3,986.2c-4.7,17.1-14.8,82.3-15.7,98c-5.2,0.4-14.6-0.9-19.8-0.4c-1.9-14.6-4.6-28.9-8.3-43
		c-5.9-22.6-18.7-44.7-15-67.8c3.4-21.2,17.5-41.4,38.8-43.6C781.2,926.4,777.1,968.9,772.3,986.2z"/>
	<path class="st19" d="M649.1,1011.5c-1-1.7-1.7-3.6-2.4-5.4c-1.2-2.9-2.3-5.9-3.5-8.8c-4.2,4.4-6,10.7-5.9,16.8
		c0,3.6,0.9,7.6,3.9,9.6c1.3,0.9,2.8,1.3,4.3,1.4c3,0.3,8.4-0.9,9.6-4.1c0.6-1.6-0.2-2.6-1.2-3.7
		C652,1015.4,650.3,1013.8,649.1,1011.5z"/>
	<path class="st16" d="M651.1,904c-4.5,0.4-25.4,20-47.7,5.2c-3.7-2.5-6.7-7.4-9.5-10.9c-2.1-2.6-3.8-5.6-4.3-8.9
		c-0.2-1.6-0.1-3.3,1.1-4.4c1.1-1,2.8-1.1,4.3-0.9c2.7,0.5,5.1,1.9,7.3,3.4c4,2.8,8,6.4,10.6,10.6c1,1.5,25.3,0.7,26.7,1.7
		C643,901.9,649.8,901.9,651.1,904z"/>
	<path class="st16" d="M598.7,877.8c-0.8,0.2-1.7,0.5-2.8,0.4c-0.7-2-1.4-4.1-0.5-5.9c0.9-1.8,3.9-3.2,7.5-2.7c1.9,0.2,3.6,1,5,1.8
		c1.3,0.8,2.3,1.7,2.6,2.6C611.8,877.4,602.4,876.8,598.7,877.8z"/>
	<path class="st18" d="M629,866.9c7.4-6,11.5-15.8,10.6-25.3c-0.1-1.3-0.9-2.9-2.1-2.6c-0.8,0.2-1.1,1.2-1.3,2
		c-1.6,6.6-7.5,11.6-14,13.3c-6.5,1.7-13.6,0.6-19.8-2.1c-1.6-0.7-3.4-1.5-5-0.9c-0.8,0.3-1.5,1-2,1.7c-2.7,3.4-3.4,8.3-1.7,12.3
		C599.1,878.6,620.5,873.9,629,866.9z"/>
	<g>
		<path class="st16" d="M581.1,885c1.7-1.6,3-3.7,3.2-6.1c0.2-2.3-0.9-4.8-2.9-6c-1.3-0.8-2.9-1.1-4.4-1c-4.3,0.2-8.4,3.2-9.9,7.3
			c-0.4,1.1-0.6,2.3-0.5,3.5C567.4,890.4,577,888.7,581.1,885z"/>
		<path class="st20" d="M565.7,884c0.5,3,3.3,5.1,6.4,4.6c3-0.5,5.1-3.3,4.6-6.4c-0.5-3-3.3-5.1-6.4-4.6
			C567.2,878.2,565.2,881,565.7,884z"/>
		<path class="st2" d="M571.2,883.6c0.7,0.9,1.9,1.1,2.8,0.4c0.9-0.7,1.1-1.9,0.4-2.8c-0.7-0.9-1.9-1.1-2.8-0.4
			C570.8,881.5,570.6,882.7,571.2,883.6z"/>
	</g>
	<g>
		<path class="st16" d="M551.1,874c1.3-1.7,2.3-3.9,2.4-6.3c0.1-2.3-0.7-4.7-2.2-5.8c-1-0.7-2.2-0.9-3.4-0.7
			c-3.3,0.5-6.4,3.8-7.6,7.9c-0.3,1.1-0.5,2.3-0.4,3.5C540.6,880.3,548,877.9,551.1,874z"/>
		<path class="st20" d="M539.3,874.1c0.4,3,2.5,4.8,4.8,4.1c2.3-0.7,3.9-3.7,3.5-6.6c-0.4-3-2.5-4.8-4.8-4.1
			C540.5,868.1,538.9,871.1,539.3,874.1z"/>
		<path class="st2" d="M543.5,873.2c0.5,0.8,1.4,0.9,2.1,0.2c0.7-0.7,0.8-2,0.3-2.8c-0.5-0.8-1.4-0.9-2.1-0.2S543,872.4,543.5,873.2
			z"/>
	</g>
	<path class="st20" d="M542.1,911.8c0.3-0.1,0.8-0.1,1.1,0.1c0.4,0.7-0.1,1.6-0.7,2.1c-0.6,0.5-1.3,1-1.5,1.8
		c-0.2,0.6-0.1,1.2-0.1,1.9c-0.1,0.6-0.6,1.3-1.2,1.2c-0.5-0.1-0.8-0.7-0.9-1.2c-0.4-1.4-0.5-2.9,0.1-4.2c0.6-1.3,2.2-2.2,3.5-1.6
		L542.1,911.8z"/>
	<path class="st20" d="M521,904.4c0.3-0.1,0.8-0.1,1.1,0.1c0.4,0.7-0.1,1.6-0.7,2.1c-0.6,0.5-1.3,1-1.5,1.8
		c-0.2,0.6-0.1,1.2-0.1,1.9c-0.1,0.6-0.6,1.3-1.2,1.2c-0.5-0.1-0.8-0.7-0.9-1.2c-0.4-1.4-0.5-2.9,0.1-4.2c0.6-1.3,2.2-2.2,3.5-1.6
		L521,904.4z"/>
	<path class="st21" d="M556.4,839.8c0.8,0.4,1.7,1,1.5,1.8c-0.1,0.6-0.7,0.8-1.3,1c-3,0.8-6-0.9-8.5-2.7c-1.8-1.3-3.5-2.8-4.8-4.7
		c-1.3-1.8-2.2-4-2.2-6.2c0-0.5,0.1-1.1,0.5-1.3c0.3-0.2,0.7-0.2,1-0.1c2.3,0.6,3.4,4.5,5,6.2C550.1,836.3,553.2,838.4,556.4,839.8z
		"/>
	<path class="st21" d="M540.8,818.6c0.8,1.5,1.1,3.2,0.9,4.8c-0.1,0.5-0.2,0.9-0.5,1.2c-0.5,0.4-1.4,0.2-1.8-0.3s-0.6-1.2-0.6-1.9
		c-0.1-1.4,0.2-2.9,0.8-4.2c0.3,0,0.6,0.1,0.9,0.1L540.8,818.6z"/>
	<path class="st21" d="M634.9,855.2c-1.9,2.6-3.9,5.3-6,7.8c-0.6,0.8-1.3,1.6-2.2,2c-0.9,0.4-2.1,0.5-2.8-0.3
		c-1.1-1.1-0.3-3.1,1-3.9c1.3-0.9,2.9-1.1,4.2-2c2.3-1.4,3-4,4.7-5.9C636.5,850.1,636.6,852.9,634.9,855.2z"/>
	<path class="st21" d="M620.5,864.6c0.9,0.8,0.5,2.4-0.5,3.2c-1,0.8-2.2,0.9-3.5,1.1c-1.1,0.1-2.3,0.2-3-0.6
		c-0.8-0.8-0.6-2.3,0.3-3.1c0.8-0.8,2.1-1,3.2-0.9c1.2,0.1,2.3,0.4,3.4,0.6L620.5,864.6z"/>
	<path class="st16" d="M672,1005.5c-3-3.3-5.6-7-8.9-10c-1-0.9-2.4-1.8-3.6-1.4c-0.8,0.3-1.2,1.1-1.5,1.9c-1.2,3.6-0.3,7.7,0.8,11.5
		c1.3,4.5,3,9,5,13.4c1,2.2,2.3,4.7,4.6,5.6c1.5,0.6,3.2,0.4,4.6-0.3c1.4-0.7,2.5-1.7,3.6-2.8c1.9-1.8,13.9-2.3,11.2-5.3
		c-1.5-1.6-8.9-6-10.5-7.4C675.4,1009.1,673.7,1007.3,672,1005.5z"/>
	<path class="st9" d="M644.5,1086.3c6.5,0.7,13,0.6,19.5-0.4c-2.4-20.3-1-40.8,2-61.1c1.1-7.9,2.5-16,0.8-23.7
		c-2.1-9.7-8.8-17.9-16.2-24.9c-4.9-4.7-10.3-9.1-16.9-11.3c-9.1-3.1-18.5-0.9-24,6.8c-6,8.3-4.7,31.6,1.4,38.5
		c15.8,18,18.3,21.7,24.5,41.7C639,1063.2,642,1074.7,644.5,1086.3z"/>
	<path class="st9" d="M792.9,965.5c4.3,14.6,6.5,29.8,8.8,44.8c-1.4,0.6-2.8,1.1-4.3,1.7c-0.4-18.6-5-37.1-13.3-53.8
		c-2.8-5.7-6.6-11.6-12.6-13.5c-3.5-1.1-7.5-0.7-10.7-2.4c-5.4-2.8-6.5-10.2-2.3-14.5c5.1-5.3,10.5-1.1,15,2.9
		C783.5,939.7,789.2,952.8,792.9,965.5z"/>
	<path class="st12" d="M787.4,1003.8c-2.6,3-3.7,7.3-2.6,11.1c1.8,6.7,9,10.8,11.1,17.4c1.1,3.5,0.7,7.2,0.2,10.8
		c6.8-5.4,11.7-13.1,13.9-21.5c1.5-5.7,1.4-12.5-2.7-16.7C802.2,999.8,792.7,997.9,787.4,1003.8z"/>
	<g>
		<path class="st22" d="M796.5,1040.1c-0.1,1-0.2,2.1-0.4,3.1c0.3-0.2,0.6-0.5,0.9-0.7C796.9,1041.7,796.7,1040.9,796.5,1040.1z"/>
		<path class="st22" d="M807.4,1005c-4.2-4.3-11.3-6.3-16.6-3.7c1.6,0.3,3.1,0.8,4.5,1.5c5.3,2.6,7.6,9,8,15
			c0.6,8.6-1.5,17.4-6.1,24.7c6.3-5.4,10.9-12.7,13-20.7C811.6,1016,811.6,1009.2,807.4,1005z"/>
	</g>
	<path class="st20" d="M642.6,1077.9c0,0-2.6,10.7-1.6,12.6c0.9,2,8.2,3,12.9,3c8.2,0,10.5-1.8,10.5-1.8l-1.1-14
		c0,0-2.5,1.2-10.2,1.8C645.4,1080.2,642.6,1077.9,642.6,1077.9z"/>
	<path class="st20" d="M735.9,1075.8c0,0-2.7,10.7-1.7,12.6c1,2,8.4,3,13.3,3c8.4,0,10.9-1.8,10.9-1.8l-1.1-14c0,0-2.5,1.2-10.6,1.8
		C738.8,1078.1,735.9,1075.8,735.9,1075.8z"/>
	<path class="st20" d="M702.6,1075.8c0,0-2.7,10.7-1.7,12.6c1,2,8.6,3,13.7,3c8.6,0,11.2-1.8,11.2-1.8l-1.1-14c0,0-2.6,1.2-10.8,1.8
		C705.5,1078.1,702.6,1075.8,702.6,1075.8z"/>
	<path class="st20" d="M611.1,1074.2c0,0-2.6,10.7-1.6,12.6c0.9,2,8.2,3,12.9,3c8.2,0,10.5-1.8,10.5-1.8l-1.1-14
		c0,0-2.5,1.2-10.2,1.8C613.9,1076.5,611.1,1074.2,611.1,1074.2z"/>
	<path class="st12" d="M553.1,845c-2.6,6.2-1.4,13.4,2.4,19.1c0-1.9,0.8-3.9,2.3-5.2c2,5.5,1.6,11.7-1.1,17
		c6.3-2.1,12.1-5.4,16.9-9.6c0,2.8-0.3,5.5-1,8.3c6-1.3,11.3-4.6,16.4-7.8c4-2.6,8-5.3,10.7-9c2.8-3.7,4.1-8.6,2.3-12.8
		c-1-2.2-2.7-4-4.7-5.5C585.4,830.4,559.7,829.5,553.1,845z"/>
	<g>
		<path class="st23" d="M567.4,861.7c0.6-2.9,1.4-5.7,2.3-8.5c0.2-0.5-0.2-1-0.7-1.2c-0.5-0.1-1,0.2-1.2,0.7c-1,2.8-1.8,5.6-2.3,8.5
			c-0.1,0.5,0.1,1,0.7,1.2C566.7,862.5,567.3,862.2,567.4,861.7L567.4,861.7z"/>
	</g>
	<g>
		<path class="st23" d="M558.3,855.9c0.1-2.2,0.1-4.4,0.2-6.6c0-0.5-0.5-1-1-1c-0.5,0-0.9,0.4-1,1c-0.1,2.2-0.1,4.4-0.2,6.6
			c0,0.5,0.5,1,1,1C557.8,856.9,558.2,856.4,558.3,855.9L558.3,855.9z"/>
	</g>
	<g>
		<path class="st23" d="M563.3,860.8c-0.3-2-0.2-4.1,0.3-6.1c0.1-0.5-0.2-1-0.7-1.2c-0.5-0.1-1.1,0.2-1.2,0.7
			c-0.5,2.4-0.6,4.7-0.3,7.1c0.1,0.5,0.7,0.8,1.2,0.7C563.2,861.8,563.4,861.3,563.3,860.8L563.3,860.8z"/>
	</g>
	<g>
		<path class="st23" d="M562.7,870.3c0.8-0.9,1.6-1.8,2.5-2.6c0.4-0.3,0.4-1,0-1.4c-0.4-0.4-1-0.4-1.4,0c-0.9,0.8-1.7,1.7-2.5,2.6
			c-0.2,0.2-0.3,0.4-0.3,0.7c0,0.2,0.1,0.5,0.3,0.7c0.2,0.2,0.4,0.3,0.7,0.3C562.3,870.5,562.6,870.4,562.7,870.3L562.7,870.3z"/>
	</g>
	<g>
		<path class="st23" d="M577.2,866.4c1.9-1.5,3.9-3,6-4.3c0.4-0.3,0.6-0.8,0.3-1.3c-0.3-0.4-0.9-0.6-1.3-0.3c-2.2,1.4-4.3,3-6.4,4.6
			c-0.4,0.3-0.3,1,0,1.4C576.3,866.8,576.8,866.7,577.2,866.4L577.2,866.4z"/>
	</g>
	<g>
		<path class="st23" d="M577.2,856.8c0-0.2,0-0.4,0.1-0.6c0-0.1,0-0.1,0,0c0-0.1,0-0.1,0-0.2c0-0.1,0-0.2,0-0.3
			c0.1-0.4,0.2-0.9,0.3-1.3c0.1-0.2,0.1-0.4,0.2-0.6c0-0.1,0.1-0.2,0.1-0.3c0-0.1,0-0.1,0.1-0.2c0,0.1,0,0.1,0,0
			c0.2-0.4,0.4-0.8,0.6-1.2c0.2-0.4,0.1-1.1-0.3-1.3c-0.5-0.2-1-0.1-1.3,0.3c-1,1.7-1.5,3.6-1.7,5.6c0,0.5,0.5,1,1,1
			C576.8,857.7,577.2,857.3,577.2,856.8L577.2,856.8z"/>
	</g>
	<g>
		<path class="st23" d="M589.8,861.2c1.8-1.3,3.5-2.8,5-4.5c0.3-0.4,0.4-1,0-1.4c-0.4-0.3-1-0.4-1.4,0c-0.7,0.8-1.5,1.5-2.3,2.3
			c-0.4,0.4-0.8,0.7-1.2,1c-0.2,0.2-0.4,0.3-0.6,0.5c0,0-0.1,0.1-0.1,0.1c0,0-0.2,0.1,0,0c-0.1,0.1-0.2,0.2-0.3,0.3
			c-0.4,0.3-0.6,0.8-0.3,1.3C588.7,861.2,589.3,861.5,589.8,861.2L589.8,861.2z"/>
	</g>
	<g>
		<path class="st23" d="M589.8,851.3c0.1-0.4,0.3-0.9,0.4-1.3c0.1-0.2,0.2-0.5,0.3-0.7c-0.1,0.2,0.1-0.2,0.1-0.2
			c0-0.1,0.1-0.2,0.1-0.3c0.4-0.8,0.9-1.6,1.4-2.4c0.3-0.4,0.1-1.1-0.3-1.3c-0.5-0.3-1-0.1-1.3,0.3c-1.1,1.6-1.9,3.4-2.5,5.3
			c-0.1,0.5,0.2,1.1,0.7,1.2C589.1,852,589.7,851.8,589.8,851.3L589.8,851.3z"/>
	</g>
	<g>
		<path class="st23" d="M582.9,841.1c0,0,0.1-0.1,0.1-0.1C583.1,840.8,583.1,840.9,582.9,841.1c0.1-0.1,0.2-0.3,0.3-0.3
			c0.1-0.2,0.3-0.3,0.4-0.5c0.3-0.3,0.5-0.6,0.8-0.8c0.1-0.1,0.3-0.2,0.4-0.4c0,0,0.1-0.1,0.1-0.1c0.1-0.1-0.2,0.1,0,0
			c0.1-0.1,0.2-0.1,0.2-0.2c0.3-0.2,0.7-0.4,1-0.6c0.4-0.2,0.6-0.9,0.3-1.3c-0.3-0.4-0.8-0.6-1.3-0.3c-1.6,0.9-2.9,2.1-3.9,3.6
			c-0.1,0.2-0.2,0.5-0.1,0.7c0.1,0.2,0.2,0.5,0.4,0.6c0.2,0.1,0.5,0.2,0.7,0.1C582.6,841.4,582.8,841.3,582.9,841.1L582.9,841.1z"/>
	</g>
	<g>
		<path class="st23" d="M568.3,844.6c0.1-0.4,0.3-0.8,0.4-1.2c0-0.1,0.1-0.2,0.1-0.3c-0.1,0.2,0.1-0.1,0.1-0.2
			c0.1-0.2,0.2-0.4,0.3-0.6c0.4-0.8,0.8-1.6,1.4-2.3c0.3-0.4,0.1-1.1-0.3-1.3c-0.5-0.3-1-0.1-1.3,0.3c-1.1,1.6-1.9,3.3-2.5,5.1
			c-0.2,0.5,0.2,1.1,0.7,1.2C567.6,845.4,568.1,845.2,568.3,844.6L568.3,844.6z"/>
	</g>
	<g>
		<path class="st23" d="M575.1,847.6c0-0.3,0-0.7,0-1c0,0.1,0,0.2,0,0.3c0.1-0.5,0.2-0.9,0.4-1.4c0,0.1-0.1,0.2-0.1,0.2
			c0.1-0.3,0.3-0.6,0.5-0.9c0.3-0.4,0.1-1.1-0.3-1.3c-0.5-0.3-1-0.1-1.3,0.3c-0.7,1.1-1.1,2.4-1,3.7c0,0.5,0.4,1,1,1
			C574.7,848.5,575.2,848.1,575.1,847.6L575.1,847.6z"/>
	</g>
	<g>
		<path class="st23" d="M559.2,842.9c0.1-0.2,0.3-0.4,0.4-0.6c0.1-0.1,0.1-0.2,0.2-0.3c0.1-0.1-0.1,0.1,0,0c0,0,0.1-0.1,0.1-0.1
			c0.3-0.4,0.6-0.7,1-1.1c0.3-0.3,0.7-0.7,1.1-0.9c0,0,0.1-0.1,0.1-0.1c0.2-0.1-0.2,0.1,0,0c0.1-0.1,0.2-0.1,0.3-0.2
			c0.2-0.1,0.4-0.3,0.6-0.4c0.4-0.3,0.6-0.9,0.3-1.3c-0.3-0.4-0.9-0.6-1.3-0.3c-1.8,1.2-3.3,2.7-4.5,4.5c-0.3,0.4-0.1,1.1,0.3,1.3
			C558.3,843.5,558.9,843.4,559.2,842.9L559.2,842.9z"/>
	</g>
	<g>
		<path class="st23" d="M597.7,849.6c0.3-1.5,0.4-3,0.3-4.5c0-0.5-0.4-1-1-1c-0.5,0-1,0.4-1,1c0,0.7,0,1.4,0,2.1
			c0,0.3-0.1,0.7-0.1,1c0,0.1,0,0.2,0,0.2c0,0.2,0-0.1,0,0.1c0,0.2-0.1,0.4-0.1,0.6c-0.1,0.5,0.1,1.1,0.7,1.2
			C597,850.3,597.6,850.1,597.7,849.6L597.7,849.6z"/>
	</g>
	<g>
		<path class="st23" d="M573.3,836.6c0.9,0,1.8,0,2.8,0c0.5,0,1-0.4,1-1c0-0.5-0.4-1-1-1c-0.9,0-1.8,0-2.8,0c-0.5,0-1,0.4-1,1
			C572.4,836.2,572.8,836.6,573.3,836.6L573.3,836.6z"/>
	</g>
	<path class="st18" d="M521.8,935.4c0,0,5.8,5,10.5,4c4.7-1.1,8.1-7.4,8.1-7.4s-3.2,8.6-7.7,9.5C525.1,943,521.8,935.4,521.8,935.4z
		"/>
	<path class="st24" d="M720.2,921.6c6.5,0.8,13.3,2.2,18.3,6.4c3.8,3.2,6.3,7.8,7.8,12.6c0.6,1.8,1,3.7,2,5.3c1,1.6,2.6,3,4.5,3.1
		c2,0.1,3.9-1.3,4.8-3.1c1-1.8,1.2-3.9,1.4-5.9c0.3-4.4,0.2-9.1-2.1-12.9c-1.6-2.7-4-4.7-6.6-6.4c-7.7-5-17-8-26.2-8
		C717.5,912.7,710,920.4,720.2,921.6z"/>
	<path class="st18" d="M608.7,931.7c3.7-10,7.4-20.2,8.3-30.9c4-0.4,7.9-0.7,11.9-1.1c-2.2,9.7-4.7,19.3-7.7,28.8
		c-7.9,24.1-20,46.9-35.6,67c-0.7-2.3-2.2-5-1.6-7.4c0.5-2.3,2.7-4.7,3.8-6.7c2.9-5.3,5.5-10.7,7.9-16.1
		C600.5,954.3,604.6,943,608.7,931.7z"/>
	<path class="st9" d="M629.1,884.4c4.7,5,8,11.6,13.9,15.3c-3.7,1.6-7.7,2.4-11.7,3c-5.1,0.8-10.2,1.5-15.3,1.3
		c-5.1-0.2-10.3-1.2-14.9-3.5c-3.7-1.9-6.9-4.7-9.3-8c-0.9-1.3-1.7-2.7-2.2-4.2c-1.1-3.8,0.3-8.1,3.2-10.8c3.7-3.4,9.3-3.7,14-3.5
		c5.4,0.3,10.7,2,15.4,4.8C624.6,880.3,627,882.2,629.1,884.4z"/>
	<path class="st17" d="M597.3,883.3c0-0.6-0.3-1.2-0.3-1.8c0.1-1.3,1.6-2,3-2.1c2.5-0.2,5,0.6,7.3,1.5c8.5,3.2,16.4,7.9,23.4,13.7
		c-2.2,1.2-4.7,2-7.1,2.4c-3.7,0.5-7.5,0.1-11.2-0.5c-6.4-1.1-13-3.1-17.9-7.4c-0.7-0.6-1.3-1.2-1.5-2.1s0.2-1.9,1.1-2.1
		C595,884.5,597.2,885.2,597.3,883.3z"/>
	<path class="st21" d="M629.4,887.9c0.2,0.4,0.3,0.9-0.1,1.1c-0.1,0.1-0.3,0.1-0.4,0.1c-1.4,0-2.3-1.4-3.2-2.5
		c-2.7-3.4-7.1-4.8-11-6.8c-0.4-0.2-0.9-0.7-0.6-1.1c0.1-0.2,0.3-0.2,0.5-0.2c2.9-0.4,6.1,1.3,8.5,2.7
		C625.9,882.8,628.1,885,629.4,887.9z"/>
	<path class="st12" d="M581.1,983.8c-0.7,1-0.9,2.2-1.1,3.3c-0.2,1.7-0.2,3.4,0,5.1c0.1,1,0.4,1.9,0.9,2.7c0.7,1,1.8,1.6,2.9,1.9
		c1.5,0.5,3.2,0.6,4.5-0.2c1.1-0.6,1.8-1.8,2-3c0.2-1.2,0-2.5-0.4-3.7c-1.1,0.6-2.7,0.8-3.6-0.1c-0.8-0.8-0.7-2.1-0.5-3.2
		c0.3-1.5,2.9-5.2,1.1-5.8C585.1,980.2,582.1,982.3,581.1,983.8z"/>
	<path class="st13" d="M582,995.7c0.4,0.2,0.9,0.4,1.4,0.4c1.7,0.3,3.4,0.2,5-0.1c0.4-0.1,0.9-0.2,1.2-0.5c0.4-0.3,0.5-0.9,0.6-1.3
		c0.2-1.4,0.1-2.9-0.3-4.3c-0.6,0.2-1.3,0.3-1.9,0.5c-0.1,0-0.3,0.1-0.4,0.2c-0.1,0.1-0.1,0.2-0.1,0.3c-0.2,1.1-0.3,2.3-1.2,3
		c-0.4,0.3-0.8,0.4-1.2,0.5c-0.8,0.2-1.7,0.2-2.6,0c-0.4-0.1-0.8-0.2-1.2-0.4c-0.3-0.1-0.7-0.5-1.1-0.5
		C580.2,994.3,581.3,995.4,582,995.7z"/>
	<path class="st25" d="M579.1,1000.2c-0.8,2.1-1,4.4-0.5,6.5c0.2,0.8,0.6,1.7,1.4,1.9c0.6,0.1,1.1-0.3,1.4-0.7
		c0.3-0.5,0.4-1.1,0.4-1.6c0-0.9-0.2-1.8-0.1-2.6c0.1-0.9,0.4-1.9,1.1-2.6c0.3-0.4,0.7-0.7,0.9-1.1c0.2-0.4,0.3-0.9,0.1-1.3
		c-0.5-0.8-1.7-1.2-2.5-0.8C580.1,998.3,579.5,999.1,579.1,1000.2z"/>
	<path class="st25" d="M579,1014.2c0.4,0.6,1.3,1,2,0.8c1.7-0.6,1.7-4,0-4.6C578.9,1009.7,578.1,1012.8,579,1014.2z"/>
	<path class="st25" d="M581.2,987.8c0.1,0.6,0.5,1.2,1.1,1.2c0.5,0,0.8-0.5,0.9-0.9c0.1-0.5,0-0.9,0.1-1.4c0.1-0.6,0.4-1.3,0.8-1.7
		c0.3-0.3,0.7-0.6,1-0.9c0.3-0.3,0.5-0.8,0.3-1.2c-0.7-1.6-2.7,0.1-3.3,0.8C581.2,984.8,580.8,986.4,581.2,987.8z"/>
</g>
<rect x="754.2" y="317" class="st2" width="79.8" height="114"/>
<rect x="-13" y="-71" class="st2" width="847" height="130"/>
<rect x="-13" y="47.7" class="st2" width="58.8" height="126.3"/>
<g>
	<path class="st26" d="M90.5,1017.9c5.1,18.4,12.9,36,18.4,54.4c4.8,16.2,7.8,32.9,8.8,49.7c5.6,0.5,11.1,1,16.7,1.4
		c-1.8-15.6-0.6-31.6,3.4-46.8c6.4-24.4,20.2-48.2,16.2-73c-3.7-22.9-24.2-42-47.2-44.3C75.6,956.2,85.4,999.3,90.5,1017.9z"/>
	<path class="st27" d="M105,1087.1c5.3,1,15.1-1.5,18.1-2.6c4-1.5,7.2-4.6,9.6-8.1c3.4-4.8,5.7-10.4,5.9-16.2
		c0.1-5.8-2.1-11.8-6.7-15.5c-3.9-3.2-9-4.4-13.9-4.9c-7.7-0.8-15.7,0.3-22.8,3.5c-5.5,2.4-14.7,7.8-14.2,14.6
		C82.1,1072.2,92.5,1084.7,105,1087.1z"/>
	<path class="st26" d="M291.9,873.6c6.8,0.6,13.3,3.1,19.3,6.3c0.4,0.2,0.8,0.5,1,0.9c0.2,0.5-0.1,1.1-0.4,1.5
		c-4.1,6.7-11.3,10.9-18.7,13.5c-5.3,1.8-11.3,2.9-16.6,0.9c-5.3-2-9.4-8-7.6-13.3C272,874.4,283.7,872.8,291.9,873.6z"/>
	<path class="st17" d="M303.3,880.9c-5.5,4.4-11.7,8-18.4,10.3c-2.3,0.8-5.2,1.4-7-0.2c-1-0.9-1.5-2.2-1.9-3.5c-0.6-2.1-2-6.6,0-7.9
		c2.3-1.4,6.4-1.6,9-1.8C291.3,877.5,297.6,878.5,303.3,880.9z"/>
	<path class="st18" d="M295.8,855.4c3-9.3,1.1-20-4.9-27.6c-0.8-1-2.4-2-3.2-1c-0.6,0.6-0.3,1.7,0,2.5c2.2,6.5,0,14.1-4.7,19.2
		c-4.6,5.1-11.4,8-18.2,9.2c-1.8,0.3-3.7,0.6-4.8,2c-0.5,0.7-0.7,1.7-0.8,2.6c-0.4,4.4,1.7,9,5.3,11.5
		C276.6,882,292.4,866.1,295.8,855.4z"/>
	<path class="st26" d="M240.7,1037c4.6,6.1,6.6,15.4,6.6,23c0,4.6-4.7,30.9-5.8,31.9c-2.9,2.6-10.7-1-14.5-0.2
		c1.3-5.8,2.6-11.7,1.9-17.6c-0.7-5.9,0.2-15.4-7.5-19.1c-5-2.3-12.8,1.1-15.1-3.9c-0.8-1.7-0.8-3.7-0.8-5.6
		c0-8.7,1.4-24.3,11.9-25.9C226,1018.4,236.2,1031,240.7,1037z"/>
	<path class="st28" d="M179.4,936.7c-1.4,1.1-2.8,2.2-2.9,3.7c0,0.9,0.4,1.7,0.9,2.4c9.4,16.4,22.6,31.5,38.7,44.3
		c0.4,0.3,0.9,0.7,1.5,0.7c0.7,0,1.3-0.4,1.8-0.8c24.6-21.4,37.7-49.7,42.1-78.3c0.9-5.7,1.4-11.6,0.2-17.3
		c-1.3-5.7-4.5-11.3-10.1-15c-9.6-6.3-28.7-9.6-33.1,2.2c-5.3,14-9.7,26.9-19.9,39.4C193,924.8,186.6,931.1,179.4,936.7z"/>
	<path class="st28" d="M90.5,928.5c-10.9,0.5-22.4,2-31.2,8.5C46.3,946.7,42.8,964.7,42,981c-0.7,12.7-0.3,25.6,3.4,37.8
		c3.7,12.2,10.9,23.6,21.6,30.4c8.5,5.4,18.6,7.6,28.5,9.3c24.8,4.2,50,5.9,75,3.8c18.2-1.5,37.8-5.9,49.3-20.1
		c8.4-10.4,10.8-24.3,13-37.5c1.5-9.1,3-18.2,4.5-27.3c1-5.9,1.9-12.1-0.1-17.8c-2.6-7.3-9.4-12-15.7-16.6
		c-7.6-5.6-16.8-17.4-25.8-17.1c-11.6,0.4-23.2,3.9-35.1,4.1C137.2,930.3,113.9,927.5,90.5,928.5z"/>
	<path class="st19" d="M219.8,1030c-11.4,14.2-31.1,18.6-49.3,20.1c-25,2.1-50.3,0.4-75-3.8c-9.9-1.7-20-3.9-28.5-9.3
		c-10.7-6.8-18-18.3-21.6-30.4c-2.2-7.3-3.2-14.9-3.5-22.5c-0.4,11.7,0.2,23.4,3.5,34.6c3.7,12.2,10.9,23.6,21.6,30.4
		c8.5,5.4,18.6,7.6,28.5,9.3c24.8,4.2,50,5.9,75,3.8c18.2-1.5,37.8-5.9,49.3-20.1c8.4-10.4,10.8-24.3,13-37.5
		C234.2,995.5,228.2,1019.6,219.8,1030z"/>
	<path class="st19" d="M236.6,980.9c1.6-5.5,5.5-19.4,7.3-21.7c0.9-1.2,1-2.4,0.8-3.9c-2.3-16.6-4.5-33.3-6.8-49.9
		c-0.7-5-2.6-1.5-3.3,1c-1,3.4-1.1,7.3-1.5,10.7c-1,7.2-13.3-10.7-13.7-3.5c-0.4,7,2.4,28.3,4,34.5
		C229.9,973.5,237.2,978.8,236.6,980.9z"/>
	<path class="st28" d="M224.4,865.2c-5,6.8-6.6,15.5-7,24c-1.2,25.7,8,52.1,26.5,70c3.7,3.6,7.8,6.8,12.4,9.2
		c13.5,6.7,31,4.1,41.9-6.4c10.8-10.4,14.2-27.9,8-41.6c-4.8-10.7-14.5-18.4-20.5-28.5c-4.9-8.2-7.4-17.8-13.3-25.3
		C260.9,852.3,236.1,849.2,224.4,865.2z"/>
	<path class="st17" d="M244.2,959.5c3.6,3.5,7.6,6.6,12.1,8.9c13.5,6.7,31,4.1,41.9-6.4c10.7-10.3,14.1-27.5,8.2-41.1
		c-6.7-4.1-15.4-3.8-23.3-2.4c-12.3,2.1-24.7,6.8-32.7,16.4C244.9,941.5,243,950.8,244.2,959.5z"/>
	<path class="st19" d="M114.2,1049.9c1.2-8.4,2.2-17,1.6-25.5c-0.6-8.5-2.9-17-7.7-24.1c-1.8-2.7-4.3-5.2-7.5-5.6
		c-0.2,10.8-3,21.5-8.1,30.9c-1.8,3.3-3.9,6.6-4.3,10.3c-0.6,5.3,2.4,10.5,6.4,14c3.3,2.9,7.4,5,11.7,5.9c1.6,0.4,4.4,1.2,5.8,0.2
		C113.7,1055,113.9,1051.6,114.2,1049.9z"/>
	<path class="st28" d="M44.6,1017.9c5.1,18.4,12.9,36,18.4,54.4c4.8,16.2,7.8,32.9,8.8,49.7c5.6,0.5,11.1,1,16.7,1.4
		c-1.8-15.6-0.6-31.6,3.4-46.8c6.4-24.4,20.2-48.2,16.2-73c-3.7-22.9-18.8-44.6-41.8-47C35.1,953.5,39.5,999.3,44.6,1017.9z"/>
	<path class="st19" d="M177.4,1045.2c1-1.8,1.8-3.8,2.6-5.8c1.3-3.2,2.5-6.4,3.8-9.5c4.6,4.7,6.5,11.5,6.4,18
		c-0.1,3.9-1,8.2-4.2,10.4c-1.4,0.9-3,1.4-4.6,1.5c-3.2,0.3-9-1-10.4-4.5c-0.7-1.7,0.2-2.8,1.3-4
		C174.3,1049.4,176.1,1047.6,177.4,1045.2z"/>
	<path class="st28" d="M216.9,1064.8c-6,19.2-11.9,38.4-17.9,57.7c-6.9,0.3-13.9,0.5-20.8,0.8c9.5-28.9,11.9-60.2,6.9-90.2
		c-0.6-3.7-1.3-7.4-0.4-11c0.9-3.5,3.2-6.4,5.5-9.1c7-8.2,34.2-33.1,41.4-13c3.2,8.9-2.2,21.6-4.5,30.2
		C224.1,1041.8,220.5,1053.3,216.9,1064.8z"/>
	<path class="st19" d="M40.8,956.2c-10.2,10.9-16.4,25.4-17.1,40.3c-0.5,11,2,22.4,9,30.8c7,8.3,18,12.9,28.9,13.1
		c10.9,0.2,21.6-3.7,30.6-9.8c-0.3-1-0.6-2.1-0.9-3.1c-12.2,6.3-27,7.4-39.9,3c-4.4-1.5-8.8-3.7-11.9-7.3c-3.1-3.6-4.6-8.2-5.7-12.8
		c-2.5-10.9-2.6-22.6,1.5-33c1.1-2.9,4-7.8,8.2-10.4c0,0,2.2-10.8,5.9-18.1C49.4,948.9,42.6,954.3,40.8,956.2z"/>
	<path class="st19" d="M198.5,918c4.4,1.2,9.2,0.9,13.6-0.5c4.4-1.4,8.3-4,11.7-7.1c2.5-2.3,4.8-5,5.9-8.2c0.5-1.5,0.7-3.4-0.3-4.7
		c-0.9-1.2-2.6-1.6-4.2-1.6c-2.8,0-5.5,1-8,2.2c-4.5,2.2-9.2,5.1-12.5,8.9c-1.2,1.4-1.3,2.8-2,4.5
		C201.8,913.9,200.2,916.1,198.5,918z"/>
	<path class="st19" d="M224.6,888.9c0.4,0.4,0.9,0.8,1.4,0.9c0.6-1.9,1.1-3.9,0.8-5.8c-0.3-2-1.8-3.9-3.8-4c-1-0.1-2,0.3-2.8,1
		c-0.7,0.6-1.4,1.3-1.6,2.2C217.6,886.3,222.7,887.3,224.6,888.9z"/>
	<path class="st18" d="M193.9,872.8c-6.4-7.3-8.9-17.9-6.3-27.3c0.3-1.2,1.4-2.8,2.5-2.2c0.8,0.4,0.9,1.4,1,2.3
		c0.5,6.9,5.6,12.9,11.9,15.8c6.3,2.9,13.6,2.9,20.3,1.3c1.7-0.4,3.7-0.9,5.2,0c0.8,0.5,1.3,1.2,1.8,2c2.1,3.9,2,8.9-0.4,12.7
		C222,889.7,201.2,881.3,193.9,872.8z"/>
	<path class="st28" d="M190.8,890.4c-5.6,4.2-10.1,10.3-16.6,13c3.5,2.3,7.4,3.7,11.3,5.1c5,1.7,10,3.3,15.2,4
		c5.2,0.7,10.6,0.6,15.6-1c4-1.3,7.8-3.5,10.8-6.5c1.2-1.1,2.2-2.4,2.9-3.8c1.8-3.6,1.1-8.2-1.3-11.4c-3.1-4.1-8.7-5.4-13.6-5.9
		c-5.5-0.6-11.2,0.2-16.3,2.2C196,887,193.2,888.5,190.8,890.4z"/>
	<path class="st17" d="M223,894.8c0.1-0.6,0.5-1.2,0.6-1.8c0.2-1.4-1.3-2.3-2.6-2.7c-2.5-0.6-5.1-0.3-7.7,0.2
		c-9.1,1.8-17.9,5.1-25.9,9.8c2,1.6,4.4,2.8,6.8,3.6c3.7,1.2,7.5,1.4,11.4,1.4c6.7-0.1,13.6-0.9,19.3-4.5c0.8-0.5,1.5-1,1.9-1.8
		c0.4-0.8,0.1-2-0.7-2.3C225.1,896.3,222.7,896.7,223,894.8z"/>
	<path class="st9" d="M154.6,987.7c3.6-7,3.6-15.8-0.1-22.8c-1.9-3.7-4.7-6.8-6.8-10.4c-2-3.6-3.2-8.1-1.5-11.9
		c1.8-4,6.4-6.4,7.6-10.6c0.2-0.7,0.3-1.4,0.3-2.2c-21.2-0.1-42.3-2.3-63.5-1.4c-0.9,0-1.7,0.1-2.6,0.1c-3.8,2.8-7.9,5-11.5,8.2
		c-4,3.6-7,8.7-7,14.1c0,5.4,3.7,10.9,9,11.9c4.2,0.8,8.3-1.2,12.1-2.9c4-1.8,8.3-3.5,12.7-3.6c4.4-0.1,9.1,1.7,11.4,5.5
		c4.4,7.2-1.6,16.4-0.6,24.7c1.2,9.7,12.3,15.9,21.9,14.5C143.8,999.9,151,994.8,154.6,987.7z"/>
	<path class="st9" d="M181.8,964.2c-3.4,5.7,0.9,13.2-1.1,19.6c-1.5,4.8-6.2,7.8-9.8,11.4c-3.6,3.6-6.3,9.5-3.1,13.5
		c1.7,2.1,4.6,2.8,7.2,2.9c4.3,0.2,8.6-0.9,12.9-1.2c4.3-0.3,9,0.5,12,3.6c2.2,2.4,3.2,5.8,6,7.6c2.8,1.7,6.6,1,9.1-1.1
		c2.5-2.1,3.9-5.3,4.8-8.5c3-11.4-0.4-23.5-3.7-34.8c-0.7-2.3-1.5-4.8-3.4-6.3c-2.1-1.6-5-1.6-7.6-2.1
		C198,967.4,188.3,953.3,181.8,964.2z"/>
	<path class="st9" d="M83.2,1020.6c4.4-2.2,8.7-5,11-9.3c0.4,2.6,1.3,5.2,1.8,7.8c1.2,5.7,0.8,11.8-1.9,17
		c-2.7,5.2-7.8,9.2-13.6,9.7c-5.9,0.5-14.9-3.9-14.5-10.8C66.6,1027.2,77.4,1023.6,83.2,1020.6z"/>
	<path class="st16" d="M96,1019.2c-0.5-2.6-1.4-5.2-1.8-7.8c-0.2,0.3-0.4,0.7-0.6,1c0,0,0,0.1,0,0.1c1.2,5.7,0.8,11.8-1.9,17
		c-2.7,5.2-7.8,9.2-13.6,9.7c-3.9,0.4-9-1.4-12.1-4.6c0,0.2,0,0.4-0.1,0.6c-0.4,6.9,8.6,11.3,14.5,10.8c5.8-0.5,10.9-4.6,13.6-9.7
		C96.8,1031,97.2,1024.8,96,1019.2z"/>
	<g>
		<path class="st19" d="M239,899.2c-1.5-1.9-2.4-4.3-2.1-6.7c0.2-2.4,1.7-4.7,4-5.6c1.4-0.6,3.1-0.6,4.6-0.2c4.3,1,8,4.7,8.8,9.1
			c0.2,1.2,0.3,2.4-0.1,3.6C251.9,907,242.5,903.6,239,899.2z"/>
		<path class="st20" d="M254.8,900.9c-1,3-4.2,4.5-7.2,3.5c-3-1-4.5-4.2-3.5-7.2c1-3,4.2-4.5,7.2-3.5
			C254.2,894.7,255.8,897.9,254.8,900.9z"/>
		<path class="st2" d="M249.2,899.5c-0.8,0.8-2.1,0.7-2.9-0.1s-0.7-2.1,0.1-2.9c0.8-0.8,2.1-0.7,2.9,0.1
			C250.1,897.4,250,898.7,249.2,899.5z"/>
	</g>
	<g>
		<path class="st19" d="M271.2,893.2c-1.1-1.9-1.6-4.4-1.4-6.7c0.3-2.4,1.5-4.6,3.2-5.5c1.1-0.5,2.4-0.5,3.5-0.1
			c3.3,1.1,5.9,4.9,6.3,9.3c0.1,1.2,0.1,2.4-0.2,3.6C280.7,901.4,273.7,897.7,271.2,893.2z"/>
		<path class="st20" d="M283.1,895.4c-0.9,2.9-3.4,4.4-5.6,3.3c-2.2-1.1-3.3-4.4-2.4-7.3c0.9-2.9,3.4-4.4,5.6-3.3
			S283.9,892.4,283.1,895.4z"/>
		<path class="st2" d="M278.9,893.8c-0.6,0.7-1.6,0.7-2.2-0.2c-0.6-0.8-0.5-2.1,0.2-2.9c0.6-0.7,1.6-0.7,2.2,0.2
			C279.6,891.8,279.6,893,278.9,893.8z"/>
	</g>
	<path class="st20" d="M273.8,932.9c-0.3-0.2-0.7-0.2-1.1-0.1c-0.5,0.6-0.2,1.6,0.3,2.2c0.5,0.7,1.1,1.3,1.3,2.1
		c0.1,0.6-0.2,1.3-0.2,1.9c0,0.6,0.4,1.4,1,1.4c0.5,0,0.9-0.6,1.1-1.1c0.6-1.3,1-2.9,0.6-4.3c-0.4-1.4-1.9-2.6-3.3-2.2L273.8,932.9z
		"/>
	<path class="st20" d="M296.3,929.1c-0.3-0.2-0.7-0.2-1.1-0.1c-0.5,0.6-0.2,1.6,0.3,2.2c0.5,0.7,1.1,1.3,1.3,2.1
		c0.1,0.6-0.2,1.3-0.2,1.9c0,0.6,0.4,1.4,1,1.4c0.5,0,0.9-0.6,1.1-1.1c0.6-1.3,1-2.9,0.6-4.3c-0.4-1.4-1.9-2.6-3.3-2.2L296.3,929.1z
		"/>
	<path class="st18" d="M276.3,954.9c0,0,6.3,5.4,11.3,4.3c5-1.2,8.7-7.9,8.7-7.9s-3.4,9.3-8.3,10.2
		C279.9,963.1,276.3,954.9,276.3,954.9z"/>
	<path class="st21" d="M62.1,955.1c-6,7.7-8.6,18-6.5,27.5c1.1,5,4.4,10.3,9.5,10.8c4.4,0.4,8.3-2.9,10.2-6.9
		c1.9-4,2.1-8.5,2.7-12.8c0.6-4.3,1.6-8.9,4.6-12.1c2.6-2.8,6.3-4.1,9.5-6.2c9.1-5.7,5.4-17.8-5.4-15.6
		C77.6,941.9,67.9,947.7,62.1,955.1z"/>
	<path class="st28" d="M231.8,848.5c3.6-0.2,7.3,1.2,10,3.6c1.3-5,4.2-9.6,8.1-12.9c-1,3.8-0.8,8,0.6,11.7c2.6-2.8,6.3-4.5,10.1-4.9
		c-2.8,1.4-4.5,4.7-4,7.8c0.2,1.6,1,3.2,0.6,4.8c-0.3,1.3-1.5,2.3-2.7,2.8c-1.2,0.5-2.6,0.6-4,0.7c-3.7,0.2-10.9,1.1-13.1-2.8
		c-0.8-1.5-0.4-3.6-0.9-5.2C235.8,851.6,233.9,850,231.8,848.5z"/>
	<path class="st21" d="M271.7,857.9c-0.9,0.2-1.9,0.7-1.9,1.6c0,0.6,0.6,1,1.1,1.2c2.9,1.3,6.2,0.1,9-1.3c2-1,4-2.3,5.6-3.9
		c1.6-1.6,2.9-3.7,3.2-5.9c0.1-0.5,0.1-1.1-0.3-1.4c-0.3-0.3-0.6-0.3-1-0.3c-2.4,0.2-4.2,4-6.1,5.4
		C278.6,855.4,275.1,857,271.7,857.9z"/>
	<path class="st21" d="M291.1,839.1c-1,1.3-1.6,3-1.7,4.7c0,0.5,0,1,0.3,1.3c0.4,0.5,1.3,0.5,1.9,0c0.5-0.4,0.8-1.1,0.9-1.8
		c0.3-1.4,0.3-3-0.1-4.4c-0.3,0-0.7,0-1,0L291.1,839.1z"/>
	<path class="st21" d="M189.9,860c1.5,3,3.1,6,4.7,8.9c0.5,0.9,1,1.8,1.8,2.4c0.8,0.6,2,0.8,2.9,0.2c1.3-0.9,0.8-3-0.3-4.1
		c-1.1-1.1-2.7-1.6-3.9-2.7c-2.1-1.8-2.4-4.5-3.8-6.8C189.2,854.5,188.6,857.4,189.9,860z"/>
	<path class="st21" d="M202.7,872c-1,0.7-0.9,2.4-0.1,3.3c0.8,0.9,2.1,1.3,3.3,1.7c1.1,0.3,2.3,0.6,3.2-0.1c1-0.7,1-2.2,0.3-3.2
		c-0.7-0.9-1.9-1.4-3.1-1.5c-1.2-0.1-2.4,0-3.6,0L202.7,872z"/>
	<path class="st20" d="M181.7,1111.5l-5.1,12.8c0,0,4.5,2.4,13.6,2.1c9.1-0.3,12.4-1.6,12.4-1.6l0.2-14.6c0,0-3.7,2.3-9.6,2.5
		C187.4,1112.8,181.7,1111.5,181.7,1111.5z"/>
	<path class="st20" d="M71.3,1114.5l-4,12.8c0,0,3.6,2.4,10.8,2.1c7.2-0.3,9.9-1.6,9.9-1.6l0.2-14.6c0,0-3,2.3-7.6,2.5
		C75.8,1115.8,71.3,1114.5,71.3,1114.5z"/>
	<path class="st20" d="M228.7,1080.4l-3.8,12.8c0,0,3.4,2.4,10.3,2.1c6.9-0.3,9.4-1.6,9.4-1.6l0.2-14.6c0,0-2.8,2.3-7.3,2.5
		C232.9,1081.7,228.7,1080.4,228.7,1080.4z"/>
	<path class="st27" d="M91.8,1091.2c-0.3,2.3,0,5,2,6.1c1.7,1,3.9,0.2,5.5-1.1c2.8-2.2,4.4-5.5,5.7-8.9c0.9-2.5,1.7-5.9-0.8-7.8
		c-1.5-1.1-4-1.7-5.8-1.1C94.1,1080,92.4,1087.4,91.8,1091.2z"/>
	<path class="st27" d="M115.5,1096.5c0.7,1.3,1.7,2.8,3.2,2.8c0.6,0,1.2-0.2,1.7-0.5c1.3-0.7,2.2-2.1,2.6-3.5c0.4-1.4,0.5-3,0.5-4.4
		c0-2.6-0.3-5.1-0.8-7.7c-0.2-0.9-0.4-1.8-0.9-2.5c-0.4-0.6-1.1-1.1-1.7-1.4c-1.6-0.8-3.6-1-5.4-0.3c-1.3,0.5-2.7,1.8-3.1,3.2
		c-0.4,1.3,0.5,2,0.7,3.3C113.3,1089.3,113.6,1092.8,115.5,1096.5z"/>
	<path class="st27" d="M132.2,1085.5c0.7,1.3,1.6,2.5,2.7,3.4c1.1,0.9,2.7,1.4,4.1,1c2.4-0.7,3.4-3.7,2.9-6.1
		c-0.5-2.4-2-4.5-3.2-6.7c-0.9-1.6-1.6-3.3-2.7-4.8c-1-1.5-2.5-2.9-4.2-3.4c-1.5-0.4-3.4-0.1-4.5,1c-1.4,1.5-0.8,2.5-0.1,4
		C129.2,1077.6,130.1,1081.8,132.2,1085.5z"/>
	<path class="st21" d="M189.8,893.9c-0.2,0.4-0.5,0.9-0.1,1.2c0.1,0.1,0.2,0.1,0.4,0.2c1.4,0.2,2.6-1,3.7-2c3.3-3,8-3.6,12.2-5
		c0.5-0.1,1-0.5,0.8-1c-0.1-0.2-0.3-0.3-0.5-0.3c-2.8-0.9-6.3,0.3-9.1,1.3C194.2,889.3,191.6,891.2,189.8,893.9z"/>
	<path class="st20" d="M116.4,1112.5l-4.2,12.8c0,0,3.7,2.4,11.3,2.1c7.5-0.3,10.3-1.6,10.3-1.6l0.2-14.6c0,0-3.1,2.3-8,2.5
		C121,1113.7,116.4,1112.5,116.4,1112.5z"/>
</g>
</svg>
