<?xml version="1.0" encoding="utf-8"?>
<!-- Generator: Adobe Illustrator 23.0.0, SVG Export Plug-In . SVG Version: 6.00 Build 0)  -->
<svg version="1.1" id="Capa_1" xmlns="http://www.w3.org/2000/svg" xmlns:xlink="http://www.w3.org/1999/xlink" x="0px" y="0px"
	 viewBox="0 0 1920 1024" style="enable-background:new 0 0 1920 1024;" xml:space="preserve">
<style type="text/css">
	.st0{fill:none;}
	.st1{fill:url(#SVGID_1_);}
	.st2{fill:#FFFFFF;}
	.st3{fill:url(#SVGID_2_);}
	.st4{fill:url(#SVGID_3_);}
	.st5{fill:url(#SVGID_4_);}
	.st6{fill:url(#SVGID_5_);}
	.st7{fill:url(#SVGID_6_);}
	.st8{fill:#C17A49;}
	.st9{fill:url(#SVGID_7_);}
	.st10{fill:url(#SVGID_8_);}
	.st11{fill:#DDCFB8;}
	.st12{fill:#EAC3B0;}
	.st13{fill:#EDBA94;}
	.st14{fill:#68504B;}
	.st15{fill:#F7E8CB;}
	.st16{fill:#EADBC3;}
	.st17{fill:#AA6D43;}
	.st18{fill:#231F20;}
	.st19{opacity:0.3;fill:#FFFFFF;}
	.st20{fill:url(#SVGID_9_);}
	.st21{fill:#F49F42;}
	.st22{fill:#E08F3F;}
	.st23{fill:#493836;}
	.st24{fill:#96603C;}
	.st25{fill:#E29040;}
	.st26{fill:#F2BB40;}
	.st27{opacity:0.2;fill:#FFFFFF;}
	.st28{opacity:0.39;fill:#FFFFFF;}
</style>
<rect x="268.3" y="704.6" class="st0" width="498.5" height="187.9"/>
<linearGradient id="SVGID_1_" gradientUnits="userSpaceOnUse" x1="-27" y1="469.7265" x2="1952" y2="469.7265">
	<stop  offset="0" style="stop-color:#FFFFFF"/>
	<stop  offset="5.586614e-04" style="stop-color:#33B1E7"/>
	<stop  offset="0.8318" style="stop-color:#519DFD"/>
</linearGradient>
<rect x="-27" y="-116.3" class="st1" width="1979" height="1172"/>
<g>
	
		<image style="overflow:visible;opacity:3.000000e-02;" width="1406" height="271" xlink:href="8443D522.png"  transform="matrix(1 0 0 1 117.058 -19.942)">
	</image>
	<g>
		<g>
			<circle class="st2" cx="261.4" cy="199.1" r="24.7"/>
			<path class="st2" d="M306.8,82.8l-91.6-2.4v0c-11.5-0.2-20.7-9.6-20.7-21.1s9.2-20.9,20.7-21.1v0H1505v-60.5H123.7v37.4v23.1
				v42.2v7.2v18.3v25.5v90l51.7,0.8c1.9,0.5,5.1,0,7.2,0c12.8,0,23.1-10.3,23.1-23.1c0-12.8-10.3-24.7-23.1-24.7
				c-1.6,0-3.2-0.3-4.8,0c-10.3-0.8-6.6-0.8-10.3-0.8c-11.7,0-21.1-9.4-21.1-21.1c0-11.7,9.4-21.1,21.1-21.1c3.8,0,0,0,10.3,0
				l129-2.4c12.8,0,23.1-10.3,23.1-23.1S319.6,82.8,306.8,82.8z"/>
		</g>
	</g>
</g>
<g>
	<g>
		<linearGradient id="SVGID_2_" gradientUnits="userSpaceOnUse" x1="1193.1184" y1="879.5129" x2="1260.2654" y2="879.5129">
			<stop  offset="0" style="stop-color:#FFFFFF"/>
			<stop  offset="5.592048e-04" style="stop-color:#8EE048"/>
		</linearGradient>
		<path class="st3" d="M1207.6,893.9h38.3c7.9,0,14.4-6.5,14.4-14.4l0,0c0-7.9-6.5-14.4-14.4-14.4h-38.3c-7.9,0-14.4,6.5-14.4,14.4
			l0,0C1193.1,887.5,1199.6,893.9,1207.6,893.9z"/>
		<linearGradient id="SVGID_3_" gradientUnits="userSpaceOnUse" x1="524" y1="892.9423" x2="1689" y2="892.9423">
			<stop  offset="0" style="stop-color:#FFFFFF"/>
			<stop  offset="5.592048e-04" style="stop-color:#8EE048"/>
		</linearGradient>
		<path class="st4" d="M1593,839.6h-9.4h-19.5h-122.9c-11.8,0-21.5,9.7-21.5,21.5l0,0c0,11.8,9.7,21.5,21.5,21.5h20.5h0.3v0
			c9.6,0.2,17.5,8.1,17.5,17.8s-7.8,17.6-17.5,17.8v0h-0.3h-22.2H524v28.2h938H1593h96V839.6H1593z"/>
	</g>
</g>
<path class="st2" d="M1386.8,629.4h77.8c16.1,0,29.3-13.2,29.3-29.3l0,0c0-16.1-13.2-29.3-29.3-29.3h-77.8
	c-16.1,0-29.3,13.2-29.3,29.3l0,0C1357.5,616.2,1370.7,629.4,1386.8,629.4z"/>
<path class="st2" d="M165.8,472H240c15.4,0,28-12.6,28-28l0,0c0-15.4-12.6-28-28-28h-74.2c-15.4,0-28,12.6-28,28l0,0
	C137.8,459.4,150.4,472,165.8,472z"/>
<path class="st2" d="M1834.1,433c-1.6-0.2-3.2-0.4-4.9-0.4l0.1-0.2h4.8V219.9h-139.2c-39,0-71,31.9-71,71c0,39,31.9,71,71,71h70.1
	l0.2,0.2l2.1,0.1c18.7,0.8,33.8,16.3,33.8,35.1c0,12.9-7.1,24.3-17.6,30.4l-17.6,4.8c0,0,0,0,0,0h0l-0.7,0.2h-24
	c-18.3,0-33.2,15-33.2,33.2c0,18.3,15,33.2,33.2,33.2h88.1c1.7,0,3.3-0.1,4.9-0.4V433z"/>
<path class="st2" d="M331.1,767.8c-1.8,0.3-3.6,0.5-5.5,0.5h-71.3c-13.8,0-25.1-9.6-25.1-21.4l0,0c0-11.7,11.3-21.4,25.1-21.4
	c0,0,2.4,0.5,17.5,0c0,0,0-0.1,0-0.1c16.9-4.6,29.1-18.1,29.1-33.9c0-19.6-18.9-35.6-41.9-35.6h-44.7H148h-44.7
	c-23,0-41.9,16-41.9,35.6c0,17.5,15,32.1,34.6,35.1h40c13.8,0,25.1,9.3,25.1,20.7v0c0,11.2-10.9,20.4-24.3,20.7v0.2h-17.7
	c-23,0-41.9,16-41.9,35.6c0,19.6,18.9,35.6,41.9,35.6h56.8h5.6h15.8c6.1,0,11.2,4.1,11.2,9.2s-5,9.2-11.2,9.2c0,0-14.9-0.8-19.8,0
	c-10.4,1.6-17.2,11.3-17.2,20.7c0,12.3,12.1,22.3,27,22.3h71.6c14.8,0,27-10,27-22.3c0-10.3-8.3-20.2-20-21.5c-1.3-0.1-5.2,0-5.2,0
	c-6.1,0-11.2-4.1-11.2-9.2c0-5.1,5-9.2,11.2-9.2h1.9v0h63.6c23,0,41.9-16,41.9-35.6C368,785,351.8,769.9,331.1,767.8z"/>
<g>
	<g>
		
			<image style="overflow:visible;opacity:4.000000e-02;" width="174" height="234" xlink:href="8443D521.png"  transform="matrix(1 0 0 1 716.9576 56.9576)">
		</image>
		<g>
			<linearGradient id="SVGID_4_" gradientUnits="userSpaceOnUse" x1="722.0926" y1="163.7952" x2="878.8669" y2="163.7952">
				<stop  offset="0" style="stop-color:#C17A49"/>
				<stop  offset="0.9877" style="stop-color:#96603C"/>
			</linearGradient>
			<path class="st5" d="M878.3,195.6c-4.1-32.4-30.6-56.5-61.9-58.9l0-0.1c-5.3-0.4-9.9-4.4-10.6-10c-0.4-3,0.4-5.8,2-8
				c3.2-7.2,4.5-15.4,3.5-23.7c-3.1-24.5-25.6-41.9-50.1-38.7c-24.5,3.1-41.9,25.6-38.7,50.1c0.3,2.1,0.7,4.1,1.2,6.1l21.1,105.4
				l0.2,0c7,34.4,39.4,58.2,74.9,53.6C856.8,266.6,883,232.7,878.3,195.6z M807.4,232.9c-13.4,0-24.2-10.8-24.2-24.2
				c0-13.4,10.8-24.2,24.2-24.2s24.2,10.8,24.2,24.2C831.6,222,820.7,232.9,807.4,232.9z"/>
		</g>
	</g>
	<g>
		
			<image style="overflow:visible;opacity:4.000000e-02;" width="128" height="135" xlink:href="8443D520.png"  transform="matrix(1 0 0 1 902.9576 117.9576)">
		</image>
		<g>
			<linearGradient id="SVGID_5_" gradientUnits="userSpaceOnUse" x1="907.3258" y1="175.4586" x2="1018.2945" y2="175.4586">
				<stop  offset="0" style="stop-color:#C17A49"/>
				<stop  offset="0.9877" style="stop-color:#96603C"/>
			</linearGradient>
			<path class="st6" d="M1018.1,132.1c-1.4-8.9-9-15.6-18.3-15.6s-16.9,6.8-18.3,15.6h-0.2v10.7v8.5v19.9v10.7h-0.2
				c-1.2,9-9,16-18.3,16c-9.4,0-17.1-7-18.3-16h-0.2v-10.7v-19.9v-8.5v-10.7h-0.2c-1.4-8.9-9-15.6-18.3-15.6s-16.9,6.8-18.3,15.6
				h-0.2v19.2v19.9v7.8c0,30.6,24.8,55.5,55.5,55.5c30.6,0,55.5-24.8,55.5-55.5v-7.8v-19.9v-19.2H1018.1z"/>
		</g>
	</g>
	<g>
		<g>
			
				<image style="overflow:visible;opacity:4.000000e-02;" width="94" height="94" xlink:href="8443D55D.png"  transform="matrix(1 0 0 1 1115.9576 138.9576)">
			</image>
			<g>
				<linearGradient id="SVGID_6_" gradientUnits="userSpaceOnUse" x1="1120.3716" y1="175.5894" x2="1197.9073" y2="175.5894">
					<stop  offset="0" style="stop-color:#F7E8CB"/>
					<stop  offset="0.9877" style="stop-color:#DDCFB8"/>
				</linearGradient>
				<circle class="st7" cx="1159.1" cy="175.6" r="38.8"/>
			</g>
		</g>
		<g>
			
				<image style="overflow:visible;opacity:4.000000e-02;" width="44" height="61" xlink:href="8443D55E.png"  transform="matrix(1 0 0 1 1165.9576 163.9576)">
			</image>
			<g>
				<path class="st8" d="M1175.7,182.7c0.4,4.2-2.3,7.9-4,11.8c-1.7,3.8-1.8,9.3,1.8,11.3c2,1.1,4.4,0.7,6.5,0
					c2.4-0.9,4.7-2.3,6.9-3.6c10.4-10.8,13.2-26.2,8.6-39.5c-2-0.3-4,0.5-6,0.9c-5.8,1.1-17.6-6.6-19.2,3.8
					C1169.6,172.8,1175.3,177.2,1175.7,182.7z"/>
			</g>
		</g>
	</g>
	<g>
		<g>
			
				<image style="overflow:visible;opacity:4.000000e-02;" width="136" height="210" xlink:href="8443D55F.png"  transform="matrix(1 0 0 1 1041.9576 80.9576)">
			</image>
			<g>
				<linearGradient id="SVGID_7_" gradientUnits="userSpaceOnUse" x1="1047.1038" y1="175.8143" x2="1165.8635" y2="175.8143">
					<stop  offset="0" style="stop-color:#F7E8CB"/>
					<stop  offset="0.9877" style="stop-color:#DDCFB8"/>
				</linearGradient>
				<path class="st9" d="M1148.8,237.2L1148.8,237.2c-32.4-1.7-58.2-28.5-58.2-61.4s25.8-59.7,58.2-61.3v-0.1
					c9.4-0.2,17-7.8,17-17.3c0-9.6-7.8-17.3-17.3-17.3c-0.6,0-1.1,0-1.7,0.1c-1.2,0-2.5-0.1-3.7-0.1c-53,0-96,43-96,96s43,96,96,96
					c1.2,0,2.5,0,3.7-0.1c0.6,0.1,1.1,0.1,1.7,0.1c9.6,0,17.3-7.8,17.3-17.3C1165.9,245,1158.3,237.3,1148.8,237.2z"/>
			</g>
		</g>
		<path class="st8" d="M1079.4,218.5c2,1,4.3,0.6,6.5,0.6c5.9,0.1,15.9,10,19.6,0.2c0.3-0.9,0.5-1.9,0.5-2.9
			c-8-9.1-13.4-20.6-14.9-33.3c-2.8,0.3-5.6,0-7.8-1.6c-2.2-1.6-3.5-4.3-6-5.3c-2.5-1-5.5,0.2-7.3,2.3c-1.7,2.1-2.4,4.9-2.6,7.6
			c-0.7,9.8,3.9,19,8.3,27.8C1076.5,215.7,1077.6,217.6,1079.4,218.5z"/>
		<g>
			
				<image style="overflow:visible;opacity:4.000000e-02;" width="71" height="52" xlink:href="8443D563.png"  transform="matrix(1 0 0 1 1106.9576 238.9576)">
			</image>
			<g>
				<path class="st8" d="M1165.9,254.5c0-8.8-6.6-16.1-15.1-17.2c-0.5,3.2-2.2,6.3-5.1,7.7c-6.2,3.2-13.4-2.4-20.3-2
					c-8.1,0.4-13.9,9.1-13.3,17.2c0.2,2.4,0.8,4.8,1.8,7c9.3,3,19.1,4.6,29.4,4.6c1.2,0,2.5,0,3.7-0.1c0.6,0.1,1.1,0.1,1.7,0.1
					C1158.1,271.8,1165.9,264.1,1165.9,254.5z"/>
			</g>
		</g>
		<g>
			
				<image style="overflow:visible;opacity:4.000000e-02;" width="89" height="72" xlink:href="8443D565.png"  transform="matrix(1 0 0 1 1046.9576 94.9576)">
			</image>
			<g>
				<path class="st8" d="M1084.9,127.5c6.6,2.1,7.8,11.1,12.9,15.8c0.4,0.4,0.9,0.8,1.4,1.1c5.9-9.8,14.3-17.8,24.5-23.1
					c-1.8-6-6.4-11.1-12.2-13.4c-3.2-1.3-6.6-1.7-9.9-2.9c-3.2-1.2-6.4-3.4-7.3-6.7c-0.5-1.6-0.4-3.4-0.3-5.1
					c-19.8,11.8-35.1,30.5-42.3,52.9c3,2.6,7.5,3.5,11,1.6c3-1.7,4.6-5.2,6-8.4c1.5-3.3,3.3-6.7,6-9.1
					C1077.5,127.8,1081.4,126.3,1084.9,127.5z"/>
			</g>
		</g>
	</g>
</g>
<linearGradient id="SVGID_8_" gradientUnits="userSpaceOnUse" x1="0" y1="1029.5" x2="1952" y2="1029.5">
	<stop  offset="0" style="stop-color:#FFFFFF"/>
	<stop  offset="5.592048e-04" style="stop-color:#8EE048"/>
</linearGradient>
<rect y="918" class="st10" width="1952" height="223"/>
<rect x="1815.6" y="220.1" class="st2" width="882.4" height="279"/>
<rect x="-27" y="-120" class="st2" width="1679" height="130"/>
<rect x="-87" y="-2.4" class="st2" width="224.5" height="224.4"/>
<g>
	<path class="st11" d="M246.3,800.3c6.2,22.5,15.8,44,22.4,66.4c5.9,19.7,9.5,40.2,10.7,60.7c6.8,0.6,13.6,1.2,20.4,1.7
		c-2.2-19.1-0.8-38.5,4.1-57.1c7.8-29.7,24.6-58.8,19.8-89.2c-4.5-27.9-29.5-51.3-57.6-54.1C228.1,724.9,240.1,777.6,246.3,800.3z"
		/>
	<path class="st12" d="M264,884.8c6.5,1.3,18.4-1.8,22-3.2c4.9-1.8,8.8-5.6,11.8-9.9c4.1-5.8,7-12.7,7.2-19.8
		c0.2-7.1-2.6-14.5-8.1-19c-4.7-3.9-11-5.4-17-6c-9.4-0.9-19.2,0.4-27.8,4.2c-6.7,3-18,9.6-17.4,17.8
		C236,866.6,248.7,881.8,264,884.8z"/>
	<path class="st11" d="M492.1,624.1c8.3,0.8,16.3,3.8,23.6,7.7c0.5,0.3,1,0.6,1.2,1.1c0.2,0.6-0.1,1.3-0.5,1.9
		c-5,8.2-13.7,13.3-22.8,16.5c-6.5,2.3-13.8,3.6-20.2,1.1c-6.5-2.4-11.4-9.7-9.3-16.3C467.8,625.1,482.1,623.2,492.1,624.1z"/>
	<path class="st13" d="M506,633.1c-6.8,5.3-14.3,9.7-22.4,12.6c-2.8,1-6.3,1.7-8.6-0.2c-1.2-1.1-1.8-2.7-2.3-4.2
		c-0.7-2.5-2.4-8.1,0-9.6c2.7-1.7,7.8-2,11-2.2C491.4,628.9,499.1,630.1,506,633.1z"/>
	<path class="st14" d="M496.9,602c3.7-11.3,1.3-24.4-6-33.7c-1-1.2-2.9-2.5-3.9-1.3c-0.7,0.8-0.3,2,0,3c2.7,8,0,17.2-5.7,23.4
		c-5.7,6.2-13.9,9.8-22.2,11.2c-2.1,0.4-4.6,0.7-5.8,2.5c-0.7,0.9-0.9,2-1,3.1c-0.5,5.4,2.1,11,6.5,14
		C473.4,634.4,492.7,615,496.9,602z"/>
	<path class="st11" d="M429.7,823.6c5.6,7.5,8,18.8,8,28.1c0,5.6-5.8,37.8-7.1,38.9c-3.6,3.2-13-1.2-17.8-0.2
		c1.6-7,3.1-14.3,2.3-21.4c-0.8-7.2,0.3-18.9-9.2-23.3c-6.1-2.9-15.6,1.3-18.4-4.8c-1-2.1-1-4.5-1-6.8c0-10.6,1.7-29.7,14.5-31.6
		C411.7,800.9,424.1,816.2,429.7,823.6z"/>
	<path class="st15" d="M354.7,701.1c-1.7,1.3-3.5,2.7-3.5,4.6c0,1,0.5,2,1,3c11.4,20.1,27.5,38.5,47.3,54.1c0.5,0.4,1.1,0.9,1.9,0.9
		c0.9,0,1.6-0.5,2.2-1c30-26.1,46-60.7,51.4-95.6c1.1-7,1.8-14.1,0.2-21.1c-1.5-6.9-5.5-13.8-12.4-18.3c-11.8-7.7-35-11.7-40.4,2.7
		c-6.4,17.1-11.9,32.8-24.3,48.1C371.4,686.6,363.5,694.3,354.7,701.1z"/>
	<path class="st15" d="M246.3,691.1c-13.3,0.6-27.3,2.4-38.1,10.4c-15.9,11.9-20.2,33.8-21.2,53.6c-0.8,15.5-0.3,31.3,4.1,46.1
		c4.5,14.9,13.3,28.8,26.4,37.1c10.4,6.6,22.7,9.2,34.8,11.3c30.2,5.1,61.1,7.2,91.6,4.6c22.2-1.8,46.2-7.2,60.1-24.6
		c10.2-12.7,13.2-29.6,15.8-45.8c1.8-11.1,3.6-22.3,5.5-33.4c1.2-7.2,2.3-14.8-0.1-21.7c-3.2-8.9-11.5-14.7-19.1-20.3
		c-9.3-6.8-20.5-21.3-31.5-20.9c-14.2,0.5-28.4,4.7-42.8,5C303.3,693.3,274.8,689.9,246.3,691.1z"/>
	<path class="st16" d="M404.1,815.1c-14,17.4-37.9,22.7-60.1,24.6c-30.6,2.5-61.4,0.5-91.6-4.6c-12.1-2.1-24.4-4.7-34.8-11.3
		c-13.1-8.3-21.9-22.3-26.4-37.1c-2.7-8.9-3.9-18.2-4.3-27.5c-0.5,14.2,0.2,28.6,4.3,42.2c4.5,14.9,13.3,28.8,26.4,37.1
		c10.4,6.6,22.7,9.2,34.8,11.3c30.2,5.1,61.1,7.2,91.6,4.6c22.2-1.8,46.2-7.2,60.1-24.6c10.2-12.7,13.2-29.6,15.8-45.8
		C421.7,772.9,414.3,802.4,404.1,815.1z"/>
	<path class="st16" d="M424.6,755.1c1.9-6.7,6.7-23.7,8.9-26.5c1.2-1.5,1.3-2.9,1-4.8c-2.8-20.3-5.6-40.6-8.3-61
		c-0.8-6.1-3.1-1.8-4,1.2c-1.2,4.1-1.3,8.9-1.9,13.1c-1.2,8.7-16.2-13.1-16.8-4.3c-0.5,8.5,2.9,34.6,4.8,42.1
		C416.4,746.1,425.4,752.6,424.6,755.1z"/>
	<path class="st15" d="M409.8,613.9c-6.1,8.3-8,19-8.5,29.3c-1.5,31.3,9.8,63.6,32.3,85.4c4.5,4.4,9.5,8.4,15.1,11.2
		c16.4,8.2,37.9,5,51.1-7.8c13.2-12.7,17.3-34,9.7-50.8c-5.9-13-17.7-22.5-25.1-34.8c-6-10-9-21.7-16.3-30.9
		C454.3,598.1,424,594.3,409.8,613.9z"/>
	<path class="st13" d="M433.9,729c4.4,4.2,9.3,8.1,14.7,10.8c16.4,8.2,37.9,5,51.1-7.8c13.1-12.6,17.2-33.5,10-50.1
		c-8.2-5-18.8-4.6-28.4-3c-15,2.6-30.2,8.3-39.9,20C434.8,707.1,432.4,718.4,433.9,729z"/>
	<path class="st16" d="M275.2,839.3c1.5-10.3,2.7-20.7,2-31.1c-0.7-10.4-3.5-20.8-9.4-29.4c-2.2-3.2-5.2-6.4-9.1-6.8
		c-0.2,13.1-3.6,26.2-9.9,37.7c-2.2,4-4.8,8-5.3,12.6c-0.8,6.5,2.9,12.8,7.8,17.1c4.1,3.6,9,6.1,14.3,7.2c1.9,0.4,5.4,1.5,7.1,0.2
		C274.5,845.6,274.9,841.4,275.2,839.3z"/>
	<path class="st15" d="M190.3,800.3c6.2,22.5,15.8,44,22.4,66.4c5.9,19.7,9.5,40.2,10.7,60.7c6.8,0.6,13.6,1.2,20.4,1.7
		c-2.2-19.1-0.8-38.5,4.1-57.1c7.8-29.7,24.6-58.8,19.8-89.2c-4.5-27.9-22.9-54.5-51-57.3C178.6,721.7,184,777.6,190.3,800.3z"/>
	<path class="st16" d="M352.4,833.6c1.3-2.3,2.2-4.7,3.2-7.1c1.5-3.9,3.1-7.8,4.6-11.6c5.6,5.7,7.9,14.1,7.8,22
		c-0.1,4.7-1.2,10-5.1,12.7c-1.6,1.1-3.7,1.7-5.7,1.9c-3.9,0.3-11-1.2-12.7-5.4c-0.8-2.1,0.2-3.4,1.6-4.9
		C348.5,838.7,350.7,836.5,352.4,833.6z"/>
	<path class="st15" d="M400.6,857.5c-7.3,23.5-14.5,46.9-21.8,70.4c-8.5,0.3-16.9,0.7-25.4,1c11.6-35.3,14.5-73.5,8.4-110.2
		c-0.7-4.5-1.6-9.1-0.5-13.5c1.1-4.2,3.9-7.8,6.7-11.1c8.6-10,41.8-40.4,50.6-15.8c3.9,10.9-2.7,26.4-5.5,36.9
		C409.3,829.5,404.9,843.5,400.6,857.5z"/>
	<path class="st16" d="M185.6,724.9c-12.4,13.3-20,31-20.9,49.2c-0.7,13.4,2.4,27.4,11,37.6c8.6,10.2,22,15.7,35.2,15.9
		c13.3,0.2,26.4-4.5,37.4-12c-0.4-1.3-0.8-2.5-1.1-3.8c-14.9,7.7-32.9,9-48.8,3.7c-5.4-1.8-10.7-4.5-14.5-8.9
		c-3.8-4.4-5.6-10-6.9-15.6c-3.1-13.3-3.1-27.6,1.8-40.3c1.4-3.6,4.8-9.5,10-12.7c0,0,2.6-13.2,7.2-22.1
		C196,716,187.8,722.7,185.6,724.9z"/>
	<path class="st16" d="M378.1,678.3c5.4,1.5,11.3,1.1,16.6-0.7c5.3-1.8,10.2-4.8,14.3-8.6c3.1-2.8,5.9-6.1,7.2-10.1
		c0.6-1.9,0.8-4.1-0.4-5.7c-1.1-1.5-3.2-2-5.1-1.9c-3.4,0-6.7,1.2-9.7,2.7c-5.5,2.6-11.2,6.3-15.3,10.8c-1.5,1.7-1.6,3.4-2.4,5.4
		C382.1,673.3,380.1,676,378.1,678.3z"/>
	<path class="st16" d="M410,642.9c0.5,0.5,1.1,1,1.8,1.1c0.7-2.3,1.4-4.7,1-7.1c-0.4-2.4-2.2-4.7-4.6-4.9c-1.2-0.1-2.5,0.4-3.5,1.2
		c-0.9,0.7-1.7,1.6-2,2.7C401.5,639.6,407.6,640.8,410,642.9z"/>
	<path class="st14" d="M372.4,623.2c-7.8-8.9-10.8-21.9-7.7-33.3c0.4-1.5,1.7-3.4,3.1-2.7c1,0.5,1.1,1.7,1.2,2.8
		c0.7,8.4,6.8,15.8,14.5,19.3c7.7,3.5,16.6,3.5,24.8,1.5c2.1-0.5,4.5-1.1,6.4,0c1,0.6,1.6,1.5,2.2,2.5c2.6,4.7,2.4,10.9-0.5,15.5
		C406.8,643.7,381.4,633.5,372.4,623.2z"/>
	<path class="st15" d="M368.7,644.6c-6.9,5.2-12.3,12.6-20.3,15.9c4.2,2.8,9,4.5,13.8,6.2c6.1,2.1,12.3,4,18.6,4.9
		c6.4,0.9,13,0.7,19.1-1.2c4.9-1.6,9.5-4.3,13.2-8c1.4-1.4,2.7-2.9,3.6-4.7c2.2-4.4,1.4-10-1.6-13.9c-3.8-5-10.6-6.5-16.5-7.2
		c-6.7-0.7-13.6,0.2-19.9,2.6C375,640.5,371.7,642.4,368.7,644.6z"/>
	<path class="st13" d="M408,650c0.1-0.8,0.6-1.4,0.7-2.2c0.2-1.7-1.6-2.8-3.2-3.3c-3-0.8-6.3-0.3-9.3,0.3
		c-11.1,2.2-21.9,6.2-31.7,12c2.5,1.9,5.3,3.4,8.3,4.4c4.5,1.4,9.2,1.7,13.9,1.7c8.2-0.1,16.6-1.1,23.5-5.4c0.9-0.6,1.9-1.3,2.3-2.3
		c0.4-1,0.2-2.4-0.9-2.8C410.6,651.9,407.7,652.3,408,650z"/>
	<path class="st8" d="M324.5,763.4c4.4-8.6,4.3-19.3-0.2-27.9c-2.4-4.5-5.8-8.3-8.2-12.7c-2.5-4.4-3.9-9.9-1.8-14.5
		c2.2-4.9,7.8-7.8,9.2-12.9c0.2-0.9,0.3-1.8,0.3-2.6c-25.9-0.1-51.7-2.8-77.5-1.7c-1.1,0-2.1,0.1-3.2,0.2c-4.6,3.4-9.7,6.1-14,10
		c-4.9,4.4-8.6,10.6-8.6,17.2c0,6.6,4.5,13.3,10.9,14.6c5.1,1,10.1-1.4,14.8-3.5c4.9-2.2,10.1-4.3,15.5-4.4c5.4-0.1,11.1,2.1,14,6.7
		c5.4,8.7-2,20-0.7,30.2c1.4,11.8,15,19.4,26.8,17.7C311.4,778.3,320.1,772,324.5,763.4z"/>
	<path class="st8" d="M357.7,734.8c-4.2,7,1,16.2-1.4,23.9c-1.8,5.9-7.6,9.5-12,13.9c-4.4,4.3-7.7,11.7-3.7,16.4
		c2.1,2.5,5.6,3.4,8.8,3.6c5.3,0.2,10.5-1.1,15.7-1.5c5.3-0.3,11,0.6,14.6,4.4c2.7,2.9,3.9,7.1,7.3,9.2c3.4,2.1,8.1,1.2,11.2-1.4
		c3.1-2.6,4.8-6.4,5.8-10.3c3.6-14-0.5-28.7-4.6-42.5c-0.8-2.9-1.8-5.9-4.2-7.7c-2.6-2-6.1-2-9.3-2.6
		C377.5,738.6,365.7,721.5,357.7,734.8z"/>
	<path class="st8" d="M237.4,803.6c5.3-2.7,10.6-6.1,13.4-11.3c0.5,3.2,1.5,6.3,2.2,9.5c1.4,7,1,14.4-2.3,20.8
		c-3.2,6.3-9.5,11.2-16.6,11.9c-7.2,0.7-18.2-4.8-17.7-13.2C217.1,811.6,230.3,807.2,237.4,803.6z"/>
	<path class="st17" d="M253,801.8c-0.7-3.2-1.7-6.3-2.2-9.5c-0.2,0.4-0.5,0.8-0.7,1.2c0,0,0,0.1,0,0.1c1.4,7,1,14.4-2.3,20.8
		c-3.2,6.3-9.5,11.2-16.6,11.9c-4.7,0.4-11-1.8-14.7-5.7c0,0.2-0.1,0.5-0.1,0.7c-0.5,8.4,10.5,13.8,17.7,13.2
		c7.1-0.7,13.3-5.6,16.6-11.9C254,816.3,254.4,808.8,253,801.8z"/>
	<g>
		<path class="st16" d="M427.6,655.4c-1.8-2.3-2.9-5.2-2.6-8.2c0.3-2.9,2.1-5.7,4.8-6.8c1.8-0.7,3.8-0.7,5.6-0.3
			c5.3,1.2,9.7,5.7,10.7,11.1c0.3,1.4,0.3,3-0.1,4.4C443.3,664.9,431.8,660.8,427.6,655.4z"/>
		<path class="st18" d="M446.8,657.4c-1.2,3.6-5.2,5.5-8.8,4.3c-3.6-1.2-5.5-5.2-4.3-8.8c1.2-3.6,5.2-5.5,8.8-4.3
			S448,653.8,446.8,657.4z"/>
		<path class="st2" d="M440,655.7c-1,0.9-2.6,0.9-3.5-0.1c-0.9-1-0.9-2.6,0.1-3.5c1-0.9,2.6-0.9,3.5,0.1
			C441.1,653.2,441,654.8,440,655.7z"/>
	</g>
	<g>
		<path class="st16" d="M466.8,648.1c-1.3-2.3-2-5.3-1.7-8.2c0.3-2.9,1.8-5.6,3.9-6.7c1.4-0.7,2.9-0.6,4.3-0.1c4,1.3,7.1,6,7.7,11.4
			c0.2,1.5,0.1,3-0.2,4.4C478.4,658,469.9,653.6,466.8,648.1z"/>
		<path class="st18" d="M481.3,650.7c-1.1,3.6-4.1,5.4-6.8,4.1c-2.7-1.3-4-5.3-2.9-8.9c1.1-3.6,4.1-5.4,6.8-4.1
			C481.1,643.1,482.4,647.1,481.3,650.7z"/>
		<path class="st2" d="M476.3,648.8c-0.8,0.9-2,0.8-2.7-0.2c-0.7-1-0.6-2.6,0.2-3.5c0.8-0.9,2-0.8,2.6,0.2
			C477.2,646.3,477.1,647.9,476.3,648.8z"/>
	</g>
	<path class="st18" d="M470.1,696.5c-0.4-0.3-0.9-0.3-1.3-0.1c-0.6,0.8-0.2,1.9,0.4,2.7c0.6,0.8,1.4,1.5,1.5,2.5
		c0.1,0.8-0.2,1.5-0.2,2.3c0,0.8,0.4,1.7,1.2,1.7c0.7,0,1.1-0.7,1.3-1.3c0.7-1.6,1.2-3.5,0.7-5.2c-0.5-1.7-2.3-3.2-4-2.7
		L470.1,696.5z"/>
	<path class="st18" d="M497.5,691.9c-0.4-0.2-0.9-0.3-1.3-0.1c-0.6,0.8-0.2,1.9,0.4,2.7c0.6,0.8,1.4,1.5,1.5,2.5
		c0.1,0.8-0.2,1.5-0.2,2.3c0,0.8,0.4,1.7,1.2,1.7c0.7,0,1.1-0.7,1.3-1.3c0.7-1.6,1.2-3.5,0.7-5.2c-0.5-1.7-2.3-3.2-4-2.7
		L497.5,691.9z"/>
	<path class="st14" d="M473.1,723.4c0,0,7.7,6.6,13.8,5.2c6.1-1.4,10.6-9.7,10.6-9.7s-4.2,11.3-10.1,12.5
		C477.5,733.3,473.1,723.4,473.1,723.4z"/>
	<path class="st19" d="M211.6,723.7c-7.3,9.4-10.5,22-7.9,33.6c1.4,6.1,5.3,12.6,11.6,13.2c5.3,0.5,10.2-3.6,12.5-8.4
		c2.3-4.8,2.6-10.3,3.3-15.6c0.7-5.3,2-10.8,5.7-14.7c3.2-3.4,7.7-5,11.7-7.5c11.1-7,6.6-21.8-6.6-19
		C230.5,707.5,218.6,714.6,211.6,723.7z"/>
	<path class="st15" d="M418.8,593.5c4.4-0.2,9,1.4,12.2,4.4c1.6-6.1,5.1-11.7,9.8-15.8c-1.2,4.7-0.9,9.7,0.7,14.3
		c3.2-3.4,7.7-5.6,12.3-6c-3.4,1.7-5.5,5.8-4.9,9.5c0.3,2,1.2,3.9,0.7,5.8c-0.4,1.6-1.8,2.8-3.3,3.4c-1.5,0.6-3.2,0.8-4.8,0.9
		c-4.5,0.3-13.3,1.4-15.9-3.5c-1-1.8-0.5-4.3-1.1-6.3C423.6,597.3,421.3,595.3,418.8,593.5z"/>
	<path class="st19" d="M467.5,605c-1,0.3-2.4,0.9-2.3,1.9c0.1,0.7,0.7,1.2,1.4,1.5c3.5,1.6,7.6,0.1,11-1.6c2.5-1.3,4.9-2.8,6.9-4.7
		c2-2,3.5-4.5,4-7.2c0.1-0.6,0.1-1.3-0.3-1.7c-0.3-0.3-0.8-0.4-1.2-0.4c-3,0.2-5.2,4.8-7.5,6.6C475.9,601.9,471.6,603.8,467.5,605z"
		/>
	<path class="st19" d="M491.1,582c-1.2,1.6-2,3.7-2.1,5.7c0,0.6,0,1.2,0.4,1.6c0.5,0.6,1.6,0.6,2.3,0c0.7-0.5,1-1.4,1.2-2.2
		c0.4-1.8,0.3-3.6-0.2-5.4c-0.4,0-0.8,0-1.2,0L491.1,582z"/>
	<path class="st19" d="M367.6,607.6c1.8,3.7,3.7,7.3,5.7,10.9c0.6,1.1,1.2,2.2,2.3,3c1,0.7,2.5,1,3.5,0.3c1.6-1.1,1-3.7-0.4-5.1
		c-1.4-1.3-3.3-2-4.7-3.3c-2.5-2.2-2.9-5.5-4.6-8.3C366.7,600.8,366,604.3,367.6,607.6z"/>
	<path class="st19" d="M383.3,622.1c-1.3,0.9-1.1,2.9-0.1,4c1,1.1,2.6,1.6,4,2c1.3,0.4,2.8,0.7,3.9-0.1c1.2-0.8,1.2-2.7,0.3-3.9
		c-0.9-1.2-2.4-1.7-3.8-1.8c-1.4-0.1-2.9,0-4.3,0L383.3,622.1z"/>
	<path class="st18" d="M357.6,914.5l-6.2,15.6c0,0,5.5,2.9,16.6,2.5c11.1-0.4,15.2-1.9,15.2-1.9l0.2-17.8c0,0-4.5,2.8-11.7,3
		C364.5,916.1,357.6,914.5,357.6,914.5z"/>
	<path class="st18" d="M222.8,918.2l-4.9,15.6c0,0,4.4,2.9,13.2,2.5c8.8-0.4,12.1-1.9,12.1-1.9l0.2-17.8c0,0-3.6,2.8-9.3,3
		C228.3,919.8,222.8,918.2,222.8,918.2z"/>
	<path class="st18" d="M415,876.5l-4.7,15.6c0,0,4.1,2.9,12.5,2.5c8.4-0.4,11.5-1.9,11.5-1.9l0.2-17.8c0,0-3.4,2.8-8.9,3
		C420.2,878.1,415,876.5,415,876.5z"/>
	<path class="st12" d="M247.9,889.8c-0.4,2.8-0.1,6.1,2.4,7.5c2.1,1.2,4.8,0.2,6.7-1.3c3.4-2.7,5.4-6.8,6.9-10.8
		c1.1-3,2.1-7.2-1-9.6c-1.8-1.4-4.9-2.1-7.1-1.3C250.6,876.1,248.6,885.1,247.9,889.8z"/>
	<path class="st12" d="M276.8,896.2c0.9,1.6,2.1,3.4,4,3.5c0.7,0,1.5-0.2,2.1-0.6c1.6-0.9,2.7-2.6,3.2-4.3c0.5-1.7,0.6-3.6,0.6-5.4
		c0-3.1-0.4-6.3-0.9-9.4c-0.2-1.1-0.5-2.2-1.1-3.1c-0.5-0.7-1.3-1.3-2.1-1.7c-2-1-4.5-1.2-6.5-0.4c-1.6,0.7-3.3,2.1-3.8,3.9
		c-0.5,1.6,0.6,2.5,0.9,4C274.1,887.5,274.5,891.8,276.8,896.2z"/>
	<path class="st12" d="M297.2,882.8c0.9,1.5,1.9,3.1,3.3,4.1c1.4,1.1,3.3,1.7,5,1.2c2.9-0.8,4.2-4.5,3.6-7.5c-0.6-3-2.5-5.5-3.9-8.1
		c-1.1-2-2-4-3.3-5.9c-1.3-1.8-3-3.5-5.1-4.1c-1.8-0.5-4.1-0.2-5.5,1.2c-1.7,1.8-1,3.1-0.1,4.9C293.5,873.2,294.6,878.2,297.2,882.8
		z"/>
	<path class="st19" d="M367.5,648.9c-0.3,0.4-0.5,1.1-0.2,1.4c0.1,0.1,0.3,0.2,0.5,0.2c1.8,0.3,3.2-1.3,4.5-2.5
		c4.1-3.6,9.8-4.4,14.9-6.1c0.6-0.2,1.2-0.7,1-1.2c-0.1-0.2-0.4-0.3-0.6-0.4c-3.5-1.1-7.7,0.4-11,1.6
		C372.9,643.3,369.7,645.6,367.5,648.9z"/>
	<path class="st18" d="M277.8,915.7l-5.1,15.6c0,0,4.6,2.9,13.8,2.5c9.2-0.4,12.6-1.9,12.6-1.9l0.2-17.8c0,0-3.8,2.8-9.8,3
		C283.5,917.3,277.8,915.7,277.8,915.7z"/>
</g>
<rect x="1179" y="-114.3" class="st2" width="773" height="153.3"/>
<linearGradient id="SVGID_9_" gradientUnits="userSpaceOnUse" x1="1596" y1="912.5" x2="1952" y2="912.5">
	<stop  offset="0" style="stop-color:#FFFFFF"/>
	<stop  offset="5.592048e-04" style="stop-color:#8EE048"/>
</linearGradient>
<rect x="1596" y="840" class="st20" width="356" height="145"/>
<g>
	<path class="st21" d="M1584.3,793c-1.8,3.3-2.1,7.2-1.9,11c0.3,4.4,1.2,9.2-1.1,12.9c-0.3,0.4-0.6,0.8-0.5,1.3
		c0.1,0.4,0.4,0.7,0.8,1c2.4,1.6,5.4,2.2,8.3,2.5c5.2,0.6,10.4,0.5,15.5-0.2c2.1-0.3,4.3-0.7,6.2-1.9c0.5-0.3,1-0.7,1.3-1.3
		c0.3-0.6,0.2-1.3-0.2-1.7c-0.2-0.2-0.5-0.3-0.8-0.4c-1.9-0.9-2.7-3.1-3.2-5.1c-0.8-3.7-0.9-7.6-1.5-11.4c-0.7-3.8-2.1-7.6-5.1-10
		C1596,784.9,1587.9,786.2,1584.3,793z"/>
	<path class="st22" d="M1612.6,816.5c-0.2-0.2-0.5-0.3-0.8-0.4c-1.9-0.9-2.7-3.1-3.2-5.1c-0.8-3.7-0.9-7.6-1.5-11.4
		c-0.7-3.8-2.1-7.6-5.1-10c-2.2-1.7-4.7-2.6-7.1-2.8c1,0.4,2,1,2.9,1.8c3,2.4,4.5,6.2,5.1,10c0.7,3.8,0.7,7.7,1.5,11.4
		c0.4,2,1.3,4.2,3.2,5.1c0.3,0.1,0.6,0.2,0.8,0.4c0.5,0.4,0.5,1.1,0.2,1.7c-0.3,0.6-0.8,1-1.3,1.3c-1.8,1.2-4,1.6-6.2,1.9
		c-5.1,0.7-10.4,0.8-15.5,0.2c-0.5-0.1-1-0.1-1.5-0.2c1.8,0.7,3.8,1,5.7,1.2c5.2,0.6,10.4,0.5,15.5-0.2c2.1-0.3,4.3-0.7,6.2-1.9
		c0.5-0.3,1-0.7,1.3-1.3C1613.1,817.6,1613.1,816.9,1612.6,816.5z"/>
	<path class="st23" d="M1585.2,745.8c-0.1-5.2-0.2-10.4,1.3-15.4c0.4-1.4,1-2.8,2.2-3.6c2.3-1.6,5.7,0.2,6.9,2.8
		c1.1,2.6,0.7,5.6,0.3,8.4c-1.9,13.8-1.6,27.9,0.9,41.6c0.5,2.8,0.2,10.1-3.9,6.6c-2.6-2.3-3.8-9.7-4.6-13
		C1586,764.2,1585.4,754.9,1585.2,745.8z"/>
	<path class="st24" d="M1783.2,777.5c-6.1,20.8-19.5,100.2-20.9,119.3c-6.3,0.4-17.9-1.3-24.2-0.9c-2.1-17.8-5.1-35.3-9.3-52.6
		c-6.9-27.7-22.1-54.9-17.2-83c4.5-25.8,22-50.3,48.1-52.5C1795,704.7,1789.3,756.5,1783.2,777.5z"/>
	<path class="st24" d="M1625.6,895.1c7.6,2.4,15.5,3.7,23.4,4c1.7-24.9,8.1-49.2,16.2-72.8c3.2-9.2,6.7-18.6,6.4-28.3
		c-0.3-12.1-6.5-23.5-13.7-33.6c-4.8-6.7-10.3-13.2-17.7-17.4c-10.2-5.7-22-5.3-30.4,2.6c-9.1,8.6-4.7,15.9-1.7,26.7
		c6.8,24.8,11.7,50,14.5,75.4C1624.3,866.1,1625.3,880.6,1625.6,895.1z"/>
	<path class="st8" d="M1663,694.3c1.5,1.2,3.2,2.5,3.3,4.2c0,1-0.5,1.9-1,2.8c-10.6,18.6-25.6,35.7-43.9,50.2
		c-0.5,0.4-1,0.8-1.7,0.8c-0.8,0,5.7,54.7,5.2,54.1c-27.5-30-50-111.4-55-143.8c-1-6.5-1.6-13.1-0.2-19.6c1.4-6.4,5.1-12.8,11.5-17
		c10.9-7.2,32.5-10.9,37.5,2.5c6,15.9,11,30.5,22.6,44.7C1647.5,680.8,1654.8,687.9,1663,694.3z"/>
	<path class="st8" d="M1769.8,675.9c12.4,0.5,25.4,2.2,35.3,9.7c14.8,11,18.7,31.4,19.7,49.8c0.7,14.4,0.3,29-3.8,42.8
		s-12.3,26.8-24.5,34.5c-9.6,6.1-21,8.6-32.3,10.5c-28.1,4.8-56.7,6.7-85,4.3c-20.6-1.7-42.9-6.7-55.8-22.8
		c-9.5-11.8-12.3-27.5-14.7-42.5c-1.7-10.3-3.4-20.7-5.1-31c-1.1-6.7-2.2-13.8,0.1-20.2c2.9-8.3,10.7-13.6,17.8-18.8
		c8.6-6.3,19-19.8,29.2-19.4c13.1,0.5,26.3,4.4,39.8,4.7C1716.9,677.9,1743.3,674.8,1769.8,675.9z"/>
	<path class="st17" d="M1593.6,748.2c-0.6-21.4,17-39.5,19.4-60.8c0.3-2.9,0.3-6.1-1.6-8.4c-1.8-2.2-4.8-3-7.6-2.6s-5.3,1.7-7.7,3.1
		c-5,3-9.7,6.7-13,11.6c-6.2,9.1-3.2,16.9-0.9,26.6C1584.7,728.2,1588.6,738.5,1593.6,748.2z"/>
	<path class="st24" d="M1531.3,613c-8.1-0.6-16.3,1-24,3.6c-0.5,0.2-1.1,0.4-1.3,0.9c-0.3,0.6-0.1,1.3,0.1,1.9
		c3.5,8.7,11.1,15.1,19.3,19.6c5.9,3.2,12.7,5.7,19.3,4.4c6.6-1.3,12.6-7.5,11.6-14.2C1554.5,617.9,1541.1,613.7,1531.3,613z"/>
	<path class="st13" d="M1516.4,619.3c5.6,6.3,12.2,11.7,19.5,15.8c2.6,1.4,5.8,2.7,8.3,1.2c1.4-0.8,2.2-2.3,2.9-3.7
		c1.1-2.3,3.6-7.4,1.5-9.3c-2.4-2.1-7.2-3.2-10.3-3.9C1531.2,617.7,1523.6,617.6,1516.4,619.3z"/>
	<path class="st14" d="M1530.3,590.8c-1.7-11.5,2.7-23.7,11.3-31.5c1.1-1,3.2-1.9,4-0.6c0.5,0.9,0,2-0.5,2.9
		c-3.9,7.3-2.8,16.6,1.7,23.5c4.4,6.9,11.8,11.7,19.6,14.4c2,0.7,4.3,1.5,5.2,3.4c0.5,1,0.5,2.1,0.5,3.2c-0.4,5.3-3.8,10.2-8.6,12.5
		C1547.6,625.9,1532.2,604,1530.3,590.8z"/>
	<path class="st17" d="M1679.2,813.8c28.4,2.4,57,0.5,85-4.3c11.2-1.9,22.7-4.4,32.3-10.5c12.2-7.7,20.3-20.7,24.5-34.5
		c2.5-8.3,3.6-16.9,4-25.5c0.5,13.2-0.2,26.6-4,39.2c-4.1,13.8-12.3,26.8-24.5,34.5c-9.6,6.1-21,8.6-32.3,10.5
		c-28.1,4.8-56.7,6.7-85,4.3C1658.5,825.7,1658.5,812.1,1679.2,813.8z"/>
	<path class="st8" d="M1612.3,616.6c4.5,9,4.6,19.6,3.4,29.6c-3.7,30.4-19.8,59.7-45.1,77c-5.1,3.5-10.5,6.5-16.4,8.3
		c-17.2,5.3-37.3-1.4-48-15.8c-10.7-14.4-11.1-35.6-1.1-50.5c7.8-11.6,20.7-18.8,29.8-29.4c7.4-8.6,12.3-19.5,20.7-27.1
		C1572,594.1,1601.8,595.4,1612.3,616.6z"/>
	<path class="st13" d="M1570.2,723.5c-5,3.4-10.3,6.3-16,8c-17.2,5.3-37.3-1.4-48-15.8c-10.5-14.3-11.1-35.1-1.4-50
		c8.7-3.5,18.9-1.4,27.9,1.8c14,4.9,27.8,12.9,35.2,25.8C1573,702.3,1573.4,713.6,1570.2,723.5z"/>
	<path class="st17" d="M1743,813.4c-1.4-9.6-2.5-19.2-1.8-28.8c0.7-9.6,3.2-19.3,8.7-27.3c2.1-3,4.8-5.9,8.5-6.3
		c0.2,12.2,3.4,24.3,9.2,35c2,3.7,4.4,7.5,4.9,11.7c0.7,6-2.7,11.9-7.3,15.9c-3.8,3.3-8.4,5.6-13.3,6.7c-1.8,0.4-5,1.4-6.5,0.2
		C1743.6,819.2,1743.3,815.4,1743,813.4z"/>
	<path class="st8" d="M1821.8,777.2c-5.8,20.9-18,100.5-19.2,119.6c-6.3,0.5-17.9-1.1-24.2-0.5c-2.3-17.8-5.6-35.2-10.1-52.5
		c-7.3-27.6-22.9-54.6-18.4-82.8c4.1-25.9,21.3-50.6,47.4-53.2C1832.6,704.2,1827.6,756.1,1821.8,777.2z"/>
	<path class="st16" d="M1671.3,808.1c-1.2-2.1-2.1-4.3-3-6.6c-1.4-3.6-2.9-7.2-4.3-10.8c-5.2,5.3-7.3,13-7.2,20.5
		c0.1,4.4,1.1,9.3,4.7,11.8c1.5,1.1,3.4,1.6,5.3,1.8c3.7,0.3,10.2-1.1,11.8-5c0.8-2-0.2-3.2-1.5-4.5
		C1674.9,812.9,1672.8,810.9,1671.3,808.1z"/>
	<path class="st17" d="M1673.9,676.9c-5.5,0.5-31,24.5-58.2,6.3c-4.6-3-8.2-9-11.6-13.3c-2.5-3.2-4.7-6.8-5.3-10.9
		c-0.3-1.9-0.1-4.1,1.3-5.4c1.3-1.3,3.4-1.4,5.2-1c3.3,0.6,6.2,2.3,8.9,4.2c4.8,3.4,9.8,7.9,13,12.9c1.2,1.9,30.9,0.9,32.6,2
		C1663.9,674.4,1672.2,674.3,1673.9,676.9z"/>
	<path class="st17" d="M1609.8,644.9c-1,0.3-2.1,0.6-3.4,0.5c-0.9-2.4-1.7-5-0.6-7.2c1.1-2.2,4.8-3.9,9.2-3.3
		c2.3,0.3,4.4,1.2,6.1,2.2c1.5,0.9,2.8,2,3.2,3.2C1625.8,644.4,1614.4,643.6,1609.8,644.9z"/>
	<path class="st14" d="M1646.8,631.6c9-7.3,14-19.3,12.9-30.9c-0.1-1.5-1.1-3.5-2.5-3.1c-1,0.3-1.3,1.5-1.6,2.5
		c-2,8-9.1,14.1-17.1,16.2c-8,2.1-16.6,0.7-24.2-2.6c-2-0.8-4.1-1.8-6.1-1c-1,0.4-1.8,1.2-2.5,2c-3.3,4.1-4.1,10.1-2.1,15
		C1610.3,645.8,1636.4,640.1,1646.8,631.6z"/>
	<g>
		<path class="st17" d="M1588.3,653.7c2.1-1.9,3.7-4.6,3.9-7.4c0.2-2.9-1.1-5.9-3.5-7.4c-1.6-1-3.5-1.3-5.4-1.2
			c-5.3,0.3-10.3,3.9-12.1,8.9c-0.5,1.3-0.8,2.8-0.6,4.2C1571.7,660.3,1583.4,658.2,1588.3,653.7z"/>
		<path class="st18" d="M1569.5,652.5c0.6,3.7,4.1,6.2,7.8,5.6c3.7-0.6,6.2-4.1,5.6-7.8c-0.6-3.7-4.1-6.2-7.8-5.6
			C1571.4,645.3,1568.9,648.8,1569.5,652.5z"/>
		<path class="st2" d="M1576.3,652c0.8,1.1,2.3,1.3,3.4,0.5c1.1-0.8,1.3-2.3,0.5-3.4c-0.8-1.1-2.3-1.3-3.4-0.5
			C1575.7,649.4,1575.5,650.9,1576.3,652z"/>
	</g>
	<g>
		<path class="st17" d="M1551.7,640.2c1.6-2,2.8-4.8,3-7.7c0.2-2.9-0.8-5.7-2.7-7.1c-1.2-0.9-2.7-1-4.1-0.8
			c-4.1,0.6-7.9,4.6-9.3,9.7c-0.4,1.4-0.6,2.8-0.5,4.2C1538.9,647.9,1547.9,645,1551.7,640.2z"/>
		<path class="st18" d="M1537.3,640.3c0.4,3.6,3.1,5.9,5.9,5s4.7-4.5,4.3-8.1c-0.4-3.6-3.1-5.9-5.9-5
			C1538.8,633.1,1536.9,636.7,1537.3,640.3z"/>
		<path class="st2" d="M1542.5,639.3c0.6,1,1.8,1.1,2.6,0.3c0.8-0.9,1-2.4,0.4-3.4c-0.6-1-1.8-1.1-2.6-0.3
			C1542.1,636.8,1541.9,638.3,1542.5,639.3z"/>
	</g>
	<path class="st18" d="M1540.7,686.4c0.4-0.2,0.9-0.1,1.3,0.1c0.5,0.9-0.1,1.9-0.8,2.6c-0.7,0.7-1.6,1.2-1.9,2.2
		c-0.2,0.7-0.1,1.5-0.2,2.3c-0.1,0.8-0.7,1.6-1.5,1.4c-0.6-0.1-0.9-0.8-1.1-1.5c-0.4-1.7-0.6-3.6,0.1-5.1c0.8-1.6,2.7-2.7,4.3-2
		L1540.7,686.4z"/>
	<path class="st18" d="M1515,677.4c0.4-0.2,0.9-0.1,1.3,0.1c0.5,0.9-0.1,1.9-0.8,2.6c-0.7,0.7-1.6,1.2-1.9,2.2
		c-0.2,0.7-0.1,1.5-0.2,2.3c-0.1,0.8-0.7,1.6-1.5,1.4c-0.6-0.1-0.9-0.8-1.1-1.5c-0.4-1.7-0.6-3.6,0.1-5.1c0.8-1.6,2.7-2.7,4.3-2
		L1515,677.4z"/>
	<path class="st19" d="M1558.1,598.6c1,0.5,2.1,1.2,1.9,2.2c-0.2,0.7-0.9,1-1.6,1.2c-3.6,0.9-7.3-1.1-10.3-3.3
		c-2.2-1.6-4.3-3.5-5.9-5.7c-1.6-2.2-2.7-4.9-2.6-7.6c0-0.6,0.1-1.3,0.6-1.6c0.4-0.2,0.8-0.2,1.2-0.1c2.8,0.7,4.2,5.5,6.1,7.5
		C1550.5,594.2,1554.3,596.7,1558.1,598.6z"/>
	<path class="st19" d="M1539.1,572.6c0.9,1.8,1.3,3.8,1.1,5.8c-0.1,0.6-0.2,1.1-0.6,1.5c-0.6,0.5-1.7,0.3-2.2-0.3
		c-0.5-0.6-0.7-1.5-0.8-2.3c-0.1-1.8,0.3-3.6,1-5.1c0.4,0.1,0.8,0.1,1.2,0.2L1539.1,572.6z"/>
	<path class="st19" d="M1654,617.4c-2.4,3.2-4.8,6.4-7.3,9.5c-0.8,1-1.6,1.9-2.7,2.5c-1.1,0.5-2.6,0.6-3.4-0.3
		c-1.3-1.3-0.4-3.7,1.2-4.8c1.5-1.1,3.5-1.4,5.1-2.4c2.8-1.7,3.7-4.9,5.8-7.2C1656,611,1656.1,614.5,1654,617.4z"/>
	<path class="st19" d="M1636.5,628.8c1.1,1,0.6,3-0.6,3.9c-1.2,0.9-2.7,1.1-4.2,1.3c-1.3,0.1-2.8,0.2-3.7-0.7c-1-1-0.7-2.8,0.3-3.8
		c1-1,2.6-1.2,4-1.1c1.4,0.1,2.8,0.5,4.2,0.7L1636.5,628.8z"/>
	<path class="st17" d="M1699.4,800.8c-3.6-4.1-6.8-8.6-10.8-12.2c-1.3-1.1-3-2.2-4.4-1.7c-1,0.4-1.5,1.4-1.8,2.4
		c-1.5,4.4-0.4,9.4,1,14.1c1.6,5.5,3.7,11,6.1,16.3c1.2,2.7,2.9,5.7,5.6,6.8c1.9,0.7,3.9,0.4,5.6-0.4c1.7-0.8,3.1-2.1,4.4-3.4
		c2.3-2.2,17-2.8,13.6-6.5c-1.8-1.9-10.8-7.3-12.8-9C1703.5,805.2,1701.4,803,1699.4,800.8z"/>
	<path class="st8" d="M1665.7,899.4c7.9,0.9,15.9,0.8,23.8-0.4c-2.9-24.7-1.2-49.8,2.4-74.6c1.4-9.6,3.1-19.5,1-29
		c-2.6-11.8-10.8-21.9-19.8-30.4c-6-5.7-12.6-11.1-20.6-13.8c-11.1-3.7-22.6-1.1-29.3,8.3c-7.3,10.1-5.7,38.6,1.7,47
		c19.3,22,22.4,26.5,29.9,50.9C1659.1,871.2,1662.7,885.2,1665.7,899.4z"/>
	<path class="st8" d="M1846.9,752c5.2,17.9,8,36.3,10.8,54.7c-1.7,0.7-3.5,1.4-5.2,2c-0.5-22.7-6.1-45.3-16.2-65.7
		c-3.4-6.9-8-14.1-15.4-16.5c-4.3-1.3-9.1-0.9-13.1-2.9c-6.6-3.4-7.9-12.5-2.8-17.8c6.2-6.5,12.8-1.4,18.3,3.5
		C1835.4,720.4,1842.4,736.5,1846.9,752z"/>
	<path class="st21" d="M1840.2,798.7c-3.2,3.6-4.5,8.9-3.2,13.6c2.2,8.2,11,13.2,13.6,21.3c1.4,4.2,0.9,8.8,0.3,13.2
		c8.3-6.6,14.3-16,17-26.2c1.8-7,1.8-15.3-3.3-20.4C1858.2,793.8,1846.7,791.5,1840.2,798.7z"/>
	<g>
		<path class="st25" d="M1851.4,843.1c-0.1,1.3-0.3,2.5-0.4,3.8c0.4-0.3,0.7-0.6,1.1-0.9C1851.8,845,1851.6,844,1851.4,843.1z"/>
		<path class="st25" d="M1864.6,800.2c-5.2-5.2-13.8-7.7-20.3-4.5c1.9,0.3,3.8,0.9,5.5,1.8c6.5,3.2,9.2,11,9.8,18.3
			c0.8,10.5-1.9,21.2-7.5,30.2c7.7-6.6,13.3-15.5,15.8-25.3C1869.7,813.6,1869.7,805.3,1864.6,800.2z"/>
	</g>
	<path class="st18" d="M1663.4,889.2c0,0-3.1,13-2,15.4c1.1,2.4,10,3.7,15.8,3.7c10,0,12.9-2.3,12.9-2.3l-1.3-17.1
		c0,0-3,1.4-12.5,2.3C1666.8,892,1663.4,889.2,1663.4,889.2z"/>
	<path class="st18" d="M1777.4,886.6c0,0-3.2,13-2.1,15.4c1.2,2.4,10.3,3.7,16.3,3.7c10.3,0,13.3-2.3,13.3-2.3l-1.3-17.1
		c0,0-3.1,1.4-12.9,2.3C1780.8,889.4,1777.4,886.6,1777.4,886.6z"/>
	<path class="st18" d="M1736.7,886.6c0,0-3.3,13-2.1,15.4c1.2,2.4,10.5,3.7,16.7,3.7c10.6,0,13.6-2.3,13.6-2.3l-1.4-17.1
		c0,0-3.2,1.4-13.2,2.3C1740.2,889.4,1736.7,886.6,1736.7,886.6z"/>
	<path class="st18" d="M1625,884.7c0,0-3.1,13-2,15.4c1.1,2.4,10,3.7,15.8,3.7c10,0,12.9-2.3,12.9-2.3l-1.3-17.1c0,0-3,1.4-12.5,2.3
		C1628.4,887.5,1625,884.7,1625,884.7z"/>
	<path class="st21" d="M1554.2,604.8c-3.2,7.6-1.7,16.4,2.9,23.4c-0.1-2.4,1-4.7,2.8-6.4c2.4,6.7,2,14.3-1.3,20.7
		c7.7-2.6,14.8-6.6,20.7-11.8c0,3.4-0.4,6.8-1.2,10.1c7.3-1.6,13.8-5.6,20-9.6c4.9-3.2,9.7-6.5,13.1-11c3.4-4.5,5-10.5,2.8-15.6
		c-1.2-2.7-3.3-4.9-5.7-6.7C1593.6,587,1562.2,586,1554.2,604.8z"/>
	<g>
		<path class="st26" d="M1571.6,625.3c0.7-3.5,1.7-7,2.9-10.4c0.2-0.6-0.2-1.3-0.8-1.4c-0.6-0.2-1.2,0.2-1.4,0.8
			c-1.2,3.4-2.1,6.9-2.9,10.4c-0.1,0.6,0.2,1.3,0.8,1.4C1570.8,626.2,1571.5,625.9,1571.6,625.3L1571.6,625.3z"/>
	</g>
	<g>
		<path class="st26" d="M1560.5,618.2c0.1-2.7,0.2-5.4,0.3-8.1c0-0.6-0.6-1.2-1.2-1.2c-0.6,0-1.1,0.5-1.2,1.2
			c-0.1,2.7-0.2,5.4-0.3,8.1c0,0.6,0.6,1.2,1.2,1.2C1559.9,619.3,1560.4,618.8,1560.5,618.2L1560.5,618.2z"/>
	</g>
	<g>
		<path class="st26" d="M1566.6,624.1c-0.4-2.5-0.2-5,0.3-7.5c0.1-0.6-0.2-1.3-0.8-1.4c-0.6-0.2-1.3,0.2-1.4,0.8
			c-0.7,2.9-0.8,5.8-0.3,8.7c0.1,0.6,0.9,1,1.4,0.8C1566.5,625.4,1566.7,624.8,1566.6,624.1L1566.6,624.1z"/>
	</g>
	<g>
		<path class="st26" d="M1565.9,635.7c0.9-1.1,1.9-2.2,3-3.2c0.5-0.4,0.4-1.2,0-1.7c-0.5-0.4-1.2-0.4-1.7,0c-1.1,1-2.1,2.1-3,3.2
			c-0.2,0.2-0.3,0.5-0.3,0.8c0,0.3,0.1,0.6,0.3,0.8c0.2,0.2,0.5,0.4,0.8,0.3C1565.4,636,1565.7,635.9,1565.9,635.7L1565.9,635.7z"/>
	</g>
	<g>
		<path class="st26" d="M1583.6,631c2.3-1.9,4.8-3.6,7.3-5.3c0.5-0.3,0.7-1,0.4-1.6c-0.3-0.5-1.1-0.8-1.6-0.4
			c-2.7,1.7-5.3,3.6-7.8,5.6c-0.5,0.4-0.4,1.2,0,1.7C1582.4,631.5,1583.1,631.4,1583.6,631L1583.6,631z"/>
	</g>
	<g>
		<path class="st26" d="M1583.6,619.2c0-0.3,0-0.5,0.1-0.8c0-0.1,0-0.1,0,0c0-0.1,0-0.1,0-0.2c0-0.1,0-0.2,0.1-0.3
			c0.1-0.5,0.2-1.1,0.4-1.6c0.1-0.2,0.2-0.5,0.2-0.7c0-0.1,0.1-0.2,0.1-0.4c0-0.1,0.1-0.1,0.1-0.2c0,0.1,0,0.1,0,0
			c0.2-0.5,0.5-1,0.7-1.4c0.3-0.5,0.1-1.3-0.4-1.6c-0.6-0.3-1.3-0.1-1.6,0.4c-1.2,2.1-1.9,4.4-2,6.8c0,0.6,0.6,1.2,1.2,1.2
			C1583.1,620.4,1583.6,619.9,1583.6,619.2L1583.6,619.2z"/>
	</g>
	<g>
		<path class="st26" d="M1598.9,624.6c2.2-1.6,4.2-3.5,6.1-5.5c0.4-0.5,0.5-1.2,0-1.7c-0.4-0.4-1.2-0.5-1.7,0
			c-0.9,1-1.8,1.9-2.8,2.8c-0.5,0.4-1,0.9-1.5,1.3c-0.2,0.2-0.5,0.4-0.7,0.6c-0.1,0-0.1,0.1-0.2,0.1c-0.1,0-0.2,0.1-0.1,0
			c-0.1,0.1-0.3,0.2-0.4,0.3c-0.5,0.4-0.8,1-0.4,1.6C1597.6,624.7,1598.4,625,1598.9,624.6L1598.9,624.6z"/>
	</g>
	<g>
		<path class="st26" d="M1599,612.5c0.2-0.5,0.3-1.1,0.5-1.6c0.1-0.3,0.2-0.6,0.3-0.8c-0.1,0.2,0.1-0.2,0.1-0.2
			c0.1-0.1,0.1-0.2,0.2-0.4c0.5-1,1-2,1.7-3c0.3-0.5,0.1-1.3-0.4-1.6c-0.6-0.3-1.2-0.1-1.6,0.4c-1.3,2-2.4,4.2-3,6.5
			c-0.2,0.6,0.2,1.3,0.8,1.4C1598.2,613.5,1598.8,613.1,1599,612.5L1599,612.5z"/>
	</g>
	<g>
		<path class="st26" d="M1590.6,600c0,0,0.1-0.1,0.1-0.1c0.1-0.2,0,0,0,0c0.1,0,0.2-0.2,0.2-0.3c0.2-0.2,0.3-0.4,0.5-0.6
			c0.3-0.4,0.7-0.7,1-1c0.2-0.2,0.4-0.3,0.5-0.5c0,0,0.1-0.1,0.1-0.1c0.1-0.1-0.2,0.2,0,0c0.1-0.1,0.2-0.1,0.3-0.2
			c0.4-0.3,0.8-0.5,1.2-0.8c0.5-0.3,0.8-1.1,0.4-1.6c-0.3-0.5-1-0.7-1.6-0.4c-1.9,1.1-3.5,2.6-4.8,4.3c-0.2,0.2-0.2,0.6-0.1,0.9
			c0.1,0.3,0.3,0.6,0.5,0.7c0.3,0.1,0.6,0.2,0.9,0.1C1590.2,600.5,1590.4,600.3,1590.6,600L1590.6,600z"/>
	</g>
	<g>
		<path class="st26" d="M1572.7,604.4c0.2-0.5,0.3-1,0.5-1.5c0.1-0.1,0.1-0.3,0.2-0.4c-0.1,0.2,0.1-0.2,0.1-0.2
			c0.1-0.2,0.2-0.5,0.3-0.7c0.5-1,1-1.9,1.6-2.8c0.3-0.5,0.1-1.3-0.4-1.6c-0.6-0.3-1.2-0.1-1.6,0.4c-1.3,1.9-2.3,4-3,6.3
			c-0.2,0.6,0.2,1.3,0.8,1.4C1571.9,605.4,1572.5,605,1572.7,604.4L1572.7,604.4z"/>
	</g>
	<g>
		<path class="st26" d="M1581.1,608c0-0.4,0-0.8,0-1.2c0,0.1,0,0.2,0,0.3c0.1-0.6,0.2-1.1,0.5-1.7c0,0.1-0.1,0.2-0.1,0.3
			c0.2-0.4,0.3-0.7,0.6-1c0.3-0.5,0.1-1.3-0.4-1.6c-0.6-0.3-1.2-0.1-1.6,0.4c-0.9,1.3-1.3,2.9-1.2,4.5c0,0.6,0.5,1.2,1.2,1.2
			C1580.5,609.2,1581.1,608.7,1581.1,608L1581.1,608z"/>
	</g>
	<g>
		<path class="st26" d="M1561.6,602.3c0.2-0.2,0.3-0.5,0.5-0.7c0.1-0.1,0.2-0.3,0.3-0.4c0.1-0.2-0.1,0.1,0,0c0-0.1,0.1-0.1,0.1-0.2
			c0.4-0.5,0.8-0.9,1.2-1.3c0.4-0.4,0.8-0.8,1.3-1.2c0.1,0,0.1-0.1,0.2-0.1c0.2-0.2-0.2,0.1,0,0c0.1-0.1,0.2-0.2,0.3-0.2
			c0.3-0.2,0.5-0.4,0.8-0.5c0.5-0.3,0.8-1.1,0.4-1.6c-0.3-0.5-1-0.8-1.6-0.4c-2.2,1.4-4.1,3.3-5.5,5.5c-0.3,0.5-0.1,1.3,0.4,1.6
			C1560.5,603,1561.2,602.9,1561.6,602.3L1561.6,602.3z"/>
	</g>
	<g>
		<path class="st26" d="M1608.6,610.4c0.3-1.8,0.5-3.7,0.4-5.5c0-0.6-0.5-1.2-1.2-1.2c-0.6,0-1.2,0.5-1.2,1.2c0,0.9,0,1.7-0.1,2.6
			c0,0.4-0.1,0.8-0.1,1.3c0,0.1,0,0.2,0,0.3c0,0.3,0-0.2,0,0.1c0,0.2-0.1,0.5-0.1,0.7c-0.1,0.6,0.2,1.3,0.8,1.4
			C1607.7,611.4,1608.5,611.1,1608.6,610.4L1608.6,610.4z"/>
	</g>
	<g>
		<path class="st26" d="M1578.9,594.6c1.1,0,2.3,0,3.4,0c0.6,0,1.2-0.5,1.2-1.2c0-0.6-0.5-1.2-1.2-1.2c-1.1,0-2.3,0-3.4,0
			c-0.6,0-1.2,0.5-1.2,1.2C1577.7,594.1,1578.2,594.6,1578.9,594.6L1578.9,594.6z"/>
	</g>
	<path class="st14" d="M1515.9,715.3c0,0,7.1,6.1,12.8,4.8c5.7-1.3,9.9-9,9.9-9s-3.9,10.5-9.4,11.6
		C1519.9,724.5,1515.9,715.3,1515.9,715.3z"/>
	<path class="st27" d="M1758.2,698.4c8,0.9,16.3,2.6,22.4,7.8c4.7,3.9,7.7,9.5,9.5,15.3c0.7,2.2,1.2,4.5,2.4,6.5
		c1.2,2,3.2,3.7,5.5,3.8c2.5,0.1,4.7-1.6,5.9-3.8c1.2-2.2,1.5-4.7,1.7-7.2c0.4-5.4,0.2-11.1-2.5-15.7c-1.9-3.3-4.9-5.7-8.1-7.8
		c-9.3-6.2-20.8-9.7-32-9.8C1754.9,687.4,1745.8,696.9,1758.2,698.4z"/>
	<path class="st14" d="M1622.1,710.8c4.5-12.3,9-24.7,10.2-37.7c4.8-0.4,9.6-0.9,14.5-1.3c-2.7,11.8-5.7,23.6-9.5,35.1
		c-9.6,29.5-24.4,57.3-43.4,81.7c-0.9-2.8-2.7-6.1-2-9.1c0.7-2.8,3.3-5.7,4.6-8.2c3.5-6.4,6.7-13,9.6-19.7
		C1612,738.3,1617.1,724.5,1622.1,710.8z"/>
	<path class="st8" d="M1646.9,652.9c5.8,6.1,9.8,14.1,17,18.6c-4.5,2-9.4,2.9-14.3,3.7c-6.2,1-12.5,1.8-18.7,1.6
		c-6.3-0.2-12.6-1.4-18.2-4.3c-4.5-2.3-8.4-5.7-11.4-9.8c-1.1-1.6-2.1-3.3-2.7-5.1c-1.4-4.6,0.3-9.9,3.9-13.1
		c4.5-4.2,11.3-4.6,17.1-4.2c6.6,0.4,13.1,2.4,18.8,5.8C1641.5,647.9,1644.4,650.2,1646.9,652.9z"/>
	<path class="st13" d="M1608.1,651.7c0-0.8-0.4-1.5-0.3-2.2c0.1-1.6,2-2.5,3.6-2.6c3.1-0.3,6.1,0.7,9,1.8
		c10.4,3.9,20.1,9.6,28.6,16.7c-2.7,1.5-5.7,2.4-8.7,2.9c-4.5,0.7-9.2,0.2-13.7-0.6c-7.9-1.4-15.8-3.8-21.8-9.1
		c-0.8-0.7-1.6-1.5-1.9-2.6c-0.3-1,0.2-2.3,1.3-2.6C1605.3,653,1608,653.9,1608.1,651.7z"/>
	<path class="st19" d="M1647.4,657.2c0.2,0.5,0.4,1.1-0.1,1.4c-0.1,0.1-0.3,0.1-0.5,0.1c-1.7,0-2.9-1.8-4-3.1
		c-3.3-4.1-8.7-5.8-13.4-8.3c-0.5-0.3-1.1-0.8-0.7-1.3c0.1-0.2,0.4-0.3,0.7-0.3c3.5-0.5,7.4,1.6,10.4,3.3
		C1643,651,1645.8,653.7,1647.4,657.2z"/>
	<path class="st21" d="M1588.3,774.3c-0.8,1.2-1.2,2.6-1.4,4.1c-0.3,2.1-0.3,4.2,0,6.2c0.2,1.2,0.5,2.4,1.2,3.3
		c0.8,1.2,2.2,1.9,3.6,2.4c1.8,0.6,3.9,0.7,5.5-0.3c1.3-0.8,2.1-2.2,2.4-3.7c0.3-1.5,0-3.1-0.5-4.5c-1.4,0.8-3.3,1-4.4-0.2
		c-0.9-1-0.9-2.5-0.7-3.9c0.4-1.9,3.6-6.3,1.3-7.1C1593.2,769.9,1589.5,772.5,1588.3,774.3z"/>
	<path class="st22" d="M1589.5,788.8c0.5,0.3,1.1,0.4,1.7,0.5c2,0.4,4.1,0.2,6.2-0.2c0.5-0.1,1.1-0.2,1.5-0.6c0.4-0.4,0.6-1,0.7-1.6
		c0.3-1.8,0.1-3.6-0.4-5.3c-0.8,0.2-1.6,0.4-2.3,0.6c-0.2,0-0.3,0.1-0.4,0.2c-0.1,0.1-0.1,0.2-0.1,0.4c-0.2,1.3-0.4,2.8-1.4,3.6
		c-0.4,0.3-1,0.5-1.5,0.7c-1,0.2-2.1,0.2-3.1,0c-0.5-0.1-1-0.3-1.5-0.5c-0.4-0.2-0.9-0.6-1.3-0.6
		C1587.2,787.1,1588.6,788.4,1589.5,788.8z"/>
	<path class="st28" d="M1585.9,794.3c-1,2.5-1.3,5.3-0.7,8c0.2,1,0.7,2.1,1.7,2.3c0.7,0.1,1.4-0.3,1.7-0.9c0.4-0.6,0.5-1.3,0.5-2
		c0-1.1-0.2-2.1-0.1-3.2c0.1-1.2,0.5-2.3,1.3-3.2c0.4-0.4,0.8-0.8,1.1-1.3c0.3-0.5,0.4-1.1,0.1-1.6c-0.6-1-2-1.4-3.1-1
		C1587.1,792,1586.4,793,1585.9,794.3z"/>
	<path class="st28" d="M1585.7,811.4c0.5,0.8,1.6,1.3,2.5,0.9c2.1-0.8,2.1-4.8,0-5.6C1585.7,805.9,1584.6,809.8,1585.7,811.4z"/>
	<path class="st28" d="M1588.4,779.2c0.2,0.7,0.6,1.5,1.3,1.4c0.6,0,1-0.6,1.1-1.1c0.1-0.6,0.1-1.1,0.1-1.7c0.1-0.8,0.5-1.5,1-2.1
		c0.4-0.4,0.9-0.7,1.2-1.1c0.4-0.4,0.6-1,0.4-1.5c-0.9-2-3.3,0.1-4,1C1588.5,775.5,1588,777.4,1588.4,779.2z"/>
</g>
</svg>
