<?xml version="1.0" encoding="utf-8"?>
<!-- Generator: Adobe Illustrator 23.0.0, SVG Export Plug-In . SVG Version: 6.00 Build 0)  -->
<svg version="1.1" id="Capa_1" xmlns="http://www.w3.org/2000/svg" xmlns:xlink="http://www.w3.org/1999/xlink" x="0px" y="0px"
	 viewBox="0 0 1125 2436" style="enable-background:new 0 0 1125 2436;" xml:space="preserve">
<style type="text/css">
	.st0{fill:none;}
	.st1{fill:#FFFFFF;stroke:#000000;stroke-width:0.7794;stroke-miterlimit:10;}
	.st2{fill:url(#SVGID_1_);}
	.st3{fill:#FFFFFF;}
	.st4{fill:url(#SVGID_2_);}
	.st5{fill:url(#SVGID_3_);}
	.st6{fill:#DDCFB8;}
	.st7{fill:#EAC3B0;}
	.st8{fill:#EDBA94;}
	.st9{fill:#68504B;}
	.st10{fill:#F7E8CB;}
	.st11{fill:#EADBC3;}
	.st12{fill:#C17A49;}
	.st13{fill:#AA6D43;}
	.st14{fill:#231F20;}
	.st15{opacity:0.3;fill:#FFFFFF;}
	.st16{fill:url(#SVGID_4_);}
	.st17{fill:url(#SVGID_5_);}
	.st18{fill:url(#SVGID_6_);}
	.st19{fill:url(#SVGID_7_);}
	.st20{fill:url(#SVGID_8_);}
	.st21{fill:url(#SVGID_9_);}
	.st22{fill:#F49F42;}
	.st23{fill:#E08F3F;}
	.st24{fill:#493836;}
	.st25{fill:#96603C;}
	.st26{fill:#E29040;}
	.st27{fill:#F2BB40;}
	.st28{opacity:0.2;fill:#FFFFFF;}
	.st29{opacity:0.39;fill:#FFFFFF;}
</style>
<rect x="-649.3" y="1660.4" class="st0" width="917.9" height="346"/>
<rect x="5.3" y="-0.5" class="st1" width="1122.4" height="2307.1"/>
<linearGradient id="SVGID_1_" gradientUnits="userSpaceOnUse" x1="-19" y1="1197.5" x2="1161" y2="1197.5">
	<stop  offset="0" style="stop-color:#FFFFFF"/>
	<stop  offset="5.586614e-04" style="stop-color:#33B1E7"/>
	<stop  offset="0.8318" style="stop-color:#519DFD"/>
</linearGradient>
<rect x="-19" y="22" class="st2" width="1180" height="2351"/>
<g>
	
		<image style="overflow:visible;opacity:3.000000e-02;" width="1377" height="265" xlink:href="592F511D.png"  transform="matrix(1 0 0 1 -0.6914 58.3086)">
	</image>
	<g>
		<g>
			<circle class="st3" cx="140.5" cy="272.7" r="24.2"/>
			<path class="st3" d="M184.9,158.9l-89.6-2.3v0c-11.2-0.2-20.3-9.4-20.3-20.6c0-11.3,9-20.4,20.3-20.6v0H1358V56H5.7v36.6v22.6
				v41.3v7v17.9v24.9v88.1l50.7,0.8c1.9,0.5,5,0,7,0c12.5,0,22.6-10.1,22.6-22.6c0-12.5-10.1-24.2-22.6-24.2c-1.6,0-3.2-0.3-4.7,0
				c-10.1-0.8-6.4-0.8-10.1-0.8c-11.4,0-20.7-9.2-20.7-20.7s9.2-20.7,20.7-20.7c3.7,0,0,0,10.1,0l126.3-2.3
				c12.5,0,22.6-10.1,22.6-22.6S197.4,158.9,184.9,158.9z"/>
		</g>
	</g>
</g>
<g>
	<g>
		<linearGradient id="SVGID_2_" gradientUnits="userSpaceOnUse" x1="634.4523" y1="2252.7095" x2="697.1436" y2="2252.7095">
			<stop  offset="0" style="stop-color:#FFFFFF"/>
			<stop  offset="5.592048e-04" style="stop-color:#8EE048"/>
		</linearGradient>
		<path class="st4" d="M647.9,2269.5h35.7c7.4,0,13.5-7.5,13.5-16.8l0,0c0-9.2-6.1-16.8-13.5-16.8h-35.7c-7.4,0-13.5,7.5-13.5,16.8
			l0,0C634.5,2261.9,640.5,2269.5,647.9,2269.5z"/>
		<linearGradient id="SVGID_3_" gradientUnits="userSpaceOnUse" x1="-109.6919" y1="2268.2981" x2="978" y2="2268.2981">
			<stop  offset="0" style="stop-color:#FFFFFF"/>
			<stop  offset="5.592048e-04" style="stop-color:#8EE048"/>
		</linearGradient>
		<path class="st5" d="M888.4,2206.3h-8.8h-18.2H746.7c-11,0-20.1,11.2-20.1,24.9v0c0,13.7,9,24.9,20.1,24.9h19.1h0.3v0
			c9,0.2,16.3,9.4,16.3,20.6s-7.3,20.4-16.3,20.6v0h-0.3h-20.7h-854.8v32.7h875.8h122.2H978v-123.9H888.4z"/>
	</g>
</g>
<g>
	<path class="st6" d="M137.9,2154.7c8,29.1,20.4,56.9,29,85.9c7.6,25.5,12.2,51.9,13.8,78.5c8.8,0.8,17.6,1.5,26.4,2.3
		c-2.8-24.7-1-49.9,5.3-73.9c10.1-38.5,31.9-76.1,25.6-115.3c-5.8-36.1-38.2-66.3-74.6-70C114.3,2057.1,129.8,2125.3,137.9,2154.7z"
		/>
	<path class="st7" d="M160.8,2264c8.4,1.7,23.8-2.4,28.5-4.1c6.3-2.3,11.3-7.3,15.2-12.8c5.3-7.5,9-16.4,9.3-25.6
		c0.2-9.2-3.4-18.7-10.5-24.5c-6.1-5-14.2-6.9-22-7.7c-12.1-1.2-24.8,0.5-35.9,5.5c-8.6,3.8-23.2,12.4-22.5,23
		C124.5,2240.4,141,2260.1,160.8,2264z"/>
	<path class="st6" d="M455.9,1926.8c10.7,1,21.1,4.9,30.5,10c0.6,0.3,1.3,0.7,1.6,1.4c0.3,0.8-0.1,1.7-0.6,2.4
		c-6.4,10.5-17.8,17.2-29.5,21.3c-8.4,2.9-17.8,4.6-26.2,1.5c-8.3-3.1-14.8-12.6-12-21C424.5,1928,442.9,1925.6,455.9,1926.8z"/>
	<path class="st8" d="M473.9,1938.4c-8.7,6.9-18.5,12.6-29,16.3c-3.7,1.3-8.2,2.3-11.1-0.3c-1.6-1.4-2.4-3.5-2.9-5.5
		c-0.9-3.3-3.1-10.4,0.1-12.4c3.6-2.3,10.2-2.5,14.3-2.9C454.9,1932.9,464.9,1934.5,473.9,1938.4z"/>
	<path class="st9" d="M462.1,1898.1c4.7-14.6,1.7-31.5-7.8-43.6c-1.3-1.6-3.7-3.2-5.1-1.6c-0.9,1-0.4,2.6,0,3.9
		c3.5,10.3-0.1,22.3-7.4,30.3c-7.3,8.1-17.9,12.6-28.7,14.5c-2.8,0.5-5.9,1-7.6,3.2c-0.8,1.2-1.2,2.6-1.3,4
		c-0.7,7,2.7,14.2,8.4,18.1C431.7,1940.1,456.7,1914.9,462.1,1898.1z"/>
	<path class="st6" d="M375.1,2184.9c7.2,9.7,10.4,24.3,10.4,36.4c0,7.2-7.5,48.9-9.2,50.3c-4.6,4.1-16.9-1.5-23-0.3
		c2.1-9.1,4-18.5,3-27.7c-1-9.3,0.4-24.4-11.9-30.1c-7.9-3.7-20.2,1.7-23.8-6.2c-1.2-2.7-1.3-5.8-1.3-8.8c0-13.7,2.2-38.4,18.8-40.9
		C351.8,2155.5,367.9,2175.3,375.1,2184.9z"/>
	<path class="st10" d="M278.1,2026.4c-2.1,1.7-4.5,3.5-4.6,5.9c-0.1,1.3,0.6,2.6,1.3,3.9c14.8,26,35.6,49.8,61.1,70
		c0.7,0.5,1.4,1.1,2.4,1.1c1.1,0,2.1-0.7,2.8-1.3c38.8-33.7,59.6-78.5,66.5-123.7c1.4-9.1,2.3-18.3,0.3-27.3c-2-9-7.1-17.8-16-23.7
		c-15.2-10-45.3-15.1-52.3,3.5c-8.3,22.1-15.3,42.5-31.5,62.2C299.7,2007.7,289.5,2017.5,278.1,2026.4z"/>
	<path class="st10" d="M137.9,2013.5c-17.3,0.7-35.4,3.1-49.2,13.5c-20.6,15.4-26.1,43.7-27.4,69.4c-1,20-0.4,40.4,5.4,59.7
		c5.8,19.2,17.2,37.3,34.1,48c13.4,8.5,29.3,12,45,14.6c39.1,6.7,79,9.3,118.5,6c28.7-2.4,59.8-9.3,77.8-31.8
		c13.2-16.5,17.1-38.3,20.5-59.2c2.4-14.4,4.7-28.8,7.1-43.2c1.5-9.4,3-19.2-0.1-28.1c-4.1-11.5-14.9-19-24.8-26.2
		c-12-8.8-26.5-27.5-40.7-27c-18.3,0.6-36.7,6.1-55.4,6.5C211.6,2016.3,174.8,2011.9,137.9,2013.5z"/>
	<path class="st11" d="M342,2173.8c-18.1,22.5-49.1,29.4-77.8,31.8c-39.5,3.3-79.4,0.7-118.5-6c-15.6-2.7-31.6-6.1-45-14.6
		c-16.9-10.7-28.4-28.8-34.1-48c-3.5-11.5-5.1-23.5-5.6-35.6c-0.7,18.4,0.3,37,5.6,54.6c5.8,19.2,17.2,37.3,34.1,48
		c13.4,8.5,29.3,12,45,14.6c39.1,6.7,79,9.3,118.5,6c28.7-2.4,59.8-9.3,77.8-31.8c13.2-16.5,17.1-38.3,20.5-59.2
		C364.8,2119.3,355.2,2157.4,342,2173.8z"/>
	<path class="st11" d="M368.6,2096.3c2.5-8.7,8.7-30.6,11.6-34.3c1.5-1.9,1.6-3.8,1.3-6.2c-3.6-26.3-7.2-52.6-10.8-78.9
		c-1.1-7.8-4-2.4-5.2,1.6c-1.5,5.3-1.7,11.5-2.4,16.9c-1.5,11.3-21-17-21.7-5.6c-0.6,11,3.8,44.7,6.3,54.5
		C358,2084.6,369.5,2093,368.6,2096.3z"/>
	<path class="st10" d="M349.4,1913.6c-7.8,10.8-10.4,24.6-11,37.9c-1.9,40.5,12.6,82.3,41.8,110.5c5.8,5.7,12.3,10.8,19.6,14.5
		c21.2,10.7,49,6.4,66.1-10c17.1-16.5,22.4-44,12.6-65.7c-7.7-16.9-22.9-29.1-32.4-45c-7.8-12.9-11.7-28.1-21.1-39.9
		C406.9,1893.1,367.8,1888.2,349.4,1913.6z"/>
	<path class="st8" d="M380.6,2062.4c5.7,5.5,12,10.5,19.1,14c21.2,10.7,49,6.4,66.1-10c16.9-16.3,22.3-43.4,12.9-64.9
		c-10.6-6.4-24.4-6-36.8-3.8c-19.4,3.4-39.1,10.7-51.6,25.9C381.7,2034.1,378.6,2048.7,380.6,2062.4z"/>
	<path class="st11" d="M175.2,2205.2c1.9-13.3,3.5-26.8,2.6-40.2c-0.9-13.4-4.5-26.9-12.1-38c-2.9-4.2-6.7-8.3-11.8-8.9
		c-0.3,17-4.7,33.9-12.8,48.8c-2.8,5.2-6.2,10.4-6.9,16.3c-1,8.4,3.8,16.6,10.1,22.2c5.3,4.6,11.7,7.8,18.5,9.4
		c2.5,0.6,7,1.9,9.1,0.3C174.4,2213.3,174.8,2207.9,175.2,2205.2z"/>
	<path class="st10" d="M65.4,2154.7c8,29.1,20.4,56.9,29,85.9c7.6,25.5,12.2,51.9,13.8,78.5c8.8,0.8,17.6,1.5,26.4,2.3
		c-2.8-24.7-1-49.9,5.3-73.9c10.1-38.5,31.9-76.1,25.6-115.3c-5.8-36.1-29.7-70.5-66-74.2C50.3,2053,57.3,2125.3,65.4,2154.7z"/>
	<path class="st11" d="M275.1,2197.8c1.6-2.9,2.9-6,4.1-9.2c2-5,4-10,6-15c7.2,7.4,10.2,18.2,10.1,28.5c-0.1,6.1-1.6,12.9-6.6,16.4
		c-2.1,1.5-4.7,2.2-7.3,2.4c-5.1,0.4-14.2-1.5-16.4-7c-1.1-2.7,0.3-4.4,2.1-6.3C270.1,2204.4,273,2201.6,275.1,2197.8z"/>
	<path class="st10" d="M337.5,2228.7c-9.4,30.4-18.8,60.7-28.2,91.1c-10.9,0.4-21.9,0.9-32.8,1.3c15-45.7,18.8-95.1,10.8-142.5
		c-1-5.8-2.1-11.8-0.7-17.4c1.4-5.5,5-10,8.7-14.3c11.1-12.9,54.1-52.3,65.5-20.5c5.1,14.1-3.5,34.1-7.1,47.7
		C348.8,2192.4,343.1,2210.6,337.5,2228.7z"/>
	<path class="st11" d="M59.4,2057.2c-16.1,17.2-25.8,40.2-27,63.7c-0.9,17.3,3.1,35.4,14.3,48.7c11.1,13.2,28.4,20.3,45.6,20.6
		c17.2,0.3,34.2-5.8,48.4-15.5c-0.5-1.6-1-3.2-1.5-4.9c-19.3,9.9-42.6,11.7-63.1,4.7c-7-2.4-13.9-5.9-18.7-11.5
		c-4.9-5.6-7.3-12.9-9-20.2c-3.9-17.2-4.1-35.7,2.3-52.2c1.8-4.6,6.2-12.3,12.9-16.4c0,0,3.4-17,9.3-28.6
		C72.8,2045.7,62.1,2054.3,59.4,2057.2z"/>
	<path class="st11" d="M308.4,1996.9c7,1.9,14.6,1.4,21.5-0.9c6.9-2.3,13.2-6.3,18.5-11.2c4-3.6,7.6-7.9,9.3-13
		c0.8-2.4,1.1-5.3-0.5-7.3c-1.5-1.9-4.1-2.5-6.6-2.5c-4.4,0-8.6,1.6-12.6,3.5c-7.1,3.4-14.5,8.1-19.8,14c-1.9,2.2-2.1,4.4-3.1,7
		C313.6,1990.3,311,1993.9,308.4,1996.9z"/>
	<path class="st11" d="M349.6,1951c0.7,0.6,1.4,1.2,2.3,1.4c0.9-3,1.8-6.1,1.3-9.2c-0.5-3.1-2.8-6.1-6-6.3c-1.6-0.1-3.2,0.5-4.5,1.5
		c-1.2,0.9-2.2,2.1-2.6,3.5C338.6,1946.8,346.6,1948.4,349.6,1951z"/>
	<path class="st9" d="M301.1,1925.6c-10.1-11.6-14-28.3-10-43.1c0.5-2,2.2-4.4,4-3.5c1.2,0.6,1.4,2.2,1.5,3.6
		c0.8,10.9,8.8,20.4,18.7,25c9.9,4.5,21.5,4.6,32.1,2c2.7-0.7,5.8-1.4,8.2,0c1.2,0.7,2.1,1.9,2.8,3.2c3.4,6.1,3.1,14.1-0.6,20
		C345.5,1952.1,312.7,1938.9,301.1,1925.6z"/>
	<path class="st10" d="M296.2,1953.3c-8.9,6.7-15.9,16.3-26.2,20.5c5.5,3.6,11.7,5.9,17.9,8c7.9,2.7,15.9,5.1,24.1,6.3
		c8.2,1.1,16.8,1,24.7-1.6c6.4-2,12.3-5.6,17-10.3c1.8-1.8,3.5-3.8,4.6-6.1c2.8-5.7,1.8-13-2.1-18c-5-6.4-13.7-8.5-21.4-9.3
		c-8.7-1-17.6,0.3-25.8,3.4C304.4,1948,300.1,1950.4,296.2,1953.3z"/>
	<path class="st8" d="M347.1,1960.2c0.2-1,0.8-1.9,0.9-2.8c0.2-2.1-2.1-3.7-4.2-4.2c-3.9-1-8.1-0.4-12.1,0.4
		c-14.4,2.8-28.3,8.1-41,15.5c3.2,2.5,6.9,4.4,10.8,5.7c5.8,1.9,11.9,2.2,18,2.2c10.6-0.1,21.5-1.5,30.5-7c1.2-0.7,2.4-1.6,3-2.9
		c0.6-1.3,0.2-3.1-1.1-3.6C350.4,1962.6,346.7,1963.2,347.1,1960.2z"/>
	<path class="st12" d="M239,2107c5.7-11.1,5.6-25-0.2-36.1c-3-5.8-7.5-10.7-10.7-16.4c-3.2-5.7-5-12.8-2.3-18.8
		c2.8-6.3,10.1-10,11.9-16.7c0.3-1.1,0.4-2.3,0.4-3.4c-33.5-0.1-66.9-3.6-100.3-2.2c-1.4,0.1-2.7,0.1-4.1,0.2
		c-6,4.4-12.5,7.9-18.1,13c-6.3,5.7-11.1,13.7-11.1,22.2c0,8.5,5.8,17.3,14.1,18.8c6.6,1.2,13.1-1.8,19.1-4.6c6.4-2.9,13-5.5,20-5.7
		c7-0.2,14.4,2.7,18.1,8.6c7,11.3-2.6,25.8-1,39c1.8,15.3,19.4,25.1,34.7,22.9C222,2126.2,233.4,2118.1,239,2107z"/>
	<path class="st12" d="M282.1,2069.9c-5.4,9,1.4,20.9-1.8,30.9c-2.4,7.6-9.8,12.3-15.5,17.9c-5.7,5.6-9.9,15.1-4.8,21.3
		c2.7,3.3,7.2,4.5,11.4,4.6c6.8,0.3,13.5-1.5,20.3-1.9c6.8-0.4,14.3,0.7,18.9,5.7c3.5,3.7,5.1,9.2,9.4,11.9
		c4.4,2.7,10.5,1.5,14.5-1.8c4-3.3,6.2-8.3,7.5-13.3c4.7-18.1-0.6-37.1-5.9-55c-1.1-3.7-2.4-7.6-5.4-10c-3.3-2.6-7.9-2.5-12-3.3
		C307.6,2074.9,292.4,2052.7,282.1,2069.9z"/>
	<path class="st12" d="M126.4,2159c6.9-3.5,13.7-7.9,17.4-14.7c0.7,4.2,2,8.2,2.8,12.3c1.8,9,1.2,18.7-3,26.8
		c-4.2,8.2-12.3,14.5-21.5,15.4c-9.3,0.9-23.5-6.2-22.9-17C100.1,2169.3,117.2,2163.6,126.4,2159z"/>
	<path class="st13" d="M146.6,2156.7c-0.8-4.1-2.2-8.2-2.8-12.3c-0.3,0.5-0.6,1.1-0.9,1.6c0,0.1,0,0.1,0,0.2c1.8,9,1.2,18.7-3,26.8
		c-4.2,8.2-12.3,14.5-21.4,15.4c-6.1,0.6-14.3-2.3-19-7.3c0,0.3-0.1,0.6-0.1,0.9c-0.7,10.9,13.5,17.9,22.9,17
		c9.1-0.8,17.3-7.2,21.5-15.4C147.8,2175.3,148.4,2165.6,146.6,2156.7z"/>
	<g>
		<path class="st11" d="M372.4,1967.3c-2.3-3-3.8-6.8-3.4-10.5c0.4-3.8,2.7-7.4,6.2-8.8c2.3-0.9,4.9-0.9,7.3-0.4
			c6.9,1.5,12.6,7.4,13.9,14.3c0.4,1.9,0.4,3.8-0.1,5.6C392.7,1979.5,377.9,1974.2,372.4,1967.3z"/>
		<path class="st14" d="M397.3,1969.9c-1.6,4.7-6.7,7.2-11.4,5.6c-4.7-1.6-7.2-6.7-5.6-11.4c1.6-4.7,6.7-7.2,11.4-5.6
			C396.3,1960.1,398.8,1965.2,397.3,1969.9z"/>
		<path class="st3" d="M388.5,1967.7c-1.3,1.2-3.3,1.2-4.5-0.1s-1.2-3.3,0.1-4.5c1.3-1.2,3.3-1.2,4.5,0.1
			C389.9,1964.4,389.8,1966.4,388.5,1967.7z"/>
	</g>
	<g>
		<path class="st11" d="M423.2,1957.8c-1.7-3-2.6-6.9-2.2-10.6c0.4-3.8,2.4-7.3,5.1-8.6c1.8-0.9,3.7-0.8,5.5-0.2
			c5.2,1.7,9.3,7.8,10,14.7c0.2,1.9,0.2,3.8-0.3,5.6C438.2,1970.6,427.1,1964.9,423.2,1957.8z"/>
		<path class="st14" d="M442,1961.1c-1.4,4.6-5.3,7-8.8,5.3c-3.5-1.7-5.2-6.9-3.8-11.5c1.4-4.6,5.3-7,8.8-5.3
			C441.6,1951.3,443.3,1956.5,442,1961.1z"/>
		<path class="st3" d="M435.4,1958.7c-1,1.2-2.6,1.1-3.4-0.2c-0.9-1.3-0.8-3.3,0.3-4.5c1-1.2,2.6-1.1,3.4,0.2
			C436.5,1955.5,436.4,1957.5,435.4,1958.7z"/>
	</g>
	<path class="st14" d="M427.4,2020.5c-0.5-0.3-1.2-0.4-1.7-0.2c-0.8,1-0.3,2.5,0.5,3.5c0.8,1,1.8,2,2,3.2c0.2,1-0.2,2-0.3,3
		c0,1,0.6,2.2,1.6,2.2c0.9,0,1.4-0.9,1.7-1.7c0.9-2.1,1.6-4.5,1-6.7c-0.6-2.2-2.9-4.1-5.2-3.5L427.4,2020.5z"/>
	<path class="st14" d="M462.9,2014.4c-0.5-0.3-1.2-0.4-1.7-0.2c-0.8,1-0.3,2.5,0.5,3.5c0.8,1,1.8,2,2,3.2c0.2,1-0.2,2-0.3,3
		c0,1,0.6,2.2,1.6,2.2c0.9,0,1.4-0.9,1.7-1.7c0.9-2.1,1.6-4.5,1-6.7c-0.6-2.2-2.9-4.1-5.2-3.5L462.9,2014.4z"/>
	<path class="st9" d="M431.3,2055.2c0,0,9.9,8.6,17.8,6.7c7.9-1.8,13.7-12.5,13.7-12.5s-5.4,14.7-13,16.2
		C436.9,2068.1,431.3,2055.2,431.3,2055.2z"/>
	<path class="st15" d="M93,2055.5c-9.4,12.2-13.6,28.5-10.2,43.5c1.8,7.9,6.9,16.3,15,17.1c6.9,0.7,13.2-4.6,16.1-10.9
		c2.9-6.3,3.4-13.3,4.3-20.2c0.9-6.9,2.6-14,7.3-19c4.1-4.4,10-6.5,15.1-9.7c14.4-9,8.5-28.2-8.6-24.6
		C117.5,2034.7,102.1,2043.9,93,2055.5z"/>
	<path class="st10" d="M361,1887.1c5.8-0.3,11.6,1.8,15.8,5.7c2.1-7.9,6.6-15.1,12.7-20.4c-1.5,6.1-1.2,12.6,0.9,18.5
		c4.2-4.4,9.9-7.2,16-7.7c-4.4,2.2-7.1,7.4-6.3,12.3c0.4,2.5,1.6,5.1,0.9,7.5c-0.5,2.1-2.3,3.6-4.3,4.4c-2,0.8-4.1,1-6.3,1.1
		c-5.9,0.4-17.2,1.8-20.6-4.5c-1.3-2.4-0.6-5.6-1.4-8.2C367.3,1892.1,364.3,1889.5,361,1887.1z"/>
	<path class="st15" d="M424,1902c-1.4,0.4-3,1.1-2.9,2.5c0.1,0.9,0.9,1.6,1.8,1.9c4.5,2,9.8,0.2,14.2-2.1c3.2-1.7,6.4-3.6,8.9-6.1
		c2.6-2.6,4.6-5.8,5.1-9.4c0.1-0.8,0.1-1.7-0.4-2.3c-0.4-0.4-1-0.5-1.6-0.5c-3.8,0.3-6.7,6.3-9.7,8.5
		C434.9,1898,429.4,1900.5,424,1902z"/>
	<path class="st15" d="M454.6,1872.3c-1.6,2.1-2.5,4.7-2.7,7.4c0,0.7,0,1.5,0.5,2.1c0.7,0.8,2.1,0.7,3,0.1c0.9-0.7,1.3-1.8,1.5-2.8
		c0.5-2.3,0.4-4.7-0.2-6.9c-0.5,0-1,0-1.5-0.1L454.6,1872.3z"/>
	<path class="st15" d="M294.8,1905.3c2.4,4.7,4.8,9.4,7.4,14.1c0.8,1.4,1.6,2.9,2.9,3.8c1.3,1,3.2,1.3,4.5,0.3
		c2-1.5,1.3-4.8-0.5-6.5c-1.8-1.7-4.3-2.6-6.1-4.2c-3.3-2.9-3.8-7.2-5.9-10.7C293.6,1896.6,292.7,1901.2,294.8,1905.3z"/>
	<path class="st15" d="M315.1,1924.2c-1.6,1.1-1.4,3.8-0.1,5.2c1.3,1.5,3.3,2.1,5.2,2.6c1.7,0.5,3.6,0.9,5-0.1
		c1.5-1.1,1.6-3.5,0.4-5c-1.1-1.5-3.1-2.2-4.9-2.4c-1.9-0.2-3.7,0.1-5.6,0L315.1,1924.2z"/>
	<path class="st14" d="M281.9,2302.5l-8,20.2c0,0,7.1,3.8,21.5,3.3c14.3-0.5,19.6-2.5,19.6-2.5l0.3-23.1c0,0-5.9,3.7-15.2,3.9
		C290.8,2304.5,281.9,2302.5,281.9,2302.5z"/>
	<path class="st14" d="M107.5,2307.3l-6.4,20.2c0,0,5.7,3.8,17.1,3.3c11.4-0.5,15.6-2.5,15.6-2.5l0.3-23.1c0,0-4.7,3.7-12.1,3.9
		C114.6,2309.3,107.5,2307.3,107.5,2307.3z"/>
	<path class="st14" d="M356.1,2253.3l-6,20.2c0,0,5.4,3.8,16.2,3.3c10.8-0.5,14.8-2.5,14.8-2.5l0.2-23.1c0,0-4.4,3.7-11.5,3.9
		C362.8,2255.4,356.1,2253.3,356.1,2253.3z"/>
	<path class="st7" d="M139.9,2270.4c-0.5,3.6-0.1,7.9,3.1,9.7c2.7,1.5,6.2,0.2,8.7-1.7c4.4-3.5,7-8.7,8.9-14
		c1.4-3.9,2.7-9.4-1.2-12.4c-2.4-1.8-6.4-2.7-9.2-1.7C143.4,2252.7,140.8,2264.4,139.9,2270.4z"/>
	<path class="st7" d="M177.3,2278.8c1.1,2.1,2.8,4.4,5.1,4.5c1,0.1,1.9-0.3,2.7-0.7c2.1-1.2,3.4-3.3,4.1-5.6c0.7-2.3,0.8-4.7,0.8-7
		c-0.1-4.1-0.5-8.1-1.2-12.1c-0.3-1.4-0.6-2.8-1.4-4c-0.7-1-1.7-1.7-2.7-2.2c-2.6-1.3-5.8-1.6-8.5-0.5c-2.1,0.9-4.2,2.8-4.9,5
		c-0.6,2.1,0.7,3.2,1.1,5.2C173.8,2267.5,174.3,2273,177.3,2278.8z"/>
	<path class="st7" d="M203.7,2261.4c1.2,2,2.5,3.9,4.3,5.4c1.8,1.4,4.2,2.2,6.5,1.6c3.8-1.1,5.4-5.8,4.6-9.6
		c-0.8-3.8-3.2-7.1-5.1-10.5c-1.4-2.5-2.6-5.2-4.2-7.6c-1.6-2.4-3.9-4.5-6.7-5.3c-2.4-0.7-5.3-0.2-7.1,1.6c-2.2,2.3-1.3,4-0.2,6.3
		C198.9,2249,200.3,2255.6,203.7,2261.4z"/>
	<path class="st15" d="M294.6,1958.8c-0.4,0.6-0.7,1.4-0.2,1.8c0.2,0.1,0.4,0.2,0.6,0.3c2.3,0.4,4.1-1.7,5.9-3.2
		c5.2-4.7,12.7-5.7,19.3-7.9c0.7-0.2,1.6-0.8,1.3-1.5c-0.1-0.3-0.5-0.4-0.8-0.5c-4.5-1.5-10,0.5-14.3,2.1
		C301.7,1951.6,297.5,1954.6,294.6,1958.8z"/>
	<path class="st14" d="M178.7,2304l-6.6,20.2c0,0,5.9,3.8,17.8,3.3c11.9-0.5,16.3-2.5,16.3-2.5l0.3-23.1c0,0-4.9,3.7-12.6,3.9
		C186.1,2306,178.7,2304,178.7,2304z"/>
</g>
<path class="st3" d="M958,1416.6h47.1c9.8,0,17.8-8,17.8-17.8l0,0c0-9.8-8-17.8-17.8-17.8H958c-9.8,0-17.8,8-17.8,17.8l0,0
	C940.2,1408.6,948.2,1416.6,958,1416.6z"/>
<path class="st3" d="M124.3,792.6H191c13.8,0,25.1-11.3,25.1-25.1l0,0c0-13.8-11.3-25.1-25.1-25.1h-66.6
	c-13.8,0-25.1,11.3-25.1,25.1l0,0C99.2,781.3,110.5,792.6,124.3,792.6z"/>
<path class="st3" d="M1124.9,904.3c-1.2-0.2-2.4-0.3-3.7-0.3l0.1-0.1h3.6v-160h-104.8c-29.4,0-53.4,24-53.4,53.4
	c0,29.4,24,53.4,53.4,53.4h52.8l0.1,0.1l1.6,0.1c14.1,0.6,25.4,12.2,25.4,26.5c0,9.7-5.3,18.3-13.2,22.9l-13.3,3.6c0,0,0,0,0,0h0
	l-0.5,0.1h-18.1c-13.8,0-25,11.3-25,25c0,13.8,11.3,25,25,25h66.3c1.2,0,2.5-0.1,3.7-0.3V904.3z"/>
<path class="st3" d="M214,1267.2c-1.8,0.3-3.6,0.5-5.4,0.5h-70.5c-13.7,0-24.9-9.5-24.9-21.1v0c0-11.6,11.2-21.1,24.9-21.1
	c0,0,2.4,0.5,17.3,0c0,0,0-0.1,0-0.1c16.7-4.6,28.8-17.9,28.8-33.5c0-19.4-18.7-35.2-41.5-35.2H98.6H32.9h-44.2
	c-22.8,0-41.5,15.9-41.5,35.2c0,17.3,14.9,31.8,34.3,34.7H21c13.7,0,24.9,9.2,24.9,20.5l0,0c0,11.1-10.8,20.1-24.1,20.5v0.2H4.3
	c-22.8,0-41.5,15.9-41.5,35.2c0,19.4,18.7,35.2,41.5,35.2h56.2H66h15.7c6.1,0,11.1,4.1,11.1,9.1c0,5-5,9.1-11.1,9.1
	c0,0-14.8-0.8-19.6,0c-10.3,1.6-17,11.2-17,20.5c0,12.1,12,22,26.7,22h70.8c14.7,0,26.7-9.9,26.7-22c0-10.2-8.2-20-19.8-21.3
	c-1.3-0.1-5.1,0-5.1,0c-6.1,0-11.1-4.1-11.1-9.1c0-5,5-9.1,11.1-9.1h1.8v0h62.9c22.8,0,41.5-15.9,41.5-35.2
	C250.5,1284.2,234.5,1269.3,214,1267.2z"/>
<g>
	<g>
		
			<image style="overflow:visible;opacity:4.000000e-02;" width="253" height="340" xlink:href="592F511E.png"  transform="matrix(1 0 0 1 210.3086 199.3086)">
		</image>
		<g>
			<linearGradient id="SVGID_4_" gradientUnits="userSpaceOnUse" x1="216.6476" y1="354.2628" x2="444.5546" y2="354.2628">
				<stop  offset="0" style="stop-color:#C17A49"/>
				<stop  offset="0.9877" style="stop-color:#96603C"/>
			</linearGradient>
			<path class="st16" d="M443.8,400.5c-6-47.1-44.5-82.2-90-85.6l0-0.2c-7.8-0.5-14.3-6.5-15.4-14.5c-0.5-4.3,0.6-8.4,2.9-11.7
				c4.6-10.5,6.6-22.3,5-34.5c-4.6-35.7-37.2-60.9-72.8-56.3c-35.7,4.6-60.9,37.2-56.3,72.8c0.4,3,1,6,1.8,8.8l30.6,153.3l0.3-0.1
				c10.1,50.1,57.3,84.6,108.8,78C412.5,503.7,450.6,454.4,443.8,400.5z M340.6,454.7c-19.4,0-35.2-15.7-35.2-35.2
				c0-19.4,15.7-35.2,35.2-35.2s35.2,15.7,35.2,35.2C375.8,438.9,360.1,454.7,340.6,454.7z"/>
		</g>
	</g>
	<g>
		
			<image style="overflow:visible;opacity:4.000000e-02;" width="186" height="196" xlink:href="592F511C.png"  transform="matrix(1 0 0 1 479.3086 288.3086)">
		</image>
		<g>
			<linearGradient id="SVGID_5_" gradientUnits="userSpaceOnUse" x1="485.9261" y1="371.2183" x2="647.2443" y2="371.2183">
				<stop  offset="0" style="stop-color:#C17A49"/>
				<stop  offset="0.9877" style="stop-color:#96603C"/>
			</linearGradient>
			<path class="st17" d="M646.9,308.1c-2-12.9-13.1-22.8-26.6-22.8c-13.4,0-24.6,9.9-26.6,22.8h-0.3v15.5v12.4v29v15.5h-0.2
				c-1.8,13.1-13,23.3-26.6,23.3s-24.9-10.1-26.6-23.3h-0.2V365v-29v-12.4v-15.5h-0.3c-2-12.9-13.1-22.8-26.6-22.8
				c-13.4,0-24.6,9.9-26.6,22.8h-0.3v27.9v29v11.4c0,44.5,36.1,80.7,80.7,80.7c44.5,0,80.7-36.1,80.7-80.7V365v-29v-27.9H646.9z"/>
		</g>
	</g>
	<g>
		<g>
			
				<image style="overflow:visible;opacity:4.000000e-02;" width="137" height="138" xlink:href="592F5114.png"  transform="matrix(1 0 0 1 789.3085 317.3086)">
			</image>
			<g>
				<linearGradient id="SVGID_6_" gradientUnits="userSpaceOnUse" x1="795.6364" y1="371.4083" x2="908.3524" y2="371.4083">
					<stop  offset="0" style="stop-color:#F7E8CB"/>
					<stop  offset="0.9877" style="stop-color:#DDCFB8"/>
				</linearGradient>
				<circle class="st18" cx="852" cy="371.4" r="56.4"/>
			</g>
		</g>
		<g>
			
				<image style="overflow:visible;opacity:4.000000e-02;" width="65" height="90" xlink:href="592F5115.png"  transform="matrix(1 0 0 1 861.3085 354.3086)">
			</image>
			<g>
				<path class="st12" d="M876.1,381.8c0.5,6.1-3.4,11.5-5.8,17.1c-2.4,5.6-2.7,13.5,2.7,16.4c2.8,1.5,6.4,1.1,9.4,0
					c3.6-1.3,6.8-3.3,10.1-5.2c15-15.7,19.2-38,12.5-57.4c-2.8-0.5-5.8,0.7-8.7,1.2c-8.4,1.7-25.6-9.6-27.9,5.5
					C867.3,367.3,875.4,373.8,876.1,381.8z"/>
			</g>
		</g>
	</g>
	<g>
		<g>
			
				<image style="overflow:visible;opacity:4.000000e-02;" width="198" height="305" xlink:href="592F5112.png"  transform="matrix(1 0 0 1 682.3085 234.3086)">
			</image>
			<g>
				<linearGradient id="SVGID_7_" gradientUnits="userSpaceOnUse" x1="689.125" y1="371.7353" x2="861.7693" y2="371.7353">
					<stop  offset="0" style="stop-color:#F7E8CB"/>
					<stop  offset="0.9877" style="stop-color:#DDCFB8"/>
				</linearGradient>
				<path class="st19" d="M837,461v-0.1c-47.2-2.4-84.7-41.4-84.7-89.1s37.5-86.7,84.7-89.1v-0.1c13.7-0.2,24.8-11.4,24.8-25.2
					c0-13.9-11.3-25.2-25.2-25.2c-0.8,0-1.6,0-2.5,0.1c-1.8-0.1-3.6-0.1-5.4-0.1c-77.1,0-139.6,62.5-139.6,139.6
					s62.5,139.6,139.6,139.6c1.8,0,3.6-0.1,5.4-0.1c0.8,0.1,1.6,0.1,2.5,0.1c13.9,0,25.2-11.3,25.2-25.2
					C861.8,472.4,850.7,461.2,837,461z"/>
			</g>
		</g>
		<path class="st12" d="M736,433.8c2.9,1.5,6.3,0.8,9.5,0.8c8.6,0.1,23.1,14.5,28.4,0.2c0.5-1.4,0.7-2.7,0.7-4.1
			c-11.7-13.2-19.5-30-21.7-48.4c-4,0.5-8.2,0-11.4-2.3c-3.1-2.3-5.1-6.2-8.7-7.6c-3.7-1.4-8.1,0.3-10.6,3.3c-2.5,3-3.5,7.1-3.8,11
			c-1,14.2,5.6,27.7,12.1,40.3C731.9,429.7,733.4,432.5,736,433.8z"/>
		<g>
			
				<image style="overflow:visible;opacity:4.000000e-02;" width="104" height="76" xlink:href="592F5113.png"  transform="matrix(1 0 0 1 776.3085 463.3086)">
			</image>
			<g>
				<path class="st12" d="M861.8,486.1c0-12.8-9.6-23.4-22-25c-0.7,4.6-3.2,9.1-7.4,11.3c-9,4.6-19.5-3.4-29.6-3
					c-11.7,0.5-20.1,13.3-19.4,25c0.2,3.5,1.1,7,2.6,10.2c13.5,4.3,27.8,6.7,42.7,6.7c1.8,0,3.6-0.1,5.4-0.1
					c0.8,0.1,1.6,0.1,2.5,0.1C850.5,511.3,861.8,500.1,861.8,486.1z"/>
			</g>
		</g>
		<g>
			
				<image style="overflow:visible;opacity:4.000000e-02;" width="129" height="106" xlink:href="592F5129.png"  transform="matrix(1 0 0 1 689.3085 254.3086)">
			</image>
			<g>
				<path class="st12" d="M744.1,301.4c9.6,3.1,11.4,16.2,18.8,23c0.6,0.6,1.3,1.1,2,1.6c8.5-14.2,20.8-25.9,35.6-33.5
					c-2.5-8.7-9.2-16.1-17.7-19.4c-4.6-1.8-9.7-2.5-14.3-4.2c-4.7-1.7-9.2-4.9-10.7-9.7c-0.7-2.4-0.5-4.9-0.4-7.5
					c-28.8,17.2-51,44.4-61.5,76.9c4.4,3.8,11,5.1,15.9,2.3c4.4-2.5,6.6-7.5,8.8-12.2c2.2-4.8,4.8-9.7,8.7-13.2
					C733.3,301.9,739,299.8,744.1,301.4z"/>
			</g>
		</g>
	</g>
</g>
<linearGradient id="SVGID_8_" gradientUnits="userSpaceOnUse" x1="-109.6919" y1="2444.6313" x2="1248.0736" y2="2444.6313">
	<stop  offset="0" style="stop-color:#FFFFFF"/>
	<stop  offset="5.592048e-04" style="stop-color:#8EE048"/>
</linearGradient>
<rect x="-109.7" y="2323.3" class="st20" width="1357.8" height="242.7"/>
<rect x="1111" y="744" class="st3" width="102" height="210"/>
<rect x="-19" y="-135" class="st3" width="1172" height="217"/>
<rect x="-89" y="82" class="st3" width="102" height="213"/>
<linearGradient id="SVGID_9_" gradientUnits="userSpaceOnUse" x1="813" y1="2286" x2="1317" y2="2286">
	<stop  offset="0" style="stop-color:#FFFFFF"/>
	<stop  offset="5.592048e-04" style="stop-color:#8EE048"/>
</linearGradient>
<rect x="813" y="2199" class="st21" width="504" height="174"/>
<g>
	<path class="st22" d="M763.3,2173.2c-2.3,4.3-2.8,9.3-2.5,14.2c0.3,5.7,1.6,11.8-1.5,16.6c-0.3,0.5-0.7,1.1-0.6,1.7
		c0.1,0.5,0.6,0.9,1,1.2c3.2,2.1,7,2.8,10.8,3.2c6.7,0.7,13.4,0.7,20.1-0.3c2.8-0.4,5.6-0.9,8-2.4c0.7-0.4,1.3-0.9,1.7-1.7
		c0.3-0.7,0.3-1.7-0.3-2.2c-0.3-0.3-0.7-0.4-1-0.6c-2.4-1.2-3.5-4-4.1-6.6c-1.1-4.8-1.1-9.9-2-14.7c-0.9-4.9-2.7-9.9-6.6-13
		C778.5,2162.7,767.9,2164.4,763.3,2173.2z"/>
	<path class="st23" d="M799.9,2203.6c-0.3-0.3-0.7-0.4-1-0.6c-2.4-1.2-3.5-4-4.1-6.6c-1.1-4.8-1.1-9.9-2-14.7
		c-0.9-4.9-2.7-9.9-6.6-13c-2.8-2.2-6-3.4-9.2-3.6c1.3,0.6,2.6,1.3,3.8,2.3c3.9,3.1,5.8,8.1,6.6,13c0.9,4.9,0.9,9.9,2,14.7
		c0.6,2.6,1.7,5.4,4.1,6.6c0.4,0.2,0.7,0.3,1,0.6c0.6,0.5,0.6,1.5,0.3,2.2c-0.3,0.7-1,1.2-1.7,1.7c-2.4,1.5-5.2,2.1-8,2.4
		c-6.6,0.9-13.4,1-20.1,0.3c-0.6-0.1-1.3-0.2-1.9-0.3c2.3,0.8,4.9,1.3,7.3,1.5c6.7,0.7,13.4,0.7,20.1-0.3c2.8-0.4,5.6-0.9,8-2.4
		c0.7-0.4,1.3-0.9,1.7-1.7C800.5,2205.1,800.5,2204.1,799.9,2203.6z"/>
	<path class="st24" d="M764.4,2112.1c-0.2-6.7-0.2-13.5,1.7-19.9c0.5-1.8,1.3-3.6,2.8-4.7c3-2.1,7.4,0.3,8.9,3.6
		c1.5,3.4,0.9,7.2,0.4,10.8c-2.4,17.9-2,36.1,1.1,53.9c0.6,3.6,0.3,13.1-5.1,8.5c-3.4-3-5-12.5-6-16.8
		C765.5,2136,764.7,2124,764.4,2112.1z"/>
	<path class="st25" d="M1020.6,2153.2c-7.8,26.9-25.2,129.7-27.1,154.3c-8.2,0.6-23.1-1.7-31.3-1.2c-2.7-23.1-6.5-45.7-12.1-68
		c-8.9-35.8-28.6-71-22.2-107.4c5.9-33.4,28.5-65,62.3-68C1035.9,2059,1028.5,2126,1020.6,2153.2z"/>
	<path class="st25" d="M816.7,2305.3c9.8,3.1,20,4.8,30.3,5.2c2.2-32.2,10.5-63.7,21-94.2c4.1-11.9,8.6-24,8.3-36.6
		c-0.4-15.7-8.4-30.4-17.8-43.5c-6.2-8.7-13.3-17.1-22.9-22.5c-13.2-7.4-28.5-6.8-39.3,3.4c-11.7,11.1-6,20.5-2.2,34.5
		c8.8,32,15.1,64.7,18.8,97.6C815,2267.8,816.3,2286.6,816.7,2305.3z"/>
	<path class="st12" d="M865.1,2045.5c2,1.5,4.1,3.3,4.2,5.5c0.1,1.3-0.6,2.4-1.3,3.6c-13.7,24.1-33.1,46.2-56.7,65
		c-0.6,0.5-1.3,1-2.2,1.1c-1.1,0,7.4,70.7,6.7,70c-35.6-38.8-64.6-144.2-71.1-186.1c-1.3-8.4-2.1-17-0.3-25.3
		c1.8-8.3,6.6-16.5,14.9-22c14.1-9.3,42.1-14,48.6,3.3c7.7,20.5,14.2,39.4,29.2,57.8C845.1,2028.1,854.5,2037.2,865.1,2045.5z"/>
	<path class="st12" d="M1003.3,2021.7c16,0.7,32.8,2.9,45.7,12.5c19.1,14.3,24.2,40.6,25.5,64.4c1,18.6,0.4,37.5-5,55.4
		c-5.4,17.8-15.9,34.6-31.7,44.6c-12.4,7.9-27.2,11.1-41.7,13.6c-36.3,6.2-73.3,8.6-110,5.6c-26.7-2.2-55.5-8.7-72.2-29.5
		c-12.3-15.3-15.9-35.6-19-54.9c-2.2-13.4-4.4-26.7-6.5-40.1c-1.4-8.7-2.8-17.8,0.1-26.1c3.8-10.7,13.8-17.6,23-24.3
		c11.2-8.2,24.6-25.6,37.8-25.1c17,0.6,34.1,5.7,51.4,6C934.8,2024.4,969,2020.3,1003.3,2021.7z"/>
	<path class="st13" d="M775.3,2115.2c-0.8-27.7,22-51.1,25.1-78.6c0.4-3.8,0.3-7.9-2.1-10.9c-2.3-2.8-6.3-3.9-9.9-3.4
		c-3.6,0.5-6.9,2.2-10,4.1c-6.5,3.9-12.6,8.7-16.8,14.9c-8,11.8-4.2,21.9-1.1,34.4C763.8,2089.4,768.8,2102.7,775.3,2115.2z"/>
	<path class="st25" d="M694.7,1940.3c-10.5-0.8-21.1,1.3-31.1,4.6c-0.7,0.2-1.4,0.5-1.7,1.1c-0.4,0.7-0.1,1.6,0.2,2.4
		c4.5,11.2,14.3,19.5,24.9,25.3c7.6,4.2,16.4,7.4,25,5.7c8.6-1.7,16.3-9.7,15-18.3C724.7,1946.7,707.4,1941.3,694.7,1940.3z"/>
	<path class="st8" d="M675.4,1948.5c7.3,8.1,15.8,15.2,25.3,20.5c3.3,1.9,7.5,3.5,10.8,1.6c1.8-1,2.9-2.9,3.7-4.8
		c1.4-3,4.7-9.5,2-12c-3.1-2.8-9.4-4.1-13.3-5.1C694.6,1946.4,684.7,1946.3,675.4,1948.5z"/>
	<path class="st9" d="M693.4,1911.7c-2.2-14.9,3.5-30.7,14.6-40.7c1.5-1.3,4.1-2.5,5.2-0.8c0.7,1.1,0,2.6-0.7,3.8
		c-5.1,9.4-3.6,21.5,2.2,30.4c5.8,9,15.2,15.1,25.3,18.6c2.6,0.9,5.5,1.9,6.8,4.3c0.6,1.3,0.7,2.7,0.6,4.1
		c-0.5,6.8-4.9,13.2-11.1,16.1C715.8,1957.1,695.9,1928.8,693.4,1911.7z"/>
	<path class="st13" d="M886,2200.1c36.7,3,73.7,0.6,110-5.6c14.5-2.5,29.3-5.7,41.7-13.6c15.7-10,26.3-26.8,31.7-44.6
		c3.2-10.7,4.7-21.8,5.2-33c0.6,17.1-0.3,34.4-5.2,50.7c-5.4,17.8-15.9,34.6-31.7,44.6c-12.4,7.9-27.2,11.1-41.7,13.6
		c-36.3,6.2-73.3,8.6-110,5.6C859.3,2215.5,859.3,2197.9,886,2200.1z"/>
	<path class="st12" d="M799.5,1945c5.8,11.7,6,25.4,4.4,38.3c-4.8,39.4-25.6,77.2-58.3,99.7c-6.6,4.5-13.6,8.4-21.2,10.7
		c-22.2,6.8-48.3-1.8-62.1-20.5c-13.8-18.7-14.4-46.1-1.4-65.4c10.1-15,26.8-24.3,38.6-38.1c9.6-11.2,15.9-25.2,26.8-35
		C747.4,1915.9,785.9,1917.6,799.5,1945z"/>
	<path class="st8" d="M745.1,2083.4c-6.4,4.4-13.3,8.1-20.7,10.4c-22.2,6.8-48.3-1.8-62.1-20.5c-13.6-18.4-14.4-45.4-1.9-64.7
		c11.3-4.5,24.5-1.8,36.1,2.3c18.1,6.4,35.9,16.7,45.5,33.4C748.6,2055.9,749.2,2070.5,745.1,2083.4z"/>
	<path class="st13" d="M968.6,2199.7c-1.8-12.4-3.2-24.9-2.4-37.3c0.9-12.5,4.2-25,11.2-35.3c2.7-3.9,6.3-7.7,10.9-8.2
		c0.3,15.8,4.4,31.5,11.9,45.3c2.6,4.8,5.7,9.7,6.4,15.1c0.9,7.8-3.5,15.4-9.4,20.6c-4.9,4.3-10.9,7.3-17.2,8.7
		c-2.3,0.5-6.5,1.8-8.5,0.3C969.3,2207.2,969,2202.2,968.6,2199.7z"/>
	<path class="st12" d="M1070.6,2152.8c-7.4,27-23.3,130-24.8,154.7c-8.2,0.7-23.1-1.4-31.3-0.7c-3-23-7.2-45.6-13.1-67.9
		c-9.4-35.7-29.6-70.6-23.8-107.1c5.4-33.5,27.6-65.4,61.3-68.9C1084.5,2058.4,1078.1,2125.5,1070.6,2152.8z"/>
	<path class="st11" d="M875.8,2192.8c-1.5-2.7-2.7-5.6-3.8-8.5c-1.9-4.7-3.7-9.3-5.6-14c-6.7,6.9-9.5,16.9-9.4,26.5
		c0.1,5.7,1.5,12,6.1,15.2c2,1.4,4.4,2.1,6.8,2.3c4.7,0.4,13.2-1.4,15.2-6.5c1-2.5-0.3-4.1-1.9-5.9
		C880.5,2199,877.9,2196.3,875.8,2192.8z"/>
	<path class="st13" d="M879.2,2023c-7.1,0.7-40.1,31.7-75.3,8.2c-5.9-3.9-10.6-11.7-15-17.2c-3.3-4.1-6.1-8.8-6.8-14.1
		c-0.4-2.5-0.1-5.3,1.7-7c1.7-1.6,4.4-1.8,6.7-1.4c4.2,0.8,8.1,3,11.6,5.4c6.3,4.4,12.7,10.2,16.8,16.7c1.5,2.4,39.9,1.1,42.2,2.6
		C866.2,2019.7,877.1,2019.6,879.2,2023z"/>
	<path class="st13" d="M796.3,1981.6c-1.3,0.4-2.7,0.8-4.4,0.7c-1.1-3.2-2.2-6.5-0.8-9.3c1.4-2.8,6.2-5,11.9-4.3
		c2.9,0.4,5.7,1.5,7.9,2.8c2,1.2,3.6,2.6,4.1,4.1C816.9,1980.9,802.2,1980,796.3,1981.6z"/>
	<path class="st9" d="M844.1,1964.5c11.6-9.5,18.1-25,16.7-40c-0.2-2-1.4-4.6-3.3-4c-1.3,0.4-1.7,1.9-2.1,3.2
		c-2.6,10.4-11.8,18.3-22.1,21c-10.3,2.7-21.4,0.9-31.2-3.3c-2.5-1.1-5.4-2.3-7.9-1.4c-1.3,0.5-2.3,1.5-3.2,2.6
		c-4.3,5.4-5.3,13.1-2.7,19.4C796.9,1982.8,830.7,1975.4,844.1,1964.5z"/>
	<g>
		<path class="st13" d="M768.5,1993c2.7-2.5,4.7-5.9,5-9.6c0.2-3.7-1.4-7.6-4.6-9.5c-2-1.3-4.5-1.7-6.9-1.5
			c-6.9,0.3-13.3,5.1-15.7,11.5c-0.6,1.7-1,3.6-0.8,5.5C746.9,2001.5,762.1,1998.8,768.5,1993z"/>
		<path class="st14" d="M744.2,1991.5c0.8,4.8,5.3,8,10,7.2c4.8-0.8,8-5.3,7.2-10c-0.8-4.8-5.3-8-10-7.2
			C746.6,1982.2,743.4,1986.7,744.2,1991.5z"/>
		<path class="st3" d="M752.9,1990.7c1,1.4,3,1.7,4.4,0.6c1.4-1,1.7-3,0.6-4.4c-1-1.4-3-1.7-4.4-0.6
			C752.2,1987.4,751.9,1989.4,752.9,1990.7z"/>
	</g>
	<g>
		<path class="st13" d="M721.1,1975.6c2.1-2.7,3.6-6.2,3.8-9.9c0.2-3.7-1.1-7.4-3.5-9.2c-1.6-1.1-3.5-1.3-5.3-1.1
			c-5.2,0.8-10.2,6-12,12.5c-0.5,1.8-0.8,3.7-0.6,5.5C704.6,1985.5,716.2,1981.7,721.1,1975.6z"/>
		<path class="st14" d="M702.5,1975.7c0.6,4.7,4,7.6,7.7,6.5c3.6-1.1,6.1-5.8,5.6-10.5c-0.6-4.7-4-7.6-7.7-6.5
			C704.4,1966.3,701.9,1971,702.5,1975.7z"/>
		<path class="st3" d="M709.2,1974.4c0.8,1.3,2.3,1.4,3.3,0.3c1.1-1.1,1.3-3.1,0.5-4.4c-0.8-1.3-2.3-1.4-3.3-0.3
			C708.6,1971.1,708.4,1973.1,709.2,1974.4z"/>
	</g>
	<path class="st14" d="M706.9,2035.3c0.5-0.2,1.2-0.2,1.7,0.1c0.6,1.1-0.2,2.5-1.1,3.3c-0.9,0.9-2,1.6-2.4,2.8
		c-0.3,0.9-0.1,2-0.2,2.9c-0.1,1-0.9,2-1.9,1.9c-0.8-0.2-1.2-1.1-1.4-1.9c-0.6-2.2-0.8-4.6,0.2-6.6c1-2,3.5-3.5,5.6-2.6
		L706.9,2035.3z"/>
	<path class="st14" d="M673.6,2023.6c0.5-0.2,1.2-0.2,1.7,0.1c0.6,1.1-0.2,2.5-1.1,3.3c-0.9,0.9-2,1.6-2.4,2.8c-0.3,0.9-0.1,2-0.2,3
		c-0.1,1-0.9,2-1.9,1.8c-0.8-0.2-1.2-1.1-1.4-1.9c-0.6-2.2-0.8-4.6,0.2-6.6c1-2,3.5-3.5,5.6-2.6L673.6,2023.6z"/>
	<path class="st15" d="M729.4,1921.6c1.2,0.6,2.8,1.6,2.4,2.9c-0.2,0.9-1.2,1.3-2,1.6c-4.7,1.2-9.5-1.4-13.4-4.3
		c-2.8-2.1-5.5-4.5-7.6-7.4c-2.1-2.9-3.4-6.3-3.4-9.9c0-0.8,0.1-1.7,0.8-2.1c0.5-0.3,1.1-0.3,1.6-0.2c3.6,0.9,5.4,7.1,8,9.8
		C719.6,1916,724.5,1919.3,729.4,1921.6z"/>
	<path class="st15" d="M704.8,1888c1.2,2.3,1.7,5,1.4,7.6c-0.1,0.7-0.3,1.5-0.8,1.9c-0.8,0.7-2.2,0.4-2.9-0.4s-0.9-1.9-1-3
		c-0.1-2.3,0.3-4.6,1.3-6.7c0.5,0.1,1,0.1,1.5,0.2L704.8,1888z"/>
	<path class="st15" d="M853.5,1946c-3,4.2-6.2,8.3-9.4,12.3c-1,1.2-2,2.5-3.4,3.2c-1.4,0.7-3.3,0.7-4.4-0.4
		c-1.7-1.7-0.5-4.8,1.5-6.2c2-1.4,4.5-1.8,6.6-3.1c3.6-2.2,4.8-6.3,7.5-9.3C856,1937.8,856.2,1942.3,853.5,1946z"/>
	<path class="st15" d="M830.8,1960.8c1.4,1.3,0.8,3.9-0.7,5.1c-1.5,1.2-3.5,1.5-5.5,1.7c-1.7,0.2-3.6,0.3-4.8-0.9
		c-1.3-1.3-0.9-3.7,0.4-4.9c1.3-1.3,3.3-1.6,5.1-1.5c1.8,0.1,3.6,0.7,5.4,0.9L830.8,1960.8z"/>
	<path class="st13" d="M912.2,2183.3c-4.7-5.3-8.8-11.1-14-15.8c-1.7-1.5-3.8-2.9-5.7-2.2c-1.2,0.5-1.9,1.8-2.3,3.1
		c-1.9,5.6-0.5,12.2,1.3,18.2c2.1,7.2,4.7,14.2,7.9,21.1c1.6,3.5,3.7,7.4,7.2,8.8c2.4,1,5,0.6,7.2-0.5c2.2-1.1,4-2.7,5.7-4.4
		c3-2.8,22-3.7,17.6-8.4c-2.3-2.5-14-9.5-16.5-11.7C917.5,2189,914.9,2186.2,912.2,2183.3z"/>
	<path class="st12" d="M868.7,2310.9c10.2,1.2,20.6,1,30.8-0.6c-3.8-32-1.6-64.5,3.1-96.5c1.8-12.5,4-25.2,1.3-37.5
		c-3.3-15.3-13.9-28.3-25.6-39.4c-7.7-7.4-16.3-14.3-26.7-17.8c-14.3-4.8-29.2-1.4-38,10.7c-9.5,13.1-7.4,49.9,2.2,60.8
		c25,28.5,29,34.3,38.7,65.9C860,2274.4,864.8,2292.5,868.7,2310.9z"/>
	<path class="st12" d="M1103,2120.1c6.7,23.1,10.3,47,13.9,70.8c-2.2,0.9-4.5,1.8-6.7,2.6c-0.7-29.4-7.9-58.6-20.9-85
		c-4.4-9-10.4-18.3-19.9-21.3c-5.5-1.7-11.8-1.1-16.9-3.8c-8.5-4.4-10.2-16.1-3.7-23c8.1-8.4,16.6-1.8,23.6,4.5
		C1088.2,2079.3,1097.2,2100.1,1103,2120.1z"/>
	<path class="st22" d="M1094.4,2180.7c-4.2,4.7-5.8,11.5-4.1,17.6c2.9,10.6,14.2,17.1,17.6,27.5c1.8,5.5,1.1,11.4,0.4,17.1
		c10.7-8.6,18.5-20.7,22-33.9c2.4-9,2.3-19.8-4.3-26.4C1117.7,2174.2,1102.7,2171.3,1094.4,2180.7z"/>
	<g>
		<path class="st26" d="M1108.8,2238c-0.1,1.6-0.3,3.3-0.6,4.9c0.5-0.4,0.9-0.8,1.4-1.1C1109.4,2240.5,1109.1,2239.2,1108.8,2238z"
			/>
		<path class="st26" d="M1125.9,2182.5c-6.7-6.8-17.9-9.9-26.3-5.8c2.5,0.4,4.9,1.2,7.2,2.3c8.4,4.2,11.9,14.3,12.6,23.6
			c1,13.6-2.4,27.5-9.7,39c9.9-8.5,17.2-20,20.5-32.7C1132.6,2199.9,1132.5,2189.2,1125.9,2182.5z"/>
	</g>
	<path class="st14" d="M865.7,2297.6c0,0-4.1,16.8-2.6,19.9c1.5,3.1,12.9,4.8,20.4,4.8c12.9,0.1,16.6-2.9,16.6-2.9l-1.7-22.1
		c0,0-3.9,1.9-16.2,2.9C870,2301.3,865.7,2297.6,865.7,2297.6z"/>
	<path class="st14" d="M1013.1,2294.3c0,0-4.2,16.8-2.7,19.9c1.5,3.1,13.3,4.8,21.1,4.8c13.3,0.1,17.2-2.9,17.2-2.9l-1.7-22.1
		c0,0-4,1.9-16.7,2.9C1017.6,2298,1013.1,2294.3,1013.1,2294.3z"/>
	<path class="st14" d="M960.4,2294.3c0,0-4.3,16.8-2.7,19.9c1.5,3.1,13.6,4.8,21.6,4.8c13.7,0.1,17.6-2.9,17.6-2.9l-1.8-22.1
		c0,0-4.1,1.9-17.1,2.9C965,2298,960.4,2294.3,960.4,2294.3z"/>
	<path class="st14" d="M816,2291.8c0,0-4.1,16.8-2.6,19.9s12.9,4.8,20.4,4.8c12.9,0.1,16.6-2.9,16.6-2.9l-1.7-22.1
		c0,0-3.9,1.9-16.2,2.9C820.3,2295.5,816,2291.8,816,2291.8z"/>
	<path class="st22" d="M724.3,1929.7c-4.2,9.8-2.1,21.2,3.7,30.2c-0.1-3,1.3-6.1,3.6-8.3c3.2,8.7,2.5,18.5-1.7,26.8
		c9.9-3.3,19.1-8.5,26.8-15.2c0,4.4-0.5,8.8-1.5,13c9.5-2.1,17.9-7.2,25.9-12.4c6.3-4.1,12.6-8.4,17-14.3c4.3-5.9,6.5-13.6,3.6-20.2
		c-1.5-3.5-4.3-6.4-7.4-8.7C775.3,1906.7,734.7,1905.4,724.3,1929.7z"/>
	<g>
		<path class="st27" d="M746.9,1956.2c0.9-4.6,2.2-9.1,3.7-13.5c0.3-0.8-0.3-1.7-1.1-1.9c-0.8-0.2-1.6,0.3-1.9,1.1
			c-1.5,4.4-2.8,8.9-3.7,13.5c-0.2,0.8,0.2,1.6,1.1,1.9C745.8,1957.5,746.7,1957,746.9,1956.2L746.9,1956.2z"/>
	</g>
	<g>
		<path class="st27" d="M732.5,1947c0.1-3.5,0.2-7,0.3-10.4c0-0.8-0.7-1.5-1.5-1.5c-0.8,0-1.5,0.7-1.5,1.5c-0.1,3.5-0.2,7-0.3,10.4
			c0,0.8,0.7,1.5,1.5,1.5C731.8,1948.6,732.4,1947.9,732.5,1947L732.5,1947z"/>
	</g>
	<g>
		<path class="st27" d="M740.5,1954.7c-0.5-3.2-0.3-6.5,0.4-9.7c0.2-0.8-0.2-1.6-1.1-1.9c-0.8-0.2-1.7,0.3-1.9,1.1
			c-0.9,3.7-1,7.5-0.4,11.3c0.1,0.8,1.1,1.3,1.9,1.1C740.3,1956.4,740.6,1955.6,740.5,1954.7L740.5,1954.7z"/>
	</g>
	<g>
		<path class="st27" d="M739.5,1969.7c1.2-1.5,2.5-2.9,3.9-4.2c0.6-0.5,0.6-1.6,0-2.1c-0.6-0.6-1.5-0.6-2.1,0
			c-1.4,1.3-2.7,2.7-3.9,4.2c-0.3,0.3-0.4,0.6-0.4,1.1c0,0.4,0.2,0.8,0.4,1.1c0.3,0.3,0.7,0.5,1.1,0.4
			C738.8,1970.1,739.3,1970,739.5,1969.7L739.5,1969.7z"/>
	</g>
	<g>
		<path class="st27" d="M762.4,1963.6c3-2.4,6.2-4.7,9.5-6.8c0.7-0.4,1-1.3,0.5-2.1c-0.4-0.7-1.4-1-2.1-0.5
			c-3.5,2.3-6.9,4.7-10.1,7.3c-0.6,0.5-0.5,1.6,0,2.1C760.9,1964.2,761.7,1964.1,762.4,1963.6L762.4,1963.6z"/>
	</g>
	<g>
		<path class="st27" d="M762.4,1948.4c0-0.3,0.1-0.7,0.1-1c0-0.2,0-0.2,0,0c0-0.1,0-0.2,0-0.3c0-0.1,0-0.3,0.1-0.4
			c0.1-0.7,0.3-1.4,0.5-2c0.1-0.3,0.2-0.6,0.3-1c0.1-0.2,0.1-0.3,0.2-0.5c0-0.1,0.1-0.2,0.1-0.3c-0.1,0.1-0.1,0.1,0,0
			c0.3-0.6,0.6-1.3,0.9-1.9c0.4-0.7,0.2-1.7-0.5-2.1c-0.7-0.4-1.6-0.2-2.1,0.5c-1.5,2.7-2.4,5.7-2.7,8.8c-0.1,0.8,0.7,1.5,1.5,1.5
			C761.8,1949.9,762.4,1949.2,762.4,1948.4L762.4,1948.4z"/>
	</g>
	<g>
		<path class="st27" d="M782.2,1955.3c2.8-2.1,5.5-4.5,7.9-7.1c0.5-0.6,0.6-1.6,0-2.1c-0.6-0.5-1.6-0.6-2.1,0
			c-1.1,1.2-2.3,2.4-3.6,3.6c-0.6,0.6-1.2,1.1-1.9,1.6c-0.3,0.3-0.6,0.5-1,0.8c-0.1,0.1-0.1,0.1-0.2,0.2c-0.1,0.1-0.2,0.2-0.1,0.1
			c-0.2,0.1-0.4,0.3-0.6,0.4c-0.6,0.5-1,1.3-0.5,2.1C780.6,1955.4,781.5,1955.8,782.2,1955.3L782.2,1955.3z"/>
	</g>
	<g>
		<path class="st27" d="M782.3,1939.7c0.2-0.7,0.4-1.4,0.7-2.1c0.1-0.4,0.3-0.7,0.4-1.1c-0.1,0.3,0.1-0.3,0.1-0.3
			c0.1-0.2,0.1-0.3,0.2-0.5c0.6-1.3,1.3-2.6,2.2-3.8c0.4-0.7,0.1-1.7-0.5-2.1c-0.8-0.4-1.6-0.2-2.1,0.5c-1.7,2.6-3,5.4-3.9,8.4
			c-0.2,0.8,0.3,1.7,1.1,1.9C781.2,1940.9,782.1,1940.5,782.3,1939.7L782.3,1939.7z"/>
	</g>
	<g>
		<path class="st27" d="M771.4,1923.6c0-0.1,0.1-0.1,0.1-0.2c0.2-0.2,0.1,0,0,0c0.1-0.1,0.2-0.3,0.3-0.4c0.2-0.2,0.4-0.5,0.6-0.7
			c0.4-0.5,0.9-0.9,1.3-1.3c0.2-0.2,0.5-0.4,0.7-0.6c0.1,0,0.1-0.1,0.2-0.1c0.1-0.1-0.3,0.2,0,0c0.1-0.1,0.3-0.2,0.4-0.3
			c0.5-0.4,1-0.7,1.6-1c0.7-0.4,1-1.4,0.5-2.1c-0.4-0.7-1.3-1-2.1-0.5c-2.5,1.4-4.6,3.3-6.2,5.6c-0.2,0.3-0.2,0.8-0.2,1.2
			c0.1,0.4,0.4,0.7,0.7,0.9c0.4,0.2,0.8,0.3,1.2,0.2C770.9,1924.1,771.2,1923.9,771.4,1923.6L771.4,1923.6z"/>
	</g>
	<g>
		<path class="st27" d="M748.2,1929.2c0.2-0.7,0.4-1.3,0.7-2c0.1-0.2,0.1-0.3,0.2-0.5c-0.1,0.3,0.1-0.2,0.1-0.3
			c0.1-0.3,0.3-0.6,0.4-0.9c0.6-1.3,1.3-2.5,2.1-3.7c0.4-0.7,0.1-1.7-0.5-2.1c-0.8-0.4-1.6-0.2-2.1,0.5c-1.7,2.5-3,5.2-3.9,8.1
			c-0.2,0.8,0.3,1.7,1.1,1.9C747.2,1930.5,748,1930.1,748.2,1929.2L748.2,1929.2z"/>
	</g>
	<g>
		<path class="st27" d="M759.1,1933.9c0-0.5,0-1,0.1-1.5c0,0.1,0,0.3-0.1,0.4c0.1-0.7,0.3-1.5,0.6-2.1c-0.1,0.1-0.1,0.2-0.2,0.4
			c0.2-0.5,0.4-0.9,0.7-1.4c0.4-0.7,0.1-1.7-0.5-2.1c-0.8-0.4-1.6-0.2-2.1,0.5c-1.1,1.7-1.7,3.8-1.6,5.8c0,0.8,0.7,1.5,1.5,1.5
			C758.4,1935.4,759.2,1934.8,759.1,1933.9L759.1,1933.9z"/>
	</g>
	<g>
		<path class="st27" d="M733.9,1926.5c0.2-0.3,0.4-0.6,0.6-1c0.1-0.2,0.2-0.3,0.4-0.5c0.2-0.2-0.1,0.1,0,0c0.1-0.1,0.1-0.1,0.2-0.2
			c0.5-0.6,1-1.2,1.5-1.7c0.5-0.5,1.1-1,1.7-1.5c0.1-0.1,0.1-0.1,0.2-0.2c0.3-0.2-0.3,0.2,0,0c0.1-0.1,0.3-0.2,0.4-0.3
			c0.3-0.2,0.7-0.5,1-0.7c0.7-0.4,1-1.4,0.5-2.1c-0.4-0.7-1.4-1-2.1-0.5c-2.9,1.8-5.3,4.3-7.1,7.1c-0.4,0.7-0.2,1.7,0.5,2.1
			C732.6,1927.4,733.4,1927.2,733.9,1926.5L733.9,1926.5z"/>
	</g>
	<g>
		<path class="st27" d="M794.8,1937c0.4-2.4,0.6-4.7,0.5-7.1c0-0.8-0.7-1.5-1.5-1.5c-0.8,0-1.5,0.7-1.5,1.5c0,1.1,0,2.2-0.1,3.3
			c0,0.5-0.1,1.1-0.1,1.6c0,0.1,0,0.3,0,0.4c0,0.4,0-0.2,0,0.1c0,0.3-0.1,0.6-0.1,0.9c-0.1,0.8,0.2,1.7,1.1,1.9
			C793.6,1938.2,794.6,1937.8,794.8,1937L794.8,1937z"/>
	</g>
	<g>
		<path class="st27" d="M756.3,1916.6c1.5,0,2.9,0,4.4,0c0.8,0,1.5-0.7,1.5-1.5c0-0.8-0.7-1.5-1.5-1.5c-1.5,0-2.9,0-4.4,0
			c-0.8,0-1.5,0.7-1.5,1.5C754.8,1915.9,755.4,1916.6,756.3,1916.6L756.3,1916.6z"/>
	</g>
	<path class="st9" d="M674.8,2072.6c0,0,9.2,7.9,16.5,6.2c7.3-1.7,12.8-11.6,12.8-11.6s-5.1,13.6-12.1,15
		C680,2084.6,674.8,2072.6,674.8,2072.6z"/>
	<path class="st28" d="M988.3,2050.8c10.3,1.2,21,3.4,29,10.1c6,5.1,9.9,12.3,12.3,19.8c0.9,2.9,1.6,5.8,3.1,8.4
		c1.5,2.6,4.1,4.7,7.1,4.9c3.2,0.1,6.1-2.1,7.7-4.9c1.5-2.8,1.9-6.1,2.2-9.3c0.5-7,0.3-14.3-3.2-20.4c-2.5-4.2-6.4-7.4-10.5-10.1
		c-12.1-8-26.9-12.6-41.4-12.6C984,2036.7,972.2,2048.9,988.3,2050.8z"/>
	<path class="st9" d="M812.2,2066.8c5.8-15.9,11.7-31.9,13.2-48.8c6.2-0.6,12.5-1.1,18.7-1.7c-3.5,15.3-7.3,30.5-12.2,45.5
		c-12.5,38.1-31.6,74.1-56.2,105.7c-1.2-3.6-3.5-7.9-2.6-11.7c0.9-3.6,4.2-7.4,5.9-10.6c4.5-8.3,8.6-16.8,12.4-25.5
		C799.1,2102.4,805.7,2084.6,812.2,2066.8z"/>
	<path class="st12" d="M844.3,1992c7.5,7.9,12.7,18.3,21.9,24.1c-5.9,2.6-12.2,3.7-18.5,4.8c-8,1.3-16.1,2.4-24.2,2.1
		c-8.1-0.2-16.3-1.8-23.5-5.6c-5.8-3-10.9-7.4-14.7-12.7c-1.5-2-2.8-4.2-3.5-6.6c-1.8-6,0.4-12.8,5-17c5.8-5.4,14.6-5.9,22.2-5.5
		c8.5,0.5,16.9,3.1,24.3,7.5C837.3,1985.5,841,1988.5,844.3,1992z"/>
	<path class="st8" d="M794,1990.4c0-1-0.5-1.9-0.4-2.9c0.1-2.1,2.6-3.2,4.7-3.4c4-0.3,7.9,0.9,11.6,2.3c13.4,5.1,26,12.4,37,21.6
		c-3.5,1.9-7.4,3.1-11.3,3.7c-5.9,0.9-11.9,0.2-17.7-0.8c-10.2-1.8-20.5-4.9-28.2-11.8c-1-0.9-2.1-2-2.4-3.3c-0.3-1.3,0.3-3,1.7-3.3
		C790.5,1992.1,794,1993.3,794,1990.4z"/>
	<path class="st15" d="M844.9,1997.5c0.3,0.6,0.5,1.4-0.1,1.8c-0.2,0.1-0.4,0.1-0.6,0.1c-2.3,0-3.7-2.3-5.1-4
		c-4.3-5.3-11.3-7.6-17.3-10.7c-0.7-0.3-1.4-1.1-1-1.7c0.2-0.3,0.5-0.3,0.8-0.4c4.6-0.7,9.6,2.1,13.4,4.3
		C839.3,1989.4,842.8,1993,844.9,1997.5z"/>
	<path class="st22" d="M768.5,2149c-1,1.6-1.5,3.4-1.8,5.3c-0.4,2.7-0.4,5.4,0,8c0.2,1.5,0.6,3,1.5,4.3c1.1,1.5,2.8,2.5,4.6,3.1
		c2.3,0.8,5.1,0.9,7.2-0.3c1.7-1,2.8-2.9,3.1-4.8c0.4-1.9,0-3.9-0.6-5.8c-1.8,1-4.2,1.3-5.7-0.2c-1.2-1.3-1.2-3.3-0.8-5
		c0.5-2.4,4.6-8.1,1.7-9.1C774.8,2143.3,770,2146.7,768.5,2149z"/>
	<path class="st23" d="M770,2167.8c0.7,0.4,1.5,0.6,2.3,0.7c2.6,0.5,5.3,0.2,8-0.2c0.7-0.1,1.4-0.3,1.9-0.8c0.6-0.5,0.8-1.4,0.9-2.1
		c0.3-2.3,0.2-4.6-0.5-6.8c-1,0.2-2,0.5-3,0.7c-0.2,0.1-0.4,0.1-0.6,0.3c-0.1,0.1-0.2,0.3-0.2,0.5c-0.3,1.7-0.5,3.6-1.8,4.7
		c-0.6,0.5-1.3,0.7-2,0.8c-1.3,0.3-2.7,0.3-4,0c-0.7-0.1-1.3-0.4-1.9-0.6c-0.5-0.2-1.2-0.8-1.7-0.8
		C767.1,2165.6,768.9,2167.3,770,2167.8z"/>
	<path class="st29" d="M765.3,2174.9c-1.3,3.2-1.6,6.9-0.9,10.3c0.3,1.3,1,2.7,2.3,2.9c0.9,0.1,1.8-0.4,2.2-1.2
		c0.5-0.7,0.6-1.7,0.6-2.5c0-1.4-0.3-2.8-0.2-4.2c0.1-1.5,0.7-2.9,1.7-4.1c0.5-0.6,1-1.1,1.4-1.7c0.4-0.6,0.5-1.5,0.2-2.1
		c-0.8-1.3-2.6-1.9-4-1.3C767,2171.9,766,2173.2,765.3,2174.9z"/>
	<path class="st29" d="M765.1,2197c0.7,1,2,1.6,3.2,1.2c2.7-1,2.7-6.2,0-7.2C765.1,2189.9,763.7,2194.9,765.1,2197z"/>
	<path class="st29" d="M768.6,2155.4c0.2,0.9,0.8,1.9,1.7,1.8c0.7,0,1.3-0.8,1.4-1.5c0.2-0.7,0.1-1.5,0.1-2.2c0.1-1,0.6-2,1.3-2.7
		c0.5-0.5,1.1-0.9,1.6-1.4c0.5-0.5,0.8-1.3,0.5-2c-1.2-2.5-4.3,0.1-5.2,1.3C768.7,2150.6,768.1,2153.1,768.6,2155.4z"/>
</g>
</svg>
