<?xml version="1.0" encoding="utf-8"?>
<!-- Generator: Adobe Illustrator 23.0.0, SVG Export Plug-In . SVG Version: 6.00 Build 0)  -->
<svg version="1.1" id="Capa_3" xmlns="http://www.w3.org/2000/svg" xmlns:xlink="http://www.w3.org/1999/xlink" x="0px" y="0px"
	 viewBox="0 0 304.78 338.97" style="enable-background:new 0 0 304.78 338.97;" xml:space="preserve">
<style type="text/css">
	.st0{fill:url(#SVGID_1_);}
	.st1{fill:url(#SVGID_2_);}
	.st2{fill:url(#SVGID_3_);}
	.st3{fill:url(#SVGID_4_);}
	.st4{fill:url(#SVGID_5_);}
	.st5{fill:url(#SVGID_6_);}
	.st6{fill:url(#SVGID_7_);}
	.st7{fill:url(#SVGID_8_);}
	.st8{fill:#DCCEB6;}
	.st9{fill:#E9C2AF;}
	.st10{fill:#ECB993;}
	.st11{fill:#69504B;}
	.st12{fill:#F6E7CA;}
	.st13{fill:#E9DAC2;}
	.st14{fill:#C07A48;}
	.st15{fill:#A96D43;}
	.st16{fill:#221E20;}
	.st17{fill:#FFFFFF;}
	.st18{opacity:0.3;fill:#FFFFFF;}
	.st19{fill:#F49F43;}
	.st20{fill:#DF8E40;}
	.st21{fill:#493836;}
	.st22{fill:#95603C;}
	.st23{fill:#E18F41;}
	.st24{fill:#F1BA3F;}
	.st25{opacity:0.2;fill:#FFFFFF;}
	.st26{opacity:0.39;fill:#FFFFFF;}
	.st27{fill:#A3CA65;}
	.st28{fill:#5F9C31;}
</style>
<radialGradient id="SVGID_1_" cx="-65.7795" cy="661.5361" r="84.6848" gradientTransform="matrix(-0.7612 -0.2327 -0.2279 0.7453 308.6302 -410.8896)" gradientUnits="userSpaceOnUse">
	<stop  offset="0" style="stop-color:#FFFFFF"/>
	<stop  offset="1" style="stop-color:#FFFFFF;stop-opacity:0"/>
</radialGradient>
<path class="st0" d="M135.24,148.75c4.95-3.72,142.11-91.74,142.11-91.74l-39.09-30.32l-87.95,133.21L135.24,148.75z"/>
<radialGradient id="SVGID_2_" cx="58.3928" cy="773.6525" r="80.8839" gradientTransform="matrix(-0.7723 0.1927 0.1887 0.7562 78.3587 -515.2317)" gradientUnits="userSpaceOnUse">
	<stop  offset="0" style="stop-color:#FFFFFF"/>
	<stop  offset="1" style="stop-color:#FFFFFF;stop-opacity:0"/>
</radialGradient>
<path class="st1" d="M143.31,163.4c2.33-5.74,77.32-142.76,77.32-142.76L179.5,7.6l-21.11,123.69L143.31,163.4z"/>
<radialGradient id="SVGID_3_" cx="49.6018" cy="831.11" r="93.5466" gradientTransform="matrix(-0.7723 0.1927 0.1887 0.7562 78.3587 -515.2317)" gradientUnits="userSpaceOnUse">
	<stop  offset="0" style="stop-color:#FFFFFF"/>
	<stop  offset="1" style="stop-color:#FFFFFF;stop-opacity:0"/>
</radialGradient>
<path class="st2" d="M101.64,167.57c30.29-45.53,199.92-51.51,199.92-51.51l-11.6-37.48l-159.02,57.85L101.64,167.57z"/>
<radialGradient id="SVGID_4_" cx="133.0433" cy="661.304" r="84.6848" gradientTransform="matrix(0.7923 -0.0758 0.0742 0.7758 -51.7867 -409.726)" gradientUnits="userSpaceOnUse">
	<stop  offset="0" style="stop-color:#FFFFFF"/>
	<stop  offset="1" style="stop-color:#FFFFFF;stop-opacity:0"/>
</radialGradient>
<path class="st3" d="M163.68,158.04C159.57,153.4,42.79,39.73,42.79,39.73l44.36-21.89l59.53,148.11L163.68,158.04z"/>
<radialGradient id="SVGID_5_" cx="243.1501" cy="668.8277" r="80.8839" gradientTransform="matrix(0.7181 0.3432 -0.3361 0.7032 194.7013 -465.9035)" gradientUnits="userSpaceOnUse">
	<stop  offset="0" style="stop-color:#FFFFFF"/>
	<stop  offset="1" style="stop-color:#FFFFFF;stop-opacity:0"/>
</radialGradient>
<path class="st4" d="M163.25,175.74c-1.14-6.09-47.2-155.34-47.2-155.34l42.9-4.55l-4.05,125.41L163.25,175.74z"/>
<radialGradient id="SVGID_6_" cx="220.341" cy="725.0587" r="93.5466" gradientTransform="matrix(0.7181 0.3432 -0.3361 0.7032 194.7013 -465.9035)" gradientUnits="userSpaceOnUse">
	<stop  offset="0" style="stop-color:#FFFFFF"/>
	<stop  offset="1" style="stop-color:#FFFFFF;stop-opacity:0"/>
</radialGradient>
<path class="st5" d="M193.58,182.48C173.01,131.81,8,92.02,8,92.02l18.86-34.4l144.23,88.49L193.58,182.48z"/>
<radialGradient id="SVGID_7_" cx="393.9182" cy="538.7138" r="86.9321" gradientTransform="matrix(0.2457 0.7571 -0.7413 0.2405 523.969 -286.5772)" gradientUnits="userSpaceOnUse">
	<stop  offset="0" style="stop-color:#FFFFFF"/>
	<stop  offset="1" style="stop-color:#FFFFFF;stop-opacity:0"/>
</radialGradient>
<path class="st6" d="M136.66,128.96c3.63-5.02,164.17-28.72,164.17-28.72l-8.57,58.11l-158.19-0.28L136.66,128.96z"/>
<linearGradient id="SVGID_8_" gradientUnits="userSpaceOnUse" x1="0.3181" y1="214.4213" x2="305.0975" y2="214.4213">
	<stop  offset="0" style="stop-color:#FFFFFF"/>
	<stop  offset="5.592048e-04" style="stop-color:#93C14A"/>
	<stop  offset="1" style="stop-color:#6FB85E"/>
</linearGradient>
<path class="st7" d="M278.27,322.45H27.15c-14.82,0-26.83-12.01-26.83-26.83V133.22c0-14.82,12.01-26.83,26.83-26.83h251.12
	c14.82,0,26.83,12.01,26.83,26.83v162.39C305.1,310.44,293.09,322.45,278.27,322.45z"/>
<g>
	<g>
		<path class="st8" d="M73.81,130.98c1.71,6.2,4.34,12.12,6.17,18.28c1.62,5.44,2.61,11.06,2.95,16.72
			c1.87,0.16,3.74,0.32,5.61,0.48c-0.6-5.25-0.22-10.61,1.13-15.73c2.16-8.19,6.79-16.19,5.45-24.56
			c-1.23-7.69-8.14-14.12-15.87-14.91C68.78,110.21,72.08,124.72,73.81,130.98z"/>
		<path class="st9" d="M78.68,154.25c1.79,0.35,5.07-0.5,6.07-0.87c1.35-0.49,2.41-1.55,3.24-2.72c1.14-1.6,1.93-3.49,1.97-5.45
			c0.05-1.96-0.72-3.98-2.24-5.22c-1.3-1.06-3.02-1.48-4.69-1.64c-2.58-0.25-5.28,0.1-7.65,1.16c-1.83,0.82-4.95,2.64-4.78,4.9
			C70.96,149.24,74.47,153.43,78.68,154.25z"/>
		<path class="st8" d="M141.51,82.46c2.29,0.22,4.48,1.04,6.5,2.13c0.14,0.07,0.28,0.16,0.33,0.3c0.06,0.17-0.03,0.36-0.13,0.51
			c-1.37,2.25-3.79,3.67-6.27,4.53c-1.79,0.62-3.79,0.98-5.57,0.32c-1.78-0.67-3.15-2.67-2.55-4.48
			C134.83,82.72,138.74,82.2,141.51,82.46z"/>
		<path class="st10" d="M145.35,84.92c-1.86,1.47-3.94,2.68-6.17,3.48c-0.78,0.28-1.74,0.48-2.37-0.05
			c-0.34-0.29-0.51-0.74-0.62-1.17c-0.19-0.69-0.66-2.22,0.01-2.65c0.76-0.48,2.16-0.54,3.03-0.61
			C141.31,83.76,143.43,84.09,145.35,84.92z"/>
		<path class="st11" d="M142.84,76.34c1.01-3.11,0.36-6.71-1.66-9.28c-0.27-0.34-0.79-0.68-1.08-0.35
			c-0.19,0.22-0.09,0.56,0.01,0.83c0.75,2.2-0.01,4.74-1.57,6.46c-1.56,1.72-3.82,2.69-6.11,3.08c-0.59,0.1-1.26,0.2-1.61,0.69
			c-0.18,0.25-0.25,0.56-0.28,0.86c-0.15,1.48,0.57,3.02,1.79,3.86C136.36,85.28,141.68,79.93,142.84,76.34z"/>
		<path class="st8" d="M124.31,137.41c1.54,2.05,2.22,5.18,2.21,7.74c0,1.53-1.6,10.4-1.95,10.72c-0.98,0.88-3.59-0.32-4.89-0.06
			c0.44-1.94,0.86-3.93,0.64-5.91c-0.22-1.98,0.08-5.19-2.53-6.41c-1.69-0.79-4.29,0.37-5.07-1.32c-0.26-0.58-0.28-1.23-0.28-1.87
			c0-2.93,0.46-8.18,4.01-8.72C119.35,131.15,122.79,135.36,124.31,137.41z"/>
		<path class="st12" d="M103.67,103.66c-0.45,0.35-0.95,0.75-0.97,1.26c-0.01,0.29,0.14,0.56,0.29,0.82
			c3.15,5.53,7.59,10.6,13.02,14.9c0.14,0.11,0.31,0.23,0.51,0.24c0.24,0.01,0.44-0.14,0.6-0.28c8.26-7.18,12.68-16.72,14.17-26.34
			c0.3-1.93,0.48-3.89,0.06-5.81c-0.42-1.91-1.51-3.79-3.41-5.04c-3.24-2.13-9.65-3.22-11.14,0.75c-1.77,4.71-3.26,9.05-6.7,13.25
			C108.25,99.67,106.1,101.77,103.67,103.66z"/>
		<path class="st12" d="M73.8,100.91c-3.68,0.16-7.53,0.66-10.48,2.86c-4.39,3.27-5.56,9.31-5.84,14.78
			c-0.22,4.27-0.09,8.61,1.14,12.7c1.23,4.09,3.66,7.94,7.27,10.23c2.85,1.81,6.24,2.55,9.57,3.11c8.32,1.42,16.82,1.97,25.23,1.28
			c6.12-0.51,12.72-1.99,16.57-6.77c2.82-3.51,3.64-8.16,4.36-12.6c0.5-3.07,1-6.13,1.5-9.2c0.33-1.99,0.64-4.08-0.03-5.99
			c-0.87-2.45-3.17-4.05-5.27-5.58c-2.56-1.87-5.64-5.86-8.67-5.76c-3.9,0.14-7.81,1.3-11.8,1.38
			C89.5,101.52,81.66,100.58,73.8,100.91z"/>
		<path class="st13" d="M117.26,135.05c-3.85,4.78-10.45,6.26-16.57,6.77c-8.42,0.7-16.91,0.14-25.23-1.28
			c-3.33-0.57-6.72-1.3-9.57-3.11c-3.61-2.29-6.04-6.14-7.27-10.23c-0.74-2.46-1.08-5.01-1.19-7.58c-0.14,3.92,0.06,7.88,1.19,11.63
			c1.23,4.09,3.66,7.94,7.27,10.23c2.85,1.81,6.24,2.55,9.57,3.11c8.32,1.42,16.82,1.97,25.23,1.28c6.12-0.51,12.72-1.99,16.57-6.77
			c2.82-3.51,3.64-8.16,4.36-12.6C122.13,123.43,120.08,131.55,117.26,135.05z"/>
		<path class="st13" d="M122.93,118.54c0.53-1.85,1.85-6.52,2.46-7.31c0.32-0.41,0.35-0.8,0.28-1.32
			c-0.76-5.6-1.53-11.19-2.29-16.79c-0.23-1.67-0.86-0.5-1.1,0.34c-0.32,1.13-0.36,2.44-0.51,3.61c-0.32,2.41-4.48-3.61-4.62-1.19
			c-0.14,2.34,0.8,9.52,1.33,11.6C120.67,116.05,123.13,117.83,122.93,118.54z"/>
		<path class="st12" d="M118.83,79.64c-1.67,2.3-2.21,5.23-2.34,8.07c-0.41,8.63,2.69,17.51,8.9,23.53c1.24,1.21,2.61,2.3,4.16,3.08
			c4.52,2.27,10.43,1.37,14.08-2.14c3.65-3.51,4.77-9.38,2.68-13.98c-1.63-3.59-4.87-6.2-6.9-9.58c-1.65-2.75-2.49-5.98-4.48-8.5
			C131.09,75.28,122.76,74.24,118.83,79.64z"/>
		<path class="st10" d="M125.49,111.33c1.22,1.17,2.56,2.23,4.06,2.98c4.52,2.27,10.43,1.37,14.08-2.14
			c3.6-3.46,4.74-9.23,2.75-13.81c-2.26-1.37-5.19-1.28-7.83-0.82c-4.12,0.72-8.32,2.29-10.99,5.52
			C125.72,105.3,125.07,108.41,125.49,111.33z"/>
		<path class="st13" d="M81.75,141.73c0.41-2.83,0.74-5.7,0.54-8.56c-0.2-2.86-0.96-5.73-2.58-8.09c-0.61-0.89-1.44-1.76-2.51-1.88
			c-0.06,3.62-1,7.22-2.73,10.4c-0.6,1.11-1.32,2.22-1.46,3.47c-0.21,1.79,0.8,3.54,2.16,4.72c1.12,0.98,2.49,1.67,3.94,1.99
			c0.53,0.12,1.49,0.41,1.94,0.07C81.58,143.45,81.67,142.31,81.75,141.73z"/>
		<path class="st12" d="M58.37,130.98c1.71,6.2,4.34,12.12,6.17,18.28c1.62,5.44,2.61,11.06,2.95,16.72
			c1.87,0.16,3.74,0.32,5.61,0.48c-0.6-5.25-0.22-10.61,1.13-15.73c2.16-8.19,6.79-16.19,5.45-24.56
			c-1.23-7.69-6.32-15.01-14.06-15.79C55.16,109.32,56.64,124.72,58.37,130.98z"/>
		<path class="st13" d="M103.03,140.15c0.35-0.62,0.62-1.29,0.88-1.95c0.43-1.07,0.85-2.14,1.28-3.2c1.54,1.58,2.18,3.87,2.15,6.07
			c-0.02,1.31-0.33,2.75-1.4,3.49c-0.45,0.32-1.01,0.47-1.56,0.52c-1.09,0.09-3.03-0.33-3.49-1.5c-0.23-0.58,0.06-0.94,0.45-1.34
			C101.96,141.56,102.57,140.96,103.03,140.15z"/>
		<path class="st12" d="M116.31,146.74c-2,6.46-4,12.93-6.01,19.39c-2.33,0.09-4.66,0.18-6.99,0.28c3.2-9.73,4-20.24,2.31-30.35
			c-0.21-1.23-0.45-2.5-0.14-3.72c0.3-1.16,1.07-2.14,1.85-3.05c2.37-2.75,11.51-11.14,13.94-4.36c1.08,3.01-0.74,7.27-1.52,10.17
			C118.7,139.01,117.5,142.88,116.31,146.74z"/>
		<path class="st13" d="M57.09,110.22c-3.43,3.66-5.5,8.55-5.75,13.55c-0.18,3.68,0.67,7.54,3.04,10.37
			c2.36,2.8,6.05,4.33,9.71,4.39c3.66,0.06,7.27-1.24,10.3-3.31c-0.1-0.35-0.21-0.69-0.31-1.04c-4.1,2.12-9.06,2.49-13.43,1.01
			c-1.49-0.51-2.96-1.25-3.99-2.44c-1.03-1.2-1.55-2.75-1.91-4.3c-0.84-3.67-0.87-7.6,0.5-11.11c0.38-0.99,1.33-2.61,2.74-3.49
			c0,0,0.73-3.63,1.98-6.08C59.96,107.76,57.67,109.59,57.09,110.22z"/>
		<path class="st13" d="M110.1,97.39c1.49,0.41,3.1,0.3,4.57-0.18c1.47-0.48,2.8-1.34,3.95-2.37c0.85-0.77,1.62-1.68,1.98-2.77
			c0.17-0.52,0.22-1.13-0.1-1.56c-0.31-0.41-0.88-0.54-1.4-0.54c-0.94,0.01-1.84,0.34-2.68,0.75c-1.51,0.73-3.1,1.72-4.22,2.98
			c-0.41,0.47-0.44,0.94-0.66,1.5C111.22,95.99,110.67,96.74,110.1,97.39z"/>
		<path class="st13" d="M118.88,87.61c0.14,0.13,0.29,0.27,0.48,0.3c0.19-0.64,0.38-1.31,0.27-1.96c-0.11-0.66-0.61-1.3-1.27-1.35
			c-0.34-0.02-0.68,0.11-0.95,0.32c-0.25,0.19-0.46,0.44-0.55,0.73C116.55,86.72,118.24,87.05,118.88,87.61z"/>
		<path class="st11" d="M108.55,82.19c-2.15-2.46-2.98-6.02-2.13-9.19c0.11-0.42,0.46-0.93,0.85-0.75c0.26,0.12,0.3,0.48,0.32,0.77
			c0.18,2.32,1.88,4.35,3.99,5.31c2.11,0.97,4.57,0.97,6.83,0.42c0.58-0.14,1.23-0.31,1.75,0c0.26,0.16,0.45,0.41,0.6,0.68
			c0.72,1.3,0.67,3-0.12,4.26C118.02,87.85,111.02,85.03,108.55,82.19z"/>
		<path class="st12" d="M107.51,88.1c-1.9,1.43-3.39,3.47-5.59,4.37c1.16,0.76,2.49,1.25,3.8,1.7c1.67,0.57,3.38,1.09,5.13,1.34
			c1.75,0.24,3.57,0.2,5.25-0.34c1.36-0.44,2.61-1.19,3.62-2.19c0.39-0.38,0.75-0.8,0.99-1.29c0.6-1.22,0.37-2.76-0.45-3.83
			c-1.06-1.37-2.92-1.8-4.56-1.98c-1.85-0.2-3.75,0.05-5.49,0.73C109.26,86.97,108.34,87.47,107.51,88.1z"/>
		<path class="st10" d="M118.36,89.58c0.03-0.21,0.18-0.39,0.2-0.61c0.05-0.46-0.44-0.78-0.88-0.9c-0.84-0.21-1.72-0.09-2.57,0.08
			c-3.06,0.6-6.02,1.72-8.72,3.29c0.69,0.53,1.46,0.94,2.29,1.21c1.23,0.4,2.54,0.47,3.83,0.46c2.25-0.02,4.57-0.32,6.49-1.5
			c0.26-0.16,0.51-0.35,0.63-0.62c0.12-0.28,0.04-0.66-0.24-0.78C119.06,90.09,118.26,90.2,118.36,89.58z"/>
		<path class="st14" d="M95.34,120.83c1.21-2.37,1.2-5.33-0.04-7.68c-0.65-1.23-1.6-2.28-2.27-3.5c-0.68-1.22-1.06-2.73-0.49-3.99
			c0.6-1.34,2.15-2.14,2.54-3.56c0.07-0.24,0.09-0.48,0.09-0.73c-7.12-0.02-14.24-0.77-21.36-0.46c-0.29,0.01-0.58,0.03-0.87,0.04
			c-1.27,0.93-2.67,1.69-3.85,2.76c-1.34,1.22-2.36,2.91-2.37,4.73c0,1.81,1.23,3.68,3.01,4.01c1.4,0.26,2.78-0.39,4.08-0.98
			c1.36-0.61,2.78-1.18,4.26-1.21c1.49-0.03,3.07,0.57,3.85,1.83c1.48,2.41-0.54,5.5-0.21,8.31c0.39,3.26,4.12,5.34,7.38,4.88
			C91.72,124.91,94.13,123.19,95.34,120.83z"/>
		<path class="st14" d="M104.5,112.93c-1.15,1.92,0.29,4.45-0.37,6.59c-0.5,1.63-2.08,2.62-3.3,3.82c-1.21,1.2-2.11,3.21-1.03,4.53
			c0.57,0.7,1.53,0.95,2.44,0.99c1.45,0.06,2.88-0.31,4.33-0.4c1.45-0.09,3.04,0.16,4.03,1.21c0.74,0.79,1.08,1.97,2.01,2.54
			c0.94,0.59,2.23,0.33,3.08-0.38c0.85-0.71,1.32-1.77,1.6-2.84c1.01-3.85-0.13-7.89-1.26-11.7c-0.23-0.79-0.5-1.63-1.15-2.13
			c-0.71-0.55-1.68-0.54-2.56-0.71C109.95,113.99,106.69,109.27,104.5,112.93z"/>
		<path class="st14" d="M71.35,131.89c1.46-0.74,2.92-1.68,3.69-3.12c0.14,0.89,0.43,1.74,0.61,2.62c0.39,1.91,0.26,3.98-0.63,5.72
			c-0.89,1.74-2.62,3.09-4.57,3.27c-1.98,0.18-5.01-1.32-4.87-3.63C65.75,134.09,69.39,132.88,71.35,131.89z"/>
		<path class="st15" d="M75.65,131.4c-0.18-0.88-0.46-1.74-0.61-2.62c-0.06,0.11-0.13,0.22-0.2,0.33c0,0.01,0.01,0.03,0.01,0.04
			c0.39,1.91,0.26,3.98-0.63,5.72c-0.89,1.74-2.62,3.09-4.57,3.27c-1.3,0.12-3.04-0.48-4.05-1.56c-0.01,0.06-0.02,0.12-0.02,0.19
			c-0.14,2.31,2.88,3.81,4.87,3.63c1.95-0.18,3.67-1.54,4.57-3.27C75.92,135.37,76.04,133.31,75.65,131.4z"/>
		<g>
			<path class="st13" d="M123.74,91.07c-0.5-0.63-0.8-1.44-0.72-2.25c0.08-0.8,0.58-1.57,1.33-1.88c0.49-0.2,1.04-0.19,1.55-0.08
				c1.46,0.33,2.67,1.58,2.95,3.05c0.08,0.4,0.09,0.81-0.03,1.2C128.07,93.68,124.91,92.55,123.74,91.07z"/>
			<path class="st16" d="M129.03,91.63c-0.34,1-1.42,1.53-2.42,1.19c-1-0.34-1.53-1.42-1.19-2.42c0.34-1,1.42-1.53,2.42-1.19
				C128.83,89.55,129.37,90.63,129.03,91.63z"/>
			<path class="st17" d="M127.17,91.16c-0.27,0.26-0.7,0.25-0.96-0.02c-0.26-0.27-0.25-0.7,0.02-0.96c0.27-0.26,0.7-0.25,0.96,0.02
				C127.45,90.47,127.44,90.9,127.17,91.16z"/>
		</g>
		<g>
			<path class="st13" d="M134.55,89.06c-0.36-0.65-0.55-1.47-0.46-2.27c0.09-0.8,0.5-1.56,1.08-1.84c0.38-0.18,0.79-0.16,1.18-0.03
				c1.1,0.37,1.97,1.65,2.12,3.13c0.04,0.4,0.03,0.82-0.07,1.2C137.74,91.79,135.38,90.56,134.55,89.06z"/>
			<path class="st16" d="M138.55,89.77c-0.3,0.99-1.14,1.49-1.88,1.12c-0.74-0.37-1.11-1.46-0.81-2.45c0.3-0.99,1.14-1.49,1.88-1.12
				C138.48,87.68,138.84,88.78,138.55,89.77z"/>
			<path class="st17" d="M137.15,89.24c-0.22,0.25-0.54,0.23-0.73-0.05c-0.19-0.28-0.16-0.71,0.06-0.96
				c0.22-0.25,0.54-0.23,0.73,0.05C137.39,88.56,137.37,88.99,137.15,89.24z"/>
		</g>
		<path class="st16" d="M135.44,102.4c-0.11-0.07-0.25-0.08-0.37-0.04c-0.17,0.21-0.06,0.53,0.11,0.75
			c0.16,0.22,0.38,0.42,0.42,0.69c0.03,0.21-0.05,0.43-0.06,0.64c-0.01,0.22,0.12,0.47,0.34,0.47c0.18-0.01,0.3-0.19,0.37-0.36
			c0.2-0.45,0.34-0.96,0.2-1.43c-0.13-0.47-0.62-0.87-1.1-0.75L135.44,102.4z"/>
		<path class="st16" d="M143,101.11c-0.11-0.07-0.25-0.08-0.37-0.04c-0.17,0.21-0.06,0.53,0.11,0.75c0.16,0.22,0.38,0.42,0.42,0.69
			c0.03,0.21-0.05,0.43-0.06,0.64c-0.01,0.22,0.12,0.47,0.34,0.47c0.18-0.01,0.3-0.19,0.37-0.36c0.2-0.45,0.34-0.96,0.2-1.43
			c-0.13-0.47-0.62-0.87-1.1-0.75L143,101.11z"/>
		<path class="st11" d="M136.29,109.79c0,0,2.11,1.82,3.8,1.43c1.69-0.39,2.92-2.67,2.92-2.67s-1.16,3.12-2.78,3.44
			C137.48,112.54,136.29,109.79,136.29,109.79z"/>
		<path class="st18" d="M64.25,109.87c-2.01,2.59-2.9,6.07-2.17,9.26c0.38,1.68,1.47,3.46,3.18,3.64c1.46,0.15,2.8-0.98,3.43-2.32
			c0.63-1.33,0.72-2.84,0.91-4.3c0.2-1.46,0.55-2.98,1.56-4.05c0.88-0.93,2.13-1.39,3.21-2.07c3.06-1.92,1.81-6-1.82-5.24
			C69.46,105.43,66.19,107.38,64.25,109.87z"/>
		<path class="st12" d="M121.32,74.01c1.23-0.06,2.47,0.39,3.37,1.22c0.44-1.68,1.4-3.22,2.71-4.35c-0.33,1.29-0.26,2.69,0.19,3.94
			c0.88-0.93,2.12-1.53,3.4-1.64c-0.94,0.47-1.51,1.59-1.35,2.62c0.08,0.54,0.34,1.08,0.2,1.61c-0.12,0.44-0.49,0.77-0.91,0.94
			c-0.42,0.17-0.88,0.21-1.33,0.24c-1.25,0.08-3.67,0.38-4.39-0.96c-0.27-0.51-0.13-1.2-0.3-1.74
			C122.65,75.06,122.01,74.51,121.32,74.01z"/>
		<path class="st18" d="M134.73,77.18c-0.29,0.08-0.65,0.24-0.62,0.54c0.02,0.2,0.2,0.33,0.38,0.41c0.96,0.43,2.09,0.04,3.02-0.44
			c0.69-0.35,1.35-0.76,1.9-1.3s0.97-1.23,1.09-1.99c0.03-0.17,0.03-0.36-0.09-0.48c-0.09-0.08-0.22-0.11-0.34-0.1
			c-0.82,0.07-1.43,1.33-2.06,1.8C137.05,76.33,135.87,76.86,134.73,77.18z"/>
		<path class="st18" d="M141.24,70.86c-0.34,0.45-0.54,1.01-0.57,1.57c-0.01,0.16,0,0.33,0.11,0.45c0.15,0.18,0.45,0.16,0.63,0.01
			c0.18-0.15,0.27-0.38,0.32-0.61c0.11-0.49,0.09-1-0.04-1.48c-0.11,0-0.22-0.01-0.33-0.01L141.24,70.86z"/>
		<path class="st18" d="M107.21,77.89c0.5,1.01,1.03,2.01,1.57,2.99c0.17,0.3,0.34,0.61,0.62,0.81c0.28,0.2,0.68,0.27,0.96,0.07
			c0.43-0.31,0.27-1.02-0.11-1.39c-0.38-0.37-0.91-0.55-1.31-0.9c-0.7-0.61-0.8-1.53-1.27-2.28C106.97,76.04,106.77,77,107.21,77.89
			z"/>
		<path class="st18" d="M111.54,81.9c-0.35,0.24-0.31,0.8-0.03,1.11c0.28,0.31,0.7,0.45,1.11,0.56c0.35,0.1,0.77,0.2,1.06-0.02
			c0.32-0.23,0.33-0.75,0.09-1.07c-0.24-0.32-0.65-0.47-1.05-0.5c-0.4-0.04-0.8,0.01-1.2,0L111.54,81.9z"/>
		<path class="st16" d="M104.47,162.45l-1.7,4.3c0,0,1.51,0.81,4.57,0.7c3.06-0.11,4.18-0.54,4.18-0.54l0.07-4.91
			c0,0-1.25,0.78-3.23,0.83C106.36,162.88,104.47,162.45,104.47,162.45z"/>
		<path class="st16" d="M67.34,163.47l-1.35,4.3c0,0,1.2,0.81,3.63,0.7c2.43-0.11,3.32-0.54,3.32-0.54l0.05-4.91
			c0,0-0.99,0.78-2.57,0.83C68.85,163.9,67.34,163.47,67.34,163.47z"/>
		<path class="st16" d="M120.26,151.98l-1.29,4.3c0,0,1.14,0.81,3.45,0.7c2.31-0.11,3.16-0.54,3.16-0.54l0.05-4.91
			c0,0-0.94,0.78-2.44,0.83C121.69,152.41,120.26,151.98,120.26,151.98z"/>
		<path class="st9" d="M74.24,155.62c-0.11,0.76-0.01,1.69,0.66,2.06c0.58,0.32,1.32,0.05,1.85-0.36c0.94-0.74,1.49-1.86,1.9-2.98
			c0.31-0.84,0.57-2-0.26-2.63c-0.5-0.38-1.36-0.58-1.97-0.36C74.99,151.85,74.43,154.33,74.24,155.62z"/>
		<path class="st9" d="M82.2,157.39c0.24,0.45,0.59,0.93,1.09,0.96c0.2,0.01,0.4-0.06,0.58-0.16c0.44-0.25,0.73-0.7,0.88-1.18
			c0.15-0.48,0.17-0.99,0.16-1.5c-0.01-0.86-0.1-1.73-0.26-2.58c-0.06-0.3-0.12-0.6-0.3-0.85c-0.15-0.2-0.36-0.35-0.58-0.47
			c-0.55-0.28-1.23-0.34-1.8-0.1c-0.45,0.18-0.9,0.59-1.04,1.07c-0.13,0.44,0.15,0.68,0.24,1.1
			C81.45,154.99,81.56,156.18,82.2,157.39z"/>
		<path class="st9" d="M87.83,153.69c0.25,0.42,0.52,0.84,0.91,1.14c0.39,0.3,0.9,0.47,1.37,0.33c0.8-0.23,1.15-1.23,0.99-2.05
			c-0.16-0.82-0.68-1.52-1.08-2.24c-0.3-0.54-0.55-1.11-0.9-1.61c-0.35-0.51-0.82-0.96-1.42-1.13c-0.5-0.15-1.13-0.05-1.5,0.34
			c-0.48,0.49-0.29,0.85-0.03,1.34C86.8,151.06,87.1,152.45,87.83,153.69z"/>
		<path class="st18" d="M107.18,89.27c-0.08,0.12-0.15,0.29-0.04,0.39c0.04,0.03,0.08,0.05,0.13,0.05c0.48,0.08,0.88-0.35,1.25-0.68
			c1.12-0.99,2.69-1.21,4.12-1.67c0.15-0.05,0.34-0.18,0.27-0.32c-0.03-0.06-0.1-0.09-0.17-0.11c-0.96-0.31-2.13,0.11-3.04,0.44
			C108.68,87.73,107.79,88.38,107.18,89.27z"/>
		<path class="st16" d="M82.49,162.77l-1.42,4.3c0,0,1.26,0.81,3.8,0.7c2.54-0.11,3.48-0.54,3.48-0.54l0.06-4.91
			c0,0-1.04,0.78-2.69,0.83C84.06,163.2,82.49,162.77,82.49,162.77z"/>
	</g>
	<g>
		<path class="st19" d="M181.63,133.94c-0.48,0.92-0.59,1.99-0.53,3.02c0.07,1.21,0.33,2.52-0.31,3.54
			c-0.07,0.11-0.15,0.23-0.13,0.36c0.02,0.12,0.12,0.2,0.22,0.26c0.67,0.44,1.49,0.6,2.29,0.69c1.42,0.16,2.86,0.14,4.27-0.06
			c0.59-0.08,1.2-0.2,1.7-0.52c0.14-0.09,0.28-0.2,0.35-0.35c0.07-0.15,0.06-0.35-0.06-0.47c-0.06-0.06-0.15-0.09-0.22-0.12
			c-0.51-0.25-0.75-0.85-0.87-1.4c-0.23-1.03-0.23-2.1-0.42-3.14c-0.18-1.04-0.58-2.1-1.41-2.76
			C184.86,131.71,182.62,132.08,181.63,133.94z"/>
		<path class="st20" d="M189.43,140.43c-0.06-0.06-0.15-0.09-0.22-0.12c-0.51-0.25-0.75-0.85-0.87-1.4
			c-0.23-1.03-0.23-2.1-0.42-3.14c-0.18-1.04-0.58-2.1-1.41-2.76c-0.6-0.48-1.29-0.73-1.96-0.76c0.28,0.12,0.55,0.28,0.81,0.49
			c0.83,0.65,1.23,1.72,1.41,2.76c0.18,1.04,0.19,2.11,0.42,3.14c0.12,0.56,0.36,1.15,0.87,1.4c0.08,0.04,0.16,0.07,0.22,0.12
			c0.12,0.11,0.14,0.32,0.06,0.47c-0.07,0.15-0.21,0.26-0.35,0.35c-0.5,0.32-1.11,0.44-1.7,0.52c-1.41,0.19-2.85,0.21-4.27,0.06
			c-0.14-0.02-0.27-0.03-0.41-0.05c0.5,0.18,1.03,0.27,1.56,0.33c1.42,0.16,2.86,0.14,4.27-0.06c0.59-0.08,1.2-0.2,1.7-0.52
			c0.14-0.09,0.28-0.2,0.35-0.35C189.56,140.74,189.55,140.54,189.43,140.43z"/>
		<path class="st21" d="M181.87,120.94c-0.04-1.42-0.05-2.87,0.35-4.23c0.11-0.38,0.27-0.77,0.6-1c0.64-0.44,1.58,0.06,1.89,0.77
			c0.31,0.71,0.19,1.53,0.08,2.31c-0.51,3.8-0.43,7.69,0.24,11.47c0.14,0.76,0.06,2.8-1.08,1.81c-0.73-0.63-1.05-2.67-1.27-3.58
			C182.09,126.03,181.94,123.47,181.87,120.94z"/>
		<path class="st22" d="M236.41,129.7c-1.67,5.73-5.37,27.61-5.76,32.86c-1.74,0.12-4.92-0.37-6.66-0.25
			c-0.57-4.91-1.39-9.73-2.57-14.49c-1.89-7.63-6.08-15.12-4.72-22.87c1.25-7.12,6.07-13.84,13.26-14.47
			C239.68,109.64,238.09,123.91,236.41,129.7z"/>
		<path class="st22" d="M193,162.07c2.08,0.65,4.27,1.02,6.46,1.1c0.47-6.85,2.23-13.55,4.48-20.06c0.88-2.54,1.84-5.12,1.76-7.79
			c-0.09-3.34-1.79-6.47-3.79-9.25c-1.32-1.85-2.84-3.64-4.87-4.79c-2.8-1.58-6.06-1.45-8.36,0.73c-2.5,2.37-1.29,4.37-0.47,7.35
			c1.87,6.82,3.21,13.77,4,20.77C192.65,154.1,192.91,158.09,193,162.07z"/>
		<path class="st14" d="M203.3,106.76c0.42,0.33,0.88,0.7,0.9,1.17c0.01,0.27-0.13,0.52-0.27,0.76c-2.93,5.13-7.04,9.84-12.08,13.83
			c-0.13,0.11-0.29,0.22-0.48,0.23c-0.23,0.01,1.57,15.05,1.43,14.91c-7.58-8.25-13.76-30.7-15.14-39.62
			c-0.28-1.79-0.45-3.61-0.06-5.39c0.39-1.78,1.41-3.52,3.16-4.68c3.01-1.98,8.96-2.99,10.34,0.7c1.64,4.37,3.03,8.4,6.22,12.3
			C199.04,103.06,201.05,105.01,203.3,106.76z"/>
		<path class="st14" d="M232.72,101.7c3.41,0.14,6.99,0.62,9.73,2.66c4.08,3.04,5.16,8.64,5.42,13.72c0.2,3.96,0.08,7.99-1.06,11.79
			c-1.14,3.8-3.4,7.37-6.75,9.5c-2.65,1.68-5.8,2.36-8.89,2.89c-7.73,1.32-15.61,1.83-23.43,1.18c-5.68-0.47-11.81-1.84-15.38-6.29
			c-2.62-3.25-3.38-7.58-4.05-11.7c-0.46-2.85-0.93-5.69-1.39-8.54c-0.3-1.85-0.6-3.79,0.03-5.56c0.81-2.28,2.94-3.76,4.89-5.18
			c2.38-1.74,5.24-5.44,8.05-5.35c3.62,0.13,7.25,1.21,10.95,1.28C218.15,102.26,225.43,101.39,232.72,101.7z"/>
		<path class="st15" d="M184.19,121.61c-0.17-5.9,4.69-10.87,5.34-16.74c0.09-0.8,0.07-1.69-0.44-2.32c-0.49-0.6-1.33-0.82-2.1-0.72
			c-0.77,0.1-1.47,0.46-2.13,0.86c-1.38,0.83-2.67,1.85-3.58,3.18c-1.7,2.51-0.89,4.67-0.24,7.33
			C181.75,116.11,182.81,118.94,184.19,121.61z"/>
		<path class="st22" d="M167.02,84.37c-2.24-0.17-4.49,0.27-6.62,0.99c-0.14,0.05-0.3,0.11-0.37,0.24
			c-0.09,0.16-0.03,0.35,0.04,0.51c0.96,2.39,3.05,4.16,5.31,5.39c1.63,0.89,3.5,1.57,5.32,1.21c1.82-0.35,3.47-2.06,3.19-3.9
			C173.42,85.72,169.73,84.57,167.02,84.37z"/>
		<path class="st10" d="M162.92,86.12c1.55,1.72,3.36,3.23,5.38,4.36c0.71,0.4,1.59,0.75,2.29,0.33c0.38-0.22,0.61-0.63,0.79-1.02
			c0.29-0.64,1-2.03,0.42-2.55c-0.65-0.59-2-0.87-2.83-1.08C167,85.66,164.9,85.64,162.92,86.12z"/>
		<path class="st11" d="M166.74,78.27c-0.46-3.17,0.75-6.53,3.12-8.68c0.31-0.29,0.87-0.52,1.1-0.16c0.15,0.24-0.01,0.55-0.14,0.8
			c-1.08,2-0.76,4.57,0.46,6.48c1.23,1.91,3.24,3.22,5.39,3.97c0.55,0.19,1.18,0.4,1.44,0.92c0.13,0.27,0.15,0.58,0.13,0.88
			c-0.1,1.45-1.04,2.82-2.36,3.43C171.53,87.94,167.28,81.91,166.74,78.27z"/>
		<path class="st15" d="M207.76,139.68c7.81,0.65,15.7,0.13,23.43-1.19c3.09-0.53,6.24-1.21,8.89-2.89c3.35-2.12,5.6-5.7,6.75-9.5
			c0.69-2.28,1-4.65,1.1-7.03c0.13,3.64-0.05,7.31-1.1,10.79c-1.14,3.8-3.4,7.37-6.75,9.5c-2.65,1.68-5.8,2.36-8.89,2.89
			c-7.73,1.32-15.61,1.83-23.43,1.18C202.08,142.97,202.08,139.21,207.76,139.68z"/>
		<path class="st14" d="M189.34,85.37c1.23,2.49,1.27,5.4,0.94,8.16c-1.01,8.39-5.46,16.44-12.42,21.22
			c-1.4,0.96-2.9,1.79-4.52,2.29c-4.73,1.45-10.28-0.38-13.22-4.36c-2.94-3.98-3.07-9.82-0.3-13.92c2.16-3.2,5.71-5.18,8.22-8.11
			c2.04-2.38,3.38-5.36,5.71-7.46C178.24,79.16,186.44,79.52,189.34,85.37z"/>
		<path class="st10" d="M177.75,114.82c-1.36,0.93-2.83,1.73-4.4,2.21c-4.73,1.45-10.28-0.38-13.22-4.36
			c-2.91-3.93-3.06-9.67-0.4-13.76c2.4-0.95,5.21-0.38,7.68,0.49c3.86,1.36,7.65,3.57,9.69,7.11
			C178.51,108.97,178.63,112.08,177.75,114.82z"/>
		<path class="st15" d="M225.34,139.59c-0.38-2.63-0.69-5.29-0.5-7.95c0.19-2.65,0.89-5.32,2.39-7.51c0.57-0.83,1.33-1.63,2.33-1.75
			c0.05,3.36,0.93,6.7,2.53,9.65c0.56,1.03,1.22,2.06,1.36,3.22c0.19,1.66-0.74,3.28-2,4.38c-1.04,0.91-2.31,1.55-3.66,1.85
			c-0.49,0.11-1.38,0.38-1.8,0.06C225.5,141.18,225.42,140.13,225.34,139.59z"/>
		<path class="st14" d="M247.05,129.61c-1.58,5.76-4.97,27.69-5.28,32.94c-1.74,0.15-4.92-0.3-6.66-0.15
			c-0.64-4.9-1.54-9.7-2.78-14.45c-2-7.6-6.3-15.03-5.06-22.8c1.14-7.14,5.87-13.93,13.05-14.66
			C250.03,109.51,248.65,123.8,247.05,129.61z"/>
		<path class="st13" d="M205.59,138.12c-0.33-0.58-0.57-1.19-0.82-1.81c-0.39-0.99-0.79-1.98-1.18-2.97
			c-1.43,1.47-2.02,3.59-1.99,5.63c0.02,1.21,0.31,2.55,1.3,3.24c0.42,0.29,0.93,0.44,1.45,0.48c1.01,0.08,2.82-0.3,3.24-1.39
			c0.21-0.54-0.06-0.87-0.41-1.25C206.59,139.44,206.02,138.88,205.59,138.12z"/>
		<path class="st15" d="M206.3,101.97c-1.5,0.15-8.55,6.74-16.03,1.74c-1.26-0.84-2.26-2.48-3.2-3.67
			c-0.69-0.88-1.29-1.88-1.45-2.99c-0.08-0.53-0.03-1.13,0.36-1.49c0.37-0.35,0.94-0.38,1.43-0.29c0.9,0.16,1.72,0.63,2.46,1.16
			c1.33,0.95,2.7,2.17,3.58,3.56c0.32,0.52,8.5,0.24,8.99,0.56C203.55,101.28,205.86,101.26,206.3,101.97z"/>
		<path class="st15" d="M188.66,93.15c-0.28,0.08-0.58,0.17-0.93,0.14c-0.24-0.67-0.47-1.37-0.17-1.98c0.3-0.6,1.31-1.07,2.53-0.91
			c0.62,0.08,1.22,0.32,1.68,0.6c0.42,0.26,0.76,0.56,0.87,0.88C193.05,93.02,189.91,92.82,188.66,93.15z"/>
		<path class="st11" d="M198.84,89.51c2.48-2.02,3.86-5.32,3.55-8.51c-0.04-0.42-0.29-0.97-0.7-0.86c-0.27,0.08-0.37,0.41-0.44,0.69
			c-0.55,2.2-2.52,3.89-4.72,4.47c-2.2,0.58-4.56,0.19-6.65-0.71c-0.54-0.23-1.14-0.5-1.69-0.29c-0.28,0.11-0.5,0.33-0.69,0.56
			c-0.91,1.14-1.13,2.78-0.58,4.12C188.78,93.42,195.99,91.84,198.84,89.51z"/>
		<g>
			<path class="st15" d="M182.74,95.58c0.59-0.53,1.01-1.26,1.06-2.05c0.05-0.79-0.31-1.61-0.97-2.03
				c-0.44-0.27-0.97-0.36-1.48-0.33c-1.46,0.07-2.84,1.08-3.34,2.46c-0.14,0.37-0.22,0.77-0.17,1.16
				C178.15,97.39,181.38,96.81,182.74,95.58z"/>
			<path class="st16" d="M177.56,95.26c0.16,1.02,1.12,1.71,2.14,1.54c1.02-0.16,1.71-1.12,1.54-2.14
				c-0.16-1.02-1.12-1.71-2.14-1.54C178.08,93.28,177.39,94.24,177.56,95.26z"/>
			<path class="st17" d="M179.43,95.1c0.22,0.29,0.64,0.35,0.93,0.13c0.29-0.22,0.35-0.64,0.13-0.93c-0.22-0.29-0.64-0.35-0.93-0.13
				C179.26,94.39,179.21,94.81,179.43,95.1z"/>
		</g>
		<g>
			<path class="st15" d="M172.65,91.87c0.45-0.56,0.77-1.32,0.81-2.11c0.04-0.79-0.23-1.58-0.74-1.95
				c-0.33-0.24-0.74-0.29-1.13-0.23c-1.12,0.17-2.17,1.27-2.56,2.67c-0.11,0.38-0.17,0.78-0.13,1.17
				C169.14,93.99,171.61,93.19,172.65,91.87z"/>
			<path class="st16" d="M168.69,91.91c0.12,1,0.85,1.62,1.63,1.39c0.78-0.23,1.31-1.23,1.18-2.23c-0.12-1-0.85-1.62-1.63-1.39
				C169.09,89.91,168.56,90.91,168.69,91.91z"/>
			<path class="st17" d="M170.12,91.62c0.17,0.28,0.49,0.31,0.71,0.07c0.23-0.24,0.27-0.66,0.1-0.94c-0.17-0.28-0.49-0.31-0.71-0.07
				C169.99,90.93,169.95,91.35,170.12,91.62z"/>
		</g>
		<path class="st16" d="M169.61,104.59c0.12-0.05,0.25-0.04,0.36,0.02c0.13,0.23-0.03,0.52-0.23,0.71c-0.19,0.18-0.43,0.34-0.52,0.6
			c-0.07,0.2-0.02,0.42-0.05,0.63c-0.03,0.21-0.2,0.44-0.4,0.39c-0.17-0.04-0.26-0.23-0.3-0.4c-0.12-0.47-0.17-0.98,0.04-1.41
			c0.21-0.43,0.74-0.74,1.19-0.55L169.61,104.59z"/>
		<path class="st16" d="M162.54,102.11c0.12-0.05,0.25-0.04,0.36,0.02c0.13,0.23-0.03,0.52-0.23,0.71c-0.19,0.18-0.43,0.34-0.52,0.6
			c-0.07,0.2-0.02,0.42-0.05,0.63c-0.03,0.21-0.2,0.44-0.4,0.39c-0.17-0.04-0.26-0.23-0.3-0.4c-0.12-0.47-0.17-0.98,0.04-1.41
			c0.21-0.43,0.74-0.74,1.19-0.55L162.54,102.11z"/>
		<path class="st18" d="M174.42,80.39c0.26,0.12,0.59,0.34,0.51,0.62c-0.05,0.19-0.25,0.29-0.43,0.33c-1,0.25-2.02-0.3-2.84-0.92
			c-0.6-0.45-1.18-0.95-1.62-1.57c-0.44-0.61-0.73-1.35-0.73-2.1c0-0.17,0.03-0.35,0.17-0.45c0.1-0.07,0.23-0.07,0.34-0.04
			c0.78,0.2,1.16,1.52,1.69,2.08C172.32,79.19,173.37,79.9,174.42,80.39z"/>
		<path class="st18" d="M169.18,73.24c0.26,0.49,0.36,1.06,0.29,1.61c-0.02,0.15-0.06,0.32-0.18,0.41
			c-0.17,0.15-0.46,0.08-0.61-0.09c-0.15-0.17-0.2-0.41-0.21-0.64c-0.03-0.49,0.07-0.98,0.28-1.42c0.11,0.01,0.21,0.03,0.32,0.04
			L169.18,73.24z"/>
		<path class="st18" d="M200.84,85.58c-0.65,0.89-1.32,1.77-2.01,2.63c-0.21,0.26-0.43,0.53-0.73,0.68c-0.3,0.15-0.7,0.15-0.94-0.09
			c-0.36-0.37-0.1-1.03,0.33-1.32c0.43-0.29,0.96-0.38,1.41-0.66c0.77-0.47,1.02-1.34,1.59-1.99
			C201.37,83.83,201.41,84.8,200.84,85.58z"/>
		<path class="st18" d="M196.01,88.74c0.3,0.29,0.16,0.82-0.16,1.08c-0.32,0.26-0.75,0.31-1.16,0.36c-0.36,0.04-0.77,0.06-1.02-0.19
			c-0.27-0.28-0.2-0.78,0.09-1.05c0.28-0.27,0.7-0.34,1.09-0.32c0.39,0.03,0.77,0.14,1.15,0.2L196.01,88.74z"/>
		<path class="st15" d="M213.32,136.1c-0.99-1.12-1.87-2.37-2.98-3.36c-0.35-0.31-0.82-0.62-1.22-0.46c-0.26,0.1-0.41,0.38-0.5,0.65
			c-0.4,1.2-0.1,2.59,0.27,3.88c0.45,1.53,1.01,3.03,1.68,4.49c0.34,0.75,0.79,1.57,1.54,1.87c0.51,0.21,1.07,0.12,1.53-0.1
			c0.46-0.22,0.84-0.58,1.22-0.93c0.64-0.6,4.69-0.78,3.76-1.79c-0.49-0.52-2.98-2.02-3.52-2.49
			C214.47,137.32,213.9,136.71,213.32,136.1z"/>
		<path class="st14" d="M204.07,163.26c2.17,0.25,4.38,0.21,6.55-0.12c-0.81-6.81-0.34-13.73,0.66-20.55
			c0.39-2.66,0.85-5.37,0.28-7.98c-0.71-3.26-2.97-6.02-5.44-8.38c-1.64-1.57-3.47-3.05-5.68-3.79c-3.05-1.03-6.22-0.3-8.08,2.28
			c-2.01,2.79-1.57,10.62,0.46,12.94c5.32,6.06,6.17,7.3,8.24,14.03C202.23,155.5,203.23,159.36,204.07,163.26z"/>
		<path class="st14" d="M253.96,122.66c1.43,4.92,2.2,10.01,2.97,15.07c-0.48,0.19-0.96,0.38-1.43,0.56
			c-0.15-6.26-1.68-12.48-4.46-18.09c-0.94-1.91-2.21-3.9-4.24-4.54c-1.18-0.37-2.51-0.24-3.61-0.81c-1.82-0.95-2.18-3.44-0.78-4.89
			c1.72-1.79,3.54-0.38,5.03,0.97C250.81,113.97,252.72,118.38,253.96,122.66z"/>
		<path class="st19" d="M252.13,135.54c-0.89,1-1.23,2.45-0.88,3.74c0.61,2.26,3.03,3.64,3.75,5.86c0.38,1.16,0.24,2.43,0.08,3.64
			c2.28-1.83,3.94-4.4,4.68-7.22c0.5-1.93,0.49-4.21-0.92-5.63C257.09,134.17,253.9,133.55,252.13,135.54z"/>
		<g>
			<path class="st23" d="M255.19,147.74c-0.03,0.35-0.07,0.7-0.12,1.04c0.1-0.08,0.19-0.16,0.29-0.24
				C255.31,148.28,255.26,148.01,255.19,147.74z"/>
			<path class="st23" d="M258.84,135.93c-1.42-1.44-3.81-2.12-5.6-1.24c0.53,0.09,1.05,0.25,1.52,0.49
				c1.78,0.88,2.54,3.04,2.69,5.03c0.22,2.89-0.52,5.85-2.06,8.31c2.11-1.81,3.66-4.27,4.36-6.96
				C260.26,139.64,260.24,137.35,258.84,135.93z"/>
		</g>
		<path class="st16" d="M203.43,160.44c0,0-0.86,3.58-0.55,4.25c0.31,0.66,2.74,1.01,4.34,1.02c2.75,0.01,3.54-0.62,3.54-0.62
			l-0.36-4.71c0,0-0.83,0.4-3.44,0.62C204.35,161.22,203.43,160.44,203.43,160.44z"/>
		<path class="st16" d="M234.82,159.74c0,0-0.89,3.58-0.57,4.25c0.32,0.66,2.84,1.01,4.49,1.02c2.84,0.01,3.66-0.62,3.66-0.62
			l-0.37-4.71c0,0-0.85,0.4-3.56,0.62C235.77,160.52,234.82,159.74,234.82,159.74z"/>
		<path class="st16" d="M223.6,159.74c0,0-0.91,3.58-0.58,4.25c0.33,0.66,2.9,1.01,4.59,1.02c2.91,0.01,3.75-0.62,3.75-0.62
			l-0.38-4.71c0,0-0.87,0.4-3.64,0.62C224.58,160.52,223.6,159.74,223.6,159.74z"/>
		<path class="st16" d="M192.85,159.21c0,0-0.86,3.58-0.55,4.25c0.31,0.66,2.74,1.01,4.34,1.02c2.75,0.01,3.54-0.62,3.54-0.62
			l-0.36-4.71c0,0-0.83,0.4-3.44,0.62C193.77,159.99,192.85,159.21,192.85,159.21z"/>
		<path class="st19" d="M173.33,82.12c-0.89,2.08-0.46,4.52,0.79,6.44c-0.02-0.65,0.27-1.3,0.77-1.76c0.67,1.85,0.54,3.94-0.36,5.7
			c2.11-0.7,4.07-1.82,5.7-3.24c0.01,0.93-0.1,1.87-0.32,2.77c2.02-0.45,3.8-1.53,5.51-2.64c1.34-0.87,2.68-1.79,3.61-3.04
			c0.93-1.25,1.37-2.9,0.76-4.3c-0.32-0.74-0.91-1.35-1.58-1.86C184.19,77.21,175.55,76.93,173.33,82.12z"/>
		<g>
			<path class="st24" d="M178.14,87.75c0.2-0.97,0.46-1.93,0.79-2.87c0.06-0.16-0.07-0.35-0.22-0.4c-0.18-0.05-0.34,0.06-0.4,0.22
				c-0.33,0.94-0.59,1.9-0.79,2.87c-0.03,0.17,0.05,0.35,0.22,0.4C177.9,88.02,178.11,87.92,178.14,87.75L178.14,87.75z"/>
		</g>
		<g>
			<path class="st24" d="M175.07,85.8c0.02-0.74,0.05-1.48,0.07-2.22c0.01-0.17-0.15-0.32-0.32-0.32c-0.18,0-0.32,0.15-0.32,0.32
				c-0.02,0.74-0.05,1.48-0.07,2.22c-0.01,0.17,0.15,0.32,0.32,0.32C174.92,86.12,175.06,85.98,175.07,85.8L175.07,85.8z"/>
		</g>
		<g>
			<path class="st24" d="M176.77,87.44c-0.1-0.68-0.07-1.39,0.09-2.06c0.04-0.17-0.05-0.35-0.22-0.4c-0.16-0.04-0.36,0.05-0.4,0.22
				c-0.18,0.79-0.21,1.6-0.09,2.4c0.03,0.17,0.24,0.27,0.4,0.22C176.73,87.78,176.79,87.61,176.77,87.44L176.77,87.44z"/>
		</g>
		<g>
			<path class="st24" d="M176.57,90.62c0.26-0.32,0.53-0.61,0.84-0.89c0.13-0.11,0.12-0.34,0-0.45c-0.13-0.12-0.32-0.12-0.45,0
				c-0.3,0.27-0.58,0.57-0.84,0.89c-0.06,0.07-0.09,0.14-0.09,0.23c0,0.08,0.04,0.17,0.09,0.23c0.06,0.06,0.14,0.1,0.23,0.09
				C176.42,90.72,176.52,90.69,176.57,90.62L176.57,90.62z"/>
		</g>
		<g>
			<path class="st24" d="M181.44,89.32c0.64-0.51,1.32-1,2.02-1.45c0.15-0.09,0.21-0.29,0.12-0.44c-0.08-0.15-0.29-0.21-0.44-0.12
				c-0.74,0.48-1.46,1-2.15,1.55c-0.14,0.11-0.11,0.34,0,0.45C181.11,89.46,181.3,89.43,181.44,89.32L181.44,89.32z"/>
		</g>
		<g>
			<path class="st24" d="M181.45,86.09c0-0.07,0.01-0.14,0.02-0.21c0-0.04,0.01-0.04,0-0.01c0-0.02,0.01-0.04,0.01-0.06
				c0-0.03,0.01-0.06,0.02-0.09c0.03-0.15,0.06-0.29,0.11-0.43c0.02-0.07,0.04-0.14,0.07-0.2c0.01-0.03,0.02-0.07,0.04-0.1
				c0.01-0.02,0.02-0.04,0.02-0.06c-0.01,0.02-0.01,0.03,0,0.01c0.06-0.14,0.13-0.27,0.2-0.4c0.08-0.15,0.04-0.36-0.12-0.44
				c-0.15-0.08-0.35-0.04-0.44,0.12c-0.33,0.58-0.52,1.22-0.56,1.88c-0.01,0.17,0.16,0.33,0.32,0.32
				C181.31,86.4,181.43,86.27,181.45,86.09L181.45,86.09z"/>
		</g>
		<g>
			<path class="st24" d="M185.66,87.57c0.61-0.45,1.17-0.96,1.68-1.52c0.11-0.12,0.13-0.33,0-0.45c-0.12-0.11-0.33-0.13-0.45,0
				c-0.24,0.27-0.5,0.52-0.76,0.76c-0.13,0.12-0.26,0.24-0.4,0.35c-0.07,0.06-0.14,0.11-0.21,0.17c-0.02,0.01-0.03,0.02-0.05,0.04
				c-0.02,0.01-0.05,0.04-0.02,0.01c-0.04,0.03-0.08,0.06-0.12,0.09c-0.13,0.1-0.22,0.28-0.12,0.44
				C185.31,87.58,185.52,87.67,185.66,87.57L185.66,87.57z"/>
		</g>
		<g>
			<path class="st24" d="M185.68,84.24c0.04-0.15,0.09-0.29,0.14-0.44c0.03-0.08,0.06-0.15,0.09-0.23
				c-0.02,0.06,0.02-0.05,0.03-0.06c0.01-0.03,0.03-0.07,0.04-0.1c0.13-0.28,0.29-0.55,0.46-0.81c0.09-0.14,0.03-0.36-0.12-0.44
				c-0.16-0.09-0.34-0.03-0.44,0.12c-0.37,0.55-0.65,1.16-0.83,1.79c-0.05,0.16,0.06,0.36,0.22,0.4
				C185.45,84.5,185.63,84.41,185.68,84.24L185.68,84.24z"/>
		</g>
		<g>
			<path class="st24" d="M183.36,80.81c0.01-0.01,0.02-0.03,0.03-0.04c0.03-0.04,0.01,0-0.01,0.01c0.02-0.01,0.05-0.06,0.06-0.08
				c0.04-0.05,0.09-0.1,0.13-0.15c0.09-0.1,0.18-0.19,0.28-0.28c0.05-0.04,0.1-0.08,0.15-0.12c0.01-0.01,0.03-0.02,0.04-0.03
				c0.03-0.02-0.06,0.04-0.01,0.01c0.03-0.02,0.05-0.04,0.08-0.06c0.11-0.08,0.22-0.15,0.34-0.22c0.15-0.08,0.21-0.29,0.12-0.44
				c-0.1-0.15-0.28-0.2-0.44-0.12c-0.52,0.3-0.97,0.71-1.33,1.2c-0.05,0.06-0.05,0.18-0.03,0.25c0.02,0.07,0.08,0.16,0.15,0.19
				c0.07,0.04,0.17,0.06,0.25,0.03C183.25,80.93,183.31,80.88,183.36,80.81L183.36,80.81z"/>
		</g>
		<g>
			<path class="st24" d="M178.43,82.01c0.04-0.14,0.09-0.28,0.15-0.42c0.01-0.04,0.03-0.07,0.04-0.11
				c-0.03,0.06,0.02-0.05,0.03-0.06c0.03-0.07,0.06-0.13,0.09-0.2c0.13-0.27,0.28-0.53,0.45-0.78c0.09-0.14,0.03-0.36-0.12-0.44
				c-0.16-0.09-0.34-0.03-0.44,0.12c-0.36,0.53-0.64,1.11-0.83,1.72c-0.05,0.16,0.06,0.36,0.22,0.4
				C178.21,82.28,178.37,82.18,178.43,82.01L178.43,82.01z"/>
		</g>
		<g>
			<path class="st24" d="M180.74,83c-0.01-0.11,0-0.22,0.01-0.33c0,0.03-0.01,0.06-0.01,0.09c0.02-0.16,0.06-0.31,0.12-0.46
				c-0.01,0.03-0.02,0.05-0.03,0.08c0.04-0.1,0.1-0.2,0.16-0.29c0.09-0.14,0.03-0.36-0.12-0.44c-0.16-0.09-0.34-0.03-0.44,0.12
				c-0.24,0.36-0.36,0.81-0.34,1.24c0.01,0.17,0.14,0.33,0.32,0.32C180.58,83.32,180.75,83.18,180.74,83L180.74,83z"/>
		</g>
		<g>
			<path class="st24" d="M175.37,81.43c0.04-0.07,0.09-0.14,0.14-0.2c0.02-0.03,0.05-0.07,0.08-0.1c0.04-0.05-0.03,0.03,0,0
				c0.01-0.02,0.02-0.03,0.04-0.05c0.1-0.13,0.21-0.25,0.33-0.36c0.11-0.11,0.23-0.22,0.35-0.32c0.02-0.01,0.03-0.02,0.05-0.04
				c0.06-0.05-0.06,0.04,0.01-0.01c0.03-0.02,0.06-0.05,0.09-0.07c0.07-0.05,0.14-0.1,0.21-0.14c0.14-0.09,0.21-0.29,0.12-0.44
				c-0.09-0.14-0.29-0.21-0.44-0.12c-0.61,0.39-1.13,0.91-1.51,1.52c-0.09,0.14-0.03,0.36,0.12,0.44
				C175.09,81.63,175.27,81.58,175.37,81.43L175.37,81.43z"/>
		</g>
		<g>
			<path class="st24" d="M188.33,83.66c0.08-0.5,0.13-1.01,0.11-1.52c0-0.17-0.14-0.33-0.32-0.32c-0.17,0.01-0.33,0.14-0.32,0.32
				c0.01,0.24,0,0.47-0.02,0.71c-0.01,0.12-0.02,0.23-0.03,0.34c0,0.03-0.01,0.05-0.01,0.08c-0.01,0.08,0.01-0.05,0,0.02
				c-0.01,0.06-0.02,0.13-0.03,0.19c-0.03,0.17,0.04,0.35,0.22,0.4C188.09,83.92,188.3,83.84,188.33,83.66L188.33,83.66z"/>
		</g>
		<g>
			<path class="st24" d="M180.13,79.31c0.31,0,0.62,0,0.93,0c0.17,0,0.33-0.15,0.32-0.32c-0.01-0.17-0.14-0.32-0.32-0.32
				c-0.31,0-0.62,0-0.93,0c-0.17,0-0.33,0.15-0.32,0.32C179.82,79.16,179.95,79.31,180.13,79.31L180.13,79.31z"/>
		</g>
		<path class="st11" d="M162.79,112.54c0,0,1.96,1.69,3.52,1.33c1.56-0.36,2.72-2.48,2.72-2.48s-1.08,2.9-2.58,3.2
			C163.9,115.09,162.79,112.54,162.79,112.54z"/>
		<path class="st25" d="M229.53,107.89c2.2,0.26,4.48,0.73,6.17,2.15c1.28,1.08,2.11,2.62,2.61,4.22c0.19,0.61,0.34,1.24,0.67,1.79
			c0.33,0.55,0.88,1.01,1.51,1.04c0.68,0.03,1.3-0.45,1.63-1.05c0.33-0.6,0.41-1.3,0.46-1.98c0.11-1.48,0.06-3.05-0.69-4.33
			c-0.53-0.9-1.36-1.57-2.23-2.15c-2.57-1.7-5.72-2.68-8.81-2.69C228.61,104.88,226.1,107.49,229.53,107.89z"/>
		<path class="st11" d="M192.04,111.3c1.24-3.38,2.49-6.8,2.8-10.38c1.33-0.12,2.66-0.24,3.99-0.36c-0.74,3.26-1.56,6.5-2.6,9.68
			c-2.65,8.12-6.72,15.77-11.97,22.51c-0.25-0.77-0.75-1.68-0.55-2.5c0.18-0.76,0.9-1.58,1.27-2.26c0.96-1.77,1.83-3.59,2.65-5.43
			C189.26,118.88,190.65,115.09,192.04,111.3z"/>
		<path class="st14" d="M198.88,95.37c1.6,1.69,2.7,3.9,4.67,5.13c-1.25,0.54-2.6,0.8-3.94,1.02c-1.71,0.28-3.43,0.5-5.16,0.45
			c-1.73-0.05-3.47-0.39-5.01-1.18c-1.24-0.64-2.32-1.58-3.13-2.71c-0.31-0.43-0.59-0.9-0.74-1.41c-0.38-1.27,0.09-2.72,1.06-3.62
			c1.24-1.15,3.11-1.26,4.72-1.16c1.82,0.11,3.61,0.67,5.17,1.6C197.38,94,198.18,94.63,198.88,95.37z"/>
		<path class="st10" d="M188.18,95.02c0-0.21-0.11-0.41-0.09-0.62c0.02-0.45,0.55-0.68,1-0.72c0.84-0.07,1.68,0.2,2.47,0.5
			c2.85,1.08,5.53,2.64,7.87,4.6c-0.75,0.4-1.57,0.67-2.4,0.79c-1.25,0.18-2.52,0.04-3.77-0.18c-2.16-0.38-4.36-1.05-6.01-2.5
			c-0.22-0.19-0.44-0.42-0.51-0.7c-0.07-0.29,0.07-0.64,0.35-0.71C187.42,95.4,188.17,95.64,188.18,95.02z"/>
		<path class="st18" d="M199,96.55c0.06,0.13,0.1,0.31-0.02,0.38c-0.04,0.02-0.09,0.03-0.13,0.03c-0.48,0-0.79-0.48-1.09-0.86
			c-0.91-1.14-2.4-1.61-3.69-2.28c-0.14-0.07-0.3-0.23-0.2-0.35c0.04-0.05,0.11-0.07,0.18-0.08c0.97-0.14,2.04,0.45,2.86,0.92
			C197.81,94.83,198.56,95.59,199,96.55z"/>
		<path class="st19" d="M182.74,128.8c-0.22,0.33-0.32,0.73-0.37,1.12c-0.08,0.57-0.08,1.14,0.01,1.71
			c0.05,0.32,0.13,0.65,0.32,0.91c0.23,0.33,0.6,0.53,0.99,0.65c0.5,0.16,1.08,0.2,1.53-0.07c0.36-0.22,0.59-0.61,0.67-1.02
			c0.08-0.41,0.01-0.84-0.13-1.23c-0.38,0.21-0.9,0.27-1.21-0.05c-0.26-0.27-0.25-0.7-0.18-1.07c0.1-0.52,0.98-1.73,0.36-1.95
			C184.08,127.6,183.06,128.31,182.74,128.8z"/>
		<path class="st20" d="M183.05,132.81c0.15,0.08,0.31,0.12,0.48,0.15c0.56,0.1,1.14,0.05,1.7-0.05c0.15-0.03,0.3-0.06,0.41-0.16
			c0.12-0.11,0.17-0.29,0.19-0.45c0.07-0.48,0.03-0.98-0.11-1.45c-0.21,0.05-0.43,0.11-0.64,0.16c-0.05,0.01-0.09,0.02-0.12,0.06
			c-0.02,0.03-0.03,0.07-0.04,0.1c-0.07,0.36-0.11,0.77-0.39,1c-0.12,0.1-0.27,0.15-0.42,0.18c-0.28,0.06-0.58,0.06-0.86,0
			c-0.14-0.03-0.28-0.08-0.41-0.14c-0.11-0.05-0.25-0.17-0.36-0.17C182.44,132.34,182.82,132.69,183.05,132.81z"/>
		<path class="st26" d="M182.06,134.31c-0.28,0.69-0.35,1.47-0.18,2.19c0.06,0.27,0.2,0.58,0.48,0.62c0.19,0.03,0.37-0.09,0.47-0.25
			c0.1-0.16,0.13-0.35,0.13-0.54c0-0.3-0.06-0.59-0.04-0.88c0.02-0.32,0.15-0.63,0.35-0.87c0.1-0.12,0.22-0.23,0.3-0.36
			c0.08-0.14,0.12-0.31,0.03-0.45c-0.17-0.28-0.56-0.4-0.84-0.27C182.41,133.67,182.21,133.96,182.06,134.31z"/>
		<path class="st26" d="M182.03,139.03c0.14,0.22,0.44,0.34,0.68,0.25c0.58-0.22,0.58-1.33-0.01-1.54
			C182.01,137.5,181.72,138.57,182.03,139.03z"/>
		<path class="st26" d="M182.77,130.16c0.05,0.19,0.18,0.4,0.37,0.39c0.16-0.01,0.27-0.16,0.3-0.31c0.03-0.15,0.01-0.31,0.03-0.47
			c0.02-0.22,0.12-0.42,0.28-0.58c0.11-0.11,0.24-0.19,0.34-0.3c0.1-0.11,0.16-0.28,0.1-0.42c-0.25-0.54-0.92,0.03-1.11,0.28
			C182.78,129.13,182.65,129.67,182.77,130.16z"/>
	</g>
</g>
<g>
	<path class="st27" d="M239.15,142.61c0,0,4.66-3.97,1.33-7.25c-3.33-3.28-6.49,0-6.49,0s1.16-5.7-2.16-6.39
		c-3.33-0.69-4.99,4.14-4.99,4.14s-3.66-7.6-10.81-5.7c-7.15,1.9-7.15,9.68-7.15,9.68s-2-5.19-3.66-4.32
		c-1.66,0.86,0.83,5.35,0.83,5.35c-9.98-2.42-15.96,0.52-15.96,0.52s3.99-4.84,1-6.91c-2.99-2.07-5.65,2.76-5.65,2.76
		s-0.67-7.43-3.66-8.12c-2.99-0.69-3.66,4.66-3.66,4.66s-1.66-8.29-3.99-7.74c-2.04,0.48-0.51,6.03-0.1,7.42
		c-1.88-6.03-10.79-9.64-15.53-5.9c-4.82,3.8-1,10.53-1,10.53s-5.15-8.12-6.48-5.87c-1.33,2.25,4.49,8.29,4.49,8.29
		s-4.99-3.55-9.16-0.79c-0.17-0.55-0.5-1.1-1.04-1.63c-3.33-3.28-6.49,0-6.49,0s1.16-5.7-2.16-6.39c-3.33-0.69-4.99,4.14-4.99,4.14
		s-3.66-7.6-10.81-5.7c-7.15,1.9-7.15,9.68-7.15,9.68s-2-5.19-3.66-4.32c-1.66,0.86,0.83,5.35,0.83,5.35
		c-9.98-2.42-15.96,0.52-15.96,0.52s3.99-4.84,1-6.91c-2.99-2.07-5.65,2.76-5.65,2.76s-0.67-7.43-3.66-8.12
		c-2.99-0.69-3.66,4.66-3.66,4.66s-1.66-8.29-3.99-7.74c-2.04,0.48-0.51,6.04-0.1,7.42c-1.88-6.03-10.79-9.64-15.53-5.91
		c-4.82,3.8-1,10.53-1,10.53s-5.16-8.12-6.49-5.87c-1.33,2.25,4.49,8.29,4.49,8.29s-5.82-4.14-10.14,0
		c-4.32,4.14,1.83,13.13,1.83,13.13h95.17h5.77h95.17C245.63,142.78,239.15,142.61,239.15,142.61z"/>
	<g>
		<g>
			<path class="st28" d="M71.4,145.77c0.09-1.49,0.4-3.18,1.37-4.33c-0.14,0.01-0.28,0.01-0.41,0.02c0.28,1.49,1.13,2.82,2.53,3.34
				c0.12,0.04,0.33-0.03,0.37-0.16c0.53-1.7,0.84-3.58,0.47-5.34c-0.12,0.07-0.24,0.13-0.37,0.2c2.02,0.53,3.41,2.3,3.45,4.46
				c0,0.21,0.38,0.11,0.44-0.02c0.09-0.18,0.23-0.32,0.37-0.47c0.22-0.2,0.48-0.37,0.75-0.48c0.22-0.11,2.04-0.21,2.12-0.37
				c-0.49,1.06-0.48,2.2,0.01,3.25c0.08,0.18,0.53,0.03,0.46-0.13c-0.48-1.01-0.49-2.13-0.01-3.15c0.05-0.1-0.04-0.15-0.13-0.16
				c-1.33-0.08-3.26,0.07-3.99,1.48c0.15-0.01,0.3-0.01,0.44-0.02c-0.04-2.29-1.48-4.12-3.63-4.68c-0.1-0.03-0.4,0.03-0.37,0.2
				c0.36,1.73,0.05,3.6-0.47,5.27c0.12-0.05,0.24-0.11,0.37-0.16c-1.32-0.49-2.08-1.81-2.35-3.19c-0.03-0.16-0.35-0.06-0.41,0.02
				c-1.02,1.21-1.37,2.91-1.46,4.48C70.93,146.03,71.39,145.94,71.4,145.77L71.4,145.77z"/>
		</g>
		<g>
			<path class="st28" d="M122.09,145.77c0.09-1.49,0.4-3.18,1.37-4.33c-0.14,0.01-0.28,0.01-0.41,0.02
				c0.28,1.49,1.13,2.82,2.53,3.34c0.12,0.04,0.33-0.03,0.37-0.16c0.53-1.7,0.84-3.58,0.47-5.34c-0.12,0.07-0.24,0.13-0.37,0.2
				c2.02,0.53,3.41,2.3,3.45,4.46c0,0.21,0.38,0.11,0.44-0.02c0.09-0.18,0.23-0.32,0.37-0.47c0.22-0.2,0.48-0.37,0.75-0.48
				c0.22-0.11,2.04-0.21,2.12-0.37c-0.49,1.06-0.48,2.2,0.01,3.25c0.08,0.18,0.53,0.03,0.46-0.13c-0.48-1.01-0.49-2.13-0.01-3.15
				c0.05-0.1-0.04-0.15-0.13-0.16c-1.33-0.08-3.26,0.07-3.99,1.48c0.15-0.01,0.3-0.01,0.44-0.02c-0.04-2.29-1.48-4.12-3.63-4.68
				c-0.1-0.03-0.4,0.03-0.37,0.2c0.36,1.73,0.05,3.6-0.47,5.27c0.12-0.05,0.24-0.11,0.37-0.16c-1.32-0.49-2.08-1.81-2.35-3.19
				c-0.03-0.16-0.35-0.06-0.41,0.02c-1.02,1.21-1.37,2.91-1.46,4.48C121.62,146.03,122.08,145.94,122.09,145.77L122.09,145.77z"/>
		</g>
	</g>
	<g>
		<g>
			<path class="st28" d="M167.23,145.77c0.09-1.49,0.4-3.18,1.37-4.33c-0.14,0.01-0.28,0.01-0.41,0.02
				c0.28,1.49,1.13,2.82,2.53,3.34c0.12,0.04,0.32-0.03,0.37-0.16c0.53-1.7,0.84-3.58,0.47-5.34c-0.12,0.07-0.24,0.13-0.36,0.2
				c2.02,0.53,3.41,2.3,3.45,4.46c0,0.21,0.38,0.11,0.44-0.02c0.09-0.18,0.23-0.32,0.37-0.47c0.22-0.2,0.48-0.37,0.75-0.48
				c0.22-0.11,2.04-0.21,2.12-0.37c-0.49,1.06-0.48,2.2,0.01,3.25c0.08,0.18,0.53,0.03,0.46-0.13c-0.48-1.01-0.49-2.13-0.01-3.15
				c0.05-0.1-0.04-0.15-0.13-0.16c-1.33-0.08-3.26,0.07-3.99,1.48c0.15-0.01,0.3-0.01,0.44-0.02c-0.04-2.29-1.48-4.12-3.63-4.68
				c-0.1-0.03-0.4,0.03-0.37,0.2c0.36,1.73,0.05,3.6-0.47,5.27c0.12-0.05,0.24-0.11,0.37-0.16c-1.32-0.49-2.08-1.81-2.35-3.19
				c-0.03-0.16-0.35-0.06-0.41,0.02c-1.02,1.21-1.37,2.91-1.46,4.48C166.76,146.03,167.22,145.94,167.23,145.77L167.23,145.77z"/>
		</g>
		<g>
			<path class="st28" d="M217.93,145.77c0.09-1.49,0.4-3.18,1.37-4.33c-0.14,0.01-0.28,0.01-0.41,0.02
				c0.28,1.49,1.13,2.82,2.53,3.34c0.12,0.04,0.33-0.03,0.37-0.16c0.53-1.7,0.84-3.58,0.47-5.34c-0.12,0.07-0.24,0.13-0.37,0.2
				c2.02,0.53,3.41,2.3,3.45,4.46c0,0.21,0.38,0.11,0.44-0.02c0.09-0.18,0.23-0.32,0.37-0.47c0.22-0.2,0.48-0.37,0.75-0.48
				c0.22-0.11,2.04-0.21,2.12-0.37c-0.49,1.06-0.48,2.2,0.01,3.25c0.08,0.18,0.53,0.03,0.46-0.13c-0.48-1.01-0.49-2.13-0.01-3.15
				c0.05-0.1-0.04-0.15-0.13-0.16c-1.33-0.08-3.26,0.07-3.99,1.48c0.15-0.01,0.3-0.01,0.44-0.02c-0.04-2.29-1.48-4.12-3.63-4.68
				c-0.1-0.03-0.4,0.03-0.37,0.2c0.36,1.73,0.05,3.6-0.47,5.27c0.12-0.05,0.24-0.11,0.37-0.16c-1.32-0.49-2.08-1.81-2.35-3.19
				c-0.03-0.16-0.35-0.06-0.41,0.02c-1.02,1.21-1.37,2.91-1.46,4.48C217.46,146.03,217.92,145.94,217.93,145.77L217.93,145.77z"/>
		</g>
	</g>
	<g>
		<path class="st28" d="M239.33,142.65c1.87-1.63,3.4-4.29,1.94-6.7c-1.66-2.74-5.37-2.74-7.46-0.63c0.14,0,0.27,0.01,0.41,0.01
			c0.46-2.31,0.42-5.78-2.25-6.49c-2.56-0.68-4.59,2.15-5.36,4.3c0.15-0.03,0.3-0.06,0.46-0.09c-2.1-4.29-6.48-6.86-11.07-5.75
			c-4.29,1.03-7.32,5.29-7.35,9.82c0.15-0.03,0.3-0.06,0.46-0.09c-0.51-1.31-1.88-4.96-3.72-4.45c-2.2,0.61-0.2,4.45,0.44,5.61
			c0.12-0.06,0.25-0.13,0.37-0.19c-4.19-0.98-8.52-1.3-12.76-0.48c-0.97,0.19-1.93,0.45-2.86,0.8c-0.19,0.07-0.38,0.15-0.56,0.23
			c0.44-0.21,0.19,0.25,0.48-0.14c0.16-0.21,0.31-0.43,0.46-0.65c1.45-2.15,2.53-5.61-0.7-6.6c-2.08-0.64-4.11,1.71-5.02,3.34
			c0.15-0.02,0.29-0.04,0.44-0.06c-0.24-2.57-0.84-6.96-3.47-8.1c-2.67-1.15-4.04,2.72-4.3,4.74c0.15-0.03,0.3-0.06,0.46-0.09
			c-0.28-1.38-0.66-2.75-1.12-4.08c-0.38-1.1-1.12-3.42-2.44-3.71c-3.35-0.72-1.39,6.19-0.98,7.6c0.15-0.04,0.3-0.08,0.46-0.13
			c-1.86-5.51-8.66-8.81-13.96-6.98c-4.97,1.72-5.32,7.63-3.01,11.77c0.14-0.06,0.28-0.12,0.42-0.18c-0.92-1.44-1.93-2.83-3.04-4.12
			c-0.75-0.88-2.11-2.6-3.44-2.07c-2.87,1.14,3.12,7.82,4.05,8.79c0.13-0.07,0.26-0.14,0.39-0.21c-2.79-1.95-6.51-2.55-9.48-0.74
			c0.12,0,0.25,0,0.37,0.01c-1.33-3.42-5.48-4.08-7.93-1.6c0.14,0,0.27,0.01,0.41,0.01c0.46-2.31,0.42-5.78-2.25-6.49
			c-2.56-0.68-4.59,2.15-5.36,4.3c0.15-0.03,0.3-0.06,0.46-0.09c-2.1-4.29-6.48-6.86-11.07-5.75c-4.29,1.03-7.32,5.29-7.35,9.82
			c0.15-0.03,0.3-0.06,0.46-0.09c-0.51-1.31-1.88-4.96-3.72-4.45c-2.2,0.61-0.2,4.45,0.44,5.61c0.12-0.06,0.25-0.13,0.37-0.19
			c-4.19-0.98-8.52-1.3-12.76-0.48c-0.97,0.19-1.93,0.45-2.86,0.8c-0.19,0.07-0.38,0.15-0.56,0.23c0.44-0.21,0.19,0.25,0.48-0.14
			c0.16-0.21,0.31-0.43,0.46-0.65c1.45-2.15,2.53-5.61-0.7-6.6c-2.08-0.64-4.11,1.71-5.02,3.34c0.15-0.02,0.29-0.04,0.44-0.06
			c-0.24-2.57-0.84-6.96-3.47-8.1c-2.67-1.15-4.04,2.72-4.3,4.74c0.15-0.03,0.3-0.06,0.46-0.09c-0.28-1.38-0.66-2.75-1.12-4.08
			c-0.38-1.1-1.12-3.42-2.44-3.71c-3.35-0.72-1.39,6.2-0.98,7.6c0.15-0.04,0.3-0.08,0.46-0.13c-1.86-5.51-8.66-8.81-13.96-6.98
			c-4.97,1.72-5.32,7.63-3.01,11.77c0.14-0.06,0.28-0.12,0.42-0.18c-0.92-1.44-1.93-2.83-3.04-4.12c-0.75-0.88-2.11-2.6-3.44-2.07
			c-2.87,1.14,3.12,7.82,4.05,8.79c0.13-0.07,0.26-0.14,0.39-0.21c-3.59-2.52-9.93-2.88-11.78,2.09c-0.95,2.53,0.18,5.61,1.22,7.9
			c0.2,0.45,1.37,3.38,1.98,3.38c3.99,0,7.99,0,11.98,0c19.28,0,38.57,0,57.85,0c10.51,0,21.02,0,31.53,0c14.72,0,29.45,0,44.17,0
			c16.26,0,32.52,0,48.78,0c0.6,0,1.19,0,1.79,0c0.07,0,0.36-0.06,0.32-0.2c-1.33-4.11-4.61-8.2-9.12-8.36
			c-0.17-0.01-0.49,0.26-0.18,0.27c4.38,0.15,7.56,4.26,8.84,8.22c0.11-0.07,0.21-0.13,0.32-0.2c-13,0-26,0-39,0
			c-17.44,0-34.89,0-52.33,0c-8.42,0-16.83,0-25.25,0c-19.52,0-39.05,0-58.57,0c-6.36,0-12.71,0-19.07,0c-0.55,0-1.1,0-1.65,0
			c-0.08,0-0.15,0-0.23,0c0.1,0-0.76-1.41-0.91-1.67c-1.34-2.43-2.51-5.28-2.28-8.13c0.17-2.09,1.57-3.58,3.35-4.42
			c2-0.95,4.39-0.39,6.31,0.47c0.55,0.24,1.09,0.54,1.58,0.88c0.1,0.07,0.52-0.08,0.39-0.21c-0.84-0.87-1.61-1.81-2.35-2.77
			c-0.94-1.23-2.98-3.71-2.14-5.42c0.75-1.53,5.55,5.16,6.06,5.96c0.08,0.13,0.52-0.02,0.42-0.18c-2.16-3.87-2.05-9.2,2.38-11.24
			c5.04-2.32,11.98,1.62,13.71,6.76c0.06,0.16,0.5,0.03,0.46-0.13c-0.39-1.33-0.7-2.67-0.87-4.05c-0.1-0.81-0.11-1.63,0.1-2.42
			c0.38-1.41,1.57-0.46,2.03,0.18c1.34,1.83,1.92,4.51,2.37,6.73c0.03,0.16,0.44,0.04,0.46-0.09c0.1-0.75,0.3-1.49,0.55-2.2
			c0.29-0.82,0.74-1.61,1.45-2.12c1.11-0.79,2.24,0.2,2.85,1.03c1.35,1.81,1.8,4.6,2.01,6.84c0.02,0.17,0.39,0.03,0.44-0.06
			c1.2-2.14,4.71-4.97,6.18-1.47c0.76,1.81-0.87,4.28-1.95,5.61c-0.13,0.16,0.25,0.13,0.3,0.1c4.72-2.28,10.87-1.62,15.73-0.49
			c0.06,0.02,0.44-0.05,0.37-0.19c-0.34-0.62-2.54-5.46-0.61-5.24c1.45,0.17,2.52,3.13,2.98,4.33c0.06,0.15,0.45,0.06,0.46-0.09
			c0.03-4.24,2.64-8.11,6.53-9.41c4.45-1.48,8.96,1.42,10.97,5.52c0.08,0.16,0.41,0.05,0.46-0.09c0.81-2.29,3.35-5.56,5.83-3.34
			c1.39,1.24,1.19,3.97,0.86,5.65c-0.04,0.19,0.35,0.07,0.41,0.01c2.26-2.28,5.94-1.37,7.11,1.65c0.05,0.13,0.29,0.06,0.37,0.01
			c2.77-1.68,6.26-0.96,8.83,0.83c0.1,0.07,0.52-0.08,0.39-0.21c-0.84-0.87-1.62-1.81-2.35-2.77c-0.94-1.23-2.98-3.71-2.14-5.42
			c0.75-1.53,5.55,5.16,6.06,5.96c0.08,0.13,0.52-0.02,0.42-0.18c-2.16-3.87-2.05-9.2,2.38-11.24c5.04-2.32,11.98,1.62,13.71,6.76
			c0.06,0.16,0.5,0.03,0.46-0.13c-0.39-1.32-0.7-2.67-0.87-4.05c-0.1-0.81-0.11-1.63,0.1-2.42c0.38-1.41,1.57-0.46,2.03,0.18
			c1.34,1.83,1.92,4.51,2.37,6.73c0.03,0.16,0.44,0.04,0.46-0.09c0.1-0.75,0.3-1.49,0.55-2.2c0.29-0.82,0.74-1.61,1.45-2.12
			c1.11-0.79,2.24,0.2,2.85,1.03c1.35,1.81,1.8,4.6,2.01,6.84c0.02,0.17,0.39,0.03,0.44-0.06c1.2-2.14,4.71-4.97,6.18-1.47
			c0.76,1.81-0.87,4.28-1.95,5.61c-0.13,0.16,0.25,0.13,0.3,0.1c4.72-2.28,10.87-1.62,15.73-0.49c0.07,0.02,0.44-0.05,0.37-0.19
			c-0.34-0.62-2.54-5.46-0.61-5.24c1.45,0.17,2.52,3.13,2.98,4.33c0.06,0.15,0.45,0.06,0.46-0.09c0.03-4.24,2.64-8.11,6.53-9.41
			c4.45-1.48,8.96,1.42,10.97,5.52c0.08,0.16,0.41,0.05,0.46-0.09c0.81-2.29,3.35-5.56,5.83-3.34c1.39,1.24,1.19,3.97,0.86,5.65
			c-0.04,0.19,0.35,0.07,0.41,0.01c2.34-2.35,6.47-1.26,7.23,2.11c0.42,1.88-1.14,3.94-2.44,5.07
			C238.76,142.74,239.22,142.74,239.33,142.65z"/>
	</g>
</g>
<path class="st17" d="M256.49,192.56H48.92c-13.25,0-24.09-10.84-24.09-24.09v0c0-13.25,10.84-24.09,24.09-24.09h207.57
	c13.25,0,24.09,10.84,24.09,24.09v0C280.58,181.72,269.74,192.56,256.49,192.56z"/>
</svg>
