<?xml version="1.0" encoding="utf-8"?>
<!-- Generator: Adobe Illustrator 23.0.0, SVG Export Plug-In . SVG Version: 6.00 Build 0)  -->
<svg version="1.1" id="Capa_1" xmlns="http://www.w3.org/2000/svg" xmlns:xlink="http://www.w3.org/1999/xlink" x="0px" y="0px"
	 viewBox="0 0 304.78 259.67" style="enable-background:new 0 0 304.78 259.67;" xml:space="preserve">
<style type="text/css">
	.st0{fill:url(#SVGID_1_);}
	.st1{fill:url(#SVGID_2_);}
	.st2{fill:url(#SVGID_3_);}
	.st3{fill:url(#SVGID_4_);}
	.st4{fill:url(#SVGID_5_);}
	.st5{fill:url(#SVGID_6_);}
	.st6{fill:url(#SVGID_7_);}
	.st7{fill:url(#SVGID_8_);}
	.st8{fill:url(#SVGID_9_);}
	.st9{fill:#DDCFB8;}
	.st10{fill:#EAC3B0;}
	.st11{fill:#EDBA94;}
	.st12{fill:#69514C;}
	.st13{fill:#F7E8CC;}
	.st14{fill:#EADBC4;}
	.st15{fill:#C17A49;}
	.st16{fill:#AB6E43;}
	.st17{fill:#231F20;}
	.st18{fill:#FFFFFF;}
	.st19{opacity:0.3;fill:#FFFFFF;}
	.st20{fill:#F6A044;}
	.st21{fill:#E08F41;}
	.st22{fill:#4A3936;}
	.st23{fill:#96613C;}
	.st24{fill:#E39142;}
	.st25{fill:#F2BC40;}
	.st26{opacity:0.2;fill:#FFFFFF;}
	.st27{opacity:0.39;fill:#FFFFFF;}
	.st28{fill:#A3CA65;}
	.st29{fill:#5F9C31;}
	.st30{fill:none;}
	.st31{fill:#74BA5C;}
	.st32{font-family:'Roboto-Black';}
	.st33{font-size:26.7131px;}
</style>
<radialGradient id="SVGID_1_" cx="-61.6074" cy="652.6538" r="84.6848" gradientTransform="matrix(-0.7612 -0.2327 -0.2279 0.7453 309.4637 -410.8995)" gradientUnits="userSpaceOnUse">
	<stop  offset="0" style="stop-color:#FFFFFF"/>
	<stop  offset="1" style="stop-color:#FFFFFF;stop-opacity:0"/>
</radialGradient>
<path class="st0" d="M134.93,141.15c4.95-3.72,142.11-91.74,142.11-91.74l-39.09-30.32L150,152.31L134.93,141.15z"/>
<radialGradient id="SVGID_2_" cx="57.8353" cy="764.0536" r="80.8839" gradientTransform="matrix(-0.7723 0.1927 0.1887 0.7562 79.421 -515.4666)" gradientUnits="userSpaceOnUse">
	<stop  offset="0" style="stop-color:#FFFFFF"/>
	<stop  offset="1" style="stop-color:#FFFFFF;stop-opacity:0"/>
</radialGradient>
<path class="st1" d="M142.99,155.8c2.33-5.74,77.32-142.76,77.32-142.76L179.18,0l-21.11,123.69L142.99,155.8z"/>
<radialGradient id="SVGID_3_" cx="49.0443" cy="821.5112" r="93.5466" gradientTransform="matrix(-0.7723 0.1927 0.1887 0.7562 79.421 -515.4666)" gradientUnits="userSpaceOnUse">
	<stop  offset="0" style="stop-color:#FFFFFF"/>
	<stop  offset="1" style="stop-color:#FFFFFF;stop-opacity:0"/>
</radialGradient>
<path class="st2" d="M101.32,159.97c30.29-45.53,199.92-51.51,199.92-51.51l-11.6-37.48l-159.02,57.85L101.32,159.97z"/>
<radialGradient id="SVGID_4_" cx="133.3547" cy="651.6388" r="84.6848" gradientTransform="matrix(0.7923 -0.0758 0.0742 0.7758 -51.6343 -409.8047)" gradientUnits="userSpaceOnUse">
	<stop  offset="0" style="stop-color:#FFFFFF"/>
	<stop  offset="1" style="stop-color:#FFFFFF;stop-opacity:0"/>
</radialGradient>
<path class="st3" d="M163.36,150.43C159.25,145.8,42.47,32.13,42.47,32.13l44.36-21.89l59.53,148.11L163.36,150.43z"/>
<radialGradient id="SVGID_5_" cx="238.8887" cy="660.589" r="80.8839" gradientTransform="matrix(0.7181 0.3432 -0.3361 0.7032 194.6744 -466.2485)" gradientUnits="userSpaceOnUse">
	<stop  offset="0" style="stop-color:#FFFFFF"/>
	<stop  offset="1" style="stop-color:#FFFFFF;stop-opacity:0"/>
</radialGradient>
<path class="st4" d="M162.93,168.14c-1.14-6.09-47.2-155.34-47.2-155.34l42.9-4.55l-4.05,125.41L162.93,168.14z"/>
<radialGradient id="SVGID_6_" cx="216.0796" cy="716.82" r="93.5466" gradientTransform="matrix(0.7181 0.3432 -0.3361 0.7032 194.6744 -466.2485)" gradientUnits="userSpaceOnUse">
	<stop  offset="0" style="stop-color:#FFFFFF"/>
	<stop  offset="1" style="stop-color:#FFFFFF;stop-opacity:0"/>
</radialGradient>
<path class="st5" d="M193.27,174.88C172.69,124.21,7.69,84.42,7.69,84.42l18.86-34.4l144.23,88.49L193.27,174.88z"/>
<radialGradient id="SVGID_7_" cx="385.6827" cy="536.4311" r="86.9321" gradientTransform="matrix(0.2457 0.7571 -0.7413 0.2405 523.9817 -287.3941)" gradientUnits="userSpaceOnUse">
	<stop  offset="0" style="stop-color:#FFFFFF"/>
	<stop  offset="1" style="stop-color:#FFFFFF;stop-opacity:0"/>
</radialGradient>
<path class="st6" d="M136.34,121.36c3.63-5.02,164.17-28.72,164.17-28.72l-8.57,58.11l-158.19-0.28L136.34,121.36z"/>
<linearGradient id="SVGID_8_" gradientUnits="userSpaceOnUse" x1="0" y1="184.4922" x2="304.7794" y2="184.4922">
	<stop  offset="0" style="stop-color:#FFFFFF"/>
	<stop  offset="5.592048e-04" style="stop-color:#7EBB3B"/>
	<stop  offset="1" style="stop-color:#64B44C"/>
</linearGradient>
<path class="st7" d="M277.95,259.67H26.83C12.01,259.67,0,247.65,0,232.84v-96.69c0-14.82,12.01-26.83,26.83-26.83h251.12
	c14.82,0,26.83,12.01,26.83,26.83v96.69C304.78,247.65,292.77,259.67,277.95,259.67z"/>
<linearGradient id="SVGID_9_" gradientUnits="userSpaceOnUse" x1="0" y1="173.9689" x2="304.7794" y2="173.9689">
	<stop  offset="0" style="stop-color:#FFFFFF"/>
	<stop  offset="5.592048e-04" style="stop-color:#94C24A"/>
	<stop  offset="1" style="stop-color:#70B95E"/>
</linearGradient>
<path class="st8" d="M277.95,249.14H26.83C12.01,249.14,0,237.13,0,222.31v-96.69c0-14.82,12.01-26.83,26.83-26.83h251.12
	c14.82,0,26.83,12.01,26.83,26.83v96.69C304.78,237.13,292.77,249.14,277.95,249.14z"/>
<g>
	<g>
		<path class="st9" d="M73.49,123.38c1.71,6.2,4.34,12.12,6.17,18.28c1.62,5.44,2.61,11.06,2.95,16.72
			c1.87,0.16,3.74,0.32,5.61,0.48c-0.6-5.25-0.22-10.61,1.13-15.73c2.16-8.19,6.79-16.19,5.45-24.56
			c-1.23-7.69-8.14-14.12-15.87-14.91C68.47,102.61,71.77,117.12,73.49,123.38z"/>
		<path class="st10" d="M78.36,146.65c1.79,0.35,5.07-0.5,6.07-0.87c1.35-0.49,2.41-1.55,3.24-2.72c1.14-1.6,1.93-3.49,1.97-5.45
			c0.05-1.96-0.72-3.98-2.24-5.22c-1.3-1.06-3.02-1.48-4.69-1.64c-2.58-0.25-5.28,0.1-7.65,1.16c-1.83,0.82-4.95,2.64-4.78,4.9
			C70.64,141.63,74.16,145.83,78.36,146.65z"/>
		<path class="st9" d="M141.2,74.86c2.29,0.22,4.48,1.04,6.5,2.13c0.14,0.07,0.28,0.16,0.33,0.3c0.06,0.17-0.03,0.36-0.13,0.51
			c-1.37,2.25-3.79,3.67-6.27,4.53c-1.79,0.62-3.79,0.98-5.57,0.32c-1.78-0.67-3.15-2.67-2.55-4.48
			C134.51,75.12,138.43,74.59,141.2,74.86z"/>
		<path class="st11" d="M145.03,77.32c-1.86,1.47-3.94,2.68-6.17,3.48c-0.78,0.28-1.74,0.48-2.37-0.05
			c-0.34-0.29-0.51-0.74-0.62-1.17c-0.19-0.69-0.66-2.22,0.01-2.65c0.76-0.48,2.16-0.54,3.03-0.61
			C140.99,76.16,143.11,76.49,145.03,77.32z"/>
		<path class="st12" d="M142.52,68.74c1.01-3.11,0.36-6.71-1.66-9.28c-0.27-0.34-0.79-0.68-1.08-0.35
			c-0.19,0.22-0.09,0.56,0.01,0.83c0.75,2.2-0.01,4.74-1.57,6.46c-1.56,1.72-3.82,2.69-6.11,3.08c-0.59,0.1-1.26,0.2-1.61,0.69
			c-0.18,0.25-0.25,0.56-0.28,0.86c-0.15,1.48,0.57,3.02,1.79,3.86C136.04,77.68,141.36,72.33,142.52,68.74z"/>
		<path class="st9" d="M124,129.81c1.54,2.05,2.22,5.18,2.21,7.74c0,1.53-1.6,10.4-1.95,10.72c-0.98,0.88-3.59-0.32-4.89-0.06
			c0.44-1.94,0.86-3.93,0.64-5.91c-0.22-1.98,0.08-5.19-2.53-6.41c-1.69-0.79-4.29,0.37-5.07-1.32c-0.26-0.58-0.28-1.23-0.28-1.87
			c0-2.93,0.46-8.18,4.01-8.72C119.03,123.55,122.47,127.76,124,129.81z"/>
		<path class="st13" d="M103.35,96.06c-0.45,0.35-0.95,0.75-0.97,1.26c-0.01,0.29,0.14,0.56,0.29,0.82
			c3.15,5.53,7.59,10.6,13.02,14.9c0.14,0.11,0.31,0.23,0.51,0.24c0.24,0.01,0.44-0.14,0.6-0.28c8.26-7.18,12.68-16.72,14.17-26.34
			c0.3-1.93,0.48-3.89,0.06-5.81c-0.42-1.91-1.51-3.79-3.41-5.04c-3.24-2.13-9.65-3.22-11.14,0.75c-1.77,4.71-3.26,9.05-6.7,13.25
			C107.93,92.07,105.78,94.17,103.35,96.06z"/>
		<path class="st13" d="M73.49,93.31c-3.68,0.16-7.53,0.66-10.48,2.86c-4.39,3.27-5.56,9.31-5.84,14.78
			c-0.22,4.27-0.09,8.61,1.14,12.7c1.23,4.09,3.66,7.94,7.27,10.23c2.85,1.81,6.24,2.55,9.57,3.11c8.32,1.42,16.82,1.97,25.23,1.28
			c6.12-0.51,12.72-1.99,16.57-6.77c2.82-3.51,3.64-8.16,4.36-12.6c0.5-3.07,1-6.13,1.5-9.2c0.33-1.99,0.64-4.08-0.03-5.99
			c-0.87-2.45-3.17-4.05-5.27-5.58c-2.56-1.87-5.64-5.86-8.67-5.76c-3.9,0.14-7.81,1.3-11.8,1.38
			C89.18,93.91,81.34,92.98,73.49,93.31z"/>
		<path class="st14" d="M116.95,127.45c-3.85,4.78-10.45,6.26-16.57,6.77c-8.42,0.7-16.91,0.14-25.23-1.28
			c-3.33-0.57-6.72-1.3-9.57-3.11c-3.61-2.29-6.04-6.14-7.27-10.23c-0.74-2.46-1.08-5.01-1.19-7.58c-0.14,3.92,0.06,7.88,1.19,11.63
			c1.23,4.09,3.66,7.94,7.27,10.23c2.85,1.81,6.24,2.55,9.57,3.11c8.32,1.42,16.82,1.97,25.23,1.28c6.12-0.51,12.72-1.99,16.57-6.77
			c2.82-3.51,3.64-8.16,4.36-12.6C121.81,115.83,119.76,123.95,116.95,127.45z"/>
		<path class="st14" d="M122.61,110.94c0.53-1.85,1.85-6.52,2.46-7.31c0.32-0.41,0.35-0.8,0.28-1.32
			c-0.76-5.6-1.53-11.19-2.29-16.79c-0.23-1.67-0.86-0.5-1.1,0.34c-0.32,1.13-0.36,2.44-0.51,3.61c-0.32,2.41-4.48-3.61-4.62-1.19
			c-0.14,2.34,0.8,9.52,1.33,11.6C120.35,108.44,122.81,110.23,122.61,110.94z"/>
		<path class="st13" d="M118.51,72.04c-1.67,2.3-2.21,5.23-2.34,8.07c-0.41,8.63,2.69,17.51,8.9,23.53c1.24,1.21,2.61,2.3,4.16,3.08
			c4.52,2.27,10.43,1.37,14.08-2.14c3.65-3.51,4.77-9.38,2.68-13.98c-1.63-3.59-4.87-6.2-6.9-9.58c-1.65-2.75-2.49-5.98-4.48-8.5
			C130.77,67.68,122.44,66.64,118.51,72.04z"/>
		<path class="st11" d="M125.17,103.73c1.22,1.17,2.56,2.23,4.06,2.98c4.52,2.27,10.43,1.37,14.08-2.14
			c3.6-3.46,4.74-9.23,2.75-13.81c-2.26-1.37-5.19-1.28-7.83-0.82c-4.12,0.72-8.32,2.29-10.99,5.52
			C125.4,97.7,124.75,100.81,125.17,103.73z"/>
		<path class="st14" d="M81.44,134.13c0.41-2.83,0.74-5.7,0.54-8.56c-0.2-2.86-0.96-5.73-2.58-8.09c-0.61-0.89-1.44-1.76-2.51-1.88
			c-0.06,3.62-1,7.22-2.73,10.4c-0.6,1.11-1.32,2.22-1.46,3.47c-0.21,1.79,0.8,3.54,2.16,4.72c1.12,0.98,2.49,1.67,3.94,1.99
			c0.53,0.12,1.49,0.41,1.94,0.07C81.26,135.84,81.35,134.71,81.44,134.13z"/>
		<path class="st13" d="M58.05,123.38c1.71,6.2,4.34,12.12,6.17,18.28c1.62,5.44,2.61,11.06,2.95,16.72
			c1.87,0.16,3.74,0.32,5.61,0.48c-0.6-5.25-0.22-10.61,1.13-15.73c2.16-8.19,6.79-16.19,5.45-24.56
			c-1.23-7.69-6.32-15.01-14.06-15.79C54.84,101.72,56.32,117.12,58.05,123.38z"/>
		<path class="st14" d="M102.71,132.55c0.35-0.62,0.62-1.29,0.88-1.95c0.43-1.07,0.85-2.14,1.28-3.2c1.54,1.58,2.18,3.87,2.15,6.07
			c-0.02,1.31-0.33,2.75-1.4,3.49c-0.45,0.32-1.01,0.47-1.56,0.52c-1.09,0.09-3.03-0.33-3.49-1.5c-0.23-0.58,0.06-0.94,0.45-1.34
			C101.64,133.96,102.25,133.36,102.71,132.55z"/>
		<path class="st13" d="M115.99,139.14c-2,6.46-4,12.93-6.01,19.39c-2.33,0.09-4.66,0.18-6.99,0.28c3.2-9.73,4-20.24,2.31-30.35
			c-0.21-1.23-0.45-2.5-0.14-3.72c0.3-1.16,1.07-2.14,1.85-3.05c2.37-2.75,11.51-11.14,13.94-4.36c1.08,3.01-0.74,7.27-1.52,10.17
			C118.38,131.41,117.18,135.28,115.99,139.14z"/>
		<path class="st14" d="M56.77,102.61c-3.43,3.66-5.5,8.55-5.75,13.55c-0.18,3.68,0.67,7.54,3.04,10.37
			c2.36,2.8,6.05,4.33,9.71,4.39c3.66,0.06,7.27-1.24,10.3-3.31c-0.1-0.35-0.21-0.69-0.31-1.04c-4.1,2.12-9.06,2.49-13.43,1.01
			c-1.49-0.51-2.96-1.25-3.99-2.44c-1.03-1.2-1.55-2.75-1.91-4.3c-0.84-3.67-0.87-7.6,0.5-11.11c0.38-0.99,1.33-2.61,2.74-3.49
			c0,0,0.73-3.63,1.98-6.08C59.64,100.16,57.36,101.99,56.77,102.61z"/>
		<path class="st14" d="M109.78,89.78c1.49,0.41,3.1,0.3,4.57-0.18c1.47-0.48,2.8-1.34,3.95-2.37c0.85-0.77,1.62-1.68,1.98-2.77
			c0.17-0.52,0.22-1.13-0.1-1.56c-0.31-0.41-0.88-0.54-1.4-0.54c-0.94,0.01-1.84,0.34-2.68,0.75c-1.51,0.73-3.1,1.72-4.22,2.98
			c-0.41,0.47-0.44,0.94-0.66,1.5C110.9,88.39,110.35,89.14,109.78,89.78z"/>
		<path class="st14" d="M118.56,80.01c0.14,0.13,0.29,0.27,0.48,0.3c0.19-0.64,0.38-1.31,0.27-1.96c-0.11-0.66-0.61-1.3-1.27-1.35
			c-0.34-0.02-0.68,0.11-0.95,0.32c-0.25,0.19-0.46,0.44-0.55,0.73C116.23,79.12,117.93,79.45,118.56,80.01z"/>
		<path class="st12" d="M108.23,74.59c-2.15-2.46-2.98-6.02-2.13-9.19c0.11-0.42,0.46-0.93,0.85-0.75c0.26,0.12,0.3,0.48,0.32,0.77
			c0.18,2.32,1.88,4.35,3.99,5.31c2.11,0.97,4.57,0.97,6.83,0.42c0.58-0.14,1.23-0.31,1.75,0c0.26,0.16,0.45,0.41,0.6,0.68
			c0.72,1.3,0.67,3-0.12,4.26C117.7,80.25,110.71,77.43,108.23,74.59z"/>
		<path class="st13" d="M107.19,80.49c-1.9,1.43-3.39,3.47-5.59,4.37c1.16,0.76,2.49,1.25,3.8,1.7c1.67,0.57,3.38,1.09,5.13,1.34
			c1.75,0.24,3.57,0.2,5.25-0.34c1.36-0.44,2.61-1.19,3.62-2.19c0.39-0.38,0.75-0.8,0.99-1.29c0.6-1.22,0.37-2.76-0.45-3.83
			c-1.06-1.37-2.92-1.8-4.56-1.98c-1.85-0.2-3.75,0.05-5.49,0.73C108.94,79.37,108.02,79.87,107.19,80.49z"/>
		<path class="st11" d="M118.04,81.98c0.03-0.21,0.18-0.39,0.2-0.61c0.05-0.46-0.44-0.78-0.88-0.9c-0.84-0.21-1.72-0.09-2.57,0.08
			c-3.06,0.6-6.02,1.72-8.72,3.29c0.69,0.53,1.46,0.94,2.29,1.21c1.23,0.4,2.54,0.47,3.83,0.46c2.25-0.02,4.57-0.32,6.49-1.5
			c0.26-0.16,0.51-0.35,0.63-0.62c0.12-0.28,0.04-0.66-0.24-0.78C118.74,82.49,117.94,82.6,118.04,81.98z"/>
		<path class="st15" d="M95.03,113.22c1.21-2.37,1.2-5.33-0.04-7.68c-0.65-1.23-1.6-2.28-2.27-3.5c-0.68-1.22-1.06-2.73-0.49-3.99
			c0.6-1.34,2.15-2.14,2.54-3.56c0.07-0.24,0.09-0.48,0.09-0.73C87.72,93.74,80.61,93,73.49,93.3c-0.29,0.01-0.58,0.03-0.87,0.04
			c-1.27,0.93-2.67,1.69-3.85,2.76c-1.34,1.22-2.36,2.91-2.37,4.73c0,1.81,1.23,3.68,3.01,4.01c1.4,0.26,2.78-0.39,4.08-0.98
			c1.36-0.61,2.78-1.18,4.26-1.21c1.49-0.03,3.07,0.57,3.85,1.83c1.48,2.41-0.54,5.5-0.21,8.31c0.39,3.26,4.12,5.34,7.38,4.88
			C91.4,117.31,93.81,115.59,95.03,113.22z"/>
		<path class="st15" d="M104.18,105.33c-1.15,1.92,0.29,4.45-0.37,6.59c-0.5,1.63-2.08,2.62-3.3,3.82c-1.21,1.2-2.11,3.21-1.03,4.53
			c0.57,0.7,1.53,0.95,2.44,0.99c1.45,0.06,2.88-0.31,4.33-0.4c1.45-0.09,3.04,0.16,4.03,1.21c0.74,0.79,1.08,1.97,2.01,2.54
			c0.94,0.59,2.23,0.33,3.08-0.38c0.85-0.71,1.32-1.77,1.6-2.84c1.01-3.85-0.13-7.89-1.26-11.7c-0.23-0.79-0.5-1.63-1.15-2.13
			c-0.71-0.55-1.68-0.54-2.56-0.71C109.63,106.39,106.38,101.67,104.18,105.33z"/>
		<path class="st15" d="M71.03,124.29c1.46-0.74,2.92-1.68,3.69-3.12c0.14,0.89,0.43,1.74,0.61,2.62c0.39,1.91,0.26,3.98-0.63,5.72
			c-0.89,1.74-2.62,3.09-4.57,3.27c-1.98,0.18-5.01-1.32-4.87-3.63C65.43,126.48,69.07,125.28,71.03,124.29z"/>
		<path class="st16" d="M75.34,123.79c-0.18-0.88-0.46-1.74-0.61-2.62c-0.06,0.11-0.13,0.22-0.2,0.33c0,0.01,0.01,0.03,0.01,0.04
			c0.39,1.91,0.26,3.98-0.63,5.72c-0.89,1.74-2.62,3.09-4.57,3.27c-1.3,0.12-3.04-0.48-4.05-1.56c-0.01,0.06-0.02,0.12-0.02,0.19
			c-0.14,2.31,2.88,3.81,4.87,3.63c1.95-0.18,3.67-1.54,4.57-3.27C75.6,127.77,75.73,125.71,75.34,123.79z"/>
		<g>
			<path class="st14" d="M123.42,83.47c-0.5-0.63-0.8-1.44-0.72-2.25c0.08-0.8,0.58-1.57,1.33-1.88c0.49-0.2,1.04-0.19,1.55-0.08
				c1.46,0.33,2.67,1.58,2.95,3.05c0.08,0.4,0.09,0.81-0.03,1.2C127.75,86.08,124.59,84.94,123.42,83.47z"/>
			<path class="st17" d="M128.71,84.03c-0.34,1-1.42,1.53-2.42,1.19c-1-0.34-1.53-1.42-1.19-2.42c0.34-1,1.42-1.53,2.42-1.19
				S129.05,83.03,128.71,84.03z"/>
			<path class="st18" d="M126.85,83.55c-0.27,0.26-0.7,0.25-0.96-0.02c-0.26-0.27-0.25-0.7,0.02-0.96c0.27-0.26,0.7-0.25,0.96,0.02
				C127.14,82.86,127.12,83.3,126.85,83.55z"/>
		</g>
		<g>
			<path class="st14" d="M134.24,81.46c-0.36-0.65-0.55-1.47-0.46-2.27s0.5-1.56,1.08-1.84c0.38-0.18,0.79-0.16,1.18-0.03
				c1.1,0.37,1.97,1.65,2.12,3.13c0.04,0.4,0.03,0.82-0.07,1.2C137.42,84.19,135.06,82.96,134.24,81.46z"/>
			<path class="st17" d="M138.23,82.17c-0.3,0.99-1.14,1.49-1.88,1.12c-0.74-0.37-1.11-1.46-0.81-2.45c0.3-0.99,1.14-1.49,1.88-1.12
				C138.16,80.08,138.52,81.18,138.23,82.17z"/>
			<path class="st18" d="M136.83,81.64c-0.22,0.25-0.54,0.23-0.73-0.05c-0.19-0.28-0.16-0.71,0.06-0.96
				c0.22-0.25,0.54-0.23,0.73,0.05C137.08,80.96,137.05,81.39,136.83,81.64z"/>
		</g>
		<path class="st17" d="M135.12,94.8c-0.11-0.07-0.25-0.08-0.37-0.04c-0.17,0.21-0.06,0.53,0.11,0.75c0.16,0.22,0.38,0.42,0.42,0.69
			c0.03,0.21-0.05,0.43-0.06,0.64c-0.01,0.22,0.12,0.47,0.34,0.47c0.18-0.01,0.3-0.19,0.37-0.36c0.2-0.45,0.34-0.96,0.2-1.43
			c-0.13-0.47-0.62-0.87-1.1-0.75L135.12,94.8z"/>
		<path class="st17" d="M142.68,93.51c-0.11-0.07-0.25-0.08-0.37-0.04c-0.17,0.21-0.06,0.53,0.11,0.75
			c0.16,0.22,0.38,0.42,0.42,0.69c0.03,0.21-0.05,0.43-0.06,0.64c-0.01,0.22,0.12,0.47,0.34,0.47c0.18-0.01,0.3-0.19,0.37-0.36
			c0.2-0.45,0.34-0.96,0.2-1.43c-0.13-0.47-0.62-0.87-1.1-0.75L142.68,93.51z"/>
		<path class="st12" d="M135.97,102.18c0,0,2.11,1.82,3.8,1.43c1.69-0.39,2.92-2.67,2.92-2.67s-1.16,3.12-2.78,3.44
			C137.16,104.93,135.97,102.18,135.97,102.18z"/>
		<path class="st19" d="M63.94,102.27c-2.01,2.59-2.9,6.07-2.17,9.26c0.38,1.68,1.47,3.46,3.18,3.64c1.46,0.15,2.8-0.98,3.43-2.32
			c0.63-1.33,0.72-2.84,0.91-4.3c0.2-1.46,0.55-2.98,1.56-4.05c0.88-0.93,2.13-1.39,3.21-2.07c3.06-1.92,1.81-6-1.82-5.24
			C69.14,97.83,65.87,99.78,63.94,102.27z"/>
		<path class="st13" d="M121,66.41c1.23-0.06,2.47,0.39,3.37,1.22c0.44-1.68,1.4-3.22,2.71-4.35c-0.33,1.29-0.26,2.69,0.19,3.94
			c0.88-0.93,2.12-1.53,3.4-1.64c-0.94,0.47-1.51,1.59-1.35,2.62c0.08,0.54,0.34,1.08,0.2,1.61c-0.12,0.44-0.49,0.77-0.91,0.94
			c-0.42,0.17-0.88,0.21-1.33,0.24c-1.25,0.08-3.67,0.38-4.39-0.96c-0.27-0.51-0.13-1.2-0.3-1.74
			C122.33,67.46,121.69,66.91,121,66.41z"/>
		<path class="st19" d="M134.41,69.58c-0.29,0.08-0.65,0.24-0.62,0.54c0.02,0.2,0.2,0.33,0.38,0.41c0.96,0.43,2.09,0.04,3.02-0.44
			c0.69-0.35,1.35-0.76,1.9-1.3s0.97-1.23,1.09-1.99c0.03-0.17,0.03-0.36-0.09-0.48c-0.09-0.08-0.22-0.11-0.34-0.1
			c-0.82,0.07-1.43,1.33-2.06,1.8C136.73,68.72,135.56,69.26,134.41,69.58z"/>
		<path class="st19" d="M140.92,63.26c-0.34,0.45-0.54,1.01-0.57,1.57c-0.01,0.16,0,0.33,0.11,0.45c0.15,0.18,0.45,0.16,0.63,0.01
			c0.18-0.15,0.27-0.38,0.32-0.61c0.11-0.49,0.09-1-0.04-1.48c-0.11,0-0.22-0.01-0.33-0.01L140.92,63.26z"/>
		<path class="st19" d="M106.89,70.29c0.5,1.01,1.03,2.01,1.57,2.99c0.17,0.3,0.34,0.61,0.62,0.81c0.28,0.2,0.68,0.27,0.96,0.07
			c0.43-0.31,0.27-1.02-0.11-1.39c-0.38-0.37-0.91-0.55-1.31-0.9c-0.7-0.61-0.8-1.53-1.27-2.28
			C106.65,68.43,106.45,69.4,106.89,70.29z"/>
		<path class="st19" d="M111.22,74.3c-0.35,0.24-0.31,0.8-0.03,1.11c0.28,0.31,0.7,0.45,1.11,0.56c0.35,0.1,0.77,0.2,1.06-0.02
			c0.32-0.23,0.33-0.75,0.09-1.07c-0.24-0.32-0.65-0.47-1.05-0.5c-0.4-0.04-0.8,0.01-1.2,0L111.22,74.3z"/>
		<path class="st17" d="M104.15,154.85l-1.7,4.3c0,0,1.51,0.81,4.57,0.7c3.06-0.11,4.18-0.54,4.18-0.54l0.07-4.91
			c0,0-1.25,0.78-3.23,0.83C106.04,155.28,104.15,154.85,104.15,154.85z"/>
		<path class="st17" d="M67.02,155.87l-1.35,4.3c0,0,1.2,0.81,3.63,0.7c2.43-0.11,3.32-0.54,3.32-0.54l0.05-4.91
			c0,0-0.99,0.78-2.57,0.83C68.53,156.3,67.02,155.87,67.02,155.87z"/>
		<path class="st17" d="M119.94,144.38l-1.29,4.3c0,0,1.14,0.81,3.45,0.7c2.31-0.11,3.16-0.54,3.16-0.54l0.05-4.91
			c0,0-0.94,0.78-2.44,0.83C121.37,144.81,119.94,144.38,119.94,144.38z"/>
		<path class="st10" d="M73.92,148.02c-0.11,0.76-0.01,1.69,0.66,2.06c0.58,0.32,1.32,0.05,1.85-0.36c0.94-0.74,1.49-1.86,1.9-2.98
			c0.31-0.84,0.57-2-0.26-2.63c-0.5-0.38-1.36-0.58-1.97-0.36C74.67,144.25,74.11,146.73,73.92,148.02z"/>
		<path class="st10" d="M81.88,149.79c0.24,0.45,0.59,0.93,1.09,0.96c0.2,0.01,0.4-0.06,0.58-0.16c0.44-0.25,0.73-0.7,0.88-1.18
			c0.15-0.48,0.17-0.99,0.16-1.5c-0.01-0.86-0.1-1.73-0.26-2.58c-0.06-0.3-0.12-0.6-0.3-0.85c-0.15-0.2-0.36-0.35-0.58-0.47
			c-0.55-0.28-1.23-0.34-1.8-0.1c-0.45,0.18-0.9,0.59-1.04,1.07c-0.13,0.44,0.15,0.68,0.24,1.1
			C81.13,147.39,81.24,148.57,81.88,149.79z"/>
		<path class="st10" d="M87.51,146.09c0.25,0.42,0.52,0.84,0.91,1.14c0.39,0.3,0.9,0.47,1.37,0.33c0.8-0.23,1.15-1.23,0.99-2.05
			c-0.16-0.82-0.68-1.52-1.08-2.24c-0.3-0.54-0.55-1.11-0.9-1.61c-0.35-0.51-0.82-0.96-1.42-1.13c-0.5-0.15-1.13-0.05-1.5,0.34
			c-0.48,0.49-0.29,0.85-0.03,1.34C86.48,143.46,86.79,144.85,87.51,146.09z"/>
		<path class="st19" d="M106.87,81.67c-0.08,0.12-0.15,0.29-0.04,0.39c0.04,0.03,0.08,0.05,0.13,0.05c0.48,0.08,0.88-0.35,1.25-0.68
			c1.12-0.99,2.69-1.21,4.12-1.67c0.15-0.05,0.34-0.18,0.27-0.32c-0.03-0.06-0.1-0.09-0.17-0.11c-0.96-0.31-2.13,0.11-3.04,0.44
			C108.36,80.13,107.47,80.78,106.87,81.67z"/>
		<path class="st17" d="M82.17,155.17l-1.42,4.3c0,0,1.26,0.81,3.8,0.7c2.54-0.11,3.48-0.54,3.48-0.54l0.06-4.91
			c0,0-1.04,0.78-2.69,0.83C83.74,155.6,82.17,155.17,82.17,155.17z"/>
	</g>
	<g>
		<path class="st20" d="M181.31,126.34c-0.48,0.92-0.59,1.99-0.53,3.02c0.07,1.21,0.33,2.52-0.31,3.54
			c-0.07,0.11-0.15,0.23-0.13,0.36c0.02,0.12,0.12,0.2,0.22,0.26c0.67,0.44,1.49,0.6,2.29,0.69c1.42,0.16,2.86,0.14,4.27-0.06
			c0.59-0.08,1.2-0.2,1.7-0.52c0.14-0.09,0.28-0.2,0.35-0.35c0.07-0.15,0.06-0.35-0.06-0.47c-0.06-0.06-0.15-0.09-0.22-0.12
			c-0.51-0.25-0.75-0.85-0.87-1.4c-0.23-1.03-0.23-2.1-0.42-3.14c-0.18-1.04-0.58-2.1-1.41-2.76
			C184.55,124.11,182.3,124.48,181.31,126.34z"/>
		<path class="st21" d="M189.11,132.83c-0.06-0.06-0.15-0.09-0.22-0.12c-0.51-0.25-0.75-0.85-0.87-1.4
			c-0.23-1.03-0.23-2.1-0.42-3.14c-0.18-1.04-0.58-2.1-1.41-2.76c-0.6-0.48-1.29-0.73-1.96-0.76c0.28,0.12,0.55,0.28,0.81,0.49
			c0.83,0.65,1.23,1.72,1.41,2.76c0.18,1.04,0.19,2.11,0.42,3.14c0.12,0.56,0.36,1.15,0.87,1.4c0.08,0.04,0.16,0.07,0.22,0.12
			c0.12,0.11,0.14,0.32,0.06,0.47c-0.07,0.15-0.21,0.26-0.35,0.35c-0.5,0.32-1.11,0.44-1.7,0.52c-1.41,0.19-2.85,0.21-4.27,0.06
			c-0.14-0.02-0.27-0.03-0.41-0.05c0.5,0.18,1.03,0.27,1.56,0.33c1.42,0.16,2.86,0.14,4.27-0.06c0.59-0.08,1.2-0.2,1.7-0.52
			c0.14-0.09,0.28-0.2,0.35-0.35C189.24,133.14,189.23,132.94,189.11,132.83z"/>
		<path class="st22" d="M181.55,113.34c-0.04-1.42-0.05-2.87,0.35-4.23c0.11-0.38,0.27-0.77,0.6-1c0.64-0.44,1.58,0.06,1.89,0.77
			c0.31,0.71,0.19,1.53,0.08,2.31c-0.51,3.8-0.43,7.69,0.24,11.47c0.14,0.76,0.06,2.8-1.08,1.81c-0.73-0.63-1.05-2.67-1.27-3.58
			C181.77,118.43,181.62,115.87,181.55,113.34z"/>
		<path class="st23" d="M236.09,122.1c-1.67,5.73-5.37,27.61-5.76,32.86c-1.74,0.12-4.92-0.37-6.66-0.25
			c-0.57-4.91-1.39-9.73-2.57-14.49c-1.89-7.63-6.08-15.12-4.72-22.87c1.25-7.12,6.07-13.84,13.26-14.47
			C239.36,102.04,237.77,116.31,236.09,122.1z"/>
		<path class="st23" d="M192.69,154.47c2.08,0.65,4.27,1.02,6.46,1.1c0.47-6.85,2.23-13.55,4.48-20.06
			c0.88-2.54,1.84-5.12,1.76-7.79c-0.09-3.34-1.79-6.47-3.79-9.25c-1.32-1.85-2.84-3.64-4.87-4.79c-2.8-1.58-6.06-1.45-8.36,0.73
			c-2.5,2.37-1.29,4.37-0.47,7.35c1.87,6.82,3.21,13.77,4,20.77C192.33,146.5,192.6,150.48,192.69,154.47z"/>
		<path class="st15" d="M202.98,99.16c0.42,0.33,0.88,0.7,0.9,1.17c0.01,0.27-0.13,0.52-0.27,0.76c-2.93,5.13-7.04,9.84-12.08,13.83
			c-0.13,0.11-0.29,0.22-0.48,0.23c-0.23,0.01,1.57,15.05,1.43,14.91c-7.58-8.25-13.76-30.7-15.14-39.62
			c-0.28-1.79-0.45-3.61-0.06-5.39c0.39-1.78,1.41-3.52,3.16-4.68c3.01-1.98,8.96-2.99,10.34,0.7c1.64,4.37,3.03,8.4,6.22,12.3
			C198.73,95.45,200.73,97.4,202.98,99.16z"/>
		<path class="st15" d="M232.4,94.1c3.41,0.14,6.99,0.62,9.73,2.66c4.08,3.04,5.16,8.64,5.42,13.72c0.2,3.96,0.08,7.99-1.06,11.79
			c-1.14,3.8-3.4,7.37-6.75,9.5c-2.65,1.68-5.8,2.36-8.89,2.89c-7.73,1.32-15.61,1.83-23.43,1.18c-5.68-0.47-11.81-1.84-15.38-6.29
			c-2.62-3.25-3.38-7.58-4.05-11.7c-0.46-2.85-0.93-5.69-1.39-8.54c-0.3-1.85-0.6-3.79,0.03-5.56c0.81-2.28,2.94-3.76,4.89-5.18
			c2.38-1.74,5.24-5.44,8.05-5.35c3.62,0.13,7.25,1.21,10.95,1.28C217.83,94.66,225.11,93.79,232.4,94.1z"/>
		<path class="st16" d="M183.87,114.01c-0.17-5.9,4.69-10.87,5.34-16.74c0.09-0.8,0.07-1.69-0.44-2.32c-0.49-0.6-1.33-0.82-2.1-0.72
			c-0.77,0.1-1.47,0.46-2.13,0.86c-1.38,0.83-2.67,1.85-3.58,3.18c-1.7,2.51-0.89,4.67-0.24,7.33
			C181.43,108.51,182.49,111.34,183.87,114.01z"/>
		<path class="st23" d="M166.7,76.77c-2.24-0.17-4.49,0.27-6.62,0.99c-0.14,0.05-0.3,0.11-0.37,0.24c-0.09,0.16-0.03,0.35,0.04,0.51
			c0.96,2.39,3.05,4.16,5.31,5.39c1.63,0.89,3.5,1.57,5.32,1.21c1.82-0.35,3.47-2.06,3.19-3.9C173.1,78.12,169.42,76.97,166.7,76.77
			z"/>
		<path class="st11" d="M162.6,78.52c1.55,1.72,3.36,3.23,5.38,4.36c0.71,0.4,1.59,0.75,2.29,0.33c0.38-0.22,0.61-0.63,0.79-1.02
			c0.29-0.64,1-2.03,0.42-2.55c-0.65-0.59-2-0.87-2.83-1.08C166.68,78.06,164.58,78.04,162.6,78.52z"/>
		<path class="st12" d="M166.43,70.67c-0.46-3.17,0.75-6.53,3.12-8.68c0.31-0.29,0.87-0.52,1.1-0.16c0.15,0.24-0.01,0.55-0.14,0.8
			c-1.08,2-0.76,4.57,0.46,6.48c1.23,1.91,3.24,3.22,5.39,3.97c0.55,0.19,1.18,0.4,1.44,0.92c0.13,0.27,0.15,0.58,0.13,0.88
			c-0.1,1.45-1.04,2.82-2.36,3.43C171.21,80.34,166.96,74.31,166.43,70.67z"/>
		<path class="st16" d="M207.44,132.08c7.81,0.65,15.7,0.13,23.43-1.19c3.09-0.53,6.24-1.21,8.89-2.89c3.35-2.12,5.6-5.7,6.75-9.5
			c0.69-2.28,1-4.65,1.1-7.03c0.13,3.64-0.05,7.31-1.1,10.79c-1.14,3.8-3.4,7.37-6.75,9.5c-2.65,1.68-5.8,2.36-8.89,2.89
			c-7.73,1.32-15.61,1.83-23.43,1.18C201.76,135.37,201.76,131.61,207.44,132.08z"/>
		<path class="st15" d="M189.03,77.77c1.23,2.49,1.27,5.4,0.94,8.16c-1.01,8.39-5.46,16.44-12.42,21.22
			c-1.4,0.96-2.9,1.79-4.52,2.29c-4.73,1.45-10.28-0.38-13.22-4.36c-2.94-3.98-3.07-9.82-0.3-13.92c2.16-3.2,5.71-5.18,8.22-8.11
			c2.04-2.38,3.38-5.36,5.71-7.46C177.92,71.56,186.12,71.92,189.03,77.77z"/>
		<path class="st11" d="M177.43,107.22c-1.36,0.93-2.83,1.73-4.4,2.21c-4.73,1.45-10.28-0.38-13.22-4.36
			c-2.91-3.93-3.06-9.67-0.4-13.76c2.4-0.95,5.21-0.38,7.68,0.49c3.86,1.36,7.65,3.57,9.69,7.11
			C178.19,101.37,178.31,104.48,177.43,107.22z"/>
		<path class="st16" d="M225.02,131.99c-0.38-2.63-0.69-5.29-0.5-7.95c0.19-2.65,0.89-5.32,2.39-7.51c0.57-0.83,1.33-1.63,2.33-1.75
			c0.05,3.36,0.93,6.7,2.53,9.65c0.56,1.03,1.22,2.06,1.36,3.22c0.19,1.66-0.74,3.28-2,4.38c-1.04,0.91-2.31,1.55-3.66,1.85
			c-0.49,0.11-1.38,0.38-1.8,0.06C225.18,133.58,225.1,132.52,225.02,131.99z"/>
		<path class="st15" d="M246.74,122.01c-1.58,5.76-4.97,27.69-5.28,32.94c-1.74,0.15-4.92-0.3-6.66-0.15
			c-0.64-4.9-1.54-9.7-2.78-14.45c-2-7.6-6.3-15.03-5.06-22.8c1.14-7.14,5.87-13.93,13.05-14.66
			C249.71,101.91,248.34,116.2,246.74,122.01z"/>
		<path class="st14" d="M205.28,130.52c-0.33-0.58-0.57-1.19-0.82-1.81c-0.39-0.99-0.79-1.98-1.18-2.97
			c-1.43,1.47-2.02,3.59-1.99,5.63c0.02,1.21,0.31,2.55,1.3,3.24c0.42,0.29,0.93,0.44,1.45,0.48c1.01,0.08,2.82-0.3,3.24-1.39
			c0.21-0.54-0.06-0.87-0.41-1.25C206.27,131.84,205.7,131.28,205.28,130.52z"/>
		<path class="st16" d="M205.98,94.37c-1.5,0.15-8.55,6.74-16.03,1.74c-1.26-0.84-2.26-2.48-3.2-3.67
			c-0.69-0.88-1.29-1.88-1.45-2.99c-0.08-0.53-0.03-1.13,0.36-1.49c0.37-0.35,0.94-0.38,1.43-0.29c0.9,0.16,1.72,0.63,2.46,1.16
			c1.33,0.95,2.7,2.17,3.58,3.56c0.32,0.52,8.5,0.24,8.99,0.56C203.23,93.68,205.54,93.66,205.98,94.37z"/>
		<path class="st16" d="M188.35,85.55c-0.28,0.08-0.58,0.17-0.93,0.14c-0.24-0.67-0.47-1.37-0.17-1.98c0.3-0.6,1.31-1.07,2.53-0.91
			c0.62,0.08,1.22,0.32,1.68,0.6c0.42,0.26,0.76,0.56,0.87,0.88C192.74,85.41,189.6,85.21,188.35,85.55z"/>
		<path class="st12" d="M198.52,81.91c2.48-2.02,3.86-5.32,3.55-8.51c-0.04-0.42-0.29-0.97-0.7-0.86c-0.27,0.08-0.37,0.41-0.44,0.69
			c-0.55,2.2-2.52,3.89-4.72,4.47c-2.2,0.58-4.56,0.19-6.65-0.71c-0.54-0.23-1.14-0.5-1.69-0.29c-0.28,0.11-0.5,0.33-0.69,0.56
			c-0.91,1.14-1.13,2.78-0.58,4.12C188.47,85.82,195.67,84.24,198.52,81.91z"/>
		<g>
			<path class="st16" d="M182.43,87.98c0.59-0.53,1.01-1.26,1.06-2.05c0.05-0.79-0.31-1.61-0.97-2.03
				c-0.44-0.27-0.97-0.36-1.48-0.33c-1.46,0.07-2.84,1.08-3.34,2.46c-0.14,0.37-0.22,0.77-0.17,1.16
				C177.83,89.79,181.06,89.21,182.43,87.98z"/>
			<path class="st17" d="M177.24,87.66c0.16,1.02,1.12,1.71,2.14,1.54c1.02-0.16,1.71-1.12,1.54-2.14
				c-0.16-1.02-1.12-1.71-2.14-1.54C177.76,85.68,177.07,86.64,177.24,87.66z"/>
			<path class="st18" d="M179.11,87.5c0.22,0.29,0.64,0.35,0.93,0.13c0.29-0.22,0.35-0.64,0.13-0.93c-0.22-0.29-0.64-0.35-0.93-0.13
				C178.95,86.79,178.89,87.21,179.11,87.5z"/>
		</g>
		<g>
			<path class="st16" d="M172.33,84.27c0.45-0.56,0.77-1.32,0.81-2.11c0.04-0.79-0.23-1.58-0.74-1.95
				c-0.33-0.24-0.74-0.29-1.13-0.23c-1.12,0.17-2.17,1.27-2.56,2.67c-0.11,0.38-0.17,0.78-0.13,1.17
				C168.82,86.39,171.29,85.59,172.33,84.27z"/>
			<path class="st17" d="M168.37,84.3c0.12,1,0.85,1.62,1.63,1.39c0.78-0.23,1.31-1.23,1.18-2.23c-0.12-1-0.85-1.62-1.63-1.39
				C168.77,82.31,168.25,83.31,168.37,84.3z"/>
			<path class="st18" d="M169.8,84.02c0.17,0.28,0.49,0.31,0.71,0.07c0.23-0.24,0.27-0.66,0.1-0.94c-0.17-0.28-0.49-0.31-0.71-0.07
				C169.68,83.33,169.63,83.75,169.8,84.02z"/>
		</g>
		<path class="st17" d="M169.3,96.99c0.12-0.05,0.25-0.04,0.36,0.02c0.13,0.23-0.03,0.52-0.23,0.71c-0.19,0.18-0.43,0.34-0.52,0.6
			c-0.07,0.2-0.02,0.42-0.05,0.63c-0.03,0.21-0.2,0.44-0.4,0.39c-0.17-0.04-0.26-0.23-0.3-0.4c-0.12-0.47-0.17-0.98,0.04-1.41
			c0.21-0.43,0.74-0.74,1.19-0.55L169.3,96.99z"/>
		<path class="st17" d="M162.22,94.51c0.12-0.05,0.25-0.04,0.36,0.02c0.13,0.23-0.03,0.52-0.23,0.71c-0.19,0.18-0.43,0.34-0.52,0.6
			c-0.07,0.2-0.02,0.42-0.05,0.63c-0.03,0.21-0.2,0.44-0.4,0.39c-0.17-0.04-0.26-0.23-0.3-0.4c-0.12-0.47-0.17-0.98,0.04-1.41
			c0.21-0.43,0.74-0.74,1.19-0.55L162.22,94.51z"/>
		<path class="st19" d="M174.1,72.79c0.26,0.12,0.59,0.34,0.51,0.62c-0.05,0.19-0.25,0.29-0.43,0.33c-1,0.25-2.02-0.3-2.84-0.92
			c-0.6-0.45-1.18-0.95-1.62-1.57c-0.44-0.61-0.73-1.35-0.73-2.1c0-0.17,0.03-0.35,0.17-0.45c0.1-0.07,0.23-0.07,0.34-0.04
			c0.78,0.2,1.16,1.52,1.69,2.08C172.01,71.59,173.05,72.3,174.1,72.79z"/>
		<path class="st19" d="M168.86,65.64c0.26,0.49,0.36,1.06,0.29,1.61c-0.02,0.15-0.06,0.32-0.18,0.41
			c-0.17,0.15-0.46,0.08-0.61-0.09c-0.15-0.17-0.2-0.41-0.21-0.64c-0.03-0.49,0.07-0.98,0.28-1.42c0.11,0.01,0.21,0.03,0.32,0.04
			L168.86,65.64z"/>
		<path class="st19" d="M200.52,77.98c-0.65,0.89-1.32,1.77-2.01,2.63c-0.21,0.26-0.43,0.53-0.73,0.68c-0.3,0.15-0.7,0.15-0.94-0.09
			c-0.36-0.37-0.1-1.03,0.33-1.32c0.43-0.29,0.96-0.38,1.41-0.66c0.77-0.47,1.02-1.34,1.59-1.99
			C201.05,76.23,201.09,77.19,200.52,77.98z"/>
		<path class="st19" d="M195.69,81.14c0.3,0.29,0.16,0.82-0.16,1.08c-0.32,0.26-0.75,0.31-1.16,0.36c-0.36,0.04-0.77,0.06-1.02-0.19
			c-0.27-0.28-0.2-0.78,0.09-1.05c0.28-0.27,0.7-0.34,1.09-0.32c0.39,0.03,0.77,0.14,1.15,0.2L195.69,81.14z"/>
		<path class="st16" d="M213.01,128.5c-0.99-1.12-1.87-2.37-2.98-3.36c-0.35-0.31-0.82-0.62-1.22-0.46c-0.26,0.1-0.41,0.38-0.5,0.65
			c-0.4,1.2-0.1,2.59,0.27,3.88c0.45,1.53,1.01,3.03,1.68,4.49c0.34,0.75,0.79,1.57,1.54,1.87c0.51,0.21,1.07,0.12,1.53-0.1
			c0.46-0.22,0.84-0.58,1.22-0.93c0.64-0.6,4.69-0.78,3.76-1.79c-0.49-0.52-2.98-2.02-3.52-2.49
			C214.15,129.72,213.58,129.11,213.01,128.5z"/>
		<path class="st15" d="M203.75,155.66c2.17,0.25,4.38,0.21,6.55-0.12c-0.81-6.81-0.34-13.73,0.66-20.55
			c0.39-2.66,0.85-5.37,0.28-7.98c-0.71-3.26-2.97-6.02-5.44-8.38c-1.64-1.57-3.47-3.05-5.68-3.79c-3.05-1.03-6.22-0.3-8.08,2.28
			c-2.01,2.79-1.57,10.62,0.46,12.94c5.32,6.06,6.17,7.3,8.24,14.03C201.91,147.89,202.92,151.76,203.75,155.66z"/>
		<path class="st15" d="M253.65,115.05c1.43,4.92,2.2,10.01,2.97,15.07c-0.48,0.19-0.96,0.38-1.43,0.56
			c-0.15-6.26-1.68-12.48-4.46-18.09c-0.94-1.91-2.21-3.9-4.24-4.54c-1.18-0.37-2.51-0.24-3.61-0.81c-1.82-0.95-2.18-3.44-0.78-4.89
			c1.72-1.79,3.54-0.38,5.03,0.97C250.49,106.37,252.4,110.78,253.65,115.05z"/>
		<path class="st20" d="M251.81,127.94c-0.89,1-1.23,2.45-0.88,3.74c0.61,2.26,3.03,3.64,3.75,5.86c0.38,1.16,0.24,2.43,0.08,3.64
			c2.28-1.83,3.94-4.4,4.68-7.22c0.5-1.93,0.49-4.21-0.92-5.63C256.77,126.57,253.58,125.94,251.81,127.94z"/>
		<g>
			<path class="st24" d="M254.88,140.14c-0.03,0.35-0.07,0.7-0.12,1.04c0.1-0.08,0.19-0.16,0.29-0.24
				C254.99,140.68,254.94,140.41,254.88,140.14z"/>
			<path class="st24" d="M258.52,128.33c-1.42-1.44-3.81-2.12-5.6-1.24c0.53,0.09,1.05,0.25,1.52,0.49
				c1.78,0.88,2.54,3.04,2.69,5.03c0.22,2.89-0.52,5.85-2.06,8.31c2.11-1.81,3.66-4.27,4.36-6.96
				C259.94,132.04,259.92,129.75,258.52,128.33z"/>
		</g>
		<path class="st17" d="M203.11,152.84c0,0-0.86,3.58-0.55,4.25c0.31,0.66,2.74,1.01,4.34,1.02c2.75,0.01,3.54-0.62,3.54-0.62
			l-0.36-4.71c0,0-0.83,0.4-3.44,0.62C204.03,153.62,203.11,152.84,203.11,152.84z"/>
		<path class="st17" d="M234.5,152.13c0,0-0.89,3.58-0.57,4.25c0.32,0.66,2.84,1.01,4.49,1.02c2.84,0.01,3.66-0.62,3.66-0.62
			l-0.37-4.71c0,0-0.85,0.4-3.56,0.62C235.45,152.91,234.5,152.13,234.5,152.13z"/>
		<path class="st17" d="M223.28,152.13c0,0-0.91,3.58-0.58,4.25c0.33,0.66,2.9,1.01,4.59,1.02c2.91,0.01,3.75-0.62,3.75-0.62
			l-0.38-4.71c0,0-0.87,0.4-3.64,0.62C224.26,152.91,223.28,152.13,223.28,152.13z"/>
		<path class="st17" d="M192.53,151.61c0,0-0.86,3.58-0.55,4.25c0.31,0.66,2.74,1.01,4.34,1.02c2.75,0.01,3.54-0.62,3.54-0.62
			l-0.36-4.71c0,0-0.83,0.4-3.44,0.62C193.45,152.39,192.53,151.61,192.53,151.61z"/>
		<path class="st20" d="M173.02,74.52c-0.89,2.08-0.46,4.52,0.79,6.44c-0.02-0.65,0.27-1.3,0.77-1.76c0.67,1.85,0.54,3.94-0.36,5.7
			c2.11-0.7,4.07-1.82,5.7-3.24c0.01,0.93-0.1,1.87-0.32,2.77c2.02-0.45,3.8-1.53,5.51-2.64c1.34-0.87,2.68-1.79,3.61-3.04
			c0.93-1.25,1.37-2.9,0.76-4.3c-0.32-0.74-0.91-1.35-1.58-1.86C183.88,69.61,175.23,69.32,173.02,74.52z"/>
		<g>
			<path class="st25" d="M177.82,80.15c0.2-0.97,0.46-1.93,0.79-2.87c0.06-0.16-0.07-0.35-0.22-0.4c-0.18-0.05-0.34,0.06-0.4,0.22
				c-0.33,0.94-0.59,1.9-0.79,2.87c-0.03,0.17,0.05,0.35,0.22,0.4C177.58,80.42,177.79,80.32,177.82,80.15L177.82,80.15z"/>
		</g>
		<g>
			<path class="st25" d="M174.75,78.2c0.02-0.74,0.05-1.48,0.07-2.22c0.01-0.17-0.15-0.32-0.32-0.32c-0.18,0-0.32,0.15-0.32,0.32
				c-0.02,0.74-0.05,1.48-0.07,2.22c-0.01,0.17,0.15,0.32,0.32,0.32C174.6,78.52,174.74,78.37,174.75,78.2L174.75,78.2z"/>
		</g>
		<g>
			<path class="st25" d="M176.45,79.84c-0.1-0.68-0.07-1.39,0.09-2.06c0.04-0.17-0.05-0.35-0.22-0.4c-0.16-0.04-0.36,0.05-0.4,0.22
				c-0.18,0.79-0.21,1.6-0.09,2.4c0.03,0.17,0.24,0.27,0.4,0.22C176.41,80.18,176.48,80.01,176.45,79.84L176.45,79.84z"/>
		</g>
		<g>
			<path class="st25" d="M176.25,83.02c0.26-0.32,0.53-0.61,0.84-0.89c0.13-0.11,0.12-0.34,0-0.45c-0.13-0.12-0.32-0.12-0.45,0
				c-0.3,0.27-0.58,0.57-0.84,0.89c-0.06,0.07-0.09,0.14-0.09,0.23c0,0.08,0.04,0.17,0.09,0.23c0.06,0.06,0.14,0.1,0.23,0.09
				C176.1,83.11,176.2,83.09,176.25,83.02L176.25,83.02z"/>
		</g>
		<g>
			<path class="st25" d="M181.12,81.72c0.64-0.51,1.32-1,2.02-1.45c0.15-0.09,0.21-0.29,0.12-0.44c-0.08-0.15-0.29-0.21-0.44-0.12
				c-0.74,0.48-1.46,1-2.15,1.55c-0.14,0.11-0.11,0.34,0,0.45C180.8,81.86,180.98,81.83,181.12,81.72L181.12,81.72z"/>
		</g>
		<g>
			<path class="st25" d="M181.13,78.49c0.01-0.07,0.01-0.14,0.02-0.21c0-0.04,0.01-0.04,0-0.01c0-0.02,0.01-0.04,0.01-0.06
				c0-0.03,0.01-0.06,0.02-0.09c0.03-0.15,0.06-0.29,0.11-0.43c0.02-0.07,0.04-0.14,0.07-0.2c0.01-0.03,0.02-0.07,0.04-0.1
				c0.01-0.02,0.02-0.04,0.02-0.06c-0.01,0.02-0.01,0.03,0,0.01c0.06-0.14,0.13-0.27,0.2-0.4c0.08-0.15,0.04-0.36-0.12-0.44
				c-0.15-0.08-0.35-0.04-0.44,0.12c-0.33,0.58-0.52,1.22-0.56,1.88c-0.01,0.17,0.16,0.33,0.32,0.32
				C180.99,78.8,181.12,78.67,181.13,78.49L181.13,78.49z"/>
		</g>
		<g>
			<path class="st25" d="M185.34,79.96c0.61-0.45,1.17-0.96,1.68-1.52c0.11-0.12,0.13-0.33,0-0.45c-0.12-0.11-0.33-0.13-0.45,0
				c-0.24,0.27-0.5,0.52-0.76,0.76c-0.13,0.12-0.26,0.24-0.4,0.35c-0.07,0.06-0.14,0.11-0.21,0.17c-0.02,0.01-0.03,0.02-0.05,0.04
				c-0.02,0.01-0.05,0.04-0.02,0.01c-0.04,0.03-0.08,0.06-0.12,0.09c-0.13,0.1-0.22,0.28-0.12,0.44
				C184.99,79.98,185.2,80.07,185.34,79.96L185.34,79.96z"/>
		</g>
		<g>
			<path class="st25" d="M185.36,76.64c0.04-0.15,0.09-0.29,0.14-0.44c0.03-0.08,0.06-0.15,0.09-0.23
				c-0.02,0.06,0.02-0.05,0.03-0.06c0.01-0.03,0.03-0.07,0.04-0.1c0.13-0.28,0.29-0.55,0.46-0.81c0.09-0.14,0.03-0.36-0.12-0.44
				c-0.16-0.09-0.34-0.03-0.44,0.12c-0.37,0.55-0.65,1.16-0.83,1.79c-0.05,0.16,0.06,0.36,0.22,0.4
				C185.13,76.9,185.31,76.81,185.36,76.64L185.36,76.64z"/>
		</g>
		<g>
			<path class="st25" d="M183.04,73.2c0.01-0.01,0.02-0.03,0.03-0.04c0.03-0.04,0.01,0-0.01,0.01c0.02-0.01,0.05-0.06,0.06-0.08
				c0.04-0.05,0.09-0.1,0.13-0.15c0.09-0.1,0.18-0.19,0.28-0.28c0.05-0.04,0.1-0.08,0.15-0.12c0.01-0.01,0.03-0.02,0.04-0.03
				c0.03-0.02-0.06,0.04-0.01,0.01c0.03-0.02,0.05-0.04,0.08-0.06c0.11-0.08,0.22-0.15,0.34-0.22c0.15-0.08,0.21-0.29,0.12-0.44
				c-0.1-0.15-0.28-0.2-0.44-0.12c-0.52,0.3-0.97,0.71-1.33,1.2c-0.05,0.06-0.05,0.18-0.03,0.25c0.02,0.07,0.08,0.16,0.15,0.19
				c0.07,0.04,0.17,0.06,0.25,0.03C182.93,73.32,182.99,73.28,183.04,73.2L183.04,73.2z"/>
		</g>
		<g>
			<path class="st25" d="M178.11,74.41c0.04-0.14,0.09-0.28,0.15-0.42c0.01-0.04,0.03-0.07,0.04-0.11
				c-0.03,0.06,0.02-0.05,0.03-0.06c0.03-0.07,0.06-0.13,0.09-0.2c0.13-0.27,0.28-0.53,0.45-0.78c0.09-0.14,0.03-0.36-0.12-0.44
				c-0.16-0.09-0.34-0.03-0.44,0.12c-0.36,0.53-0.64,1.11-0.83,1.72c-0.05,0.16,0.06,0.36,0.22,0.4
				C177.89,74.68,178.06,74.58,178.11,74.41L178.11,74.41z"/>
		</g>
		<g>
			<path class="st25" d="M180.42,75.4c-0.01-0.11,0-0.22,0.01-0.33c0,0.03-0.01,0.06-0.01,0.09c0.02-0.16,0.06-0.31,0.12-0.46
				c-0.01,0.03-0.02,0.05-0.03,0.08c0.04-0.1,0.1-0.2,0.16-0.29c0.09-0.14,0.03-0.36-0.12-0.44c-0.16-0.09-0.34-0.03-0.44,0.12
				c-0.24,0.36-0.36,0.81-0.34,1.24c0.01,0.17,0.14,0.33,0.32,0.32C180.27,75.72,180.43,75.58,180.42,75.4L180.42,75.4z"/>
		</g>
		<g>
			<path class="st25" d="M175.05,73.83c0.04-0.07,0.09-0.14,0.14-0.2c0.02-0.03,0.05-0.07,0.08-0.1c0.04-0.05-0.03,0.03,0,0
				c0.01-0.02,0.02-0.03,0.04-0.05c0.1-0.13,0.21-0.25,0.33-0.36c0.11-0.11,0.23-0.22,0.35-0.32c0.02-0.01,0.03-0.02,0.05-0.04
				c0.06-0.05-0.06,0.04,0.01-0.01c0.03-0.02,0.06-0.05,0.09-0.07c0.07-0.05,0.14-0.1,0.21-0.14c0.14-0.09,0.21-0.29,0.12-0.44
				c-0.09-0.14-0.29-0.21-0.44-0.12c-0.61,0.39-1.13,0.91-1.51,1.52c-0.09,0.14-0.03,0.36,0.12,0.44
				C174.77,74.03,174.95,73.98,175.05,73.83L175.05,73.83z"/>
		</g>
		<g>
			<path class="st25" d="M188.01,76.06c0.08-0.5,0.13-1.01,0.11-1.52c0-0.17-0.14-0.33-0.32-0.32c-0.17,0.01-0.33,0.14-0.32,0.32
				c0.01,0.24,0,0.47-0.02,0.71c-0.01,0.12-0.02,0.23-0.03,0.34c0,0.03-0.01,0.05-0.01,0.08c-0.01,0.08,0.01-0.05,0,0.02
				c-0.01,0.06-0.02,0.13-0.03,0.19c-0.03,0.17,0.04,0.35,0.22,0.4C187.77,76.32,187.98,76.24,188.01,76.06L188.01,76.06z"/>
		</g>
		<g>
			<path class="st25" d="M179.82,71.71c0.31,0,0.62,0,0.93,0c0.17,0,0.33-0.15,0.32-0.32c-0.01-0.17-0.14-0.32-0.32-0.32
				c-0.31,0-0.62,0-0.93,0c-0.17,0-0.33,0.15-0.32,0.32C179.5,71.56,179.64,71.71,179.82,71.71L179.82,71.71z"/>
		</g>
		<path class="st12" d="M162.48,104.94c0,0,1.96,1.69,3.52,1.33c1.56-0.36,2.72-2.48,2.72-2.48s-1.08,2.9-2.58,3.2
			C163.58,107.49,162.48,104.94,162.48,104.94z"/>
		<path class="st26" d="M229.21,100.29c2.2,0.26,4.48,0.73,6.17,2.15c1.28,1.08,2.11,2.62,2.61,4.22c0.19,0.61,0.34,1.24,0.67,1.79
			c0.33,0.55,0.88,1.01,1.51,1.04c0.68,0.03,1.3-0.45,1.63-1.05c0.33-0.6,0.41-1.3,0.46-1.98c0.11-1.48,0.06-3.05-0.69-4.33
			c-0.53-0.9-1.36-1.57-2.23-2.15c-2.57-1.7-5.72-2.68-8.81-2.69C228.29,97.28,225.79,99.89,229.21,100.29z"/>
		<path class="st12" d="M191.72,103.7c1.24-3.38,2.49-6.8,2.8-10.38c1.33-0.12,2.66-0.24,3.99-0.36c-0.74,3.26-1.56,6.5-2.6,9.68
			c-2.65,8.12-6.72,15.77-11.97,22.51c-0.25-0.77-0.75-1.68-0.55-2.5c0.18-0.76,0.9-1.58,1.27-2.26c0.96-1.77,1.83-3.59,2.65-5.43
			C188.94,111.28,190.34,107.49,191.72,103.7z"/>
		<path class="st15" d="M198.56,87.77c1.6,1.69,2.7,3.9,4.67,5.13c-1.25,0.54-2.6,0.8-3.94,1.02c-1.71,0.28-3.43,0.5-5.16,0.45
			c-1.73-0.05-3.47-0.39-5.01-1.18c-1.24-0.64-2.32-1.58-3.13-2.71c-0.31-0.43-0.59-0.9-0.74-1.41c-0.38-1.27,0.09-2.72,1.06-3.62
			c1.24-1.15,3.11-1.26,4.72-1.16c1.82,0.11,3.61,0.67,5.17,1.6C197.06,86.39,197.86,87.03,198.56,87.77z"/>
		<path class="st11" d="M187.86,87.42c0-0.21-0.11-0.41-0.09-0.62c0.02-0.45,0.55-0.68,1-0.72c0.84-0.07,1.68,0.2,2.47,0.5
			c2.85,1.08,5.53,2.64,7.87,4.6c-0.75,0.4-1.57,0.67-2.4,0.79c-1.25,0.18-2.52,0.04-3.77-0.18c-2.16-0.38-4.36-1.05-6.01-2.5
			c-0.22-0.19-0.44-0.42-0.51-0.7c-0.07-0.29,0.07-0.64,0.35-0.71C187.1,87.8,187.85,88.04,187.86,87.42z"/>
		<path class="st19" d="M198.68,88.95c0.06,0.13,0.1,0.31-0.02,0.38c-0.04,0.02-0.09,0.03-0.13,0.03c-0.48,0-0.79-0.48-1.09-0.86
			c-0.91-1.14-2.4-1.61-3.69-2.28c-0.14-0.07-0.3-0.23-0.2-0.35c0.04-0.05,0.11-0.07,0.18-0.08c0.97-0.14,2.04,0.45,2.86,0.92
			C197.49,87.23,198.24,87.99,198.68,88.95z"/>
		<path class="st20" d="M182.42,121.2c-0.22,0.33-0.32,0.73-0.37,1.12c-0.08,0.57-0.08,1.14,0.01,1.71
			c0.05,0.32,0.13,0.65,0.32,0.91c0.23,0.33,0.6,0.53,0.99,0.65c0.5,0.16,1.08,0.2,1.53-0.07c0.36-0.22,0.59-0.61,0.67-1.02
			c0.08-0.41,0.01-0.84-0.13-1.23c-0.38,0.21-0.9,0.27-1.21-0.05c-0.26-0.27-0.25-0.7-0.18-1.07c0.1-0.52,0.98-1.73,0.36-1.95
			C183.76,119.99,182.75,120.71,182.42,121.2z"/>
		<path class="st21" d="M182.73,125.21c0.15,0.08,0.31,0.12,0.48,0.15c0.56,0.1,1.14,0.05,1.7-0.05c0.15-0.03,0.3-0.06,0.41-0.16
			c0.12-0.11,0.17-0.29,0.19-0.45c0.07-0.48,0.03-0.98-0.11-1.45c-0.21,0.05-0.43,0.11-0.64,0.16c-0.05,0.01-0.09,0.02-0.12,0.06
			c-0.02,0.03-0.03,0.07-0.04,0.1c-0.07,0.36-0.11,0.77-0.39,1c-0.12,0.1-0.27,0.15-0.42,0.18c-0.28,0.06-0.58,0.06-0.86,0
			c-0.14-0.03-0.28-0.08-0.41-0.14c-0.11-0.05-0.25-0.17-0.36-0.17C182.12,124.74,182.5,125.09,182.73,125.21z"/>
		<path class="st27" d="M181.75,126.71c-0.28,0.69-0.35,1.47-0.18,2.19c0.06,0.27,0.2,0.58,0.48,0.62c0.19,0.03,0.37-0.09,0.47-0.25
			c0.1-0.16,0.13-0.35,0.13-0.54c0-0.3-0.06-0.59-0.04-0.88c0.02-0.32,0.15-0.63,0.35-0.87c0.1-0.12,0.22-0.23,0.3-0.36
			c0.08-0.14,0.12-0.31,0.03-0.45c-0.17-0.28-0.56-0.4-0.84-0.27C182.1,126.07,181.89,126.36,181.75,126.71z"/>
		<path class="st27" d="M181.71,131.43c0.14,0.22,0.44,0.34,0.68,0.25c0.58-0.22,0.58-1.33-0.01-1.54
			C181.69,129.9,181.41,130.97,181.71,131.43z"/>
		<path class="st27" d="M182.45,122.56c0.05,0.19,0.18,0.4,0.37,0.39c0.16-0.01,0.27-0.16,0.3-0.31c0.03-0.15,0.01-0.31,0.03-0.47
			c0.02-0.22,0.12-0.42,0.28-0.58c0.11-0.11,0.24-0.19,0.34-0.3c0.1-0.11,0.16-0.28,0.1-0.42c-0.25-0.54-0.92,0.03-1.11,0.28
			C182.46,121.53,182.33,122.07,182.45,122.56z"/>
	</g>
</g>
<g>
	<path class="st28" d="M238.83,135.01c0,0,4.66-3.97,1.33-7.25c-3.33-3.28-6.49,0-6.49,0s1.16-5.7-2.16-6.39
		c-3.33-0.69-4.99,4.14-4.99,4.14s-3.66-7.6-10.81-5.7c-7.15,1.9-7.15,9.68-7.15,9.68s-2-5.19-3.66-4.32
		c-1.66,0.86,0.83,5.35,0.83,5.35c-9.98-2.42-15.96,0.52-15.96,0.52s3.99-4.84,1-6.91c-2.99-2.07-5.65,2.76-5.65,2.76
		s-0.67-7.43-3.66-8.12c-2.99-0.69-3.66,4.66-3.66,4.66s-1.66-8.29-3.99-7.74c-2.04,0.48-0.51,6.03-0.1,7.42
		c-1.88-6.03-10.79-9.64-15.53-5.9c-4.82,3.8-1,10.53-1,10.53s-5.15-8.12-6.48-5.87c-1.33,2.25,4.49,8.29,4.49,8.29
		s-4.99-3.55-9.16-0.79c-0.17-0.55-0.5-1.1-1.04-1.63c-3.33-3.28-6.49,0-6.49,0s1.16-5.7-2.16-6.39c-3.33-0.69-4.99,4.14-4.99,4.14
		s-3.66-7.6-10.81-5.7c-7.15,1.9-7.15,9.68-7.15,9.68s-2-5.19-3.66-4.32c-1.66,0.86,0.83,5.35,0.83,5.35
		c-9.98-2.42-15.96,0.52-15.96,0.52s3.99-4.84,1-6.91c-2.99-2.07-5.65,2.76-5.65,2.76s-0.67-7.43-3.66-8.12
		c-2.99-0.69-3.66,4.66-3.66,4.66s-1.66-8.29-3.99-7.74c-2.04,0.48-0.51,6.04-0.1,7.42c-1.88-6.03-10.79-9.64-15.53-5.91
		c-4.82,3.8-1,10.53-1,10.53s-5.16-8.12-6.49-5.87c-1.33,2.25,4.49,8.29,4.49,8.29s-5.82-4.14-10.14,0
		c-4.32,4.14,1.83,13.13,1.83,13.13h95.17h5.77h95.17C245.31,135.18,238.83,135.01,238.83,135.01z"/>
	<g>
		<g>
			<path class="st29" d="M71.08,138.17c0.09-1.49,0.4-3.18,1.37-4.33c-0.14,0.01-0.28,0.01-0.41,0.02c0.28,1.49,1.13,2.82,2.53,3.34
				c0.12,0.04,0.33-0.03,0.37-0.16c0.53-1.7,0.84-3.58,0.47-5.34c-0.12,0.07-0.24,0.13-0.37,0.2c2.02,0.53,3.41,2.3,3.45,4.46
				c0,0.21,0.38,0.11,0.44-0.02c0.09-0.18,0.23-0.32,0.37-0.47c0.22-0.2,0.48-0.37,0.75-0.48c0.22-0.11,2.04-0.21,2.12-0.37
				c-0.49,1.06-0.48,2.2,0.01,3.25c0.08,0.18,0.53,0.03,0.46-0.13c-0.48-1.01-0.49-2.13-0.01-3.15c0.05-0.1-0.04-0.15-0.13-0.16
				c-1.33-0.08-3.26,0.07-3.99,1.48c0.15-0.01,0.3-0.01,0.44-0.02c-0.04-2.29-1.48-4.12-3.63-4.68c-0.1-0.03-0.4,0.03-0.37,0.2
				c0.36,1.73,0.05,3.6-0.47,5.27c0.12-0.05,0.24-0.11,0.37-0.16c-1.32-0.49-2.08-1.81-2.35-3.19c-0.03-0.16-0.35-0.06-0.41,0.02
				c-1.02,1.21-1.37,2.91-1.46,4.48C70.61,138.43,71.07,138.34,71.08,138.17L71.08,138.17z"/>
		</g>
		<g>
			<path class="st29" d="M121.78,138.17c0.09-1.49,0.4-3.18,1.37-4.33c-0.14,0.01-0.28,0.01-0.41,0.02
				c0.28,1.49,1.13,2.82,2.53,3.34c0.12,0.04,0.33-0.03,0.37-0.16c0.53-1.7,0.84-3.58,0.47-5.34c-0.12,0.07-0.24,0.13-0.37,0.2
				c2.02,0.53,3.41,2.3,3.45,4.46c0,0.21,0.38,0.11,0.44-0.02c0.09-0.18,0.23-0.32,0.37-0.47c0.22-0.2,0.48-0.37,0.75-0.48
				c0.22-0.11,2.04-0.21,2.12-0.37c-0.49,1.06-0.48,2.2,0.01,3.25c0.08,0.18,0.53,0.03,0.46-0.13c-0.48-1.01-0.49-2.13-0.01-3.15
				c0.05-0.1-0.04-0.15-0.13-0.16c-1.33-0.08-3.26,0.07-3.99,1.48c0.15-0.01,0.3-0.01,0.44-0.02c-0.04-2.29-1.48-4.12-3.63-4.68
				c-0.1-0.03-0.4,0.03-0.37,0.2c0.36,1.73,0.05,3.6-0.47,5.27c0.12-0.05,0.24-0.11,0.37-0.16c-1.32-0.49-2.08-1.81-2.35-3.19
				c-0.03-0.16-0.35-0.06-0.41,0.02c-1.02,1.21-1.37,2.91-1.46,4.48C121.31,138.43,121.77,138.34,121.78,138.17L121.78,138.17z"/>
		</g>
	</g>
	<g>
		<g>
			<path class="st29" d="M166.91,138.17c0.09-1.49,0.4-3.18,1.37-4.33c-0.14,0.01-0.28,0.01-0.41,0.02
				c0.28,1.49,1.13,2.82,2.53,3.34c0.12,0.04,0.32-0.03,0.37-0.16c0.53-1.7,0.84-3.58,0.47-5.34c-0.12,0.07-0.24,0.13-0.36,0.2
				c2.02,0.53,3.41,2.3,3.45,4.46c0,0.21,0.38,0.11,0.44-0.02c0.09-0.18,0.23-0.32,0.37-0.47c0.22-0.2,0.48-0.37,0.75-0.48
				c0.22-0.11,2.04-0.21,2.12-0.37c-0.49,1.06-0.48,2.2,0.01,3.25c0.08,0.18,0.53,0.03,0.46-0.13c-0.48-1.01-0.49-2.13-0.01-3.15
				c0.05-0.1-0.04-0.15-0.13-0.16c-1.33-0.08-3.26,0.07-3.99,1.48c0.15-0.01,0.3-0.01,0.44-0.02c-0.04-2.29-1.48-4.12-3.63-4.68
				c-0.1-0.03-0.4,0.03-0.37,0.2c0.36,1.73,0.05,3.6-0.47,5.27c0.12-0.05,0.24-0.11,0.37-0.16c-1.32-0.49-2.08-1.81-2.35-3.19
				c-0.03-0.16-0.35-0.06-0.41,0.02c-1.02,1.21-1.37,2.91-1.46,4.48C166.44,138.43,166.9,138.34,166.91,138.17L166.91,138.17z"/>
		</g>
		<g>
			<path class="st29" d="M217.61,138.17c0.09-1.49,0.4-3.18,1.37-4.33c-0.14,0.01-0.28,0.01-0.41,0.02
				c0.28,1.49,1.13,2.82,2.53,3.34c0.12,0.04,0.33-0.03,0.37-0.16c0.53-1.7,0.84-3.58,0.47-5.34c-0.12,0.07-0.24,0.13-0.37,0.2
				c2.02,0.53,3.41,2.3,3.45,4.46c0,0.21,0.38,0.11,0.44-0.02c0.09-0.18,0.23-0.32,0.37-0.47c0.22-0.2,0.48-0.37,0.75-0.48
				c0.22-0.11,2.04-0.21,2.12-0.37c-0.49,1.06-0.48,2.2,0.01,3.25c0.08,0.18,0.53,0.03,0.46-0.13c-0.48-1.01-0.49-2.13-0.01-3.15
				c0.05-0.1-0.04-0.15-0.13-0.16c-1.33-0.08-3.26,0.07-3.99,1.48c0.15-0.01,0.3-0.01,0.44-0.02c-0.04-2.29-1.48-4.12-3.63-4.68
				c-0.1-0.03-0.4,0.03-0.37,0.2c0.36,1.73,0.05,3.6-0.47,5.27c0.12-0.05,0.24-0.11,0.37-0.16c-1.32-0.49-2.08-1.81-2.35-3.19
				c-0.03-0.16-0.35-0.06-0.41,0.02c-1.02,1.21-1.37,2.91-1.46,4.48C217.14,138.43,217.6,138.34,217.61,138.17L217.61,138.17z"/>
		</g>
	</g>
	<g>
		<path class="st29" d="M239.01,135.04c1.87-1.63,3.4-4.29,1.94-6.7c-1.66-2.74-5.37-2.74-7.46-0.63c0.14,0,0.27,0.01,0.41,0.01
			c0.46-2.31,0.42-5.78-2.25-6.49c-2.56-0.68-4.59,2.15-5.36,4.3c0.15-0.03,0.3-0.06,0.46-0.09c-2.1-4.29-6.48-6.86-11.07-5.75
			c-4.29,1.03-7.32,5.29-7.35,9.82c0.15-0.03,0.3-0.06,0.46-0.09c-0.51-1.31-1.88-4.96-3.72-4.45c-2.2,0.61-0.2,4.45,0.44,5.61
			c0.12-0.06,0.25-0.13,0.37-0.19c-4.19-0.98-8.52-1.3-12.76-0.48c-0.97,0.19-1.93,0.45-2.86,0.8c-0.19,0.07-0.38,0.15-0.56,0.23
			c0.44-0.21,0.19,0.25,0.48-0.14c0.16-0.21,0.31-0.43,0.46-0.65c1.45-2.15,2.53-5.61-0.7-6.6c-2.08-0.64-4.11,1.71-5.02,3.34
			c0.15-0.02,0.29-0.04,0.44-0.06c-0.24-2.57-0.84-6.96-3.47-8.1c-2.67-1.15-4.04,2.72-4.3,4.74c0.15-0.03,0.3-0.06,0.46-0.09
			c-0.28-1.38-0.66-2.75-1.12-4.08c-0.38-1.1-1.12-3.42-2.44-3.71c-3.35-0.72-1.39,6.19-0.98,7.6c0.15-0.04,0.3-0.08,0.46-0.13
			c-1.86-5.51-8.66-8.81-13.96-6.98c-4.97,1.72-5.32,7.63-3.01,11.77c0.14-0.06,0.28-0.12,0.42-0.18c-0.92-1.44-1.93-2.83-3.04-4.12
			c-0.75-0.88-2.11-2.6-3.44-2.07c-2.87,1.14,3.12,7.82,4.05,8.79c0.13-0.07,0.26-0.14,0.39-0.21c-2.79-1.95-6.51-2.55-9.48-0.74
			c0.12,0,0.25,0,0.37,0.01c-1.33-3.42-5.48-4.08-7.93-1.6c0.14,0,0.27,0.01,0.41,0.01c0.46-2.31,0.42-5.78-2.25-6.49
			c-2.56-0.68-4.59,2.15-5.36,4.3c0.15-0.03,0.3-0.06,0.46-0.09c-2.1-4.29-6.48-6.86-11.07-5.75c-4.29,1.03-7.32,5.29-7.35,9.82
			c0.15-0.03,0.3-0.06,0.46-0.09c-0.51-1.31-1.88-4.96-3.72-4.45c-2.2,0.61-0.2,4.45,0.44,5.61c0.12-0.06,0.25-0.13,0.37-0.19
			c-4.19-0.98-8.52-1.3-12.76-0.48c-0.97,0.19-1.93,0.45-2.86,0.8c-0.19,0.07-0.38,0.15-0.56,0.23c0.44-0.21,0.19,0.25,0.48-0.14
			c0.16-0.21,0.31-0.43,0.46-0.65c1.45-2.15,2.53-5.61-0.7-6.6c-2.08-0.64-4.11,1.71-5.02,3.34c0.15-0.02,0.29-0.04,0.44-0.06
			c-0.24-2.57-0.84-6.96-3.47-8.1c-2.67-1.15-4.04,2.72-4.3,4.74c0.15-0.03,0.3-0.06,0.46-0.09c-0.28-1.38-0.66-2.75-1.12-4.08
			c-0.38-1.1-1.12-3.42-2.44-3.71c-3.35-0.72-1.39,6.2-0.98,7.6c0.15-0.04,0.3-0.08,0.46-0.13c-1.86-5.51-8.66-8.81-13.96-6.98
			c-4.97,1.72-5.32,7.63-3.01,11.77c0.14-0.06,0.28-0.12,0.42-0.18c-0.92-1.44-1.93-2.83-3.04-4.12c-0.75-0.88-2.11-2.6-3.44-2.07
			c-2.87,1.14,3.12,7.82,4.05,8.79c0.13-0.07,0.26-0.14,0.39-0.21c-3.59-2.52-9.93-2.88-11.78,2.09c-0.95,2.53,0.18,5.61,1.22,7.9
			c0.2,0.45,1.37,3.38,1.98,3.38c3.99,0,7.99,0,11.98,0c19.28,0,38.57,0,57.85,0c10.51,0,21.02,0,31.53,0c14.72,0,29.45,0,44.17,0
			c16.26,0,32.52,0,48.78,0c0.6,0,1.19,0,1.79,0c0.07,0,0.36-0.06,0.32-0.2c-1.33-4.11-4.61-8.2-9.12-8.36
			c-0.17-0.01-0.49,0.26-0.18,0.27c4.38,0.15,7.56,4.26,8.84,8.22c0.11-0.07,0.21-0.13,0.32-0.2c-13,0-26,0-39,0
			c-17.44,0-34.89,0-52.33,0c-8.42,0-16.83,0-25.25,0c-19.52,0-39.05,0-58.57,0c-6.36,0-12.71,0-19.07,0c-0.55,0-1.1,0-1.65,0
			c-0.08,0-0.15,0-0.23,0c0.1,0-0.76-1.41-0.91-1.67c-1.34-2.43-2.51-5.28-2.28-8.13c0.17-2.09,1.57-3.58,3.35-4.42
			c2-0.95,4.39-0.39,6.31,0.47c0.55,0.24,1.09,0.54,1.58,0.88c0.1,0.07,0.52-0.08,0.39-0.21c-0.84-0.87-1.61-1.81-2.35-2.77
			c-0.94-1.23-2.98-3.71-2.14-5.42c0.75-1.53,5.55,5.16,6.06,5.96c0.08,0.13,0.52-0.02,0.42-0.18c-2.16-3.87-2.05-9.2,2.38-11.24
			c5.04-2.32,11.98,1.62,13.71,6.76c0.06,0.16,0.5,0.03,0.46-0.13c-0.39-1.33-0.7-2.67-0.87-4.05c-0.1-0.81-0.11-1.63,0.1-2.42
			c0.38-1.41,1.57-0.46,2.03,0.18c1.34,1.83,1.92,4.51,2.37,6.73c0.03,0.16,0.44,0.04,0.46-0.09c0.1-0.75,0.3-1.49,0.55-2.2
			c0.29-0.82,0.74-1.61,1.45-2.12c1.11-0.79,2.24,0.2,2.85,1.03c1.35,1.81,1.8,4.6,2.01,6.84c0.02,0.17,0.39,0.03,0.44-0.06
			c1.2-2.14,4.71-4.97,6.18-1.47c0.76,1.81-0.87,4.28-1.95,5.61c-0.13,0.16,0.25,0.13,0.3,0.1c4.72-2.28,10.87-1.62,15.73-0.49
			c0.06,0.02,0.44-0.05,0.37-0.19c-0.34-0.62-2.54-5.46-0.61-5.24c1.45,0.17,2.52,3.13,2.98,4.33c0.06,0.15,0.45,0.06,0.46-0.09
			c0.03-4.24,2.64-8.11,6.53-9.41c4.45-1.48,8.96,1.42,10.97,5.52c0.08,0.16,0.41,0.05,0.46-0.09c0.81-2.29,3.35-5.56,5.83-3.34
			c1.39,1.24,1.19,3.97,0.86,5.65c-0.04,0.19,0.35,0.07,0.41,0.01c2.26-2.28,5.94-1.37,7.11,1.65c0.05,0.13,0.29,0.06,0.37,0.01
			c2.77-1.68,6.26-0.96,8.83,0.83c0.1,0.07,0.52-0.08,0.39-0.21c-0.84-0.87-1.62-1.81-2.35-2.77c-0.94-1.23-2.98-3.71-2.14-5.42
			c0.75-1.53,5.55,5.16,6.06,5.96c0.08,0.13,0.52-0.02,0.42-0.18c-2.16-3.87-2.05-9.2,2.38-11.24c5.04-2.32,11.98,1.62,13.71,6.76
			c0.06,0.16,0.5,0.03,0.46-0.13c-0.39-1.32-0.7-2.67-0.87-4.05c-0.1-0.81-0.11-1.63,0.1-2.42c0.38-1.41,1.57-0.46,2.03,0.18
			c1.34,1.83,1.92,4.51,2.37,6.73c0.03,0.16,0.44,0.04,0.46-0.09c0.1-0.75,0.3-1.49,0.55-2.2c0.29-0.82,0.74-1.61,1.45-2.12
			c1.11-0.79,2.24,0.2,2.85,1.03c1.35,1.81,1.8,4.6,2.01,6.84c0.02,0.17,0.39,0.03,0.44-0.06c1.2-2.14,4.71-4.97,6.18-1.47
			c0.76,1.81-0.87,4.28-1.95,5.61c-0.13,0.16,0.25,0.13,0.3,0.1c4.72-2.28,10.87-1.62,15.73-0.49c0.07,0.02,0.44-0.05,0.37-0.19
			c-0.34-0.62-2.54-5.46-0.61-5.24c1.45,0.17,2.52,3.13,2.98,4.33c0.06,0.15,0.45,0.06,0.46-0.09c0.03-4.24,2.64-8.11,6.53-9.41
			c4.45-1.48,8.96,1.42,10.97,5.52c0.08,0.16,0.41,0.05,0.46-0.09c0.81-2.29,3.35-5.56,5.83-3.34c1.39,1.24,1.19,3.97,0.86,5.65
			c-0.04,0.19,0.35,0.07,0.41,0.01c2.34-2.35,6.47-1.26,7.23,2.11c0.42,1.88-1.14,3.94-2.44,5.07
			C238.44,135.14,238.9,135.14,239.01,135.04z"/>
	</g>
</g>
<path class="st18" d="M229.74,229.11H75.04c-13.25,0-24.09-10.84-24.09-24.09v-44.15c0-13.25,10.84-24.09,24.09-24.09h154.7
	c13.25,0,24.09,10.84,24.09,24.09v44.15C253.83,218.27,242.99,229.11,229.74,229.11z"/>
<g>
	<rect x="82.57" y="171.12" class="st30" width="139.63" height="23.65"/>
	<text transform="matrix(1 0 0 1 83.7614 191.1516)" class="st31 st32 st33">GANASTE!</text>
</g>
</svg>
