<?xml version="1.0" encoding="utf-8"?>
<!-- Generator: Adobe Illustrator 23.0.0, SVG Export Plug-In . SVG Version: 6.00 Build 0)  -->
<svg version="1.1" id="Capa_1" xmlns="http://www.w3.org/2000/svg" xmlns:xlink="http://www.w3.org/1999/xlink" x="0px" y="0px"
	 viewBox="0 0 271.75 114.15" style="enable-background:new 0 0 271.75 114.15;" xml:space="preserve">
<style type="text/css">
	.st0{fill:#FFFFFF;}
	.st1{fill:#DDCFB8;}
	.st2{fill:#EAC3B0;}
	.st3{fill:#EDBA94;}
	.st4{fill:#69514C;}
	.st5{fill:#F7E8CC;}
	.st6{fill:#EADBC4;}
	.st7{fill:#C17A49;}
	.st8{fill:#AB6E43;}
	.st9{fill:#231F20;}
	.st10{opacity:0.3;fill:#FFFFFF;}
	.st11{fill:none;}
	.st12{fill:#74BA5C;}
	.st13{font-family:'Roboto-Black';}
	.st14{font-size:22px;}
</style>
<g>
	<path class="st0" d="M259.75,0H116.36c-6.6,0-12,5.4-12,12v41.3c0,6.6,5.4,12,12,12h0.53c0,0-0.81,3.79-2.06,4.65
		c-1.48,1.01-6.42,0.24-6.42,0.24s3.63,3.88,5.27,4.31c3.78,0.99,6.16-0.51,7.91-1.56c2.29-1.38,6.31-7.64,6.31-7.64h131.86
		c6.6,0,12-5.4,12-12V12C271.75,5.4,266.35,0,259.75,0z"/>
	<g>
		<path class="st1" d="M22.49,76.65c1.71,6.2,4.34,12.12,6.17,18.28c1.62,5.44,2.61,11.06,2.95,16.72c1.87,0.16,3.74,0.32,5.61,0.48
			c-0.6-5.25-0.22-10.61,1.13-15.73c2.16-8.19,6.79-16.19,5.45-24.56c-1.23-7.69-8.14-14.12-15.87-14.91
			C17.47,55.89,20.77,70.39,22.49,76.65z"/>
		<path class="st2" d="M27.37,99.93c1.79,0.35,5.07-0.5,6.07-0.87c1.35-0.49,2.41-1.55,3.24-2.72c1.14-1.6,1.93-3.49,1.97-5.45
			c0.05-1.96-0.72-3.98-2.24-5.22c-1.3-1.06-3.02-1.48-4.69-1.64c-2.58-0.25-5.28,0.1-7.65,1.16c-1.83,0.82-4.95,2.64-4.78,4.9
			C19.64,94.91,23.16,99.1,27.37,99.93z"/>
		<path class="st1" d="M90.2,28.13c2.29,0.22,4.48,1.04,6.5,2.13c0.14,0.07,0.28,0.16,0.33,0.3c0.06,0.17-0.03,0.36-0.13,0.51
			c-1.37,2.25-3.79,3.67-6.27,4.53c-1.79,0.62-3.79,0.98-5.57,0.32c-1.78-0.67-3.15-2.67-2.55-4.48
			C83.52,28.4,87.43,27.87,90.2,28.13z"/>
		<path class="st3" d="M94.04,30.59c-1.86,1.47-3.94,2.68-6.17,3.48c-0.78,0.28-1.74,0.48-2.37-0.05c-0.34-0.29-0.51-0.74-0.62-1.17
			c-0.19-0.69-0.66-2.22,0.01-2.65c0.76-0.48,2.16-0.54,3.03-0.61C90,29.43,92.12,29.77,94.04,30.59z"/>
		<path class="st4" d="M91.52,22.02c1.01-3.11,0.36-6.71-1.66-9.28c-0.27-0.34-0.79-0.68-1.08-0.35c-0.19,0.22-0.09,0.56,0.01,0.83
			c0.75,2.2-0.01,4.74-1.57,6.46c-1.56,1.72-3.82,2.69-6.11,3.08c-0.59,0.1-1.26,0.2-1.61,0.69c-0.18,0.25-0.25,0.56-0.28,0.86
			c-0.15,1.48,0.57,3.02,1.79,3.86C85.05,30.96,90.37,25.6,91.52,22.02z"/>
		<path class="st1" d="M73,83.08c1.54,2.05,2.22,5.18,2.21,7.74c0,1.53-1.6,10.4-1.95,10.72c-0.98,0.88-3.59-0.32-4.89-0.06
			c0.44-1.94,0.86-3.93,0.64-5.91c-0.22-1.98,0.08-5.19-2.53-6.41c-1.69-0.79-4.29,0.37-5.07-1.32c-0.26-0.58-0.28-1.23-0.28-1.87
			c0-2.93,0.46-8.18,4.01-8.72C68.04,76.82,71.47,81.04,73,83.08z"/>
		<path class="st5" d="M52.36,49.34c-0.45,0.35-0.95,0.75-0.97,1.26c-0.01,0.29,0.14,0.56,0.29,0.82c3.15,5.53,7.59,10.6,13.02,14.9
			c0.14,0.11,0.31,0.23,0.51,0.24c0.24,0.01,0.44-0.14,0.6-0.28c8.26-7.18,12.68-16.72,14.17-26.34c0.3-1.93,0.48-3.89,0.06-5.81
			c-0.42-1.91-1.51-3.79-3.41-5.04c-3.24-2.13-9.65-3.22-11.14,0.75c-1.77,4.71-3.26,9.05-6.7,13.25
			C56.94,45.35,54.78,47.45,52.36,49.34z"/>
		<path class="st5" d="M22.49,46.58c-3.68,0.16-7.53,0.66-10.48,2.86c-4.39,3.27-5.56,9.31-5.84,14.78
			c-0.22,4.27-0.09,8.61,1.14,12.7c1.23,4.09,3.66,7.94,7.27,10.23c2.85,1.81,6.24,2.55,9.57,3.11c8.32,1.42,16.82,1.97,25.23,1.28
			c6.12-0.51,12.72-1.99,16.57-6.77c2.82-3.51,3.64-8.16,4.36-12.6c0.5-3.07,1-6.13,1.5-9.2c0.33-1.99,0.64-4.08-0.03-5.99
			c-0.87-2.45-3.17-4.05-5.27-5.58c-2.56-1.87-5.64-5.86-8.67-5.76c-3.9,0.14-7.81,1.3-11.8,1.38
			C38.19,47.19,30.35,46.25,22.49,46.58z"/>
		<path class="st6" d="M65.95,80.73c-3.85,4.78-10.45,6.26-16.57,6.77c-8.42,0.7-16.91,0.14-25.23-1.28
			c-3.33-0.57-6.72-1.3-9.57-3.11c-3.61-2.29-6.04-6.14-7.27-10.23c-0.74-2.46-1.08-5.01-1.19-7.58c-0.14,3.92,0.06,7.88,1.19,11.63
			c1.23,4.09,3.66,7.94,7.27,10.23c2.85,1.81,6.24,2.55,9.57,3.11c8.32,1.42,16.82,1.97,25.23,1.28c6.12-0.51,12.72-1.99,16.57-6.77
			c2.82-3.51,3.64-8.16,4.36-12.6C70.81,69.11,68.77,77.22,65.95,80.73z"/>
		<path class="st6" d="M71.61,64.21c0.53-1.85,1.85-6.52,2.46-7.31c0.32-0.41,0.35-0.8,0.28-1.32C73.59,50,72.83,44.4,72.06,38.8
			c-0.23-1.67-0.86-0.5-1.1,0.34c-0.32,1.13-0.36,2.44-0.51,3.61c-0.32,2.41-4.48-3.61-4.62-1.19c-0.14,2.34,0.8,9.52,1.33,11.6
			C69.35,61.72,71.81,63.51,71.61,64.21z"/>
		<path class="st5" d="M67.52,25.32c-1.67,2.3-2.21,5.23-2.34,8.07c-0.41,8.63,2.69,17.51,8.9,23.53c1.24,1.21,2.61,2.3,4.16,3.08
			c4.52,2.27,10.43,1.37,14.08-2.14c3.65-3.51,4.77-9.38,2.68-13.98c-1.63-3.59-4.87-6.2-6.9-9.58c-1.65-2.75-2.49-5.98-4.48-8.5
			C79.78,20.96,71.45,19.92,67.52,25.32z"/>
		<path class="st3" d="M74.18,57c1.22,1.17,2.56,2.23,4.06,2.98c4.52,2.27,10.43,1.37,14.08-2.14c3.6-3.46,4.74-9.23,2.75-13.81
			c-2.26-1.37-5.19-1.28-7.83-0.82c-4.12,0.72-8.32,2.29-10.99,5.52C74.41,50.98,73.75,54.08,74.18,57z"/>
		<path class="st6" d="M30.44,87.4c0.41-2.83,0.74-5.7,0.54-8.56c-0.2-2.86-0.96-5.73-2.58-8.09c-0.61-0.89-1.44-1.76-2.51-1.88
			c-0.06,3.62-1,7.22-2.73,10.4c-0.6,1.11-1.32,2.22-1.46,3.47c-0.21,1.79,0.8,3.54,2.16,4.72c1.12,0.98,2.49,1.67,3.94,1.99
			c0.53,0.12,1.49,0.41,1.94,0.07C30.27,89.12,30.36,87.98,30.44,87.4z"/>
		<path class="st5" d="M7.05,76.65c1.71,6.2,4.34,12.12,6.17,18.28c1.62,5.44,2.61,11.06,2.95,16.72c1.87,0.16,3.74,0.32,5.61,0.48
			c-0.6-5.25-0.22-10.61,1.13-15.73c2.16-8.19,6.79-16.19,5.45-24.56c-1.23-7.69-6.32-15.01-14.06-15.79
			C3.85,55,5.33,70.39,7.05,76.65z"/>
		<path class="st6" d="M51.72,85.82c0.35-0.62,0.62-1.29,0.88-1.95c0.43-1.07,0.85-2.14,1.28-3.2c1.54,1.58,2.18,3.87,2.15,6.07
			c-0.02,1.31-0.33,2.75-1.4,3.49c-0.45,0.32-1.01,0.47-1.56,0.52c-1.09,0.09-3.03-0.33-3.49-1.5c-0.23-0.58,0.06-0.94,0.45-1.34
			C50.64,87.24,51.25,86.64,51.72,85.82z"/>
		<path class="st5" d="M64.99,92.42c-2,6.46-4,12.93-6.01,19.39c-2.33,0.09-4.66,0.18-6.99,0.28c3.2-9.73,4-20.24,2.31-30.35
			c-0.21-1.23-0.45-2.5-0.14-3.72c0.3-1.16,1.07-2.14,1.85-3.05c2.37-2.75,11.51-11.14,13.94-4.36c1.08,3.01-0.74,7.27-1.52,10.17
			C67.39,84.69,66.19,88.55,64.99,92.42z"/>
		<path class="st6" d="M5.78,55.89c-3.43,3.66-5.5,8.55-5.75,13.55c-0.18,3.68,0.67,7.54,3.04,10.37c2.36,2.8,6.05,4.33,9.71,4.39
			c3.66,0.06,7.27-1.24,10.3-3.31c-0.1-0.35-0.21-0.69-0.31-1.04c-4.1,2.12-9.06,2.49-13.43,1.01c-1.49-0.51-2.96-1.25-3.99-2.44
			c-1.03-1.2-1.55-2.75-1.91-4.3c-0.84-3.67-0.87-7.6,0.5-11.11c0.38-0.99,1.33-2.61,2.74-3.49c0,0,0.73-3.63,1.98-6.08
			C8.65,53.44,6.36,55.27,5.78,55.89z"/>
		<path class="st6" d="M58.79,43.06c1.49,0.41,3.1,0.3,4.57-0.18c1.47-0.48,2.8-1.34,3.95-2.37c0.85-0.77,1.62-1.68,1.98-2.77
			c0.17-0.52,0.22-1.13-0.1-1.56c-0.31-0.41-0.88-0.54-1.4-0.54c-0.94,0.01-1.84,0.34-2.68,0.75c-1.51,0.73-3.1,1.72-4.22,2.98
			c-0.41,0.47-0.44,0.94-0.66,1.5C59.91,41.66,59.36,42.42,58.79,43.06z"/>
		<path class="st6" d="M67.57,33.29c0.14,0.13,0.29,0.27,0.48,0.3c0.19-0.64,0.38-1.31,0.27-1.96c-0.11-0.66-0.61-1.3-1.27-1.35
			c-0.34-0.02-0.68,0.11-0.95,0.32c-0.25,0.19-0.46,0.44-0.55,0.73C65.23,32.39,66.93,32.73,67.57,33.29z"/>
		<path class="st4" d="M57.23,27.87c-2.15-2.46-2.98-6.02-2.13-9.19c0.11-0.42,0.46-0.93,0.85-0.75c0.26,0.12,0.3,0.48,0.32,0.77
			c0.18,2.32,1.88,4.35,3.99,5.31c2.11,0.97,4.57,0.97,6.83,0.42c0.58-0.14,1.23-0.31,1.75,0c0.26,0.16,0.45,0.41,0.6,0.68
			c0.72,1.3,0.67,3-0.12,4.26C66.71,33.53,59.71,30.7,57.23,27.87z"/>
		<path class="st5" d="M56.2,33.77c-1.9,1.43-3.39,3.47-5.59,4.37c1.16,0.76,2.49,1.25,3.8,1.7c1.67,0.57,3.38,1.09,5.13,1.34
			c1.75,0.24,3.57,0.2,5.25-0.34c1.36-0.44,2.61-1.19,3.62-2.19c0.39-0.38,0.75-0.8,0.99-1.29c0.6-1.22,0.37-2.76-0.45-3.83
			c-1.06-1.37-2.92-1.8-4.56-1.98c-1.85-0.2-3.75,0.05-5.49,0.73C57.94,32.64,57.03,33.15,56.2,33.77z"/>
		<path class="st3" d="M67.04,35.25c0.03-0.21,0.18-0.39,0.2-0.61c0.05-0.46-0.44-0.78-0.88-0.9c-0.84-0.21-1.72-0.09-2.57,0.08
			c-3.06,0.6-6.02,1.72-8.72,3.29c0.69,0.53,1.46,0.94,2.29,1.21c1.23,0.4,2.54,0.47,3.83,0.46c2.25-0.02,4.57-0.32,6.49-1.5
			c0.26-0.16,0.51-0.35,0.63-0.62c0.12-0.28,0.04-0.66-0.24-0.78C67.75,35.77,66.94,35.88,67.04,35.25z"/>
		<path class="st7" d="M44.03,66.5c1.21-2.37,1.2-5.33-0.04-7.68c-0.65-1.23-1.6-2.28-2.27-3.5c-0.68-1.22-1.06-2.73-0.49-3.99
			c0.6-1.34,2.15-2.14,2.54-3.56c0.07-0.24,0.09-0.48,0.09-0.73c-7.12-0.02-14.24-0.77-21.36-0.46c-0.29,0.01-0.58,0.03-0.87,0.04
			c-1.27,0.93-2.67,1.69-3.85,2.76c-1.34,1.22-2.36,2.91-2.37,4.73c0,1.81,1.23,3.68,3.01,4.01c1.4,0.26,2.78-0.39,4.08-0.98
			c1.36-0.61,2.78-1.18,4.26-1.21c1.49-0.03,3.07,0.57,3.85,1.83c1.48,2.41-0.54,5.5-0.21,8.31c0.39,3.26,4.12,5.34,7.38,4.88
			C40.41,70.59,42.82,68.87,44.03,66.5z"/>
		<path class="st7" d="M53.19,58.61c-1.15,1.92,0.29,4.45-0.37,6.59c-0.5,1.63-2.08,2.62-3.3,3.82c-1.21,1.2-2.11,3.21-1.03,4.53
			c0.57,0.7,1.53,0.95,2.44,0.99c1.45,0.06,2.88-0.31,4.33-0.4c1.45-0.09,3.04,0.16,4.03,1.21c0.74,0.79,1.08,1.97,2.01,2.54
			c0.94,0.59,2.23,0.33,3.08-0.38c0.85-0.71,1.32-1.77,1.6-2.84c1.01-3.85-0.13-7.89-1.26-11.7c-0.23-0.79-0.5-1.63-1.15-2.13
			c-0.71-0.55-1.68-0.54-2.56-0.71C58.63,59.66,55.38,54.94,53.19,58.61z"/>
		<path class="st7" d="M20.04,77.57c1.46-0.74,2.92-1.68,3.69-3.12c0.14,0.89,0.43,1.74,0.61,2.62c0.39,1.91,0.26,3.98-0.63,5.72
			c-0.89,1.74-2.62,3.09-4.57,3.27c-1.98,0.18-5.01-1.32-4.87-3.63C14.44,79.76,18.08,78.55,20.04,77.57z"/>
		<path class="st8" d="M24.34,77.07c-0.18-0.88-0.46-1.74-0.61-2.62c-0.06,0.11-0.13,0.22-0.2,0.33c0,0.01,0.01,0.03,0.01,0.04
			c0.39,1.91,0.26,3.98-0.63,5.72c-0.89,1.74-2.62,3.09-4.57,3.27c-1.3,0.12-3.04-0.48-4.05-1.56c-0.01,0.06-0.02,0.12-0.02,0.19
			c-0.14,2.31,2.88,3.81,4.87,3.63c1.95-0.18,3.67-1.54,4.57-3.27C24.61,81.05,24.73,78.99,24.34,77.07z"/>
		<g>
			<path class="st6" d="M72.43,36.75c-0.5-0.63-0.8-1.44-0.72-2.25c0.08-0.8,0.58-1.57,1.33-1.88c0.49-0.2,1.04-0.19,1.55-0.08
				c1.46,0.33,2.67,1.58,2.95,3.05c0.08,0.4,0.09,0.81-0.03,1.2C76.75,39.36,73.59,38.22,72.43,36.75z"/>
			<path class="st9" d="M77.72,37.31c-0.34,1-1.42,1.53-2.42,1.19c-1-0.34-1.53-1.42-1.19-2.42c0.34-1,1.42-1.53,2.42-1.19
				S78.06,36.31,77.72,37.31z"/>
			<path class="st0" d="M75.86,36.83c-0.27,0.26-0.7,0.25-0.96-0.02c-0.26-0.27-0.25-0.7,0.02-0.96c0.27-0.26,0.7-0.25,0.96,0.02
				C76.14,36.14,76.13,36.57,75.86,36.83z"/>
		</g>
		<g>
			<path class="st6" d="M83.24,34.73c-0.36-0.65-0.55-1.47-0.46-2.27c0.09-0.8,0.5-1.56,1.08-1.84c0.38-0.18,0.79-0.16,1.18-0.03
				c1.1,0.37,1.97,1.65,2.12,3.13c0.04,0.4,0.03,0.82-0.07,1.2C86.42,37.47,84.07,36.24,83.24,34.73z"/>
			<path class="st9" d="M87.23,35.44c-0.3,0.99-1.14,1.49-1.88,1.12c-0.74-0.37-1.11-1.46-0.81-2.45c0.3-0.99,1.14-1.49,1.88-1.12
				S87.53,34.46,87.23,35.44z"/>
			<path class="st0" d="M85.84,34.92c-0.22,0.25-0.54,0.23-0.73-0.05c-0.19-0.28-0.16-0.71,0.06-0.96c0.22-0.25,0.54-0.23,0.73,0.05
				C86.08,34.23,86.06,34.66,85.84,34.92z"/>
		</g>
		<path class="st9" d="M84.13,48.07c-0.11-0.07-0.25-0.08-0.37-0.04c-0.17,0.21-0.06,0.53,0.11,0.75c0.16,0.22,0.38,0.42,0.42,0.69
			c0.03,0.21-0.05,0.43-0.06,0.64c-0.01,0.22,0.12,0.47,0.34,0.47c0.18-0.01,0.3-0.19,0.37-0.36c0.2-0.45,0.34-0.96,0.2-1.43
			c-0.13-0.47-0.62-0.87-1.1-0.75L84.13,48.07z"/>
		<path class="st9" d="M91.68,46.78c-0.11-0.07-0.25-0.08-0.37-0.04c-0.17,0.21-0.06,0.53,0.11,0.75c0.16,0.22,0.38,0.42,0.42,0.69
			c0.03,0.21-0.05,0.43-0.06,0.64c-0.01,0.22,0.12,0.47,0.34,0.47c0.18-0.01,0.3-0.19,0.37-0.36c0.2-0.45,0.34-0.96,0.2-1.43
			c-0.13-0.47-0.62-0.87-1.1-0.75L91.68,46.78z"/>
		<path class="st4" d="M84.97,55.46c0,0,2.11,1.82,3.8,1.43c1.69-0.39,2.92-2.67,2.92-2.67s-1.16,3.12-2.78,3.44
			C86.17,58.21,84.97,55.46,84.97,55.46z"/>
		<path class="st10" d="M12.94,55.54c-2.01,2.59-2.9,6.07-2.17,9.26c0.38,1.68,1.47,3.46,3.18,3.64c1.46,0.15,2.8-0.98,3.43-2.32
			c0.63-1.33,0.72-2.84,0.91-4.3c0.2-1.46,0.55-2.98,1.56-4.05c0.88-0.93,2.13-1.39,3.21-2.07c3.06-1.92,1.81-6-1.82-5.24
			C18.15,51.11,14.87,53.06,12.94,55.54z"/>
		<path class="st5" d="M70.01,19.69c1.23-0.06,2.47,0.39,3.37,1.22c0.44-1.68,1.4-3.22,2.71-4.35c-0.33,1.29-0.26,2.69,0.19,3.94
			c0.88-0.93,2.12-1.53,3.4-1.64c-0.94,0.47-1.51,1.59-1.35,2.62c0.08,0.54,0.34,1.08,0.2,1.61c-0.12,0.44-0.49,0.77-0.91,0.94
			c-0.42,0.17-0.88,0.21-1.33,0.24c-1.25,0.08-3.67,0.38-4.39-0.96c-0.27-0.51-0.13-1.2-0.3-1.74
			C71.33,20.74,70.7,20.19,70.01,19.69z"/>
		<path class="st10" d="M83.42,22.85c-0.29,0.08-0.65,0.24-0.62,0.54c0.02,0.2,0.2,0.33,0.38,0.41c0.96,0.43,2.09,0.04,3.02-0.44
			c0.69-0.35,1.35-0.76,1.9-1.3c0.55-0.54,0.97-1.23,1.09-1.99c0.03-0.17,0.03-0.36-0.09-0.48c-0.09-0.08-0.22-0.11-0.34-0.1
			c-0.82,0.07-1.43,1.33-2.06,1.8C85.74,22,84.56,22.53,83.42,22.85z"/>
		<path class="st10" d="M89.93,16.53c-0.34,0.45-0.54,1.01-0.57,1.57c-0.01,0.16,0,0.33,0.11,0.45c0.15,0.18,0.45,0.16,0.63,0.01
			c0.18-0.15,0.27-0.38,0.32-0.61c0.11-0.49,0.09-1-0.04-1.48c-0.11,0-0.22-0.01-0.33-0.01L89.93,16.53z"/>
		<path class="st10" d="M55.89,23.56c0.5,1.01,1.03,2.01,1.57,2.99c0.17,0.3,0.34,0.61,0.62,0.81c0.28,0.2,0.68,0.27,0.96,0.07
			c0.43-0.31,0.27-1.02-0.11-1.39c-0.38-0.37-0.91-0.55-1.31-0.9c-0.7-0.61-0.8-1.53-1.27-2.28C55.66,21.71,55.45,22.68,55.89,23.56
			z"/>
		<path class="st10" d="M60.22,27.58c-0.35,0.24-0.31,0.8-0.03,1.11c0.28,0.31,0.7,0.45,1.11,0.56c0.35,0.1,0.77,0.2,1.06-0.02
			c0.32-0.23,0.33-0.75,0.09-1.07c-0.24-0.32-0.65-0.47-1.05-0.5c-0.4-0.04-0.8,0.01-1.2,0L60.22,27.58z"/>
		<path class="st9" d="M53.15,108.12l-1.7,4.3c0,0,1.51,0.81,4.57,0.7c3.06-0.11,4.18-0.54,4.18-0.54l0.07-4.91
			c0,0-1.25,0.78-3.23,0.83C55.05,108.56,53.15,108.12,53.15,108.12z"/>
		<path class="st9" d="M16.03,109.14l-1.35,4.3c0,0,1.2,0.81,3.63,0.7c2.43-0.11,3.32-0.54,3.32-0.54l0.05-4.91
			c0,0-0.99,0.78-2.57,0.83C17.53,109.58,16.03,109.14,16.03,109.14z"/>
		<path class="st9" d="M68.95,97.65l-1.29,4.3c0,0,1.14,0.81,3.45,0.7c2.31-0.11,3.16-0.54,3.16-0.54l0.05-4.91
			c0,0-0.94,0.78-2.44,0.83C70.38,98.09,68.95,97.65,68.95,97.65z"/>
		<path class="st2" d="M22.93,101.3c-0.11,0.76-0.01,1.69,0.66,2.06c0.58,0.32,1.32,0.05,1.85-0.36c0.94-0.74,1.49-1.86,1.9-2.98
			c0.31-0.84,0.57-2-0.26-2.63c-0.5-0.38-1.36-0.58-1.97-0.36C23.68,97.52,23.11,100.01,22.93,101.3z"/>
		<path class="st2" d="M30.88,103.07c0.24,0.45,0.59,0.93,1.09,0.96c0.2,0.01,0.4-0.06,0.58-0.16c0.44-0.25,0.73-0.7,0.88-1.18
			c0.15-0.48,0.17-0.99,0.16-1.5c-0.01-0.86-0.1-1.73-0.26-2.58c-0.06-0.3-0.12-0.6-0.3-0.85c-0.15-0.2-0.36-0.35-0.58-0.47
			c-0.55-0.28-1.23-0.34-1.8-0.1c-0.45,0.18-0.9,0.59-1.04,1.07c-0.13,0.44,0.15,0.68,0.24,1.1
			C30.14,100.67,30.25,101.85,30.88,103.07z"/>
		<path class="st2" d="M36.51,99.37c0.25,0.42,0.52,0.84,0.91,1.14c0.39,0.3,0.9,0.47,1.37,0.33c0.8-0.23,1.15-1.23,0.99-2.05
			c-0.16-0.82-0.68-1.52-1.08-2.24c-0.3-0.54-0.55-1.11-0.9-1.61c-0.35-0.51-0.82-0.96-1.42-1.13c-0.5-0.15-1.13-0.05-1.5,0.34
			c-0.48,0.49-0.29,0.85-0.03,1.34C35.49,96.74,35.79,98.13,36.51,99.37z"/>
		<path class="st10" d="M55.87,34.95c-0.08,0.12-0.15,0.29-0.04,0.39c0.04,0.03,0.08,0.05,0.13,0.05c0.48,0.08,0.88-0.35,1.25-0.68
			c1.12-0.99,2.69-1.21,4.12-1.67c0.15-0.05,0.34-0.18,0.27-0.32c-0.03-0.06-0.1-0.09-0.17-0.11c-0.96-0.31-2.13,0.11-3.04,0.44
			C57.37,33.41,56.48,34.05,55.87,34.95z"/>
		<path class="st9" d="M31.18,108.45l-1.42,4.3c0,0,1.26,0.81,3.8,0.7c2.54-0.11,3.48-0.54,3.48-0.54l0.06-4.91
			c0,0-1.04,0.78-2.69,0.83C32.75,108.88,31.18,108.45,31.18,108.45z"/>
	</g>
	<g>
		<rect x="88.33" y="8.18" class="st11" width="199.44" height="70.26"/>
		<text transform="matrix(1 0 0 1 158.9496 24.6816)"><tspan x="0" y="0" class="st12 st13 st14">¡Hola! </tspan><tspan x="-46.55" y="26.4" class="st12 st13 st14">Suerte jugando</tspan></text>
	</g>
</g>
</svg>
