<?xml version="1.0" encoding="utf-8"?>
<!-- Generator: Adobe Illustrator 23.0.0, SVG Export Plug-In . SVG Version: 6.00 Build 0)  -->
<svg version="1.1" id="Capa_1" xmlns="http://www.w3.org/2000/svg" xmlns:xlink="http://www.w3.org/1999/xlink" x="0px" y="0px"
	 viewBox="0 0 1106.2 373" style="enable-background:new 0 0 1106.2 373;" xml:space="preserve">
<style type="text/css">
	.st0{fill:#A2CA66;}
	.st1{fill:#609B31;}
	.st2{fill:#96613C;}
	.st3{fill:#AB6E43;}
	.st4{fill:#EDBA94;}
	.st5{fill:#69514C;}
	.st6{fill:#C17A49;}
	.st7{fill:#231F20;}
	.st8{fill:#F6A044;}
	.st9{fill:#E39142;}
	.st10{fill:#F2BC40;}
	.st11{fill:#F8C941;}
</style>
<g>
	<path class="st0" d="M1056.4,327.1c0,0,25.8-22,7.4-40.2c-18.4-18.2-36,0-36,0s6.4-31.6-12-35.4c-18.5-3.8-27.7,23-27.7,23
		s-20.3-42.1-59.9-31.6c-39.7,10.5-39.7,53.7-39.7,53.7s-11.1-28.8-20.3-24c-9.2,4.8,4.6,29.7,4.6,29.7
		c-55.3-13.4-88.5,2.9-88.5,2.9s22.1-26.8,5.5-38.3c-16.6-11.5-31.3,15.3-31.3,15.3s-3.7-41.2-20.3-45S718,262.9,718,262.9
		s-9.2-46-22.1-42.9c-11.3,2.7-2.8,33.4-0.5,41.2c-10.4-33.4-59.9-53.4-86.2-32.7c-26.7,21.1-5.5,58.4-5.5,58.4s-28.6-45-36-32.6
		c-7.4,12.5,24.9,46,24.9,46s-27.7-19.7-50.8-4.4c-1-3-2.8-6.1-5.8-9c-18.4-18.2-36,0-36,0s6.5-31.6-12-35.4s-27.7,23-27.7,23
		s-20.3-42.1-59.9-31.6c-39.6,10.5-39.6,53.7-39.6,53.7s-11.1-28.8-20.3-24s4.6,29.7,4.6,29.7c-55.3-13.4-88.5,2.9-88.5,2.9
		s22.1-26.8,5.5-38.3c-16.6-11.5-31.4,15.3-31.4,15.3s-3.7-41.2-20.3-45s-20.3,25.9-20.3,25.9s-9.2-46-22.1-42.9
		c-11.3,2.7-2.8,33.5-0.5,41.2c-10.4-33.4-59.9-53.5-86.2-32.8c-26.7,21.1-5.5,58.4-5.5,58.4s-28.6-45-36-32.6
		c-7.4,12.5,24.9,46,24.9,46s-32.3-23-56.3,0c-24,23,10.1,72.8,10.1,72.8h527.8h32h527.8C1092.4,328,1056.4,327.1,1056.4,327.1z"/>
	<g>
		<g>
			<path class="st1" d="M126.1,344.6c0.5-8.3,2.2-17.7,7.6-24c-0.8,0-1.5,0.1-2.3,0.1c1.6,8.3,6.3,15.6,14,18.5
				c0.7,0.3,1.8-0.2,2-0.9c2.9-9.4,4.6-19.9,2.6-29.6c-0.7,0.4-1.4,0.7-2,1.1c11.2,2.9,18.9,12.8,19.1,24.7c0,1.2,2.1,0.6,2.4-0.1
				c0.5-1,1.3-1.8,2.1-2.6c1.3-1.1,2.6-2,4.2-2.7c1.2-0.6,11.3-1.2,11.7-2c-2.7,5.9-2.7,12.2,0.1,18c0.5,1,2.9,0.1,2.5-0.7
				c-2.6-5.6-2.7-11.8-0.1-17.5c0.3-0.6-0.2-0.8-0.7-0.9c-7.4-0.5-18.1,0.4-22.1,8.2c0.8,0,1.6-0.1,2.4-0.1
				c-0.2-12.7-8.2-22.8-20.1-26c-0.6-0.1-2.2,0.2-2,1.1c2,9.6,0.3,20-2.6,29.2c0.7-0.3,1.4-0.6,2-0.9c-7.3-2.7-11.6-10.1-13-17.7
				c-0.2-0.9-1.9-0.3-2.3,0.1c-5.6,6.7-7.6,16.2-8.1,24.9C123.5,346.1,126.1,345.6,126.1,344.6L126.1,344.6z"/>
		</g>
	</g>
	<g>
		<g>
			<path class="st1" d="M394.2,344.6c0.5-8.3,2.2-17.7,7.6-24c-0.8,0-1.5,0.1-2.3,0.1c1.6,8.3,6.3,15.6,14,18.5
				c0.7,0.3,1.8-0.2,2-0.9c2.9-9.4,4.7-19.9,2.6-29.6c-0.7,0.4-1.3,0.7-2,1.1c11.2,2.9,18.9,12.8,19.1,24.7c0,1.2,2.1,0.6,2.5-0.1
				c0.5-1,1.3-1.8,2.1-2.6c1.3-1.1,2.6-2,4.2-2.7c1.2-0.6,11.3-1.2,11.7-2c-2.7,5.9-2.7,12.2,0,18c0.5,1,2.9,0.1,2.5-0.7
				c-2.6-5.6-2.7-11.8-0.1-17.5c0.3-0.6-0.2-0.8-0.7-0.9c-7.4-0.5-18.1,0.4-22.2,8.2c0.8,0,1.6-0.1,2.5-0.1
				c-0.2-12.7-8.2-22.8-20.1-26c-0.6-0.1-2.2,0.2-2,1.1c2,9.6,0.3,20-2.6,29.2c0.7-0.3,1.3-0.6,2-0.9c-7.3-2.7-11.6-10.1-13-17.7
				c-0.2-0.9-1.9-0.3-2.3,0.1c-5.6,6.7-7.6,16.2-8.1,24.9C391.6,346.1,394.2,345.6,394.2,344.6L394.2,344.6z"/>
		</g>
	</g>
	<g>
		<g>
			<path class="st1" d="M640.5,344.6c0.5-8.3,2.2-17.7,7.6-24c-0.8,0-1.5,0.1-2.3,0.1c1.6,8.3,6.3,15.6,14,18.5
				c0.7,0.3,1.8-0.2,2-0.9c2.9-9.4,4.6-19.9,2.6-29.6c-0.7,0.4-1.4,0.7-2,1.1c11.2,2.9,18.9,12.8,19.1,24.7c0,1.2,2.1,0.6,2.5-0.1
				c0.5-1,1.3-1.8,2.1-2.6c1.3-1.1,2.6-2,4.2-2.7c1.2-0.6,11.3-1.2,11.7-2c-2.7,5.9-2.7,12.2,0.1,18c0.5,1,2.9,0.1,2.5-0.7
				c-2.6-5.6-2.7-11.8-0.1-17.5c0.3-0.6-0.2-0.8-0.7-0.9c-7.4-0.5-18.1,0.4-22.2,8.2c0.8,0,1.6-0.1,2.5-0.1
				c-0.2-12.7-8.2-22.8-20.1-26c-0.6-0.1-2.2,0.2-2,1.1c2,9.6,0.3,20-2.6,29.2c0.7-0.3,1.4-0.6,2-0.9c-7.3-2.7-11.6-10.1-13-17.7
				c-0.2-0.9-1.9-0.3-2.3,0.1c-5.6,6.7-7.6,16.2-8.1,24.9C637.9,346.1,640.5,345.6,640.5,344.6L640.5,344.6z"/>
		</g>
	</g>
</g>
<g>
	<path class="st2" d="M1008.7,231.3c2-6.6,2.4-14-0.8-20c1.5-0.5,3.1-1.1,4.6-1.6c4.1,8,4.8,17.6,2.9,26.4
		c-1.9,8.8-6.3,17-11.9,24.1c-8.2,10.5-19.7,19.2-32.9,20.4c-5.6,0.5-13.1-1.9-11.4-9c1.1-4.8,5.8-7.7,10.3-8.2
		c11.7-1.4,21.1-5.6,29.2-14.6C1003.3,243.8,1006.8,237.8,1008.7,231.3z"/>
	<path class="st3" d="M839.8,301c0.2,5.7,6.2,10.6,9.5,15.4c5,7.3,14.8,9.3,23.7,10.3c26,2.7,52.5,0.7,77.8-5.8
		c7.1-1.8,14.5-4.2,19.5-9.6c6.4-7,11.9-16.4,12-25.8c0.1-24.7-7.9-50.3-14.8-74c-4.7-16.1-11.8-32.9-26.2-41.8
		c-8.7-5.4-19.2-7.2-29.4-7C846.8,163.9,838.1,253.4,839.8,301z"/>
	<path class="st2" d="M895,257.4c3.8,2.3,7.9,4.4,12.3,5.4c13.4,3.1,28.5-3.9,38.3-13.5c11.3-11.1,13.3-22.4,13.7-39.5
		c0-2.1-0.8-4.8-1.2-6.9c-0.5-2.4-2-4.5-3.8-6.3c-8-8-19.9-10.4-31.2-11c-17.3-0.9-34.7,1.4-51.4,6.3c-5.6,1.6-11.6,3.8-15.7,8.1
		c-4.6,4.8-1.6,7.4-0.4,13.3c3.3,17.2,11.1,25.9,20.6,35.1C881.5,253.4,888.9,253.7,895,257.4z"/>
	<path class="st3" d="M794.9,315.2c6.5,9.9,12.4,20.1,17.6,30.6c6.8-5.9,15.9-8.4,24.7-10.4c20.9-4.8,42.2-7.8,63.3-11.8
		c6.2-1.2,13.4-3.2,15.8-9.1c1.3-3.2,0.9-6.8,0.1-10.1c-3.3-13.9-13.1-26.2-25.9-32.6c-14.1-7-36.6-8.4-48.1,4
		C828.1,291.3,813.6,305,794.9,315.2z"/>
	<path class="st3" d="M1038.7,305.6c-5.5,10.5-10.3,21.2-14.5,32.2c-7.4-5.2-16.6-6.8-25.6-7.9c-21.3-2.7-42.7-3.6-64.1-5.5
		c-6.3-0.6-13.6-1.9-16.7-7.5c-1.6-3-1.6-6.7-1.1-10.1c1.9-14.2,10.4-27.4,22.5-35c13.3-8.4,35.5-12,48.3-0.8
		C1003.3,285.2,1019.1,297.4,1038.7,305.6z"/>
	<path class="st3" d="M825.2,154.4c-12.7,5.8-25.4,13.2-32.6,25.2c-3.8,6.3-5.7,13.4-7.7,20.4c-0.3,1.1-0.5,2.4,0.3,3.1
		c0.9,0.8,2.3,0.2,3.4-0.4c11.7-5.9,25.9-2.6,38.5-6.1c9.8-2.7,23.7-6.2,28.3-15.3c2.3-4.6-1.6-13.2-2.3-18.3
		C850.8,147.7,836,149.4,825.2,154.4z"/>
	<path class="st3" d="M935.4,111.1c12.7-5.8,26.6-10.7,40.4-8.3c7.2,1.2,13.9,4.4,20.5,7.5c1,0.5,2.1,1.2,2.1,2.2
		c0,1.2-1.4,1.9-2.5,2.3c-12.1,5-18.8,17.7-28,27c-8.8,9-18.6,12.4-28.5,10c-5-1.2-12.2-10.1-15.6-13.9
		C913.6,126.2,924.5,116.1,935.4,111.1z"/>
	<path class="st4" d="M833.1,159c-8.2,2.6-16.2,6.3-23.1,11.5s-12.7,12.1-15.8,20.1c3.7-2.6,8.7-2.1,13.2-1.7
		c6.5,0.6,13.2,0.8,19.6-0.8c6.4-1.6,12.4-5.3,15.7-11c2.5-4.3,3.2-9.9,1.4-14.6C841.8,156.7,838.6,157.2,833.1,159z"/>
	<path class="st4" d="M959.2,111.8c8.3-1.6,16.8-1.3,25.2-0.3c-9.6,7.1-16.9,17-26.9,23.4c-3.5,2.3-7.8,4.2-11.8,2.8
		c-5.5-1.8-11.3-10.9-6.9-16.1C943.3,116.1,952.4,113.1,959.2,111.8z"/>
	<path class="st5" d="M817.3,144.8c-7.6-6.1-11.8-16.2-10.7-25.9c1.8-0.6,3.7,0.8,5.3,1.8c9.4,6.3,22,4.7,33,2.1
		c3.8-0.9,8-1.8,11.3,0.2c1.8,1.1,3.1,3,3.9,5c4.1,9.6-1.7,23.5-12.8,25C838.5,154.1,823.9,150.1,817.3,144.8z"/>
	<path class="st5" d="M943.3,95.1c0.1-9.7-5.1-19.4-13.3-24.6c-1.6,1-1.7,3.3-1.9,5.2c-1.1,11.3-10.3,20-19.3,26.8
		c-3.1,2.3-6.5,5.1-7,8.9c-0.3,2.1,0.4,4.3,1.4,6.2c4.9,9.3,19.3,13.6,27.5,5.9C937.1,117.4,943.2,103.6,943.3,95.1z"/>
	<path class="st6" d="M850.3,116.5c-10,15.1-11.8,34.3-9.6,52.2c2.1,17.7,8,35.3,19.1,49.4s27.6,24.2,45.4,25.5
		c14.9,1,30.2-4.4,41.1-14.6s17.4-25,17.4-40c0-12.5-4.2-24.5-8.8-36.1c-5.2-13-11.2-25.9-20.6-36.3
		C912.5,92.8,869.7,87.1,850.3,116.5z"/>
	<path class="st4" d="M902.4,170.3c-14.3,6.8-29.4,15.6-37.4,29.9c-2.6,4.6-4.7,10.6-5.9,17.1c0.2,0.2,0.4,0.5,0.5,0.7
		c11,14,27.6,24.2,45.4,25.5c14.9,1,30.2-4.4,41.1-14.6s17.4-25,17.4-40c0-8.7-2-17.2-4.8-25.5c-0.2-0.1-0.5-0.2-0.7-0.3
		C940.3,155.5,919.8,162,902.4,170.3z"/>
	<g>
		<path class="st3" d="M909.3,134.1c-0.1-4.6,1.7-9.2,5.1-12.2s8.6-4.1,12.8-2.2c3.9,1.8,6.3,5.6,8.2,9.5c1.8,3.8,3.1,7.8,4,11.9
			c-4-3.4-9.6-4.9-14.7-3.8c-2.2,0.4-4.2,1.3-6,2.6c-1.7,1.1-3,3.7-4.7,4.6C910.7,146,909.3,136.2,909.3,134.1z"/>
		<path class="st7" d="M914.5,147.8c0,0-4.6-10.6,4.5-16.8c9.1-6.2,20.3,9.9,20.3,9.9s-9.5-4.8-17.5-2.3
			C913.7,141.1,914.5,147.8,914.5,147.8z"/>
	</g>
	<g>
		<path class="st3" d="M873.3,152c-3-3.4-7.5-5.7-12-5.6s-9.1,2.8-10.9,7c-1.7,3.9-0.9,8.4,0.4,12.5c1.3,4,2.9,7.9,5,11.5
			c0.6-5.2,3.8-10.1,8.3-12.8c1.9-1.1,4-1.8,6.2-2.2c2-0.3,4.7,0.7,6.5,0.2C880.2,161.8,874.6,153.6,873.3,152z"/>
		<path class="st7" d="M878.6,165.6c0,0-3.8-10.9-14.7-9.4c-10.9,1.6-8.3,21-8.3,21s3.8-10,11.4-13.5
			C874.7,160.2,878.6,165.6,878.6,165.6z"/>
	</g>
	<path class="st7" d="M888.4,194.5c0.1,3.1,1.8,5.9,3.6,8.4c0.7,1,1.9,2.2,3.1,1.6c-0.5-3.1-1.5-6-3-8.8
		C891.7,194.9,888.3,191.7,888.4,194.5z"/>
	<path class="st7" d="M929.4,176.8c0.1,3.1,1.8,5.9,3.6,8.4c0.7,1,1.9,2.2,3.1,1.6c-0.5-3.1-1.5-6-3-8.8
		C932.7,177.2,929.3,174.1,929.4,176.8z"/>
	<path class="st7" d="M905.3,227.1c0,0,14.3-0.6,22.5-4.5c8.2-3.9,15.6-14.1,15.6-14.1s0,14.6-12.2,20.1
		C920,233.7,905.3,227.1,905.3,227.1z"/>
	<path class="st3" d="M850.2,121.3c3.2,5.3,8.4,9.2,14.1,11.6c5.7,2.4,11.8,3.6,18,4.4c0.9,0.1,1.9,0.3,2.4,1c0.3,0.4,0.4,1,0.5,1.6
		c0.5,3,0.9,6,1.3,8.9c4.4-3.4,7.8-8,9.9-13.2c0.5,1.9,1.5,3.6,2.7,5.2c4.5-5.7,6.3-13,8-20.1c0.6-2.4,1.1-4.9,0.5-7.3
		c-1.3-4.6-6.5-6.8-11.2-7.6c-15-2.5-31.2,3.4-41,15.1c-1.7,2-3.3,4.4-2.8,7L850.2,121.3z"/>
	<path class="st8" d="M861.4,131.7c6.1,1.4,12.4,0.9,18.5-0.3c-1-3.1-3-5.8-5.5-7.9c7.3,1.4,13.7,6.9,16,13.9
		c5.2-5.7,7.6-13.8,6.5-21.4c2,2.8,3.5,5.8,4.4,9.1c2.2-2.5,3.3-5.9,4.2-9.1c1.8-6,3.6-12.4,1.8-18.3c-1.8-5.8-6.9-10.3-12.7-12.3
		c-5.8-2-12.1-1.7-18.1-0.4c-10.3,2.2-26.2,9.2-30.8,19.6C840.7,116.2,850.2,129,861.4,131.7z"/>
	<path class="st2" d="M924.3,327.7c0.9,0.1,2,0.2,2.7-0.4c0.7-0.6,0.9-1.6,1-2.5c3.1-19.9-0.9-40.4-7.5-59.3
		c-1.2-3.3-2.5-6.7-4.8-9.3s-5.9-4-8.9-2.6c-3.2,1.4-4.7,5.3-5.9,8.8c-6,18-10,36.8-11,55.9c-0.2,3.7-0.3,8.9,2.9,11.3
		c2.7,2,4.3,0,7-0.9C907.4,326.3,916.6,326.7,924.3,327.7z"/>
	<path class="st2" d="M885,327.8c2.2-0.4,4.5-0.8,6.2-2.2c3.5-2.8,3.2-8.2,2.3-12.6c-1-5.1-3-10.9-7.9-12.6
		c-3.2-1.1-6.8-0.2-9.6,1.6c-2.9,1.8-5.2,4.3-7.6,6.7c-13.7,13.5-31.3,22.3-49.5,28.4c-2.8,0.9-5.7,1.9-7.4,4.3
		c-2.3,3.2,2,3.7,4.1,2.7c2.3-1.1,3.9-3.1,6.4-4.1c6.5-2.8,13.3-4.6,20.2-6C856.3,330.9,870.8,330.1,885,327.8z"/>
	<path class="st7" d="M805.2,309c-0.6,0.4-26.7,5.4-26.9,8.8s-0.2,12.6,6,21.6s18.1,17.9,21,17.1c2.8-0.7,18.5-17.2,18.5-17.2
		s-0.5-8.2-4.2-14.3C812.3,313.5,805.2,309,805.2,309z"/>
	<path class="st6" d="M874.2,339.8c9.8,0.7,19.6,1.5,29.4,2.2c-1.3-18.4-1.4-36.9-0.3-55.3c0.5-9.3,1.2-19.3-3.4-27.3
		c-3.9-6.7-11.3-10.7-18.9-12.4c-9.2-2.1-18.5-3.7-25.5-0.4c-6,2.8-10.8,12.8-8.5,20.1c2.3,7.2,8,14.7,11,21.9
		c3.5,8.4,6.6,16.9,9.3,25.5C867.9,316.4,873.4,339.7,874.2,339.8z"/>
	<path class="st7" d="M869.6,323.7c0,0,5.3,2.4,16.2,2.1c10.9-0.2,16.9-2.1,16.9-2.1l2.5,19.7c0,0,2,3.6-14.2,4.5
		c-16.2,1-21.4-3.1-21.4-3.1V323.7z"/>
	<path class="st2" d="M1018.9,334.8c0.8,0.2,1.7,0.3,2.5-0.1c1-0.6,1.1-2.1,0.5-3.1c-0.6-1-1.7-1.6-2.8-2c-3.1-1.3-6.4-2-9.7-2.7
		c-18.2-3.8-36.9-9.2-50.5-21.8c-3.2-2.9-6.2-6.4-10.4-7.4c-6.5-1.6-13.5,4-14.2,10.7c-0.7,5.6,2.4,10.7,6.6,14.2
		c4,3.2,7.5,3.2,12.5,3.5c14.1,0.7,28.1,2.2,42,4.4C1003.3,331.7,1011.1,333.1,1018.9,334.8z"/>
	<path class="st7" d="M1028.7,301c0.6,0.3,27.1,3,27.6,6.3c0.5,3.3,1.4,12.5-4,22.1s-16.4,19.4-19.3,19c-2.9-0.5-20-15.4-20-15.4
		s-0.2-8.2,2.9-14.6C1022,306.1,1028.7,301,1028.7,301z"/>
	<path class="st6" d="M951.2,336.7c-9.7,1.4-19.5,2.8-29.2,4.2c0-18.4-1.1-36.9-3.4-55.2c-1.2-9.3-2.5-19.1,1.6-27.5
		c3.4-7,10.4-11.9,18-13.7s17.9-4.1,25.4-2.1c8.7,2.3,11.7,12,9.8,19.5c-1.8,7.4-7,15.2-9.5,22.6c-2.9,8.6-5.5,17.3-7.6,26.1
		C955.8,312.9,951.9,336.6,951.2,336.7z"/>
	<path class="st7" d="M921.3,323.7c0,0,5.3,2.4,16.2,2.1c10.9-0.2,16.9-2.1,16.9-2.1l2.5,19.7c0,0,2,3.6-14.2,4.5
		c-16.2,1-21.4-3.1-21.4-3.1V323.7z"/>
	<path class="st8" d="M999.4,216.9c-2.6-3.5-3.3-8.1-3.2-12.5c0.1-4.4,0.9-8.8,0.8-13.1s-1.4-9-4.7-11.9c9.6-0.5,18.5,5.2,25.4,11.9
		c4.1,4,8,8.9,8.4,14.6C1027.2,218.6,1007.5,227.6,999.4,216.9z"/>
	<path class="st9" d="M1026.1,205.8c-0.5-5.7-4.3-10.6-8.5-14.6c-6.6-6.5-15.1-12-24.3-12c6.5,1.9,12.4,6.1,17.3,10.9
		c4.1,4,8,8.9,8.5,14.6c0.7,8.3-7.3,15-15.2,15.8C1013.2,224.7,1027,216.6,1026.1,205.8z"/>
	<g>
		<path class="st10" d="M853.3,100.8c-0.1,3.5,0.1,7,0.6,10.4c0.1,0.9,1.4,1.6,2.2,1.3c1-0.3,1.4-1.2,1.3-2.2c-0.1-0.4,0,0.1,0-0.3
			c0-0.2-0.1-0.4-0.1-0.7c0-0.4-0.1-0.8-0.1-1.2c-0.1-0.8-0.1-1.6-0.2-2.4c-0.1-1.6-0.1-3.3,0-4.9c0-0.9-0.9-1.9-1.8-1.8
			C854.2,99,853.4,99.7,853.3,100.8L853.3,100.8z"/>
	</g>
	<g>
		<path class="st10" d="M850,117.8c2.6,3.6,5.7,6.8,9.2,9.5c0.8,0.6,2.1,0.1,2.5-0.7c0.5-1,0.2-1.9-0.7-2.5
			c-0.4-0.3,0.2,0.1-0.1-0.1c-0.1-0.1-0.2-0.2-0.3-0.2c-0.2-0.2-0.4-0.3-0.6-0.5c-0.4-0.3-0.8-0.6-1.1-1c-0.8-0.7-1.5-1.4-2.2-2.1
			c-0.7-0.7-1.3-1.4-2-2.2c-0.2-0.2-0.3-0.4-0.5-0.6c-0.1-0.1-0.2-0.2-0.2-0.3c0-0.1-0.3-0.3,0-0.1c-0.3-0.4-0.6-0.8-0.9-1.2
			c-0.5-0.8-1.6-1.2-2.5-0.7C849.9,115.8,849.4,116.9,850,117.8L850,117.8z"/>
	</g>
	<g>
		<path class="st10" d="M863.7,113.1c0.4,0.3,0.8,0.6,1.2,0.9c-0.1-0.1-0.3-0.2-0.4-0.3c1.4,1.1,2.7,2.4,3.8,3.8
			c-0.1-0.1-0.2-0.3-0.3-0.4c0.2,0.3,0.4,0.5,0.6,0.8c0.3,0.4,0.6,0.7,1.1,0.8c0.4,0.1,1,0.1,1.4-0.2c0.8-0.5,1.2-1.7,0.7-2.5
			c-1.7-2.4-3.8-4.4-6.2-6.1c-0.8-0.5-2-0.2-2.5,0.7C862.5,111.5,862.8,112.5,863.7,113.1L863.7,113.1z"/>
	</g>
	<g>
		<path class="st10" d="M866.4,95.4c0.8,0.8,1.6,1.7,2.3,2.6c-0.1-0.1-0.2-0.3-0.3-0.4c0.7,0.9,1.4,1.9,2,3c0.5,0.8,1.7,1.2,2.5,0.7
			c0.8-0.5,1.2-1.6,0.7-2.5c-1.3-2.2-2.8-4.2-4.6-6c-0.7-0.7-1.9-0.7-2.6,0C865.7,93.6,865.7,94.7,866.4,95.4L866.4,95.4z"/>
	</g>
	<g>
		<path class="st10" d="M880.7,92.3c1,2.4,2,4.8,2.9,7.2c0.2,0.5,0.4,0.8,0.8,1.1c0.4,0.2,1,0.3,1.4,0.2c0.8-0.3,1.7-1.3,1.3-2.2
			c-1-2.4-2-4.8-2.9-7.2c-0.2-0.5-0.4-0.8-0.8-1.1c-0.4-0.2-1-0.3-1.4-0.2C881.1,90.3,880.3,91.4,880.7,92.3L880.7,92.3z"/>
	</g>
	<g>
		<path class="st10" d="M879.8,110.4c0.8,1.3,1.5,2.6,2.2,4c0.2,0.3,0.3,0.6,0.5,1c0.1,0.2,0.2,0.4,0.2,0.6c0.1,0.2,0.1,0.2,0,0
			c0,0.1,0.1,0.2,0.1,0.3c0.3,0.7,0.5,1.4,0.8,2.1c0.3,0.9,1.3,1.6,2.2,1.3c0.9-0.3,1.6-1.3,1.3-2.2c-1.1-3.1-2.5-6-4.2-8.8
			c-0.5-0.8-1.7-1.2-2.5-0.7C879.6,108.4,879.2,109.5,879.8,110.4L879.8,110.4z"/>
	</g>
	<g>
		<path class="st10" d="M892.9,106.6c-0.1,3-0.1,5.9-0.2,8.9c0,0.9,0.8,1.9,1.8,1.8c1,0,1.8-0.8,1.8-1.8c0.1-3,0.1-5.9,0.2-8.9
			c0-0.9-0.8-1.9-1.8-1.8C893.8,104.9,893,105.6,892.9,106.6L892.9,106.6z"/>
	</g>
	<g>
		<path class="st10" d="M892.6,90.3c1.3,1.6,2.6,3.2,3.9,4.8c0.3,0.3,0.9,0.5,1.3,0.5c0.5,0,1-0.2,1.3-0.5c0.3-0.3,0.5-0.8,0.5-1.3
			c0-0.5-0.2-0.9-0.5-1.3c-1.3-1.6-2.6-3.2-3.9-4.8c-0.3-0.3-0.9-0.5-1.3-0.5c-0.5,0-1,0.2-1.3,0.5c-0.3,0.3-0.5,0.8-0.5,1.3
			C892.1,89.5,892.3,89.9,892.6,90.3L892.6,90.3z"/>
	</g>
	<g>
		<path class="st10" d="M899.8,103C899.8,103.5,899.7,102.7,899.8,103c0,0.2,0,0.4,0.1,0.5c0,0.3,0.1,0.5,0.1,0.8
			c0,0.6,0.1,1.1,0.1,1.7c0,1.1,0,2.3-0.1,3.4c-0.1,0.9,0.9,1.9,1.8,1.8c1-0.1,1.7-0.8,1.8-1.8c0.2-2.5,0.1-4.9-0.3-7.4
			c-0.1-0.4-0.5-0.9-0.8-1.1c-0.4-0.2-1-0.3-1.4-0.2c-0.4,0.1-0.9,0.4-1.1,0.8C899.7,102.1,899.7,102.5,899.8,103L899.8,103z"/>
	</g>
</g>
<path class="st11" d="M514.5,205.8c-7.5-37.9-10-43.3-13.5-47.8c-4.5-3.5-9.9-6.1-47.8-13.5c37.9-7.5,43.3-10,47.8-13.5
	c3.5-4.5,6-9.9,13.5-47.8c7.5,37.9,10,43.3,13.5,47.8c4.5,3.5,9.9,6.1,47.8,13.5c-37.9,7.4-43.3,10-47.8,13.5
	C524.6,162.5,522,167.9,514.5,205.8z"/>
<path class="st11" d="M313.9,58l15.1,1.5l-15.1,1.5c-2.8,0.5-5,2.6-5.4,5.4L307,81.4l-1.5-15.1c-0.5-2.8-2.6-5-5.4-5.4L285,59.4
	l15.1-1.5c2.8-0.5,5-2.7,5.4-5.4l1.5-15.1l1.5,15.1C308.9,55.4,311.1,57.5,313.9,58z"/>
<path class="st11" d="M1006,144.2l6,0.6l-6,0.6c-1.1,0.2-2,1-2.1,2.1l-0.6,5.9l-0.6-5.9c-0.2-1.1-1-2-2.1-2.1l-6-0.6l6-0.6
	c1.1-0.2,2-1,2.1-2.1l0.6-5.9l0.6,5.9C1004,143.1,1004.9,144,1006,144.2z"/>
<path class="st11" d="M763.6,132.8l6,0.6l-6,0.6c-1.1,0.2-2,1-2.1,2.1l-0.6,5.9l-0.6-5.9c-0.2-1.1-1-2-2.1-2.1l-6-0.6l6-0.6
	c1.1-0.2,2-1,2.1-2.1l0.6-5.9l0.6,5.9C761.7,131.7,762.5,132.6,763.6,132.8z"/>
<path class="st11" d="M145.3,143.5l16.7,1.3l-16.7,1.3c-10.9,0.8-19.6,9.5-20.4,20.4l-1.3,16.7l-1.3-16.7
	c-0.8-10.9-9.5-19.6-20.4-20.4l-16.7-1.3l16.7-1.3c10.9-0.8,19.6-9.5,20.4-20.4l1.3-16.7l1.3,16.7
	C125.7,134,134.4,142.6,145.3,143.5z"/>
<path class="st11" d="M944.1,14.2l6.4,0.5l-6.4,0.5c-4.2,0.3-7.5,3.6-7.8,7.8l-0.5,6.4l-0.5-6.4c-0.3-4.2-3.6-7.5-7.8-7.8l-6.4-0.5
	l6.4-0.5c4.2-0.3,7.5-3.6,7.8-7.8l0.5-6.4l0.5,6.4C936.6,10.5,939.9,13.9,944.1,14.2z"/>
<path class="st11" d="M645.6,60.5l-32.5-1l32.5-1c8.1-1.3,10.9-4.2,12.3-12.3l1-32.5l1,32.5c1.3,8.1,4.2,10.9,12.3,12.3l32.5,1
	l-32.5,1c-8.1,1.3-10.9,4.2-12.3,12.3l-1,32.5l-1-32.5C656.5,64.6,653.7,61.8,645.6,60.5z"/>
</svg>
