<?xml version="1.0" encoding="utf-8"?>
<!-- Generator: Adobe Illustrator 23.0.0, SVG Export Plug-In . SVG Version: 6.00 Build 0)  -->
<svg version="1.1" xmlns="http://www.w3.org/2000/svg" xmlns:xlink="http://www.w3.org/1999/xlink" x="0px" y="0px"
	 viewBox="0 0 121.17 124.1" style="enable-background:new 0 0 121.17 124.1;" xml:space="preserve">
<style type="text/css">
	.st0{display:none;}
	.st1{display:inline;}
	.st2{fill:#96613C;}
	.st3{fill:#EDBA94;}
	.st4{fill:#69514C;}
	.st5{fill:#C17A49;}
	.st6{fill:#AB6E43;}
	.st7{fill:#231F20;}
	.st8{fill:#FFFFFF;}
	.st9{opacity:0.3;fill:#FFFFFF;}
	.st10{fill:#F6A044;}
	.st11{fill:#F2BC40;}
	.st12{fill:#DDCFB8;}
	.st13{fill:#F7E8CC;}
	.st14{fill:#EADBC4;}
</style>
<g id="Capa_1" class="st0">
	<g class="st1">
		<path class="st2" d="M26.04,39.27c-5.66-0.42-11.35,0.68-16.72,2.5c-0.36,0.12-0.75,0.27-0.93,0.6c-0.22,0.39-0.07,0.88,0.1,1.3
			c2.42,6.04,7.71,10.51,13.42,13.63c4.12,2.25,8.84,3.97,13.45,3.07c4.61-0.9,8.78-5.22,8.07-9.85
			C42.21,42.68,32.89,39.77,26.04,39.27z"/>
		<path class="st3" d="M15.67,43.68c3.92,4.36,8.49,8.16,13.6,11.03c1.79,1,4.03,1.89,5.79,0.85c0.95-0.56,1.54-1.58,2-2.59
			c0.74-1.61,2.52-5.14,1.06-6.45c-1.65-1.48-5.04-2.21-7.14-2.73C25.99,42.52,20.68,42.46,15.67,43.68z"/>
		<path class="st4" d="M25.34,23.83c-1.17-8,1.88-16.5,7.88-21.93c0.8-0.72,2.21-1.32,2.78-0.41c0.38,0.61-0.01,1.39-0.36,2.03
			c-2.73,5.05-1.93,11.55,1.17,16.38c3.1,4.84,8.19,8.14,13.62,10.03c1.4,0.49,2.98,1.01,3.64,2.34c0.34,0.68,0.37,1.46,0.32,2.21
			c-0.26,3.67-2.62,7.12-5.96,8.67C37.43,48.27,26.68,33.03,25.34,23.83z"/>
		<path class="st5" d="M82.47,41.78c3.12,6.29,3.22,13.65,2.37,20.62c-2.56,21.2-13.8,41.56-31.4,53.65
			c-3.53,2.42-7.32,4.53-11.41,5.78c-11.96,3.66-25.98-0.97-33.42-11.02c-7.44-10.05-7.75-24.82-0.75-35.18
			c5.46-8.08,14.43-13.09,20.78-20.49c5.17-6.02,8.53-13.55,14.43-18.85C54.39,26.1,75.13,27,82.47,41.78z"/>
		<path class="st3" d="M53.15,116.23c-3.45,2.34-7.15,4.37-11.13,5.59c-11.96,3.66-25.98-0.97-33.42-11.02
			c-7.34-9.93-7.74-24.45-1-34.79c6.07-2.41,13.17-0.96,19.41,1.24c9.75,3.45,19.33,9.01,24.49,17.98
			C55.08,101.45,55.39,109.29,53.15,116.23z"/>
		<path class="st6" d="M80.74,61.46c-0.72,0.19-1.46,0.42-2.35,0.36c-0.6-1.7-1.19-3.48-0.43-4.99c0.77-1.52,3.32-2.7,6.4-2.29
			c1.58,0.21,3.07,0.81,4.25,1.52c1.07,0.65,1.93,1.42,2.21,2.22C91.84,61.11,83.91,60.6,80.74,61.46z"/>
		<path class="st4" d="M106.47,52.25c6.26-5.12,9.75-13.45,8.99-21.5c-0.1-1.07-0.74-2.46-1.77-2.18c-0.69,0.19-0.93,1.04-1.1,1.74
			c-1.4,5.57-6.37,9.82-11.92,11.3c-5.55,1.48-11.54,0.47-16.82-1.79c-1.36-0.58-2.88-1.26-4.26-0.73c-0.7,0.27-1.26,0.83-1.73,1.42
			c-2.29,2.88-2.87,7.03-1.46,10.42C81.05,62.12,99.26,58.13,106.47,52.25z"/>
		<g>
			<path class="st6" d="M65.78,67.6c1.48-1.33,2.55-3.19,2.68-5.17c0.13-1.99-0.77-4.08-2.46-5.13c-1.1-0.68-2.44-0.9-3.74-0.83
				c-3.7,0.19-7.17,2.74-8.45,6.21c-0.35,0.94-0.55,1.95-0.43,2.94C54.17,72.18,62.33,70.71,65.78,67.6z"/>
			<path class="st7" d="M52.67,66.78c0.41,2.57,2.83,4.31,5.4,3.9c2.57-0.41,4.31-2.83,3.9-5.4c-0.41-2.57-2.83-4.31-5.4-3.9
				C54,61.79,52.25,64.21,52.67,66.78z"/>
			<path class="st8" d="M57.39,66.39c0.56,0.74,1.61,0.9,2.36,0.34c0.74-0.56,0.9-1.61,0.34-2.36c-0.56-0.74-1.61-0.9-2.36-0.34
				C56.99,64.59,56.84,65.64,57.39,66.39z"/>
		</g>
		<g>
			<path class="st6" d="M40.27,58.23c1.13-1.43,1.95-3.34,2.06-5.33c0.1-1.99-0.58-4-1.87-4.93c-0.84-0.6-1.87-0.73-2.86-0.57
				c-2.83,0.44-5.48,3.21-6.47,6.75c-0.27,0.96-0.42,1.97-0.33,2.95C31.38,63.57,37.63,61.55,40.27,58.23z"/>
			<path class="st7" d="M30.25,58.3c0.31,2.52,2.16,4.09,4.12,3.5c1.96-0.59,3.3-3.11,2.99-5.64c-0.31-2.52-2.16-4.09-4.12-3.5
				C31.27,53.26,29.94,55.78,30.25,58.3z"/>
			<path class="st8" d="M33.86,57.59c0.42,0.7,1.23,0.78,1.8,0.17c0.57-0.61,0.69-1.66,0.26-2.37c-0.42-0.7-1.23-0.78-1.8-0.17
				C33.55,55.83,33.44,56.89,33.86,57.59z"/>
		</g>
		<path class="st7" d="M32.59,90.36c0.29-0.12,0.64-0.1,0.91,0.06c0.32,0.59-0.08,1.32-0.57,1.79c-0.49,0.47-1.1,0.87-1.31,1.51
			c-0.17,0.51-0.05,1.06-0.13,1.59c-0.07,0.53-0.5,1.1-1.02,1c-0.44-0.09-0.65-0.59-0.76-1.02c-0.3-1.18-0.43-2.48,0.09-3.57
			c0.52-1.1,1.88-1.87,3-1.38L32.59,90.36z"/>
		<path class="st7" d="M14.72,84.1c0.29-0.12,0.64-0.1,0.91,0.06c0.32,0.59-0.08,1.32-0.57,1.79c-0.49,0.47-1.1,0.87-1.31,1.51
			c-0.17,0.51-0.05,1.06-0.13,1.59c-0.07,0.53-0.5,1.1-1.02,1c-0.44-0.09-0.65-0.59-0.76-1.02c-0.3-1.18-0.43-2.48,0.09-3.57
			c0.52-1.1,1.88-1.87,3-1.38L14.72,84.1z"/>
		<path class="st9" d="M44.74,29.21c0.67,0.32,1.48,0.85,1.3,1.56c-0.12,0.47-0.63,0.72-1.1,0.84c-2.53,0.64-5.1-0.77-7.19-2.33
			c-1.53-1.14-2.98-2.41-4.09-3.96c-1.11-1.55-1.85-3.41-1.84-5.31c0-0.42,0.08-0.89,0.42-1.13c0.25-0.17,0.57-0.17,0.86-0.1
			c1.96,0.51,2.93,3.83,4.28,5.25C39.44,26.17,42.09,27.95,44.74,29.21z"/>
		<path class="st9" d="M31.49,11.12c0.65,1.24,0.9,2.68,0.73,4.07c-0.05,0.39-0.15,0.8-0.44,1.05c-0.44,0.37-1.16,0.2-1.54-0.23
			c-0.38-0.43-0.5-1.03-0.53-1.61c-0.07-1.23,0.18-2.47,0.72-3.58c0.27,0.04,0.54,0.07,0.81,0.11L31.49,11.12z"/>
		<path class="st9" d="M111.52,42.31c-1.64,2.25-3.33,4.47-5.07,6.64c-0.53,0.66-1.09,1.34-1.85,1.73
			c-0.76,0.38-1.78,0.38-2.37-0.22c-0.92-0.94-0.25-2.6,0.83-3.35c1.08-0.74,2.44-0.97,3.56-1.66c1.95-1.2,2.59-3.38,4.02-5.02
			C112.86,37.89,112.95,40.33,111.52,42.31z"/>
		<path class="st9" d="M99.3,50.3c0.75,0.72,0.41,2.07-0.39,2.72c-0.81,0.65-1.9,0.79-2.93,0.91c-0.9,0.1-1.95,0.16-2.59-0.49
			c-0.69-0.7-0.5-1.97,0.22-2.65c0.71-0.68,1.78-0.87,2.76-0.8c0.98,0.07,1.94,0.36,2.91,0.5L99.3,50.3z"/>
		<path class="st10" d="M41.99,33.57c-2.24,5.26-1.15,11.42,2,16.27c-0.04-1.64,0.67-3.29,1.94-4.44c1.7,4.68,1.36,9.96-0.92,14.42
			c5.34-1.78,10.28-4.59,14.4-8.2c0.02,2.36-0.25,4.72-0.82,7.01c5.11-1.13,9.61-3.87,13.92-6.67c3.38-2.2,6.78-4.52,9.12-7.67
			c2.34-3.15,3.47-7.32,1.92-10.86c-0.81-1.86-2.3-3.42-3.99-4.69C69.44,21.16,47.59,20.44,41.99,33.57z"/>
		<g>
			<path class="st11" d="M54.14,47.8c0.49-2.46,1.16-4.89,1.99-7.26c0.14-0.41-0.16-0.89-0.57-1c-0.45-0.12-0.85,0.15-1,0.57
				c-0.83,2.37-1.49,4.79-1.99,7.26c-0.09,0.43,0.12,0.88,0.57,1C53.54,48.48,54.06,48.23,54.14,47.8L54.14,47.8z"/>
		</g>
		<g>
			<path class="st11" d="M46.37,42.87c0.06-1.87,0.12-3.75,0.18-5.62c0.01-0.44-0.38-0.81-0.81-0.81c-0.45,0-0.8,0.37-0.81,0.81
				c-0.06,1.87-0.12,3.75-0.18,5.62c-0.01,0.44,0.38,0.81,0.81,0.81C46.01,43.69,46.36,43.31,46.37,42.87L46.37,42.87z"/>
		</g>
		<g>
			<path class="st11" d="M50.68,47.02c-0.25-1.71-0.17-3.51,0.23-5.19c0.1-0.43-0.13-0.88-0.57-1c-0.41-0.11-0.9,0.14-1,0.57
				c-0.46,2-0.53,4.03-0.23,6.06c0.06,0.43,0.61,0.67,1,0.57C50.57,47.89,50.74,47.45,50.68,47.02L50.68,47.02z"/>
		</g>
		<g>
			<path class="st11" d="M50.17,55.07c0.65-0.8,1.35-1.55,2.11-2.24c0.32-0.29,0.31-0.86,0-1.15c-0.34-0.31-0.81-0.31-1.15,0
				c-0.76,0.69-1.47,1.44-2.11,2.24c-0.14,0.17-0.24,0.34-0.24,0.57c0,0.2,0.09,0.44,0.24,0.58c0.15,0.14,0.36,0.25,0.57,0.24
				C49.8,55.3,50.04,55.23,50.17,55.07L50.17,55.07z"/>
		</g>
		<g>
			<path class="st11" d="M62.47,51.78c1.62-1.29,3.34-2.52,5.11-3.66c0.37-0.24,0.52-0.72,0.29-1.11c-0.21-0.37-0.74-0.53-1.11-0.29
				c-1.88,1.21-3.69,2.52-5.43,3.92c-0.34,0.27-0.29,0.86,0,1.15C61.66,52.12,62.13,52.06,62.47,51.78L62.47,51.78z"/>
		</g>
		<g>
			<path class="st11" d="M62.5,43.6c0.01-0.18,0.03-0.36,0.05-0.54c0.01-0.1,0.01-0.1,0-0.01c0.01-0.05,0.02-0.1,0.02-0.15
				c0.01-0.08,0.03-0.15,0.04-0.23c0.07-0.37,0.16-0.73,0.27-1.09c0.05-0.17,0.11-0.35,0.17-0.52c0.03-0.09,0.06-0.17,0.1-0.25
				c0.02-0.05,0.04-0.1,0.06-0.14c-0.03,0.06-0.03,0.07-0.01,0.02c0.15-0.34,0.32-0.68,0.5-1c0.21-0.37,0.1-0.91-0.29-1.11
				c-0.39-0.2-0.89-0.1-1.11,0.29c-0.83,1.46-1.31,3.08-1.43,4.75c-0.03,0.43,0.4,0.83,0.81,0.81C62.15,44.39,62.47,44.05,62.5,43.6
				L62.5,43.6z"/>
		</g>
		<g>
			<path class="st11" d="M73.15,47.33c1.53-1.15,2.96-2.42,4.25-3.83c0.29-0.31,0.33-0.84,0-1.15c-0.31-0.29-0.84-0.34-1.15,0
				c-0.61,0.67-1.25,1.31-1.93,1.92c-0.33,0.3-0.67,0.59-1.01,0.88c-0.17,0.14-0.35,0.28-0.52,0.42c-0.04,0.03-0.08,0.06-0.12,0.09
				c-0.04,0.03-0.13,0.1-0.04,0.03c-0.1,0.08-0.2,0.15-0.3,0.23c-0.34,0.25-0.55,0.71-0.29,1.11
				C72.26,47.38,72.79,47.61,73.15,47.33L73.15,47.33z"/>
		</g>
		<g>
			<path class="st11" d="M73.19,38.92c0.11-0.37,0.22-0.74,0.36-1.11c0.07-0.19,0.15-0.39,0.23-0.58c-0.06,0.14,0.06-0.14,0.07-0.16
				c0.04-0.08,0.07-0.16,0.11-0.25c0.33-0.71,0.72-1.4,1.16-2.06c0.24-0.35,0.08-0.92-0.29-1.11c-0.41-0.22-0.86-0.09-1.11,0.29
				c-0.93,1.39-1.64,2.93-2.09,4.54c-0.12,0.41,0.14,0.9,0.57,1C72.62,39.59,73.07,39.36,73.19,38.92L73.19,38.92z"/>
		</g>
		<g>
			<path class="st11" d="M67.34,30.25c0.03-0.03,0.05-0.07,0.08-0.1c0.08-0.11,0.03-0.01-0.02,0.02c0.06-0.03,0.12-0.15,0.16-0.2
				c0.11-0.13,0.22-0.26,0.33-0.39c0.22-0.24,0.46-0.48,0.71-0.7c0.12-0.11,0.24-0.21,0.37-0.31c0.03-0.03,0.07-0.05,0.1-0.08
				c0.08-0.06-0.14,0.11-0.02,0.02c0.07-0.05,0.14-0.1,0.21-0.15c0.28-0.2,0.56-0.38,0.86-0.55c0.37-0.21,0.53-0.75,0.29-1.11
				c-0.24-0.37-0.72-0.52-1.11-0.29c-1.33,0.76-2.45,1.8-3.35,3.03c-0.12,0.16-0.13,0.44-0.08,0.63c0.05,0.19,0.2,0.39,0.37,0.49
				c0.19,0.1,0.42,0.15,0.63,0.08C67.06,30.55,67.2,30.43,67.34,30.25L67.34,30.25z"/>
		</g>
		<g>
			<path class="st11" d="M54.87,33.3c0.11-0.36,0.24-0.71,0.37-1.06c0.04-0.09,0.07-0.19,0.11-0.28c-0.07,0.15,0.05-0.12,0.07-0.15
				c0.08-0.17,0.16-0.34,0.24-0.51c0.33-0.68,0.72-1.34,1.15-1.97c0.24-0.35,0.08-0.92-0.29-1.11c-0.41-0.22-0.86-0.08-1.11,0.29
				c-0.91,1.34-1.62,2.81-2.1,4.35c-0.13,0.41,0.15,0.91,0.57,1C54.31,33.96,54.73,33.73,54.87,33.3L54.87,33.3z"/>
		</g>
		<g>
			<path class="st11" d="M60.71,35.81c-0.02-0.28-0.01-0.55,0.03-0.83c-0.01,0.07-0.02,0.14-0.03,0.22c0.05-0.4,0.16-0.79,0.32-1.16
				c-0.03,0.06-0.05,0.13-0.08,0.19c0.11-0.26,0.24-0.5,0.4-0.73c0.24-0.35,0.08-0.92-0.29-1.11c-0.41-0.22-0.86-0.09-1.11,0.29
				c-0.61,0.91-0.91,2.04-0.85,3.13c0.02,0.42,0.36,0.83,0.81,0.81C60.32,36.6,60.74,36.26,60.71,35.81L60.71,35.81z"/>
		</g>
		<g>
			<path class="st11" d="M47.13,31.82c0.11-0.17,0.22-0.34,0.34-0.51c0.06-0.09,0.13-0.17,0.19-0.26c0.09-0.12-0.06,0.08,0,0
				c0.03-0.04,0.06-0.08,0.09-0.12c0.26-0.32,0.53-0.63,0.82-0.92c0.28-0.28,0.58-0.55,0.89-0.81c0.04-0.03,0.08-0.06,0.11-0.09
				c0.16-0.13-0.14,0.1,0.02-0.02c0.08-0.06,0.16-0.12,0.24-0.17c0.17-0.13,0.35-0.25,0.53-0.36c0.36-0.23,0.54-0.73,0.29-1.11
				c-0.23-0.36-0.73-0.54-1.11-0.29c-1.54,0.98-2.85,2.29-3.83,3.83c-0.23,0.36-0.09,0.91,0.29,1.11
				C46.42,32.33,46.89,32.21,47.13,31.82L47.13,31.82z"/>
		</g>
		<g>
			<path class="st11" d="M79.9,37.47c0.21-1.27,0.32-2.55,0.29-3.84c-0.01-0.43-0.37-0.83-0.81-0.81c-0.43,0.02-0.82,0.36-0.81,0.81
				c0.01,0.59,0,1.19-0.04,1.78c-0.02,0.29-0.05,0.58-0.08,0.87c-0.01,0.07-0.02,0.14-0.03,0.21c-0.02,0.2,0.02-0.12-0.01,0.06
				c-0.02,0.16-0.05,0.32-0.08,0.48c-0.07,0.42,0.11,0.9,0.57,1C79.29,38.13,79.82,37.92,79.9,37.47L79.9,37.47z"/>
		</g>
		<g>
			<path class="st11" d="M59.19,26.47c0.79,0,1.57,0,2.36,0c0.43,0,0.83-0.37,0.81-0.81c-0.02-0.44-0.36-0.81-0.81-0.81
				c-0.79,0-1.57,0-2.36,0c-0.43,0-0.83,0.37-0.81,0.81C58.39,26.09,58.73,26.47,59.19,26.47L59.19,26.47z"/>
		</g>
		<path class="st4" d="M15.35,110.47c0,0,4.95,4.27,8.91,3.36c3.95-0.92,6.86-6.27,6.86-6.27s-2.72,7.33-6.51,8.08
			C18.15,116.92,15.35,110.47,15.35,110.47z"/>
		<path class="st5" d="M106.56,67.05c4.04,4.27,6.83,9.85,11.81,12.96c-3.15,1.38-6.57,2.02-9.97,2.57
			c-4.32,0.7-8.68,1.27-13.05,1.14c-4.37-0.13-8.78-0.98-12.66-2.99c-3.12-1.62-5.86-3.98-7.92-6.84c-0.79-1.09-1.49-2.27-1.87-3.56
			c-0.96-3.21,0.23-6.88,2.68-9.15c3.14-2.91,7.87-3.18,11.92-2.94c4.6,0.27,9.12,1.68,13.07,4.04
			C102.77,63.59,104.8,65.19,106.56,67.05z"/>
		<path class="st3" d="M79.52,66.19c0-0.53-0.27-1.03-0.24-1.56c0.06-1.14,1.39-1.73,2.53-1.82c2.13-0.17,4.24,0.5,6.24,1.26
			c7.22,2.73,13.97,6.68,19.89,11.63c-1.89,1.01-3.96,1.69-6.08,2c-3.16,0.46-6.38,0.11-9.52-0.45c-5.47-0.97-11.01-2.66-15.18-6.33
			c-0.56-0.49-1.11-1.05-1.29-1.78c-0.18-0.72,0.17-1.62,0.9-1.79C77.6,67.14,79.5,67.76,79.52,66.19z"/>
		<path class="st9" d="M106.87,70.05c0.15,0.32,0.25,0.78-0.05,0.97c-0.1,0.06-0.22,0.08-0.34,0.08c-1.21,0-2-1.22-2.76-2.17
			c-2.31-2.88-6.06-4.07-9.34-5.77c-0.35-0.18-0.75-0.58-0.52-0.9c0.1-0.14,0.28-0.18,0.45-0.2c2.46-0.36,5.15,1.14,7.23,2.33
			C103.86,65.69,105.76,67.63,106.87,70.05z"/>
	</g>
</g>
<g id="Capa_2">
	<g>
		<path class="st12" d="M19.21,40.28c-5.78,0.55-11.33,2.63-16.44,5.38c-0.34,0.18-0.71,0.4-0.84,0.77c-0.16,0.43,0.08,0.9,0.32,1.3
			c3.47,5.68,9.57,9.28,15.86,11.45c4.54,1.57,9.59,2.49,14.08,0.8c4.49-1.69,7.96-6.76,6.46-11.32
			C36.11,40.95,26.21,39.62,19.21,40.28z"/>
		<path class="st3" d="M9.51,46.5c4.7,3.72,9.96,6.77,15.6,8.79c1.97,0.71,4.39,1.21,5.99-0.14c0.87-0.73,1.28-1.86,1.57-2.95
			c0.47-1.75,1.66-5.61-0.03-6.69c-1.91-1.22-5.47-1.36-7.67-1.54C19.72,43.57,14.36,44.42,9.51,46.5z"/>
		<path class="st4" d="M15.86,24.83c-2.55-7.87-0.92-16.96,4.2-23.46c0.68-0.86,2-1.71,2.73-0.89c0.49,0.55,0.22,1.41-0.01,2.1
			c-1.89,5.56,0.03,11.97,3.98,16.32c3.95,4.35,9.65,6.8,15.45,7.78c1.49,0.25,3.17,0.51,4.07,1.73c0.46,0.62,0.63,1.41,0.7,2.18
			c0.37,3.75-1.43,7.63-4.53,9.77C32.24,47.41,18.8,33.88,15.86,24.83z"/>
		<path class="st13" d="M76.55,33.16c4.22,5.81,5.58,13.22,5.92,20.39c1.04,21.82-6.81,44.27-22.49,59.47
			c-3.15,3.05-6.61,5.82-10.52,7.78c-11.43,5.73-26.37,3.47-35.59-5.4C4.64,106.53,1.8,91.7,7.08,80.05
			c4.12-9.08,12.31-15.67,17.45-24.22c4.18-6.95,6.29-15.13,11.33-21.48C45.55,22.15,66.62,19.52,76.55,33.16z"/>
		<path class="st14" d="M76.42,53.31c-0.37,0.32-0.74,0.67-1.22,0.76c-0.47-1.62-0.95-3.3-0.68-4.96c0.27-1.66,1.53-3.29,3.21-3.4
			c0.86-0.06,1.72,0.29,2.41,0.81c0.63,0.47,1.16,1.1,1.38,1.86C82.32,51.05,78.03,51.9,76.42,53.31z"/>
		<path class="st4" d="M102.54,39.61c5.44-6.23,7.53-15.23,5.38-23.22c-0.28-1.06-1.17-2.36-2.16-1.89
			c-0.67,0.31-0.76,1.2-0.82,1.94c-0.46,5.86-4.74,10.99-10.09,13.43c-5.34,2.44-11.55,2.45-17.26,1.07
			c-1.47-0.36-3.12-0.78-4.42-0.01c-0.66,0.39-1.13,1.05-1.5,1.72c-1.82,3.3-1.69,7.57,0.31,10.76
			C78.6,53.92,96.28,46.78,102.54,39.61z"/>
		<g>
			<path class="st14" d="M64.14,62.06c1.26-1.6,2.03-3.65,1.82-5.68c-0.21-2.03-1.48-3.98-3.36-4.75c-1.23-0.5-2.62-0.49-3.91-0.2
				c-3.7,0.82-6.76,3.99-7.46,7.71c-0.19,1.01-0.22,2.06,0.07,3.04C53.2,68.66,61.19,65.78,64.14,62.06z"/>
			<path class="st7" d="M50.77,63.47c0.86,2.52,3.59,3.86,6.11,3.01c2.52-0.86,3.86-3.59,3.01-6.11c-0.86-2.52-3.59-3.86-6.11-3.01
				C51.26,58.21,49.91,60.95,50.77,63.47z"/>
			<path class="st8" d="M55.47,62.27c0.69,0.66,1.78,0.63,2.43-0.06c0.66-0.69,0.63-1.78-0.06-2.43c-0.69-0.66-1.78-0.63-2.43,0.06
				C54.75,60.52,54.78,61.61,55.47,62.27z"/>
		</g>
		<g>
			<path class="st14" d="M36.8,56.96c0.9-1.63,1.4-3.71,1.16-5.73c-0.23-2.02-1.27-3.93-2.73-4.65c-0.95-0.47-2.01-0.41-2.98-0.09
				c-2.77,0.93-4.98,4.18-5.37,7.92c-0.11,1.01-0.09,2.06,0.17,3.04C28.76,63.87,34.71,60.77,36.8,56.96z"/>
			<path class="st7" d="M26.71,58.76c0.75,2.49,2.87,3.76,4.75,2.83c1.88-0.93,2.8-3.7,2.05-6.19c-0.75-2.49-2.87-3.76-4.75-2.83
				C26.88,53.49,25.97,56.27,26.71,58.76z"/>
			<path class="st8" d="M30.23,57.42c0.55,0.63,1.37,0.58,1.85-0.13c0.47-0.71,0.41-1.8-0.14-2.43c-0.55-0.63-1.37-0.58-1.85,0.13
				C29.62,55.7,29.69,56.79,30.23,57.42z"/>
		</g>
		<path class="st13" d="M70.25,18.93c-3.1-0.16-6.24,0.99-8.51,3.09c-1.1-4.24-3.53-8.13-6.85-10.99c0.83,3.27,0.65,6.79-0.49,9.96
			c-2.23-2.36-5.35-3.86-8.58-4.15c2.37,1.2,3.82,4.01,3.42,6.63c-0.21,1.36-0.86,2.73-0.51,4.06c0.29,1.11,1.25,1.94,2.31,2.38
			c1.06,0.43,2.23,0.52,3.37,0.6c3.17,0.2,9.27,0.97,11.1-2.42c0.69-1.29,0.32-3.02,0.75-4.39C66.91,21.59,68.51,20.2,70.25,18.93z"
			/>
		<path class="st9" d="M36.36,26.94c0.73,0.2,1.64,0.6,1.58,1.35c-0.04,0.49-0.51,0.83-0.96,1.04c-2.44,1.08-5.27,0.1-7.65-1.12
			c-1.73-0.89-3.42-1.92-4.8-3.29s-2.45-3.12-2.76-5.04c-0.07-0.42-0.08-0.91,0.23-1.21c0.22-0.21,0.55-0.27,0.85-0.24
			c2.07,0.17,3.61,3.37,5.21,4.56C30.49,24.78,33.46,26.12,36.36,26.94z"/>
		<path class="st9" d="M19.9,10.96c0.86,1.14,1.37,2.55,1.43,3.98c0.02,0.4-0.01,0.83-0.27,1.13c-0.38,0.45-1.14,0.4-1.59,0.03
			c-0.46-0.37-0.68-0.96-0.81-1.53c-0.28-1.23-0.24-2.53,0.11-3.73c0.28-0.01,0.55-0.02,0.83-0.03L19.9,10.96z"/>
		<path class="st9" d="M105.93,28.73c-1.27,2.55-2.59,5.07-3.98,7.57c-0.42,0.76-0.87,1.54-1.57,2.06c-0.7,0.52-1.73,0.69-2.43,0.18
			c-1.09-0.79-0.69-2.58,0.27-3.52c0.96-0.93,2.29-1.4,3.3-2.28c1.77-1.54,2.03-3.86,3.2-5.76
			C106.53,24.05,107.04,26.49,105.93,28.73z"/>
		<path class="st9" d="M94.98,38.88c0.88,0.6,0.77,2.02,0.07,2.82c-0.7,0.8-1.78,1.13-2.8,1.42c-0.89,0.26-1.94,0.49-2.69-0.05
			c-0.82-0.59-0.84-1.9-0.23-2.71c0.6-0.81,1.64-1.18,2.65-1.28c1-0.1,2.02,0.03,3.02,0.01L94.98,38.88z"/>
		<path class="st9" d="M105.99,57.5c0.2,0.3,0.38,0.74,0.11,0.99c-0.09,0.08-0.21,0.12-0.33,0.14c-1.22,0.21-2.22-0.89-3.15-1.71
			c-2.82-2.51-6.81-3.07-10.4-4.23c-0.38-0.12-0.86-0.46-0.68-0.82c0.08-0.16,0.26-0.23,0.42-0.28c2.42-0.78,5.38,0.27,7.69,1.11
			C102.21,53.62,104.45,55.25,105.99,57.5z"/>
		<path class="st5" d="M61.26,81.23c-4.57,7.91,1.15,18.38-1.49,27.18c-1.03,3.42-3.16,6.17-5.65,8.69c0.8-0.29,1.6-0.61,2.36-1.01
			c2.59-1.34,5.31-4.78,7.31-7.08c7.14-8.21,11.58-16.52,15.65-29.21C73.43,75.94,66.01,72.99,61.26,81.23z"/>
		<path class="st3" d="M59.72,113.26c-3.08,2.95-6.46,5.63-10.27,7.54c-11.43,5.73-26.37,3.47-35.59-5.4
			c-9.1-8.76-11.99-23.34-6.96-34.92c5.71-3.47,13.11-3.22,19.79-2.07c10.43,1.81,21.03,5.78,27.77,13.94
			C59.13,98.02,60.78,105.88,59.72,113.26z"/>
		<path class="st13" d="M105.16,54.53c4.8,3.61,8.57,8.76,14.12,11.05c-2.94,1.93-6.28,3.16-9.61,4.29
			c-4.23,1.44-8.53,2.76-12.96,3.38s-9.02,0.51-13.28-0.85c-3.43-1.1-6.59-3.02-9.16-5.54c-0.98-0.97-1.89-2.03-2.5-3.27
			c-1.52-3.07-0.95-6.97,1.14-9.69c2.67-3.47,7.39-4.55,11.52-5.01c4.68-0.52,9.48,0.14,13.87,1.84
			C100.75,51.68,103.07,52.96,105.16,54.53z"/>
		<path class="st3" d="M77.75,58.28c-0.09-0.53-0.45-1-0.51-1.53c-0.13-1.15,1.11-1.98,2.24-2.27c2.12-0.54,4.36-0.22,6.51,0.2
			c7.74,1.52,15.23,4.35,22.04,8.33c-1.73,1.34-3.7,2.38-5.79,3.06c-3.11,1.01-6.41,1.2-9.68,1.17c-5.68-0.05-11.56-0.8-16.39-3.79
			c-0.65-0.4-1.3-0.87-1.6-1.57c-0.3-0.7-0.1-1.67,0.6-1.96C75.97,59.57,78,59.87,77.75,58.28z"/>
		<path class="st7" d="M34.56,90.68c0.27-0.17,0.63-0.21,0.93-0.1c0.43,0.54,0.14,1.35-0.27,1.9c-0.41,0.55-0.96,1.06-1.06,1.75
			c-0.08,0.54,0.13,1.08,0.14,1.62c0.02,0.54-0.31,1.2-0.86,1.18c-0.46-0.01-0.75-0.48-0.94-0.9c-0.51-1.14-0.86-2.42-0.52-3.62
			c0.34-1.2,1.58-2.2,2.79-1.91L34.56,90.68z"/>
		<path class="st7" d="M15.46,87.43c0.27-0.17,0.63-0.21,0.93-0.1c0.43,0.54,0.14,1.35-0.27,1.9c-0.41,0.55-0.96,1.06-1.06,1.75
			c-0.08,0.54,0.13,1.08,0.14,1.62c0.02,0.54-0.31,1.2-0.86,1.18c-0.46-0.01-0.75-0.48-0.94-0.9c-0.51-1.14-0.86-2.42-0.52-3.62
			c0.34-1.2,1.58-2.2,2.79-1.91L15.46,87.43z"/>
		<path class="st4" d="M32.43,109.36c0,0-5.33,4.6-9.59,3.62c-4.26-0.99-7.39-6.75-7.39-6.75s2.93,7.9,7.02,8.71
			C29.41,116.31,32.43,109.36,32.43,109.36z"/>
		<g>
			<path class="st5" d="M52.56,31.88C50.1,37.18,46.6,42,42.3,45.95c-1.01,0.93-2.07,1.82-2.8,2.98c-0.73,1.16-1.08,2.65-0.54,3.91
				c0.87,2.01,3.52,2.5,5.69,2.26c1.09-0.12,2.2-0.38,3.1-1c1.32-0.91,2.02-2.45,2.94-3.75c1.64-2.31,4.46-4.06,7.24-3.49
				c0.5,0.1,1.01,0.28,1.52,0.25c0.86-0.06,1.59-0.7,2.04-1.44c1.35-2.2,0.8-5.02,0.18-7.52c-0.8-3.23-1.89-6.81-4.81-8.41
				c-0.23-0.13-0.48-0.24-0.74-0.24c-0.94,0.02-1.22,1.38-2.06,1.8"/>
		</g>
	</g>
</g>
</svg>
