<?xml version="1.0" encoding="utf-8"?>
<!-- Generator: Adobe Illustrator 23.0.0, SVG Export Plug-In . SVG Version: 6.00 Build 0)  -->
<svg version="1.1" id="Capa_1" xmlns="http://www.w3.org/2000/svg" xmlns:xlink="http://www.w3.org/1999/xlink" x="0px" y="0px"
	 viewBox="0 0 255.75 48.18" style="enable-background:new 0 0 255.75 48.18;" xml:space="preserve">
<style type="text/css">
	.st0{fill:#FFFFFF;}
	.st1{fill:#74B95C;}
</style>
<path class="st0" d="M231.66,48.18H24.09C10.84,48.18,0,37.34,0,24.09v0C0,10.84,10.84,0,24.09,0h207.57
	c13.25,0,24.09,10.84,24.09,24.09v0C255.75,37.34,244.91,48.18,231.66,48.18z"/>
<g>
	<g>
		<path class="st1" d="M72.57,19.03c0,0.55-0.2,1.01-0.6,1.36c-0.4,0.36-0.9,0.53-1.5,0.53s-1.1-0.18-1.5-0.53
			c-0.4-0.36-0.6-0.81-0.6-1.36s0.2-1.01,0.6-1.36c0.4-0.36,0.9-0.53,1.5-0.53s1.1,0.18,1.5,0.53
			C72.37,18.03,72.57,18.48,72.57,19.03z M68.91,22.52h3.07l0.48,11.17h-4.03L68.91,22.52z"/>
		<path class="st1" d="M88.52,27.49c-0.61,0.67-1.49,1.22-2.66,1.63c-1.17,0.41-2.45,0.62-3.84,0.62c-2.14,0-3.85-0.66-5.13-1.97
			s-1.97-3.13-2.06-5.47l-0.01-1.42c0-1.61,0.28-3.02,0.85-4.22c0.57-1.2,1.38-2.13,2.44-2.77c1.06-0.65,2.29-0.97,3.68-0.97
			c2.04,0,3.62,0.47,4.74,1.4c1.13,0.93,1.78,2.32,1.97,4.17h-3.8c-0.13-0.91-0.43-1.56-0.88-1.95s-1.09-0.58-1.91-0.58
			c-0.99,0-1.75,0.42-2.29,1.26s-0.81,2.04-0.82,3.59v0.99c0,1.63,0.28,2.86,0.84,3.68c0.56,0.82,1.44,1.23,2.63,1.23
			c1.03,0,1.79-0.23,2.29-0.69v-2.54h-2.74v-2.71h6.68V27.49z"/>
		<path class="st1" d="M100.1,26.46h-5.4l-0.94,3.05h-4.21l6-16.35h3.71l6.04,16.35h-4.23L100.1,26.46z M95.64,23.41h3.52
			l-1.76-5.67L95.64,23.41z"/>
		<path class="st1" d="M120.13,29.51h-3.92l-5.79-10.17v10.17h-3.94V13.16h3.94l5.78,10.17V13.16h3.93V29.51z"/>
		<path class="st1" d="M132.11,26.46h-5.4l-0.94,3.05h-4.21l6-16.35h3.71l6.04,16.35h-4.23L132.11,26.46z M127.65,23.41h3.52
			l-1.76-5.67L127.65,23.41z"/>
		<path class="st1" d="M146.93,25.17c0-0.58-0.2-1.03-0.61-1.35s-1.13-0.66-2.15-1c-1.03-0.34-1.86-0.68-2.52-1
			c-2.12-1.04-3.18-2.47-3.18-4.29c0-0.91,0.26-1.71,0.79-2.4c0.53-0.69,1.27-1.23,2.24-1.62c0.97-0.39,2.05-0.58,3.26-0.58
			c1.18,0,2.23,0.21,3.16,0.63c0.93,0.42,1.66,1.02,2.17,1.79c0.52,0.78,0.77,1.66,0.77,2.66h-3.93c0-0.67-0.2-1.18-0.61-1.55
			c-0.41-0.37-0.96-0.55-1.66-0.55c-0.7,0-1.26,0.16-1.67,0.47c-0.41,0.31-0.61,0.71-0.61,1.18c0,0.42,0.22,0.8,0.67,1.14
			c0.45,0.34,1.24,0.69,2.37,1.06c1.13,0.36,2.06,0.75,2.79,1.17c1.77,1.02,2.65,2.42,2.65,4.21c0,1.43-0.54,2.55-1.62,3.37
			s-2.56,1.22-4.44,1.22c-1.33,0-2.53-0.24-3.6-0.71c-1.07-0.48-1.88-1.13-2.43-1.95c-0.54-0.83-0.81-1.78-0.81-2.86h3.95
			c0,0.88,0.23,1.52,0.68,1.94c0.45,0.42,1.19,0.62,2.21,0.62c0.65,0,1.17-0.14,1.54-0.42C146.74,26.07,146.93,25.67,146.93,25.17z"
			/>
		<path class="st1" d="M165.73,16.2h-4.91v13.31h-3.94V16.2h-4.82v-3.04h13.67V16.2z"/>
		<path class="st1" d="M177.53,22.57h-6.2v3.91h7.32v3.03h-11.26V13.16h11.29v3.04h-7.34v3.45h6.2V22.57z"/>
		<path class="st1" d="M180.18,27.82c0-0.55,0.2-1.01,0.6-1.36c0.4-0.36,0.9-0.53,1.5-0.53c0.6,0,1.1,0.18,1.5,0.53
			c0.4,0.36,0.6,0.81,0.6,1.36s-0.2,1.01-0.6,1.36c-0.4,0.36-0.9,0.53-1.5,0.53c-0.6,0-1.1-0.18-1.5-0.53
			C180.38,28.82,180.18,28.37,180.18,27.82z M183.84,24.33h-3.07l-0.48-11.17h4.03L183.84,24.33z"/>
	</g>
</g>
</svg>
