<?xml version="1.0" encoding="utf-8"?>
<!-- Generator: Adobe Illustrator 23.0.0, SVG Export Plug-In . SVG Version: 6.00 Build 0)  -->
<svg version="1.1" id="Capa_1" xmlns="http://www.w3.org/2000/svg" xmlns:xlink="http://www.w3.org/1999/xlink" x="0px" y="0px"
	 viewBox="0 0 1540.5 617.5" style="enable-background:new 0 0 1540.5 617.5;" xml:space="preserve">
<style type="text/css">
	.st0{fill:#77C0EB;}
	.st1{fill:#FFFFFF;}
	.st2{fill:none;stroke:#77C0EB;stroke-width:5.6681;stroke-miterlimit:10;}
	.st3{fill:none;}
	.st4{font-family:'Roboto-Bold';}
	.st5{font-size:117.5921px;}
	.st6{fill:none;stroke:#FFFFFF;stroke-width:10;stroke-miterlimit:10;}
</style>
<g>
	<g>
		<g>
			<path class="st0" d="M405.91,381.5h-119.7c-11.73,0-21.33-9.6-21.33-21.33V246.61c0-11.73,9.6-21.33,21.33-21.33h119.7
				c11.73,0,21.33,9.6,21.33,21.33v113.57C427.24,371.9,417.64,381.5,405.91,381.5z"/>
			<path class="st1" d="M405.91,367.3h-119.7c-11.73,0-21.33-9.6-21.33-21.33V232.4c0-11.73,9.6-21.33,21.33-21.33h119.7
				c11.73,0,21.33,9.6,21.33,21.33v113.57C427.24,357.7,417.64,367.3,405.91,367.3z"/>
		</g>
		<g>
			<path class="st0" d="M621.12,385.5h-119.7c-11.73,0-21.33-9.6-21.33-21.33V250.61c0-11.73,9.6-21.33,21.33-21.33h119.7
				c11.73,0,21.33,9.6,21.33,21.33v113.57C642.45,375.9,632.86,385.5,621.12,385.5z"/>
			<path class="st1" d="M621.12,371.3h-119.7c-11.73,0-21.33-9.6-21.33-21.33V236.4c0-11.73,9.6-21.33,21.33-21.33h119.7
				c11.73,0,21.33,9.6,21.33,21.33v113.57C642.45,361.7,632.86,371.3,621.12,371.3z"/>
		</g>
		<g>
			<path class="st0" d="M829.57,381.5h-119.7c-11.73,0-21.33-9.6-21.33-21.33V246.61c0-11.73,9.6-21.33,21.33-21.33h119.7
				c11.73,0,21.33,9.6,21.33,21.33v113.57C850.9,371.9,841.3,381.5,829.57,381.5z"/>
			<path class="st1" d="M829.57,367.3h-119.7c-11.73,0-21.33-9.6-21.33-21.33V232.4c0-11.73,9.6-21.33,21.33-21.33h119.7
				c11.73,0,21.33,9.6,21.33,21.33v113.57C850.9,357.7,841.3,367.3,829.57,367.3z"/>
		</g>
		<g>
			<path class="st0" d="M1044.79,385.5h-119.7c-11.73,0-21.33-9.6-21.33-21.33V250.61c0-11.73,9.6-21.33,21.33-21.33h119.7
				c11.73,0,21.33,9.6,21.33,21.33v113.57C1066.12,375.9,1056.52,385.5,1044.79,385.5z"/>
			<path class="st1" d="M1044.79,371.3h-119.7c-11.73,0-21.33-9.6-21.33-21.33V236.4c0-11.73,9.6-21.33,21.33-21.33h119.7
				c11.73,0,21.33,9.6,21.33,21.33v113.57C1066.12,361.7,1056.52,371.3,1044.79,371.3z"/>
		</g>
		<line class="st2" x1="292.97" y1="335.91" x2="399.15" y2="335.91"/>
		<line class="st2" x1="508.19" y1="340.34" x2="614.37" y2="340.34"/>
		<line class="st2" x1="716.63" y1="336.34" x2="822.81" y2="336.34"/>
		<line class="st2" x1="931.85" y1="340.34" x2="1038.03" y2="340.34"/>
		<rect x="479.72" y="237.79" class="st3" width="162.35" height="126.83"/>
		<text transform="matrix(0.903 0 0 1 530.4316 325.9883)" class="st0 st4 st5">1</text>
		<g>
			<path class="st0" d="M405.91,374.68h-119.7c-11.73,0-21.33-9.6-21.33-21.33V239.79c0-11.73,9.6-21.33,21.33-21.33h119.7
				c11.73,0,21.33,9.6,21.33,21.33v113.57C427.24,365.09,417.64,374.68,405.91,374.68z"/>
			<path class="st1" d="M405.91,360.48h-119.7c-11.73,0-21.33-9.6-21.33-21.33V225.59c0-11.73,9.6-21.33,21.33-21.33h119.7
				c11.73,0,21.33,9.6,21.33,21.33v113.57C427.24,350.88,417.64,360.48,405.91,360.48z"/>
		</g>
		<g>
			<path class="st0" d="M621.12,378.68h-119.7c-11.73,0-21.33-9.6-21.33-21.33V243.79c0-11.73,9.6-21.33,21.33-21.33h119.7
				c11.73,0,21.33,9.6,21.33,21.33v113.57C642.45,369.09,632.86,378.68,621.12,378.68z"/>
			<path class="st1" d="M621.12,364.48h-119.7c-11.73,0-21.33-9.6-21.33-21.33V229.59c0-11.73,9.6-21.33,21.33-21.33h119.7
				c11.73,0,21.33,9.6,21.33,21.33v113.57C642.45,354.88,632.86,364.48,621.12,364.48z"/>
		</g>
		<g>
			<path class="st0" d="M829.57,374.68h-119.7c-11.73,0-21.33-9.6-21.33-21.33V239.79c0-11.73,9.6-21.33,21.33-21.33h119.7
				c11.73,0,21.33,9.6,21.33,21.33v113.57C850.9,365.09,841.3,374.68,829.57,374.68z"/>
			<path class="st1" d="M829.57,360.48h-119.7c-11.73,0-21.33-9.6-21.33-21.33V225.59c0-11.73,9.6-21.33,21.33-21.33h119.7
				c11.73,0,21.33,9.6,21.33,21.33v113.57C850.9,350.88,841.3,360.48,829.57,360.48z"/>
		</g>
		<g>
			<path class="st0" d="M1044.79,378.68h-119.7c-11.73,0-21.33-9.6-21.33-21.33V243.79c0-11.73,9.6-21.33,21.33-21.33h119.7
				c11.73,0,21.33,9.6,21.33,21.33v113.57C1066.12,369.09,1056.52,378.68,1044.79,378.68z"/>
			<path class="st1" d="M1044.79,364.48h-119.7c-11.73,0-21.33-9.6-21.33-21.33V229.59c0-11.73,9.6-21.33,21.33-21.33h119.7
				c11.73,0,21.33,9.6,21.33,21.33v113.57C1066.12,354.88,1056.52,364.48,1044.79,364.48z"/>
		</g>
	</g>
	<g>
		<path class="st1" d="M678.7,119.9h-11.6l-22.58-37.04v37.04h-11.6v-56.3h11.6l22.62,37.12V63.59h11.56V119.9z"/>
		<path class="st1" d="M688.02,67.23c0-1.68,0.56-3.05,1.68-4.14c1.12-1.08,2.65-1.62,4.58-1.62c1.91,0,3.43,0.54,4.56,1.62
			c1.13,1.08,1.7,2.46,1.7,4.14c0,1.7-0.57,3.09-1.72,4.18c-1.15,1.08-2.66,1.62-4.54,1.62c-1.88,0-3.4-0.54-4.54-1.62
			C688.59,70.32,688.02,68.93,688.02,67.23z M699.89,119.9h-11.21V78.05h11.21V119.9z"/>
		<path class="st1" d="M724.76,106.25l7.77-28.19h11.68l-14.11,41.84h-10.67L705.3,78.05h11.68L724.76,106.25z"/>
		<path class="st1" d="M767.87,120.67c-6.14,0-11.13-1.88-14.98-5.65c-3.85-3.76-5.78-8.78-5.78-15.04V98.9
			c0-4.2,0.81-7.96,2.44-11.27c1.62-3.31,3.93-5.86,6.9-7.66s6.37-2.69,10.19-2.69c5.72,0,10.23,1.81,13.51,5.41
			c3.29,3.61,4.93,8.73,4.93,15.35v4.56h-26.64c0.36,2.73,1.45,4.92,3.27,6.57c1.82,1.65,4.12,2.48,6.9,2.48
			c4.3,0,7.67-1.56,10.09-4.68l5.49,6.15c-1.68,2.37-3.94,4.22-6.8,5.55C774.52,120,771.35,120.67,767.87,120.67z M766.6,86.29
			c-2.22,0-4.02,0.75-5.39,2.25c-1.38,1.5-2.26,3.65-2.65,6.45h15.55V94.1c-0.05-2.49-0.72-4.41-2.01-5.77S768.97,86.29,766.6,86.29
			z"/>
		<path class="st1" d="M803.21,119.9H792V60.5h11.21V119.9z"/>
		<path class="st1" d="M870.27,119.9h-38.59v-7.66l18.21-19.41c2.5-2.73,4.35-5.12,5.55-7.15c1.2-2.04,1.8-3.97,1.8-5.8
			c0-2.5-0.63-4.47-1.89-5.9c-1.26-1.43-3.07-2.15-5.41-2.15c-2.53,0-4.52,0.87-5.97,2.61s-2.18,4.03-2.18,6.86h-11.21
			c0-3.43,0.82-6.56,2.46-9.4c1.64-2.83,3.95-5.06,6.94-6.67s6.38-2.42,10.17-2.42c5.8,0,10.31,1.39,13.52,4.18
			c3.21,2.78,4.81,6.72,4.81,11.79c0,2.78-0.72,5.62-2.17,8.51c-1.44,2.89-3.92,6.25-7.42,10.09l-12.8,13.5h24.21V119.9z"/>
	</g>
	<path class="st6" d="M1256.79,364.48h-119.7c-11.73,0-21.33-9.6-21.33-21.33V229.59c0-11.73,9.6-21.33,21.33-21.33h119.7
		c11.73,0,21.33,9.6,21.33,21.33v113.57C1278.12,354.88,1268.52,364.48,1256.79,364.48z"/>
	<path class="st6" d="M1490.39,612.5H50.11C25.3,612.5,5,592.2,5,567.39V50.11C5,25.3,25.3,5,50.11,5h1440.28
		c24.81,0,45.11,20.3,45.11,45.11v517.28C1535.5,592.2,1515.2,612.5,1490.39,612.5z"/>
	<g>
		<line class="st6" x1="1413.5" y1="270.5" x2="1413.5" y2="306.5"/>
		<line class="st6" x1="1395.5" y1="288.5" x2="1431.5" y2="288.5"/>
	</g>
	<line class="st6" x1="104.5" y1="288.5" x2="140.5" y2="288.5"/>
</g>
</svg>
