<?xml version="1.0" encoding="utf-8"?>
<!-- Generator: Adobe Illustrator 23.0.0, SVG Export Plug-In . SVG Version: 6.00 Build 0)  -->
<svg version="1.1" xmlns="http://www.w3.org/2000/svg" xmlns:xlink="http://www.w3.org/1999/xlink" x="0px" y="0px"
	 viewBox="0 0 1540.5 617.5" style="enable-background:new 0 0 1540.5 617.5;" xml:space="preserve">
<style type="text/css">
	.st0{fill:#77C0EB;}
	.st1{fill:#FFFFFF;}
	.st2{fill:none;stroke:#77C0EB;stroke-width:5.6681;stroke-miterlimit:10;}
	.st3{fill:none;}
	.st4{font-family:'Roboto-Bold';}
	.st5{font-size:117.5921px;}
	.st6{fill:none;stroke:#FFFFFF;stroke-width:10;stroke-miterlimit:10;}
</style>
<g id="Capa_2">
</g>
<g id="Capa_1">
	<g>
		<g>
			<g>
				<path class="st0" d="M405.9,381.5H286.2c-11.7,0-21.3-9.6-21.3-21.3V246.6c0-11.7,9.6-21.3,21.3-21.3h119.7
					c11.7,0,21.3,9.6,21.3,21.3v113.6C427.2,371.9,417.6,381.5,405.9,381.5z"/>
				<path class="st1" d="M405.9,367.3H286.2c-11.7,0-21.3-9.6-21.3-21.3V232.4c0-11.7,9.6-21.3,21.3-21.3h119.7
					c11.7,0,21.3,9.6,21.3,21.3V346C427.2,357.7,417.6,367.3,405.9,367.3z"/>
			</g>
			<g>
				<path class="st0" d="M621.1,385.5H501.4c-11.7,0-21.3-9.6-21.3-21.3V250.6c0-11.7,9.6-21.3,21.3-21.3h119.7
					c11.7,0,21.3,9.6,21.3,21.3v113.6C642.5,375.9,632.9,385.5,621.1,385.5z"/>
				<path class="st1" d="M621.1,371.3H501.4c-11.7,0-21.3-9.6-21.3-21.3V236.4c0-11.7,9.6-21.3,21.3-21.3h119.7
					c11.7,0,21.3,9.6,21.3,21.3V350C642.5,361.7,632.9,371.3,621.1,371.3z"/>
			</g>
			<g>
				<path class="st0" d="M829.6,381.5H709.9c-11.7,0-21.3-9.6-21.3-21.3V246.6c0-11.7,9.6-21.3,21.3-21.3h119.7
					c11.7,0,21.3,9.6,21.3,21.3v113.6C850.9,371.9,841.3,381.5,829.6,381.5z"/>
				<path class="st1" d="M829.6,367.3H709.9c-11.7,0-21.3-9.6-21.3-21.3V232.4c0-11.7,9.6-21.3,21.3-21.3h119.7
					c11.7,0,21.3,9.6,21.3,21.3V346C850.9,357.7,841.3,367.3,829.6,367.3z"/>
			</g>
			<g>
				<path class="st0" d="M1044.8,385.5H925.1c-11.7,0-21.3-9.6-21.3-21.3V250.6c0-11.7,9.6-21.3,21.3-21.3h119.7
					c11.7,0,21.3,9.6,21.3,21.3v113.6C1066.1,375.9,1056.5,385.5,1044.8,385.5z"/>
				<path class="st1" d="M1044.8,371.3H925.1c-11.7,0-21.3-9.6-21.3-21.3V236.4c0-11.7,9.6-21.3,21.3-21.3h119.7
					c11.7,0,21.3,9.6,21.3,21.3V350C1066.1,361.7,1056.5,371.3,1044.8,371.3z"/>
			</g>
			<line class="st2" x1="293" y1="335.9" x2="399.1" y2="335.9"/>
			<line class="st2" x1="508.2" y1="340.3" x2="614.4" y2="340.3"/>
			<line class="st2" x1="716.6" y1="336.3" x2="822.8" y2="336.3"/>
			<line class="st2" x1="931.8" y1="340.3" x2="1038" y2="340.3"/>
			<rect x="479.7" y="237.8" class="st3" width="162.4" height="126.8"/>
			<text transform="matrix(0.903 0 0 1 530.4316 325.9885)" class="st0 st4 st5">1</text>
			<g>
				<path class="st0" d="M405.9,374.7H286.2c-11.7,0-21.3-9.6-21.3-21.3V239.8c0-11.7,9.6-21.3,21.3-21.3h119.7
					c11.7,0,21.3,9.6,21.3,21.3v113.6C427.2,365.1,417.6,374.7,405.9,374.7z"/>
				<path class="st1" d="M405.9,360.5H286.2c-11.7,0-21.3-9.6-21.3-21.3V225.6c0-11.7,9.6-21.3,21.3-21.3h119.7
					c11.7,0,21.3,9.6,21.3,21.3v113.6C427.2,350.9,417.6,360.5,405.9,360.5z"/>
			</g>
			<g>
				<path class="st0" d="M621.1,378.7H501.4c-11.7,0-21.3-9.6-21.3-21.3V243.8c0-11.7,9.6-21.3,21.3-21.3h119.7
					c11.7,0,21.3,9.6,21.3,21.3v113.6C642.5,369.1,632.9,378.7,621.1,378.7z"/>
				<path class="st1" d="M621.1,364.5H501.4c-11.7,0-21.3-9.6-21.3-21.3V229.6c0-11.7,9.6-21.3,21.3-21.3h119.7
					c11.7,0,21.3,9.6,21.3,21.3v113.6C642.5,354.9,632.9,364.5,621.1,364.5z"/>
			</g>
			<g>
				<path class="st0" d="M829.6,374.7H709.9c-11.7,0-21.3-9.6-21.3-21.3V239.8c0-11.7,9.6-21.3,21.3-21.3h119.7
					c11.7,0,21.3,9.6,21.3,21.3v113.6C850.9,365.1,841.3,374.7,829.6,374.7z"/>
				<path class="st1" d="M829.6,360.5H709.9c-11.7,0-21.3-9.6-21.3-21.3V225.6c0-11.7,9.6-21.3,21.3-21.3h119.7
					c11.7,0,21.3,9.6,21.3,21.3v113.6C850.9,350.9,841.3,360.5,829.6,360.5z"/>
			</g>
			<g>
				<path class="st0" d="M1044.8,378.7H925.1c-11.7,0-21.3-9.6-21.3-21.3V243.8c0-11.7,9.6-21.3,21.3-21.3h119.7
					c11.7,0,21.3,9.6,21.3,21.3v113.6C1066.1,369.1,1056.5,378.7,1044.8,378.7z"/>
				<path class="st1" d="M1044.8,364.5H925.1c-11.7,0-21.3-9.6-21.3-21.3V229.6c0-11.7,9.6-21.3,21.3-21.3h119.7
					c11.7,0,21.3,9.6,21.3,21.3v113.6C1066.1,354.9,1056.5,364.5,1044.8,364.5z"/>
			</g>
		</g>
		<g>
			<path class="st1" d="M678.7,119.9h-11.6l-22.6-37v37h-11.6V63.6h11.6l22.6,37.1V63.6h11.6V119.9z"/>
			<path class="st1" d="M688,67.2c0-1.7,0.6-3.1,1.7-4.1c1.1-1.1,2.7-1.6,4.6-1.6c1.9,0,3.4,0.5,4.6,1.6c1.1,1.1,1.7,2.5,1.7,4.1
				c0,1.7-0.6,3.1-1.7,4.2c-1.2,1.1-2.7,1.6-4.5,1.6s-3.4-0.5-4.5-1.6C688.6,70.3,688,68.9,688,67.2z M699.9,119.9h-11.2V78.1h11.2
				V119.9z"/>
			<path class="st1" d="M724.8,106.3l7.8-28.2h11.7l-14.1,41.8h-10.7l-14.1-41.8H717L724.8,106.3z"/>
			<path class="st1" d="M767.9,120.7c-6.1,0-11.1-1.9-15-5.7c-3.8-3.8-5.8-8.8-5.8-15v-1.1c0-4.2,0.8-8,2.4-11.3
				c1.6-3.3,3.9-5.9,6.9-7.7s6.4-2.7,10.2-2.7c5.7,0,10.2,1.8,13.5,5.4c3.3,3.6,4.9,8.7,4.9,15.3v4.6h-26.6c0.4,2.7,1.5,4.9,3.3,6.6
				s4.1,2.5,6.9,2.5c4.3,0,7.7-1.6,10.1-4.7l5.5,6.2c-1.7,2.4-3.9,4.2-6.8,5.6C774.5,120,771.3,120.7,767.9,120.7z M766.6,86.3
				c-2.2,0-4,0.8-5.4,2.3c-1.4,1.5-2.3,3.7-2.7,6.4h15.5v-0.9c0-2.5-0.7-4.4-2-5.8S769,86.3,766.6,86.3z"/>
			<path class="st1" d="M803.2,119.9H792V60.5h11.2V119.9z"/>
			<path class="st1" d="M870.3,119.9h-38.6v-7.7l18.2-19.4c2.5-2.7,4.3-5.1,5.5-7.2c1.2-2,1.8-4,1.8-5.8c0-2.5-0.6-4.5-1.9-5.9
				s-3.1-2.2-5.4-2.2c-2.5,0-4.5,0.9-6,2.6s-2.2,4-2.2,6.9h-11.2c0-3.4,0.8-6.6,2.5-9.4c1.6-2.8,4-5.1,6.9-6.7s6.4-2.4,10.2-2.4
				c5.8,0,10.3,1.4,13.5,4.2c3.2,2.8,4.8,6.7,4.8,11.8c0,2.8-0.7,5.6-2.2,8.5c-1.4,2.9-3.9,6.3-7.4,10.1l-12.8,13.5h24.2
				L870.3,119.9L870.3,119.9z"/>
		</g>
		<path class="st6" d="M1256.8,364.5h-119.7c-11.7,0-21.3-9.6-21.3-21.3V229.6c0-11.7,9.6-21.3,21.3-21.3h119.7
			c11.7,0,21.3,9.6,21.3,21.3v113.6C1278.1,354.9,1268.5,364.5,1256.8,364.5z"/>
		<path class="st6" d="M1490.4,612.5H50.1C25.3,612.5,5,592.2,5,567.4V50.1C5,25.3,25.3,5,50.1,5h1440.3c24.8,0,45.1,20.3,45.1,45.1
			v517.3C1535.5,592.2,1515.2,612.5,1490.4,612.5z"/>
		<g>
			<line class="st6" x1="921.8" y1="77" x2="921.8" y2="113"/>
			<line class="st6" x1="903.8" y1="95" x2="939.8" y2="95"/>
		</g>
		<line class="st6" x1="561.3" y1="95" x2="597.3" y2="95"/>
		<g>
			<path class="st1" d="M1363.5,287.1l-34.5-11.7V256l55.8,22.9v16.9l-55.8,22.9v-19.4L1363.5,287.1z"/>
		</g>
		<g>
			<path class="st1" d="M175,287.4l34.5,11.7v19.4l-55.8-22.9v-16.9l55.8-22.9v19.4L175,287.4z"/>
		</g>
	</g>
</g>
</svg>
