<?xml version="1.0" encoding="utf-8"?>
<!-- Generator: Adobe Illustrator 23.0.0, SVG Export Plug-In . SVG Version: 6.00 Build 0)  -->
<svg version="1.1" id="Capa_1" xmlns="http://www.w3.org/2000/svg" xmlns:xlink="http://www.w3.org/1999/xlink" x="0px" y="0px"
	 viewBox="0 0 638.96 121.59" style="enable-background:new 0 0 638.96 121.59;" xml:space="preserve">
<style type="text/css">
	.st0{fill:#77C0EB;}
	.st1{fill:#FFFFFF;}
	.st2{fill:none;stroke:#77C0EB;stroke-width:4.0921;stroke-miterlimit:10;}
	.st3{fill:none;}
	.st4{font-family:'Roboto-Bold';}
	.st5{font-size:80.6732px;}
</style>
<g>
	<g>
		<path class="st0" d="M102.31,121.59H21.62c-11.73,0-21.33-9.6-21.33-21.33V35.75c0-11.73,9.6-21.33,21.33-21.33h80.69
			c11.73,0,21.33,9.6,21.33,21.33v64.52C123.64,112,114.04,121.59,102.31,121.59z"/>
		<path class="st1" d="M102.31,111.85H21.62c-11.73,0-21.33-9.6-21.33-21.33V26c0-11.73,9.6-21.33,21.33-21.33h80.69
			c11.73,0,21.33,9.6,21.33,21.33v64.52C123.64,102.25,114.04,111.85,102.31,111.85z"/>
	</g>
	<g>
		<path class="st0" d="M274.18,121.59h-80.69c-11.73,0-21.33-9.6-21.33-21.33V35.75c0-11.73,9.6-21.33,21.33-21.33h80.69
			c11.73,0,21.33,9.6,21.33,21.33v64.52C295.51,112,285.91,121.59,274.18,121.59z"/>
		<path class="st1" d="M274.18,111.85h-80.69c-11.73,0-21.33-9.6-21.33-21.33V26c0-11.73,9.6-21.33,21.33-21.33h80.69
			c11.73,0,21.33,9.6,21.33,21.33v64.52C295.51,102.25,285.91,111.85,274.18,111.85z"/>
	</g>
	<g>
		<path class="st0" d="M445.47,121.59h-80.69c-11.73,0-21.33-9.6-21.33-21.33V35.75c0-11.73,9.6-21.33,21.33-21.33h80.69
			c11.73,0,21.33,9.6,21.33,21.33v64.52C466.79,112,457.2,121.59,445.47,121.59z"/>
		<path class="st1" d="M445.47,111.85h-80.69c-11.73,0-21.33-9.6-21.33-21.33V26c0-11.73,9.6-21.33,21.33-21.33h80.69
			c11.73,0,21.33,9.6,21.33,21.33v64.52C466.79,102.25,457.2,111.85,445.47,111.85z"/>
	</g>
	<g>
		<path class="st0" d="M617.34,121.59h-80.69c-11.73,0-21.33-9.6-21.33-21.33V35.75c0-11.73,9.6-21.33,21.33-21.33h80.69
			c11.73,0,21.33,9.6,21.33,21.33v64.52C638.66,112,629.07,121.59,617.34,121.59z"/>
		<path class="st1" d="M617.34,111.85h-80.69c-11.73,0-21.33-9.6-21.33-21.33V26c0-11.73,9.6-21.33,21.33-21.33h80.69
			c11.73,0,21.33,9.6,21.33,21.33v64.52C638.66,102.25,629.07,111.85,617.34,111.85z"/>
	</g>
	<line class="st2" x1="21.63" y1="90.32" x2="102.3" y2="90.32"/>
	<line class="st2" x1="193.5" y1="90.61" x2="274.17" y2="90.61"/>
	<line class="st2" x1="364.78" y1="90.61" x2="445.46" y2="90.61"/>
	<line class="st2" x1="536.65" y1="90.61" x2="617.33" y2="90.61"/>
	<rect x="171.87" y="20.26" class="st3" width="123.35" height="87.01"/>
	<text transform="matrix(1 0 0 1 210.4004 80.7653)" class="st0 st4 st5">1</text>
	<g>
		<path class="st0" d="M102.31,116.92H21.62c-11.73,0-21.33-9.6-21.33-21.33V31.07c0-11.73,9.6-21.33,21.33-21.33h80.69
			c11.73,0,21.33,9.6,21.33,21.33v64.52C123.64,107.32,114.04,116.92,102.31,116.92z"/>
		<path class="st1" d="M102.31,107.17H21.62c-11.73,0-21.33-9.6-21.33-21.33V21.33C0.29,9.6,9.89,0,21.62,0h80.69
			c11.73,0,21.33,9.6,21.33,21.33v64.52C123.64,97.58,114.04,107.17,102.31,107.17z"/>
	</g>
	<g>
		<path class="st0" d="M274.18,116.92h-80.69c-11.73,0-21.33-9.6-21.33-21.33V31.07c0-11.73,9.6-21.33,21.33-21.33h80.69
			c11.73,0,21.33,9.6,21.33,21.33v64.52C295.51,107.32,285.91,116.92,274.18,116.92z"/>
		<path class="st1" d="M274.18,107.17h-80.69c-11.73,0-21.33-9.6-21.33-21.33V21.33C172.16,9.6,181.76,0,193.49,0h80.69
			c11.73,0,21.33,9.6,21.33,21.33v64.52C295.51,97.58,285.91,107.17,274.18,107.17z"/>
	</g>
	<g>
		<path class="st0" d="M445.47,116.92h-80.69c-11.73,0-21.33-9.6-21.33-21.33V31.07c0-11.73,9.6-21.33,21.33-21.33h80.69
			c11.73,0,21.33,9.6,21.33,21.33v64.52C466.79,107.32,457.2,116.92,445.47,116.92z"/>
		<path class="st1" d="M445.47,107.17h-80.69c-11.73,0-21.33-9.6-21.33-21.33V21.33C343.45,9.6,353.04,0,364.77,0h80.69
			c11.73,0,21.33,9.6,21.33,21.33v64.52C466.79,97.58,457.2,107.17,445.47,107.17z"/>
	</g>
	<g>
		<path class="st0" d="M617.34,116.92h-80.69c-11.73,0-21.33-9.6-21.33-21.33V31.07c0-11.73,9.6-21.33,21.33-21.33h80.69
			c11.73,0,21.33,9.6,21.33,21.33v64.52C638.66,107.32,629.07,116.92,617.34,116.92z"/>
		<path class="st1" d="M617.34,107.17h-80.69c-11.73,0-21.33-9.6-21.33-21.33V21.33C515.31,9.6,524.91,0,536.64,0h80.69
			c11.73,0,21.33,9.6,21.33,21.33v64.52C638.66,97.58,629.07,107.17,617.34,107.17z"/>
	</g>
	<g>
		<path class="st0" d="M241.95,80.77h-11.38V36.88l-13.59,4.21v-9.26l23.75-8.51h1.22V80.77z"/>
	</g>
	<g>
		<path class="st0" d="M397.75,47.05h6.07c2.89,0,5.03-0.72,6.42-2.17c1.39-1.44,2.09-3.36,2.09-5.75c0-2.31-0.69-4.11-2.07-5.4
			c-1.38-1.29-3.28-1.93-5.69-1.93c-2.18,0-4,0.6-5.48,1.79c-1.47,1.2-2.21,2.75-2.21,4.67H385.5c0-2.99,0.81-5.68,2.42-8.06
			c1.61-2.38,3.87-4.23,6.77-5.57c2.9-1.34,6.1-2.01,9.59-2.01c6.07,0,10.82,1.45,14.26,4.35c3.44,2.9,5.16,6.9,5.16,12
			c0,2.63-0.8,5.04-2.4,7.25s-3.7,3.9-6.3,5.08c3.23,1.16,5.64,2.89,7.23,5.2s2.38,5.04,2.38,8.19c0,5.09-1.86,9.18-5.57,12.25
			c-3.72,3.07-8.63,4.61-14.75,4.61c-5.73,0-10.41-1.51-14.04-4.53c-3.64-3.02-5.46-7.01-5.46-11.97h11.38
			c0,2.15,0.81,3.91,2.42,5.28s3.6,2.05,5.97,2.05c2.7,0,4.83-0.71,6.36-2.15c1.54-1.43,2.3-3.33,2.3-5.69
			c0-5.72-3.15-8.59-9.45-8.59h-6.03V47.05z"/>
	</g>
	<g>
		<path class="st0" d="M584.67,57.84c-2.97,2.92-6.43,4.37-10.4,4.37c-5.07,0-9.13-1.74-12.17-5.22c-3.05-3.48-4.57-8.17-4.57-14.08
			c0-3.76,0.82-7.2,2.46-10.34c1.64-3.14,3.93-5.58,6.87-7.33c2.94-1.75,6.25-2.62,9.93-2.62c3.78,0,7.14,0.95,10.08,2.84
			c2.94,1.89,5.23,4.61,6.85,8.15s2.46,7.6,2.48,12.17V50c0,9.56-2.38,17.07-7.13,22.53c-4.75,5.46-11.49,8.38-20.21,8.74l-2.8,0.04
			v-9.49l2.52-0.04C578.5,71.34,583.85,66.69,584.67,57.84z M577.06,53.51c1.84,0,3.42-0.47,4.75-1.42s2.33-2.09,3.01-3.43v-4.69
			c0-3.86-0.74-6.85-2.21-8.98s-3.44-3.19-5.91-3.19c-2.29,0-4.16,1.04-5.63,3.13c-1.47,2.09-2.21,4.71-2.21,7.86
			c0,3.13,0.71,5.69,2.15,7.7S574.46,53.51,577.06,53.51z"/>
	</g>
	<g>
		<path class="st0" d="M81.74,80.77H42.43v-7.8l18.55-19.77c2.55-2.78,4.43-5.21,5.65-7.29c1.22-2.07,1.83-4.04,1.83-5.91
			c0-2.55-0.64-4.55-1.93-6.01c-1.29-1.46-3.13-2.19-5.52-2.19c-2.57,0-4.6,0.89-6.09,2.66c-1.48,1.77-2.23,4.1-2.23,6.99H41.29
			c0-3.49,0.83-6.68,2.5-9.57c1.67-2.89,4.02-5.15,7.07-6.79c3.05-1.64,6.5-2.46,10.36-2.46c5.91,0,10.5,1.42,13.77,4.25
			c3.27,2.84,4.9,6.84,4.9,12.01c0,2.84-0.74,5.73-2.21,8.67c-1.47,2.94-3.99,6.37-7.56,10.28L57.08,71.59h24.66V80.77z"/>
	</g>
</g>
</svg>
