<?xml version="1.0" encoding="utf-8"?>
<!-- Generator: Adobe Illustrator 23.0.0, SVG Export Plug-In . SVG Version: 6.00 Build 0)  -->
<svg version="1.1" id="Capa_1" xmlns="http://www.w3.org/2000/svg" xmlns:xlink="http://www.w3.org/1999/xlink" x="0px" y="0px"
	 viewBox="0 0 920.2 289.6" style="enable-background:new 0 0 920.2 289.6;" xml:space="preserve">
<style type="text/css">
	.st0{fill:url(#SVGID_1_);}
	.st1{fill:url(#SVGID_2_);}
	.st2{fill:url(#SVGID_3_);}
	.st3{fill:#FFFFFF;}
	.st4{fill:url(#SVGID_4_);}
	.st5{fill:#4B99FD;}
	.st6{fill:#DCCEB6;}
	.st7{fill:#ECB993;}
	.st8{fill:#69504B;}
	.st9{fill:#F6E7CA;}
	.st10{fill:#E9DAC2;}
	.st11{fill:#221E20;}
	.st12{opacity:0.3;fill:#FFFFFF;enable-background:new    ;}
	.st13{fill:#95603C;}
	.st14{fill:#C07A48;}
	.st15{fill:#A96D43;}
	.st16{fill:#F49F43;}
	.st17{fill:#F1BA3F;}
</style>
<g>
	
		<linearGradient id="SVGID_1_" gradientUnits="userSpaceOnUse" x1="71.77" y1="468.93" x2="71.77" y2="593.64" gradientTransform="matrix(1 0 0 1 0 -304)">
		<stop  offset="0" style="stop-color:#FFFFFF"/>
		<stop  offset="5.592048e-04" style="stop-color:#D798FF"/>
		<stop  offset="1" style="stop-color:#9F77FE"/>
	</linearGradient>
	<path class="st0" d="M122.2,289.6H21.3C9.6,289.6,0,280.1,0,268.3v-82.1c0-11.7,9.6-21.3,21.3-21.3h100.9
		c11.7,0,21.3,9.6,21.3,21.3v82.1C143.5,280.1,133.9,289.6,122.2,289.6z"/>
	
		<linearGradient id="SVGID_2_" gradientUnits="userSpaceOnUse" x1="240.47" y1="468.92" x2="240.47" y2="593.64" gradientTransform="matrix(1 0 0 1 0 -304)">
		<stop  offset="0" style="stop-color:#FFFFFF"/>
		<stop  offset="5.592048e-04" style="stop-color:#D798FF"/>
		<stop  offset="1" style="stop-color:#9F77FE"/>
	</linearGradient>
	<path class="st1" d="M290.9,289.6H190c-11.7,0-21.3-9.6-21.3-21.3v-82.1c0-11.7,9.6-21.3,21.3-21.3h100.9
		c11.7,0,21.3,9.6,21.3,21.3v82.1C312.2,280.1,302.6,289.6,290.9,289.6z"/>
	
		<linearGradient id="SVGID_3_" gradientUnits="userSpaceOnUse" x1="408.5" y1="468.92" x2="408.5" y2="593.64" gradientTransform="matrix(1 0 0 1 0 -304)">
		<stop  offset="0" style="stop-color:#FFFFFF"/>
		<stop  offset="5.592048e-04" style="stop-color:#D798FF"/>
		<stop  offset="1" style="stop-color:#9F77FE"/>
	</linearGradient>
	<path class="st2" d="M458.9,289.6H358.1c-11.7,0-21.3-9.6-21.3-21.3v-82.1c0-11.7,9.6-21.3,21.3-21.3h100.9
		c11.7,0,21.3,9.6,21.3,21.3v82.1C480.3,280.1,470.7,289.6,458.9,289.6z"/>
	<g>
		<path class="st3" d="M92.8,256.7h-39v-7.7l18.4-19.6c2.5-2.8,4.4-5.2,5.6-7.2c1.2-2.1,1.8-4,1.8-5.9c0-2.5-0.6-4.5-1.9-6
			c-1.3-1.4-3.1-2.2-5.5-2.2c-2.6,0-4.6,0.9-6,2.6c-1.5,1.8-2.2,4.1-2.2,6.9H52.7c0-3.5,0.8-6.6,2.5-9.5c1.7-2.9,4-5.1,7-6.7
			c3-1.6,6.4-2.4,10.3-2.4c5.9,0,10.4,1.4,13.7,4.2S91,210,91,215.1c0,2.8-0.7,5.7-2.2,8.6c-1.5,2.9-4,6.3-7.5,10.2l-12.9,13.6h24.5
			V256.7z"/>
	</g>
	<g>
		<path class="st3" d="M237.4,223.2h6c2.9,0,5-0.7,6.4-2.1c1.4-1.4,2.1-3.3,2.1-5.7c0-2.3-0.7-4.1-2.1-5.4c-1.4-1.3-3.3-1.9-5.6-1.9
			c-2.2,0-4,0.6-5.4,1.8c-1.5,1.2-2.2,2.7-2.2,4.6h-11.3c0-3,0.8-5.6,2.4-8c1.6-2.4,3.8-4.2,6.7-5.5s6.1-2,9.5-2
			c6,0,10.7,1.4,14.1,4.3c3.4,2.9,5.1,6.8,5.1,11.9c0,2.6-0.8,5-2.4,7.2s-3.7,3.9-6.3,5c3.2,1.1,5.6,2.9,7.2,5.2
			c1.6,2.3,2.4,5,2.4,8.1c0,5.1-1.8,9.1-5.5,12.1c-3.7,3.1-8.6,4.6-14.6,4.6c-5.7,0-10.3-1.5-13.9-4.5c-3.6-3-5.4-6.9-5.4-11.9h11.3
			c0,2.1,0.8,3.9,2.4,5.2c1.6,1.4,3.6,2,5.9,2c2.7,0,4.8-0.7,6.3-2.1s2.3-3.3,2.3-5.6c0-5.7-3.1-8.5-9.4-8.5h-6L237.4,223.2
			L237.4,223.2z"/>
	</g>
	<g>
		<path class="st3" d="M423,214.9c0,2.8-0.7,5.2-2.1,7.3c-1.4,2.1-3.3,3.8-5.7,5.1c2.8,1.3,5,3.2,6.6,5.5s2.4,5.1,2.4,8.2
			c0,5.1-1.7,9-5.2,12s-8.1,4.4-14,4.4S394.5,256,391,253s-5.2-6.9-5.2-11.9c0-3.1,0.8-5.9,2.4-8.2c1.6-2.3,3.8-4.2,6.5-5.5
			c-2.4-1.3-4.3-3-5.7-5.1c-1.4-2.1-2-4.6-2-7.3c0-4.8,1.6-8.7,4.8-11.6s7.6-4.3,13.2-4.3c5.5,0,9.9,1.4,13.1,4.3S423,210,423,214.9
			z M412.9,240.2c0-2.5-0.7-4.4-2.1-5.9c-1.4-1.5-3.4-2.2-5.8-2.2c-2.4,0-4.3,0.7-5.7,2.2s-2.1,3.5-2.1,6c0,2.4,0.7,4.4,2.1,5.9
			s3.4,2.2,5.9,2.2c2.5,0,4.4-0.7,5.8-2.1C412.2,244.8,412.9,242.8,412.9,240.2z M411.8,215.4c0-2.2-0.6-4-1.8-5.3s-2.8-2-5-2
			c-2.1,0-3.8,0.6-4.9,1.9s-1.8,3.1-1.8,5.4c0,2.3,0.6,4.1,1.8,5.5s2.8,2.1,5,2.1s3.8-0.7,4.9-2.1S411.8,217.7,411.8,215.4z"/>
	</g>
	
		<linearGradient id="SVGID_4_" gradientUnits="userSpaceOnUse" x1="720.865" y1="468.92" x2="720.865" y2="593.64" gradientTransform="matrix(1 0 0 1 0 -304)">
		<stop  offset="0" style="stop-color:#FFFFFF"/>
		<stop  offset="5.592048e-04" style="stop-color:#D798FF"/>
		<stop  offset="1" style="stop-color:#9F77FE"/>
	</linearGradient>
	<path class="st4" d="M898.7,289.6H543c-11.7,0-21.3-9.6-21.3-21.3v-82.1c0-11.7,9.6-21.3,21.3-21.3h355.6
		c11.7,0,21.3,9.6,21.3,21.3v82.1C920,280.1,910.4,289.6,898.7,289.6z"/>
	<g>
		<g>
			<path class="st3" d="M652.4,256.8h-11.3v-43.5l-13.5,4.2v-9.2l23.5-8.4h1.2L652.4,256.8L652.4,256.8z"/>
			<path class="st3" d="M733.1,237h-22v-9.1h22V237z"/>
			<path class="st3" d="M809,256.8h-11.3v-43.5l-13.5,4.2v-9.2l23.5-8.4h1.2L809,256.8L809,256.8z"/>
		</g>
	</g>
	<path class="st5" d="M871.1,116.8h-91.8c-11.7,0-21.3-9.6-21.3-21.3V21.3C758,9.6,767.6,0,779.3,0h91.8c11.7,0,21.3,9.6,21.3,21.3
		v74.2C892.4,107.2,882.8,116.8,871.1,116.8z"/>
	<g>
		<path class="st6" d="M786.4,38c-5.4,0.5-10.6,2.5-15.4,5c-0.3,0.2-0.7,0.4-0.8,0.7c-0.2,0.4,0.1,0.8,0.3,1.2
			c3.3,5.3,9,8.7,14.9,10.7c4.3,1.5,9,2.3,13.2,0.8s7.5-6.3,6-10.6C802.3,38.6,793,37.4,786.4,38z"/>
		<path class="st7" d="M777.4,43.8c4.4,3.5,9.3,6.3,14.6,8.2c1.8,0.7,4.1,1.1,5.6-0.1c0.8-0.7,1.2-1.7,1.5-2.8
			c0.4-1.6,1.6-5.3,0-6.3c-1.8-1.1-5.1-1.3-7.2-1.4C786.9,41.1,781.9,41.9,777.4,43.8z"/>
		<path class="st8" d="M783.3,23.6c-2.4-7.4-0.9-15.9,3.9-22c0.6-0.8,1.9-1.6,2.6-0.8c0.5,0.5,0.2,1.3,0,2c-1.8,5.2,0,11.2,3.7,15.3
			c3.7,4.1,9,6.4,14.5,7.3c1.4,0.2,3,0.5,3.8,1.6c0.4,0.6,0.6,1.3,0.7,2c0.3,3.5-1.3,7.1-4.2,9.1C798.6,44.7,786,32,783.3,23.6z"/>
		<path class="st9" d="M840.1,31.4c4,5.4,5.2,12.4,5.5,19.1c1,20.4-6.4,41.5-21.1,55.7c-3,2.8-6.2,5.4-9.9,7.3
			c-10.7,5.4-24.7,3.3-33.3-5.1c-8.6-8.3-11.3-22.2-6.3-33.1c3.9-8.5,11.5-14.7,16.3-22.7c3.9-6.5,5.9-14.2,10.6-20.1
			C811.1,21,830.8,18.6,840.1,31.4z"/>
		<path class="st7" d="M824.4,106.4c-2.9,2.8-6,5.3-9.6,7.1c-10.7,5.4-24.7,3.3-33.3-5.1c-8.5-8.2-11.2-21.9-6.5-32.7
			c5.3-3.3,12.3-3,18.5-1.9c9.8,1.7,19.7,5.4,26,13.1C823.8,92.1,825.4,99.5,824.4,106.4z"/>
		<path class="st10" d="M840,50.2c-0.3,0.3-0.7,0.6-1.1,0.7c-0.4-1.5-0.9-3.1-0.6-4.7s1.4-3.1,3-3.2c0.8,0,1.6,0.3,2.3,0.8
			c0.6,0.4,1.1,1,1.3,1.7C845.5,48.1,841.5,48.9,840,50.2z"/>
		<path class="st8" d="M864.5,37.4c5.1-5.8,7-14.3,5-21.7c-0.3-1-1.1-2.2-2-1.8c-0.6,0.3-0.7,1.1-0.8,1.8
			c-0.4,5.5-4.4,10.3-9.5,12.6c-5,2.3-10.8,2.3-16.2,1c-1.4-0.3-2.9-0.7-4.1,0c-0.6,0.4-1.1,1-1.4,1.6C833.9,34,834,38,835.9,41
			C842.1,50.8,858.6,44.1,864.5,37.4z"/>
		<path class="st9" d="M866.9,51.4c4.5,3.4,8,8.2,13.2,10.3c-2.8,1.8-5.9,3-9,4c-4,1.3-8,2.6-12.1,3.2s-8.5,0.5-12.4-0.8
			c-3.2-1-6.2-2.8-8.6-5.2c-0.9-0.9-1.8-1.9-2.3-3.1c-1.4-2.9-0.9-6.5,1.1-9.1c2.5-3.3,6.9-4.3,10.8-4.7c4.4-0.5,8.9,0.1,13,1.7
			C862.8,48.7,865,49.9,866.9,51.4z"/>
		<path class="st7" d="M841.3,54.9c-0.1-0.5-0.4-0.9-0.5-1.4c-0.1-1.1,1-1.9,2.1-2.1c2-0.5,4.1-0.2,6.1,0.2
			c7.3,1.4,14.3,4.1,20.7,7.8c-1.6,1.3-3.5,2.2-5.4,2.9c-2.9,0.9-6,1.1-9.1,1.1c-5.3,0-10.8-0.8-15.3-3.5c-0.6-0.4-1.2-0.8-1.5-1.5
			c-0.3-0.7-0.1-1.6,0.6-1.8C839.6,56.1,841.5,56.4,841.3,54.9z"/>
		<g>
			<path class="st10" d="M828.5,58.4c1.2-1.5,1.9-3.4,1.7-5.3c-0.2-1.9-1.4-3.7-3.2-4.5c-1.2-0.5-2.5-0.5-3.7-0.2
				c-3.5,0.8-6.3,3.7-7,7.2c-0.2,0.9-0.2,1.9,0.1,2.8C818.3,64.6,825.8,61.9,828.5,58.4z"/>
			<path class="st11" d="M816,59.7c0.8,2.4,3.4,3.6,5.7,2.8c2.4-0.8,3.6-3.4,2.8-5.7c-0.8-2.4-3.4-3.6-5.7-2.8
				C816.5,54.8,815.2,57.4,816,59.7z"/>
			<path class="st3" d="M820.4,58.6c0.7,0.6,1.7,0.6,2.3-0.1c0.6-0.7,0.6-1.7-0.1-2.3s-1.7-0.6-2.3,0.1
				C819.7,57,819.8,58,820.4,58.6z"/>
		</g>
		<g>
			<path class="st10" d="M802.9,53.6c0.8-1.5,1.3-3.5,1.1-5.4s-1.2-3.7-2.6-4.3c-0.9-0.4-1.9-0.4-2.8-0.1c-2.6,0.9-4.7,3.9-5,7.4
				c-0.1,1-0.1,1.9,0.2,2.8C795.4,60.1,801,57.2,802.9,53.6z"/>
			<path class="st11" d="M793.5,55.3c0.7,2.3,2.7,3.5,4.5,2.7s2.6-3.5,1.9-5.8s-2.7-3.5-4.5-2.7S792.8,53,793.5,55.3z"/>
			<path class="st3" d="M796.8,54.1c0.5,0.6,1.3,0.5,1.7-0.1s0.4-1.7-0.1-2.3c-0.5-0.6-1.3-0.5-1.7,0.1
				C796.2,52.5,796.3,53.5,796.8,54.1z"/>
		</g>
		<path class="st11" d="M800.8,85.2c0.3-0.2,0.6-0.2,0.9-0.1c0.4,0.5,0.1,1.3-0.3,1.8c-0.4,0.5-0.9,1-1,1.6c-0.1,0.5,0.1,1,0.1,1.5
			c0,0.5-0.3,1.1-0.8,1.1c-0.4,0-0.7-0.4-0.9-0.8c-0.5-1.1-0.8-2.3-0.5-3.4s1.5-2.1,2.6-1.8L800.8,85.2z"/>
		<path class="st11" d="M782.9,82.2c0.3-0.2,0.6-0.2,0.9-0.1c0.4,0.5,0.1,1.3-0.3,1.8c-0.4,0.5-0.9,1-1,1.6c-0.1,0.5,0.1,1,0.1,1.5
			c0,0.5-0.3,1.1-0.8,1.1c-0.4,0-0.7-0.4-0.9-0.8c-0.5-1.1-0.8-2.3-0.5-3.4s1.5-2.1,2.6-1.8L782.9,82.2z"/>
		<path class="st8" d="M798.8,102.7c0,0-5,4.3-9,3.4s-6.9-6.3-6.9-6.3s2.8,7.4,6.6,8.2C796,109.2,798.8,102.7,798.8,102.7z"/>
		<path class="st9" d="M834.3,18c-2.9-0.1-5.8,0.9-8,2.9c-1-4-3.3-7.6-6.4-10.3c0.8,3.1,0.6,6.4-0.5,9.3c-2.1-2.2-5-3.6-8-3.9
			c2.2,1.1,3.6,3.8,3.2,6.2c-0.2,1.3-0.8,2.6-0.5,3.8c0.3,1,1.2,1.8,2.2,2.2c1,0.4,2.1,0.5,3.2,0.6c3,0.2,8.7,0.9,10.4-2.3
			c0.7-1.2,0.3-2.8,0.7-4.1C831.1,20.5,832.6,19.2,834.3,18z"/>
		<path class="st12" d="M802.5,25.5c0.7,0.2,1.5,0.6,1.5,1.3c0,0.5-0.5,0.8-0.9,1c-2.3,1-4.9,0.1-7.2-1c-1.6-0.8-3.2-1.8-4.5-3.1
			c-1.3-1.3-2.3-2.9-2.6-4.7c-0.1-0.4-0.1-0.9,0.2-1.1c0.2-0.2,0.5-0.3,0.8-0.2c1.9,0.2,3.4,3.1,4.9,4.3
			C797,23.5,799.8,24.8,802.5,25.5z"/>
		<path class="st12" d="M787.1,10.6c0.8,1.1,1.3,2.4,1.3,3.7c0,0.4,0,0.8-0.3,1.1c-0.4,0.4-1.1,0.4-1.5,0c-0.4-0.4-0.6-0.9-0.8-1.4
			c-0.3-1.1-0.2-2.4,0.1-3.5c0.3,0,0.5,0,0.8,0L787.1,10.6z"/>
		<path class="st12" d="M867.7,27.2c-1.2,2.4-2.4,4.8-3.7,7.1c-0.4,0.7-0.8,1.4-1.5,1.9c-0.7,0.5-1.6,0.7-2.3,0.2
			c-1-0.7-0.7-2.4,0.3-3.3c0.9-0.9,2.2-1.3,3.1-2.1c1.7-1.4,1.9-3.6,3-5.4C868.2,22.8,868.7,25.1,867.7,27.2z"/>
		<path class="st12" d="M857.4,36.7c0.8,0.6,0.7,1.9,0.1,2.6s-1.7,1-2.6,1.3c-0.8,0.2-1.8,0.5-2.5,0c-0.8-0.5-0.8-1.8-0.2-2.5
			c0.6-0.8,1.5-1.1,2.5-1.2c0.9-0.1,1.9,0,2.8,0L857.4,36.7z"/>
		<path class="st12" d="M867.7,54.1c0.2,0.3,0.4,0.7,0.1,0.9c-0.1,0.1-0.2,0.1-0.3,0.1c-1.2,0.2-2.1-0.8-3-1.6
			c-2.6-2.3-6.4-2.9-9.7-4c-0.4-0.1-0.8-0.4-0.6-0.8c0.1-0.2,0.2-0.2,0.4-0.3c2.3-0.7,5,0.3,7.2,1C864.2,50.5,866.3,52,867.7,54.1z"
			/>
	</g>
	<path class="st5" d="M681.9,116.8h-91.8c-11.7,0-21.3-9.6-21.3-21.3V21.3c0-11.7,9.6-21.3,21.3-21.3h91.8
		c11.7,0,21.3,9.6,21.3,21.3v74.2C703.2,107.2,693.6,116.8,681.9,116.8z"/>
	<g>
		<path class="st13" d="M600.4,37.1c-5.3-0.4-10.6,0.6-15.7,2.3c-0.3,0.1-0.7,0.3-0.9,0.6c-0.2,0.4-0.1,0.8,0.1,1.2
			c2.3,5.7,7.2,9.8,12.6,12.8c3.9,2.1,8.3,3.7,12.6,2.9s8.2-4.9,7.6-9.2C615.5,40.3,606.8,37.5,600.4,37.1z"/>
		<path class="st7" d="M590.7,41.2c3.7,4.1,8,7.6,12.7,10.3c1.7,0.9,3.8,1.8,5.4,0.8c0.9-0.5,1.4-1.5,1.9-2.4c0.7-1.5,2.4-4.8,1-6
			c-1.5-1.4-4.7-2.1-6.7-2.6C600.3,40.1,595.4,40.1,590.7,41.2z"/>
		<path class="st8" d="M599.7,22.6c-1.1-7.5,1.8-15.5,7.4-20.5c0.8-0.7,2.1-1.2,2.6-0.4c0.4,0.6,0,1.3-0.3,1.9
			c-2.6,4.7-1.8,10.8,1.1,15.3s7.7,7.6,12.8,9.4c1.3,0.5,2.8,1,3.4,2.2c0.3,0.6,0.3,1.4,0.3,2.1c-0.2,3.4-2.5,6.7-5.6,8.1
			C611.1,45.5,601,31.2,599.7,22.6z"/>
		<path class="st14" d="M653.2,39.4c2.9,5.9,3,12.8,2.2,19.3c-2.4,19.9-12.9,38.9-29.4,50.2c-3.3,2.3-6.9,4.2-10.7,5.4
			c-11.2,3.4-24.3-0.9-31.3-10.3c-7-9.4-7.3-23.2-0.7-33c5.1-7.6,13.5-12.3,19.5-19.2c4.8-5.6,8-12.7,13.5-17.7
			C626.9,24.7,646.4,25.6,653.2,39.4z"/>
		<path class="st7" d="M625.8,109.2c-3.2,2.2-6.7,4.1-10.4,5.2c-11.2,3.4-24.3-0.9-31.3-10.3c-6.9-9.3-7.3-22.9-0.9-32.6
			c5.7-2.3,12.3-0.9,18.2,1.2c9.1,3.2,18.1,8.4,22.9,16.8C627.6,95.3,627.9,102.7,625.8,109.2z"/>
		<path class="st15" d="M651.6,57.9c-0.7,0.2-1.4,0.4-2.2,0.3c-0.6-1.6-1.1-3.3-0.4-4.7c0.7-1.4,3.1-2.5,6-2.2
			c1.5,0.2,2.9,0.8,4,1.4c1,0.6,1.8,1.3,2.1,2.1C662,57.5,654.6,57.1,651.6,57.9z"/>
		<path class="st8" d="M675.7,49.2c5.9-4.8,9.1-12.6,8.4-20.1c-0.1-1-0.7-2.3-1.7-2c-0.7,0.2-0.9,1-1,1.6c-1.3,5.2-6,9.2-11.2,10.6
			c-5.2,1.4-10.8,0.4-15.8-1.7c-1.3-0.5-2.7-1.2-4-0.7c-0.7,0.3-1.2,0.8-1.6,1.3c-2.1,2.7-2.7,6.6-1.4,9.8
			C651.9,58.5,669,54.7,675.7,49.2z"/>
		<g>
			<path class="st15" d="M637.6,63.6c1.4-1.3,2.4-3,2.5-4.8s-0.7-3.8-2.3-4.8c-1-0.6-2.3-0.8-3.5-0.8c-3.5,0.2-6.7,2.6-7.9,5.8
				c-0.3,0.9-0.5,1.8-0.4,2.8C626.7,67.9,634.4,66.5,637.6,63.6z"/>
			<path class="st11" d="M625.3,62.8c0.4,2.4,2.7,4,5.1,3.7c2.4-0.4,4-2.7,3.7-5.1c-0.4-2.4-2.7-4-5.1-3.7
				C626.6,58.2,624.9,60.4,625.3,62.8z"/>
			<path class="st3" d="M629.8,62.5c0.5,0.7,1.5,0.8,2.2,0.3s0.8-1.5,0.3-2.2s-1.5-0.8-2.2-0.3C629.4,60.8,629.2,61.8,629.8,62.5z"
				/>
		</g>
		<g>
			<path class="st15" d="M613.7,54.8c1.1-1.3,1.8-3.1,1.9-5c0.1-1.9-0.5-3.8-1.8-4.6c-0.8-0.6-1.8-0.7-2.7-0.5
				c-2.7,0.4-5.1,3-6.1,6.3c-0.3,0.9-0.4,1.8-0.3,2.8C605.4,59.8,611.2,57.9,613.7,54.8z"/>
			<path class="st11" d="M604.3,54.9c0.3,2.4,2,3.8,3.9,3.3c1.8-0.5,3.1-2.9,2.8-5.3c-0.3-2.4-2-3.8-3.9-3.3S604,52.5,604.3,54.9z"
				/>
			<path class="st3" d="M607.7,54.2c0.4,0.7,1.2,0.7,1.7,0.2c0.5-0.6,0.6-1.6,0.3-2.2c-0.4-0.7-1.2-0.7-1.7-0.2
				C607.4,52.6,607.3,53.6,607.7,54.2z"/>
		</g>
		<path class="st11" d="M606.5,84.9c0.3-0.1,0.6-0.1,0.8,0.1c0.3,0.6-0.1,1.2-0.5,1.7c-0.5,0.4-1,0.8-1.2,1.4c-0.2,0.5,0,1-0.1,1.5
			c-0.1,0.5-0.5,1-1,0.9c-0.4-0.1-0.6-0.6-0.7-1c-0.3-1.1-0.4-2.3,0.1-3.3c0.5-1,1.8-1.8,2.8-1.3L606.5,84.9z"/>
		<path class="st11" d="M589.8,79.1c0.3-0.1,0.6-0.1,0.8,0.1c0.3,0.6-0.1,1.2-0.5,1.7c-0.5,0.4-1,0.8-1.2,1.4c-0.2,0.5,0,1-0.1,1.5
			c-0.1,0.5-0.5,1-1,0.9c-0.4-0.1-0.6-0.6-0.7-1c-0.3-1.1-0.4-2.3,0.1-3.3c0.5-1,1.8-1.8,2.8-1.3L589.8,79.1z"/>
		<path class="st12" d="M617.9,27.6c0.6,0.3,1.4,0.8,1.2,1.5c-0.1,0.4-0.6,0.7-1,0.8c-2.4,0.6-4.8-0.7-6.7-2.2
			c-1.4-1.1-2.8-2.3-3.8-3.7c-1-1.5-1.7-3.2-1.7-5c0-0.4,0.1-0.8,0.4-1.1c0.2-0.2,0.5-0.2,0.8-0.1c1.8,0.5,2.7,3.6,4,4.9
			C612.9,24.8,615.4,26.5,617.9,27.6z"/>
		<path class="st12" d="M605.5,10.7c0.6,1.2,0.8,2.5,0.7,3.8c0,0.4-0.1,0.8-0.4,1c-0.4,0.4-1.1,0.2-1.4-0.2c-0.4-0.4-0.5-1-0.5-1.5
			c-0.1-1.1,0.2-2.3,0.7-3.4c0.3,0,0.5,0.1,0.8,0.1L605.5,10.7z"/>
		<path class="st12" d="M680.5,39.9c-1.5,2.1-3.1,4.2-4.8,6.2c-0.5,0.6-1,1.3-1.7,1.6c-0.7,0.4-1.7,0.4-2.2-0.2
			c-0.9-0.9-0.2-2.4,0.8-3.1c1-0.7,2.3-0.9,3.3-1.5c1.8-1.1,2.4-3.2,3.8-4.7C681.7,35.8,681.8,38.1,680.5,39.9z"/>
		<path class="st12" d="M669,47.4c0.7,0.7,0.4,1.9-0.4,2.5s-1.8,0.7-2.8,0.8c-0.8,0.1-1.8,0.2-2.4-0.5c-0.7-0.7-0.5-1.8,0.2-2.5
			c0.7-0.6,1.7-0.8,2.6-0.8c0.9,0.1,1.8,0.3,2.7,0.5L669,47.4z"/>
		<path class="st16" d="M615.3,31.7c-2.1,4.9-1.1,10.7,1.9,15.2c0-1.5,0.6-3.1,1.8-4.2c1.6,4.4,1.3,9.3-0.9,13.5
			c5-1.7,9.6-4.3,13.5-7.7c0,2.2-0.2,4.4-0.8,6.6c4.8-1.1,9-3.6,13-6.3c3.2-2.1,6.3-4.2,8.5-7.2c2.2-3,3.3-6.8,1.8-10.2
			c-0.8-1.8-2.2-3.2-3.7-4.4C641,20.1,620.6,19.4,615.3,31.7z"/>
		<g>
			<path class="st17" d="M626.7,45.1c0.5-2.3,1.1-4.6,1.9-6.8c0.1-0.4-0.2-0.8-0.5-0.9c-0.4-0.1-0.8,0.1-0.9,0.5
				c-0.8,2.2-1.4,4.5-1.9,6.8c-0.1,0.4,0.1,0.8,0.5,0.9C626.2,45.7,626.6,45.5,626.7,45.1L626.7,45.1z"/>
		</g>
		<g>
			<path class="st17" d="M619.4,40.4c0.1-1.8,0.1-3.5,0.2-5.3c0-0.4-0.4-0.8-0.8-0.8c-0.4,0-0.8,0.3-0.8,0.8
				c-0.1,1.8-0.1,3.5-0.2,5.3c0,0.4,0.4,0.8,0.8,0.8C619.1,41.2,619.4,40.9,619.4,40.4L619.4,40.4z"/>
		</g>
		<g>
			<path class="st17" d="M623.5,44.3c-0.2-1.6-0.2-3.3,0.2-4.9c0.1-0.4-0.1-0.8-0.5-0.9c-0.4-0.1-0.8,0.1-0.9,0.5
				c-0.4,1.9-0.5,3.8-0.2,5.7c0.1,0.4,0.6,0.6,0.9,0.5C623.4,45.1,623.5,44.7,623.5,44.3L623.5,44.3z"/>
		</g>
		<g>
			<path class="st17" d="M623,51.9c0.6-0.8,1.3-1.5,2-2.1c0.3-0.3,0.3-0.8,0-1.1c-0.3-0.3-0.8-0.3-1.1,0c-0.7,0.7-1.4,1.3-2,2.1
				c-0.1,0.2-0.2,0.3-0.2,0.5c0,0.2,0.1,0.4,0.2,0.5c0.2,0.1,0.3,0.2,0.5,0.2C622.6,52.1,622.9,52,623,51.9L623,51.9z"/>
		</g>
		<g>
			<path class="st17" d="M634.5,48.8c1.5-1.2,3.1-2.4,4.8-3.4c0.3-0.2,0.5-0.7,0.3-1c-0.2-0.3-0.7-0.5-1-0.3
				c-1.8,1.1-3.5,2.4-5.1,3.7c-0.3,0.3-0.3,0.8,0,1.1C633.8,49.1,634.2,49,634.5,48.8L634.5,48.8z"/>
		</g>
		<g>
			<path class="st17" d="M634.5,41.1c0-0.2,0-0.3,0-0.5c0-0.1,0-0.1,0,0c0,0,0-0.1,0-0.1c0-0.1,0-0.1,0-0.2c0.1-0.3,0.2-0.7,0.3-1
				c0-0.2,0.1-0.3,0.2-0.5c0-0.1,0.1-0.2,0.1-0.2c0,0,0-0.1,0-0.1c0,0.1,0,0.1,0,0c0.1-0.3,0.3-0.6,0.5-0.9c0.2-0.3,0.1-0.8-0.3-1
				c-0.4-0.2-0.8-0.1-1,0.3c-0.8,1.4-1.2,2.9-1.3,4.5c0,0.4,0.4,0.8,0.8,0.8C634.2,41.9,634.5,41.6,634.5,41.1L634.5,41.1z"/>
		</g>
		<g>
			<path class="st17" d="M644.5,44.6c1.4-1.1,2.8-2.3,4-3.6c0.3-0.3,0.3-0.8,0-1.1c-0.3-0.3-0.8-0.3-1.1,0c-0.6,0.6-1.2,1.2-1.8,1.8
				c-0.3,0.3-0.6,0.6-1,0.8c-0.2,0.1-0.3,0.3-0.5,0.4c0,0-0.1,0.1-0.1,0.1s-0.1,0.1,0,0c-0.1,0.1-0.2,0.1-0.3,0.2
				c-0.3,0.2-0.5,0.7-0.3,1C643.7,44.7,644.2,44.9,644.5,44.6L644.5,44.6z"/>
		</g>
		<g>
			<path class="st17" d="M644.5,36.7c0.1-0.3,0.2-0.7,0.3-1c0.1-0.2,0.1-0.4,0.2-0.5c-0.1,0.1,0.1-0.1,0.1-0.2
				c0-0.1,0.1-0.2,0.1-0.2c0.3-0.7,0.7-1.3,1.1-1.9c0.2-0.3,0.1-0.9-0.3-1c-0.4-0.2-0.8-0.1-1,0.3c-0.9,1.3-1.5,2.7-2,4.3
				c-0.1,0.4,0.1,0.8,0.5,0.9C644,37.4,644.4,37.2,644.5,36.7L644.5,36.7z"/>
		</g>
		<g>
			<path class="st17" d="M639.1,28.6c0,0,0-0.1,0.1-0.1C639.2,28.4,639.2,28.5,639.1,28.6c0.1-0.1,0.2-0.2,0.2-0.3
				c0.1-0.1,0.2-0.2,0.3-0.4c0.2-0.2,0.4-0.5,0.7-0.7c0.1-0.1,0.2-0.2,0.3-0.3c0,0,0.1,0,0.1-0.1c0.1-0.1-0.1,0.1,0,0
				c0.1,0,0.1-0.1,0.2-0.1c0.3-0.2,0.5-0.4,0.8-0.5c0.3-0.2,0.5-0.7,0.3-1c-0.2-0.4-0.7-0.5-1-0.3c-1.2,0.7-2.3,1.7-3.1,2.8
				c-0.1,0.1-0.1,0.4-0.1,0.6c0,0.2,0.2,0.4,0.3,0.5c0.2,0.1,0.4,0.1,0.6,0.1C638.8,28.9,638.9,28.8,639.1,28.6L639.1,28.6z"/>
		</g>
		<g>
			<path class="st17" d="M627.4,31.5c0.1-0.3,0.2-0.7,0.3-1c0-0.1,0.1-0.2,0.1-0.3c-0.1,0.1,0-0.1,0.1-0.1c0.1-0.2,0.2-0.3,0.2-0.5
				c0.3-0.6,0.7-1.3,1.1-1.9c0.2-0.3,0.1-0.9-0.3-1c-0.4-0.2-0.8-0.1-1,0.3c-0.8,1.3-1.5,2.6-2,4.1c-0.1,0.4,0.1,0.9,0.5,0.9
				C626.9,32.1,627.3,31.9,627.4,31.5L627.4,31.5z"/>
		</g>
		<g>
			<path class="st17" d="M632.9,33.8c0-0.3,0-0.5,0-0.8c0,0.1,0,0.1,0,0.2c0-0.4,0.2-0.7,0.3-1.1c0,0.1,0,0.1-0.1,0.2
				c0.1-0.2,0.2-0.5,0.4-0.7c0.2-0.3,0.1-0.9-0.3-1c-0.4-0.2-0.8-0.1-1,0.3c-0.6,0.9-0.9,1.9-0.8,2.9c0,0.4,0.3,0.8,0.8,0.8
				C632.5,34.6,632.9,34.3,632.9,33.8L632.9,33.8z"/>
		</g>
		<g>
			<path class="st17" d="M620.2,30.1c0.1-0.2,0.2-0.3,0.3-0.5c0.1-0.1,0.1-0.2,0.2-0.2c0.1-0.1-0.1,0.1,0,0c0,0,0.1-0.1,0.1-0.1
				c0.2-0.3,0.5-0.6,0.8-0.9s0.5-0.5,0.8-0.8c0,0,0.1-0.1,0.1-0.1c0.2-0.1-0.1,0.1,0,0c0.1,0,0.2-0.1,0.2-0.2
				c0.2-0.1,0.3-0.2,0.5-0.3c0.3-0.2,0.5-0.7,0.3-1c-0.2-0.3-0.7-0.5-1-0.3c-1.4,0.9-2.7,2.1-3.6,3.6c-0.2,0.3-0.1,0.9,0.3,1
				C619.5,30.6,619.9,30.5,620.2,30.1L620.2,30.1z"/>
		</g>
		<g>
			<path class="st17" d="M650.8,35.4c0.2-1.2,0.3-2.4,0.3-3.6c0-0.4-0.3-0.8-0.8-0.8c-0.4,0-0.8,0.3-0.8,0.8c0,0.6,0,1.1,0,1.7
				c0,0.3,0,0.5-0.1,0.8c0,0.1,0,0.1,0,0.2c0,0.2,0-0.1,0,0.1c0,0.2,0,0.3-0.1,0.5c-0.1,0.4,0.1,0.8,0.5,0.9
				C650.3,36,650.8,35.8,650.8,35.4L650.8,35.4z"/>
		</g>
		<g>
			<path class="st17" d="M631.4,25.1c0.7,0,1.5,0,2.2,0c0.4,0,0.8-0.4,0.8-0.8s-0.3-0.8-0.8-0.8c-0.7,0-1.5,0-2.2,0
				c-0.4,0-0.8,0.4-0.8,0.8S631,25.1,631.4,25.1L631.4,25.1z"/>
		</g>
		<path class="st8" d="M590.4,103.8c0,0,4.6,4,8.3,3.2c3.7-0.9,6.4-5.9,6.4-5.9s-2.5,6.9-6.1,7.6C593,109.8,590.4,103.8,590.4,103.8
			z"/>
		<path class="st14" d="M675.8,63.1c3.8,4,6.4,9.2,11.1,12.1c-3,1.3-6.2,1.9-9.3,2.4c-4,0.7-8.1,1.2-12.2,1.1
			c-4.1-0.1-8.2-0.9-11.8-2.8c-2.9-1.5-5.5-3.7-7.4-6.4c-0.7-1-1.4-2.1-1.8-3.3c-0.9-3,0.2-6.4,2.5-8.6c2.9-2.7,7.4-3,11.2-2.8
			c4.3,0.3,8.5,1.6,12.2,3.8C672.3,59.8,674.2,61.4,675.8,63.1z"/>
		<path class="st7" d="M650.5,62.3c0-0.5-0.3-1-0.2-1.5c0.1-1.1,1.3-1.6,2.4-1.7c2-0.2,4,0.5,5.8,1.2c6.8,2.6,13.1,6.3,18.6,10.9
			c-1.8,0.9-3.7,1.6-5.7,1.9c-3,0.4-6,0.1-8.9-0.4c-5.1-0.9-10.3-2.5-14.2-5.9c-0.5-0.5-1-1-1.2-1.7c-0.2-0.7,0.2-1.5,0.8-1.7
			C648.7,63.2,650.5,63.8,650.5,62.3z"/>
		<path class="st12" d="M676.1,65.9c0.1,0.3,0.2,0.7,0,0.9c-0.1,0.1-0.2,0.1-0.3,0.1c-1.1,0-1.9-1.1-2.6-2c-2.2-2.7-5.7-3.8-8.7-5.4
			c-0.3-0.2-0.7-0.5-0.5-0.8c0.1-0.1,0.3-0.2,0.4-0.2c2.3-0.3,4.8,1.1,6.8,2.2C673.3,61.8,675,63.6,676.1,65.9z"/>
	</g>
</g>
</svg>
