<?xml version="1.0" encoding="utf-8"?>
<!-- Generator: Adobe Illustrator 23.0.0, SVG Export Plug-In . SVG Version: 6.00 Build 0)  -->
<svg version="1.1" id="Capa_1" xmlns="http://www.w3.org/2000/svg" xmlns:xlink="http://www.w3.org/1999/xlink" x="0px" y="0px"
	 viewBox="0 0 920.18 289.64" style="enable-background:new 0 0 920.18 289.64;" xml:space="preserve">
<style type="text/css">
	.st0{fill:url(#SVGID_1_);}
	.st1{fill:url(#SVGID_2_);}
	.st2{fill:url(#SVGID_3_);}
	.st3{fill:#FFFFFF;}
	.st4{fill:url(#SVGID_4_);}
	.st5{fill:#4B99FD;}
	.st6{fill:#DCCEB6;}
	.st7{fill:#ECB993;}
	.st8{fill:#69504B;}
	.st9{fill:#F6E7CA;}
	.st10{fill:#E9DAC2;}
	.st11{fill:#221E20;}
	.st12{opacity:0.3;fill:#FFFFFF;enable-background:new    ;}
	.st13{fill:#95603C;}
	.st14{fill:#C07A48;}
	.st15{fill:#A96D43;}
	.st16{fill:#F49F43;}
	.st17{fill:#F1BA3F;}
</style>
<g>
	
		<linearGradient id="SVGID_1_" gradientUnits="userSpaceOnUse" x1="71.77" y1="1.6356" x2="71.77" y2="126.3456" gradientTransform="matrix(1 0 0 -1 0 291.2756)">
		<stop  offset="0" style="stop-color:#FFFFFF"/>
		<stop  offset="5.592048e-04" style="stop-color:#FFA0D4"/>
		<stop  offset="1" style="stop-color:#FF6BCE"/>
	</linearGradient>
	<path class="st0" d="M122.21,289.64H21.33C9.6,289.64,0,280.05,0,268.32v-82.06c0-11.73,9.6-21.33,21.33-21.33h100.88
		c11.73,0,21.33,9.6,21.33,21.33v82.06C143.53,280.05,133.94,289.64,122.21,289.64z"/>
	
		<linearGradient id="SVGID_2_" gradientUnits="userSpaceOnUse" x1="240.47" y1="1.6356" x2="240.47" y2="126.3556" gradientTransform="matrix(1 0 0 -1 0 291.2756)">
		<stop  offset="0" style="stop-color:#FFFFFF"/>
		<stop  offset="5.592048e-04" style="stop-color:#FFA0D4"/>
		<stop  offset="1" style="stop-color:#FF6BCE"/>
	</linearGradient>
	<path class="st1" d="M290.91,289.64H190.03c-11.73,0-21.33-9.6-21.33-21.33v-82.06c0-11.73,9.6-21.33,21.33-21.33h100.88
		c11.73,0,21.33,9.6,21.33,21.33v82.06C312.24,280.05,302.64,289.64,290.91,289.64z"/>
	
		<linearGradient id="SVGID_3_" gradientUnits="userSpaceOnUse" x1="408.5" y1="1.6356" x2="408.5" y2="126.3556" gradientTransform="matrix(1 0 0 -1 0 291.2756)">
		<stop  offset="0" style="stop-color:#FFFFFF"/>
		<stop  offset="5.592048e-04" style="stop-color:#FFA0D4"/>
		<stop  offset="1" style="stop-color:#FF6BCE"/>
	</linearGradient>
	<path class="st2" d="M458.94,289.64H358.06c-11.73,0-21.33-9.6-21.33-21.33v-82.06c0-11.73,9.6-21.33,21.33-21.33h100.88
		c11.73,0,21.33,9.6,21.33,21.33v82.06C480.26,280.05,470.67,289.64,458.94,289.64z"/>
	<g>
		<path class="st3" d="M92.8,256.65H53.82v-7.73l18.4-19.61c2.53-2.76,4.39-5.17,5.61-7.23c1.21-2.06,1.82-4.01,1.82-5.86
			c0-2.53-0.64-4.51-1.91-5.96c-1.28-1.45-3.1-2.17-5.47-2.17c-2.55,0-4.56,0.88-6.04,2.64c-1.47,1.76-2.21,4.07-2.21,6.93H52.69
			c0-3.46,0.83-6.63,2.48-9.49c1.65-2.86,3.99-5.11,7.01-6.74c3.02-1.63,6.45-2.44,10.27-2.44c5.86,0,10.41,1.41,13.65,4.22
			s4.86,6.78,4.86,11.91c0,2.81-0.73,5.68-2.19,8.59c-1.46,2.92-3.96,6.32-7.5,10.2l-12.93,13.63H92.8V256.65z"/>
	</g>
	<g>
		<path class="st3" d="M237.39,223.21h6.02c2.86,0,4.99-0.72,6.37-2.15c1.38-1.43,2.07-3.33,2.07-5.7c0-2.29-0.68-4.08-2.05-5.35
			c-1.37-1.28-3.25-1.91-5.64-1.91c-2.16,0-3.97,0.59-5.43,1.78c-1.46,1.19-2.19,2.73-2.19,4.63h-11.29c0-2.97,0.8-5.63,2.4-7.99
			c1.6-2.36,3.84-4.2,6.72-5.53s6.05-1.99,9.51-1.99c6.02,0,10.73,1.44,14.14,4.32c3.41,2.88,5.12,6.84,5.12,11.89
			c0,2.6-0.79,5-2.38,7.19s-3.67,3.87-6.25,5.04c3.2,1.15,5.59,2.87,7.17,5.16c1.58,2.29,2.36,5,2.36,8.13
			c0,5.05-1.84,9.1-5.53,12.15c-3.69,3.05-8.56,4.57-14.63,4.57c-5.68,0-10.32-1.5-13.93-4.49c-3.61-2.99-5.41-6.95-5.41-11.88
			h11.29c0,2.14,0.8,3.88,2.4,5.23c1.6,1.35,3.57,2.03,5.92,2.03c2.68,0,4.79-0.71,6.31-2.13s2.29-3.3,2.29-5.64
			c0-5.68-3.13-8.52-9.38-8.52h-5.98L237.39,223.21L237.39,223.21z"/>
	</g>
	<g>
		<path class="st3" d="M423.05,214.89c0,2.76-0.69,5.21-2.07,7.34c-1.38,2.14-3.28,3.84-5.7,5.12c2.76,1.33,4.95,3.16,6.56,5.49
			s2.42,5.07,2.42,8.22c0,5.05-1.72,9.04-5.16,11.97s-8.11,4.39-14.02,4.39s-10.6-1.47-14.06-4.41s-5.2-6.93-5.2-11.95
			c0-3.15,0.81-5.9,2.42-8.24c1.61-2.34,3.79-4.17,6.52-5.47c-2.42-1.28-4.32-2.98-5.68-5.12c-1.37-2.13-2.05-4.58-2.05-7.34
			c0-4.84,1.61-8.7,4.84-11.58s7.62-4.32,13.16-4.32c5.52,0,9.9,1.43,13.14,4.28S423.05,210,423.05,214.89z M412.93,240.24
			c0-2.47-0.72-4.45-2.15-5.94c-1.43-1.48-3.36-2.23-5.78-2.23c-2.4,0-4.31,0.74-5.74,2.21s-2.15,3.46-2.15,5.96
			c0,2.42,0.7,4.38,2.11,5.86s3.36,2.23,5.86,2.23c2.45,0,4.37-0.72,5.76-2.15C412.23,244.75,412.93,242.77,412.93,240.24z
			 M411.76,215.44c0-2.21-0.59-3.99-1.76-5.33s-2.83-2.01-4.96-2.01c-2.11,0-3.75,0.65-4.92,1.95s-1.76,3.1-1.76,5.39
			c0,2.27,0.59,4.09,1.76,5.47s2.83,2.07,4.96,2.07s3.78-0.69,4.94-2.07S411.76,217.71,411.76,215.44z"/>
	</g>
	
		<linearGradient id="SVGID_4_" gradientUnits="userSpaceOnUse" x1="720.865" y1="1.6356" x2="720.865" y2="126.3556" gradientTransform="matrix(1 0 0 -1 0 291.2756)">
		<stop  offset="0" style="stop-color:#FFFFFF"/>
		<stop  offset="5.592048e-04" style="stop-color:#FFA0D4"/>
		<stop  offset="1" style="stop-color:#FF6BCE"/>
	</linearGradient>
	<path class="st4" d="M898.68,289.64H543.05c-11.73,0-21.33-9.6-21.33-21.33v-82.06c0-11.73,9.6-21.33,21.33-21.33h355.63
		c11.73,0,21.33,9.6,21.33,21.33v82.06C920.01,280.05,910.41,289.64,898.68,289.64z"/>
	<g>
		<g>
			<path class="st3" d="M652.36,256.83h-11.29v-43.52l-13.48,4.18v-9.18l23.55-8.44h1.21L652.36,256.83L652.36,256.83z"/>
			<path class="st3" d="M733.1,237.03h-21.99v-9.1h21.99V237.03z"/>
			<path class="st3" d="M808.96,256.83h-11.29v-43.52l-13.48,4.18v-9.18l23.55-8.44h1.21L808.96,256.83L808.96,256.83z"/>
		</g>
	</g>
	<path class="st5" d="M871.08,116.81H779.3c-11.73,0-21.33-9.6-21.33-21.33V21.33C757.98,9.6,767.57,0,779.3,0h91.78
		c11.73,0,21.33,9.6,21.33,21.33v74.15C892.41,107.21,882.81,116.81,871.08,116.81z"/>
	<g>
		<path class="st6" d="M786.44,38.02c-5.41,0.51-10.61,2.46-15.39,5.04c-0.32,0.17-0.66,0.38-0.79,0.72
			c-0.15,0.41,0.07,0.85,0.3,1.21c3.25,5.32,8.96,8.69,14.86,10.73c4.25,1.47,8.98,2.33,13.19,0.75s7.46-6.33,6.05-10.6
			C802.27,38.64,793,37.4,786.44,38.02z"/>
		<path class="st7" d="M777.36,43.84c4.4,3.49,9.33,6.34,14.61,8.23c1.85,0.66,4.11,1.14,5.61-0.13c0.81-0.68,1.2-1.74,1.47-2.77
			c0.44-1.64,1.56-5.26-0.03-6.26c-1.79-1.14-5.12-1.28-7.18-1.44C786.92,41.1,781.9,41.89,777.36,43.84z"/>
		<path class="st8" d="M783.31,23.55c-2.39-7.37-0.86-15.89,3.93-21.98c0.64-0.81,1.88-1.6,2.56-0.83c0.46,0.52,0.21,1.32-0.01,1.97
			c-1.77,5.21,0.03,11.22,3.73,15.29c3.7,4.07,9.04,6.37,14.47,7.29c1.4,0.24,2.97,0.48,3.81,1.62c0.43,0.58,0.59,1.32,0.66,2.04
			c0.35,3.51-1.34,7.14-4.24,9.15C798.64,44.7,786.05,32.02,783.31,23.55z"/>
		<path class="st9" d="M840.14,31.35c3.95,5.44,5.22,12.38,5.54,19.09c0.97,20.44-6.38,41.46-21.07,55.7
			c-2.95,2.85-6.19,5.45-9.86,7.29c-10.71,5.37-24.7,3.25-33.33-5.06c-8.63-8.3-11.3-22.2-6.35-33.11
			c3.86-8.51,11.53-14.67,16.35-22.68c3.91-6.51,5.89-14.17,10.61-20.12C811.11,21.03,830.85,18.57,840.14,31.35z"/>
		<path class="st7" d="M824.38,106.37c-2.88,2.77-6.05,5.27-9.62,7.06c-10.71,5.37-24.7,3.25-33.33-5.06
			c-8.53-8.2-11.23-21.86-6.52-32.7c5.34-3.25,12.28-3.02,18.53-1.93c9.77,1.69,19.7,5.42,26.01,13.06
			C823.83,92.09,825.38,99.45,824.38,106.37z"/>
		<path class="st10" d="M840.02,50.22c-0.34,0.3-0.7,0.63-1.14,0.71c-0.44-1.51-0.89-3.09-0.64-4.65s1.43-3.08,3.01-3.19
			c0.81-0.05,1.61,0.27,2.26,0.76c0.59,0.44,1.09,1.03,1.3,1.74C845.55,48.11,841.53,48.9,840.02,50.22z"/>
		<path class="st8" d="M864.49,37.39c5.1-5.83,7.05-14.26,5.04-21.75c-0.27-0.99-1.09-2.21-2.02-1.77
			c-0.63,0.29-0.71,1.13-0.76,1.82c-0.43,5.49-4.44,10.3-9.45,12.58c-5,2.28-10.82,2.3-16.17,1c-1.38-0.33-2.92-0.73-4.14-0.01
			c-0.62,0.37-1.06,0.98-1.41,1.62c-1.7,3.09-1.58,7.09,0.29,10.08C842.06,50.79,858.62,44.1,864.49,37.39z"/>
		<path class="st9" d="M866.94,51.36c4.5,3.38,8.03,8.21,13.23,10.35c-2.76,1.81-5.88,2.96-9.01,4.02
			c-3.96,1.35-7.99,2.59-12.14,3.17s-8.45,0.48-12.43-0.8c-3.21-1.03-6.17-2.82-8.58-5.19c-0.92-0.9-1.77-1.9-2.34-3.06
			c-1.42-2.88-0.89-6.53,1.07-9.08c2.5-3.25,6.92-4.26,10.79-4.69c4.38-0.48,8.88,0.13,12.99,1.72
			C862.81,48.7,864.98,49.89,866.94,51.36z"/>
		<path class="st7" d="M841.27,54.87c-0.08-0.5-0.42-0.93-0.48-1.44c-0.13-1.08,1.04-1.86,2.09-2.13c1.99-0.51,4.08-0.21,6.09,0.19
			c7.25,1.42,14.26,4.07,20.65,7.8c-1.62,1.26-3.47,2.23-5.42,2.86c-2.91,0.94-6.01,1.12-9.06,1.1c-5.32-0.04-10.83-0.75-15.35-3.55
			c-0.61-0.37-1.22-0.82-1.5-1.47c-0.29-0.65-0.1-1.56,0.56-1.84C839.6,56.09,841.5,56.36,841.27,54.87z"/>
		<g>
			<path class="st10" d="M828.52,58.41c1.18-1.5,1.9-3.42,1.7-5.32c-0.19-1.9-1.38-3.73-3.15-4.45c-1.15-0.47-2.45-0.46-3.66-0.19
				c-3.46,0.77-6.33,3.73-6.99,7.22c-0.18,0.94-0.2,1.93,0.07,2.85C818.28,64.59,825.76,61.9,828.52,58.41z"/>
			<path class="st11" d="M816,59.73c0.8,2.36,3.37,3.62,5.72,2.82c2.36-0.8,3.62-3.37,2.82-5.72c-0.8-2.36-3.37-3.62-5.72-2.82
				C816.46,54.81,815.2,57.37,816,59.73z"/>
			<path class="st3" d="M820.4,58.61c0.65,0.61,1.67,0.59,2.28-0.06c0.61-0.65,0.59-1.67-0.06-2.28s-1.67-0.59-2.28,0.06
				C819.73,56.97,819.75,57.99,820.4,58.61z"/>
		</g>
		<g>
			<path class="st10" d="M802.92,53.64c0.84-1.53,1.31-3.47,1.09-5.36s-1.19-3.68-2.56-4.35c-0.89-0.44-1.88-0.39-2.79-0.08
				c-2.6,0.87-4.66,3.91-5.03,7.41c-0.1,0.95-0.08,1.93,0.16,2.84C795.38,60.11,800.96,57.2,802.92,53.64z"/>
			<path class="st11" d="M793.47,55.32c0.7,2.33,2.69,3.52,4.45,2.65s2.62-3.47,1.92-5.8s-2.69-3.52-4.45-2.65
				S792.77,52.99,793.47,55.32z"/>
			<path class="st3" d="M796.77,54.07c0.51,0.59,1.29,0.54,1.73-0.12s0.38-1.68-0.13-2.28c-0.51-0.59-1.29-0.54-1.73,0.12
				C796.19,52.46,796.25,53.48,796.77,54.07z"/>
		</g>
		<path class="st11" d="M800.82,85.22c0.25-0.16,0.59-0.2,0.87-0.09c0.4,0.51,0.13,1.26-0.25,1.78c-0.39,0.52-0.9,1-1,1.63
			c-0.08,0.5,0.12,1.01,0.14,1.52c0.01,0.51-0.29,1.12-0.8,1.1c-0.43-0.01-0.71-0.45-0.88-0.85c-0.47-1.06-0.8-2.27-0.48-3.39
			s1.48-2.06,2.61-1.79L800.82,85.22z"/>
		<path class="st11" d="M782.93,82.17c0.25-0.16,0.59-0.2,0.87-0.09c0.4,0.51,0.13,1.26-0.25,1.78c-0.39,0.52-0.9,1-1,1.64
			c-0.08,0.5,0.12,1.01,0.14,1.52c0.01,0.51-0.29,1.12-0.8,1.1c-0.43-0.01-0.71-0.45-0.88-0.85c-0.47-1.07-0.8-2.27-0.48-3.39
			s1.48-2.06,2.61-1.79L782.93,82.17z"/>
		<path class="st8" d="M798.82,102.71c0,0-5,4.31-8.99,3.39s-6.92-6.32-6.92-6.32s2.75,7.4,6.57,8.15
			C795.99,109.23,798.82,102.71,798.82,102.71z"/>
		<path class="st9" d="M834.25,18.02c-2.9-0.15-5.84,0.92-7.97,2.9c-1.03-3.97-3.31-7.62-6.42-10.29c0.77,3.06,0.61,6.36-0.46,9.33
			c-2.09-2.21-5.01-3.62-8.04-3.89c2.22,1.12,3.58,3.75,3.2,6.21c-0.2,1.28-0.81,2.56-0.48,3.8c0.27,1.04,1.17,1.82,2.17,2.23
			c0.99,0.41,2.09,0.49,3.16,0.56c2.97,0.19,8.68,0.9,10.39-2.27c0.65-1.21,0.3-2.83,0.7-4.11
			C831.11,20.51,832.62,19.21,834.25,18.02z"/>
		<path class="st12" d="M802.5,25.52c0.68,0.19,1.53,0.56,1.48,1.27c-0.04,0.46-0.48,0.78-0.9,0.97c-2.28,1.01-4.94,0.09-7.16-1.05
			c-1.62-0.83-3.2-1.8-4.5-3.08c-1.29-1.29-2.3-2.92-2.58-4.72c-0.06-0.4-0.07-0.86,0.22-1.14c0.21-0.2,0.52-0.25,0.8-0.23
			c1.94,0.16,3.38,3.15,4.88,4.27C797,23.5,799.79,24.76,802.5,25.52z"/>
		<path class="st12" d="M787.09,10.55c0.81,1.07,1.28,2.39,1.34,3.73c0.02,0.37-0.01,0.78-0.25,1.06c-0.36,0.42-1.06,0.37-1.49,0.03
			c-0.43-0.35-0.63-0.9-0.76-1.43c-0.26-1.15-0.22-2.37,0.1-3.5c0.26-0.01,0.52-0.02,0.78-0.03L787.09,10.55z"/>
		<path class="st12" d="M867.66,27.2c-1.19,2.39-2.43,4.75-3.72,7.09c-0.4,0.71-0.81,1.44-1.47,1.93c-0.66,0.48-1.62,0.65-2.28,0.17
			c-1.02-0.74-0.65-2.42,0.25-3.29c0.9-0.88,2.15-1.31,3.09-2.13c1.65-1.44,1.9-3.61,3-5.39C868.22,22.81,868.7,25.1,867.66,27.2z"
			/>
		<path class="st12" d="M857.41,36.7c0.82,0.56,0.72,1.89,0.06,2.64s-1.67,1.05-2.62,1.33c-0.84,0.24-1.81,0.46-2.52-0.05
			c-0.77-0.55-0.78-1.78-0.22-2.54c0.57-0.76,1.54-1.1,2.48-1.2c0.94-0.09,1.89,0.03,2.83,0.01L857.41,36.7z"/>
		<path class="st12" d="M867.72,54.14c0.19,0.28,0.36,0.7,0.11,0.92c-0.08,0.08-0.2,0.11-0.31,0.13c-1.15,0.19-2.08-0.83-2.95-1.6
			c-2.64-2.35-6.38-2.87-9.74-3.96c-0.36-0.12-0.8-0.43-0.63-0.76c0.07-0.15,0.24-0.22,0.4-0.27c2.27-0.73,5.04,0.25,7.21,1.04
			C864.18,50.51,866.28,52.04,867.72,54.14z"/>
	</g>
	<path class="st5" d="M681.89,116.81h-91.78c-11.73,0-21.33-9.6-21.33-21.33V21.33C568.79,9.6,578.38,0,590.11,0h91.78
		c11.73,0,21.33,9.6,21.33,21.33v74.15C703.22,107.21,693.62,116.81,681.89,116.81z"/>
	<g>
		<path class="st13" d="M600.39,37.07c-5.3-0.39-10.63,0.64-15.66,2.34c-0.34,0.11-0.7,0.25-0.88,0.56
			c-0.21,0.37-0.07,0.83,0.09,1.22c2.26,5.66,7.22,9.84,12.57,12.77c3.86,2.11,8.28,3.72,12.59,2.88s8.22-4.88,7.56-9.23
			C615.54,40.26,606.81,37.54,600.39,37.07z"/>
		<path class="st7" d="M590.68,41.2c3.68,4.08,7.95,7.64,12.74,10.33c1.67,0.94,3.77,1.77,5.43,0.79c0.89-0.53,1.44-1.48,1.87-2.43
			c0.69-1.51,2.36-4.81,1-6.04c-1.54-1.39-4.72-2.07-6.69-2.56C600.34,40.12,595.37,40.06,590.68,41.2z"/>
		<path class="st8" d="M599.73,22.61c-1.1-7.49,1.76-15.46,7.38-20.54c0.75-0.67,2.07-1.24,2.6-0.38c0.36,0.57-0.01,1.3-0.33,1.9
			c-2.56,4.73-1.81,10.81,1.09,15.34s7.67,7.62,12.75,9.39c1.31,0.46,2.79,0.95,3.41,2.19c0.32,0.63,0.35,1.37,0.3,2.07
			c-0.24,3.44-2.46,6.67-5.58,8.12C611.06,45.5,600.99,31.23,599.73,22.61z"/>
		<path class="st14" d="M653.24,39.42c2.92,5.89,3.01,12.79,2.22,19.31c-2.4,19.86-12.92,38.92-29.41,50.24
			c-3.31,2.27-6.86,4.24-10.69,5.41c-11.2,3.43-24.34-0.91-31.3-10.32c-6.96-9.42-7.26-23.24-0.71-32.95
			c5.11-7.57,13.52-12.26,19.46-19.19c4.84-5.64,7.99-12.69,13.52-17.66C626.94,24.73,646.37,25.58,653.24,39.42z"/>
		<path class="st7" d="M625.78,109.15c-3.23,2.19-6.69,4.09-10.43,5.24c-11.2,3.43-24.34-0.91-31.3-10.32
			c-6.88-9.3-7.25-22.9-0.94-32.59c5.68-2.25,12.33-0.9,18.18,1.16c9.14,3.23,18.1,8.44,22.93,16.84
			C627.58,95.3,627.88,102.65,625.78,109.15z"/>
		<path class="st15" d="M651.62,57.85c-0.67,0.18-1.37,0.39-2.2,0.34c-0.56-1.6-1.12-3.25-0.4-4.68c0.72-1.42,3.11-2.53,5.99-2.15
			c1.48,0.2,2.88,0.76,3.98,1.43c1,0.61,1.8,1.33,2.07,2.08C662.02,57.52,654.59,57.05,651.62,57.85z"/>
		<path class="st8" d="M675.72,49.22c5.87-4.79,9.13-12.6,8.42-20.14c-0.09-1-0.69-2.31-1.66-2.04c-0.65,0.18-0.87,0.97-1.03,1.63
			c-1.31,5.22-5.97,9.2-11.16,10.58c-5.2,1.38-10.81,0.44-15.75-1.68c-1.27-0.55-2.7-1.18-3.99-0.68c-0.66,0.25-1.18,0.77-1.62,1.33
			c-2.14,2.7-2.69,6.58-1.36,9.76C651.91,58.47,668.97,54.73,675.72,49.22z"/>
		<g>
			<path class="st15" d="M637.61,63.6c1.39-1.25,2.39-2.99,2.51-4.85s-0.72-3.82-2.31-4.8c-1.03-0.64-2.29-0.84-3.5-0.78
				c-3.46,0.18-6.71,2.56-7.92,5.81c-0.33,0.88-0.51,1.82-0.4,2.75C626.73,67.89,634.38,66.51,637.61,63.6z"/>
			<path class="st11" d="M625.33,62.83c0.39,2.4,2.65,4.04,5.06,3.65c2.4-0.39,4.04-2.65,3.65-5.06c-0.39-2.4-2.65-4.04-5.06-3.65
				C626.57,58.16,624.94,60.43,625.33,62.83z"/>
			<path class="st3" d="M629.75,62.47c0.52,0.7,1.51,0.84,2.21,0.32s0.84-1.51,0.32-2.21s-1.51-0.84-2.21-0.32
				C629.37,60.78,629.23,61.77,629.75,62.47z"/>
		</g>
		<g>
			<path class="st15" d="M613.71,54.82c1.06-1.34,1.83-3.13,1.93-4.99c0.1-1.86-0.55-3.75-1.75-4.61c-0.79-0.57-1.75-0.68-2.67-0.53
				c-2.65,0.41-5.13,3.01-6.06,6.32c-0.25,0.9-0.39,1.85-0.31,2.77C605.39,59.83,611.24,57.94,613.71,54.82z"/>
			<path class="st11" d="M604.33,54.9c0.29,2.36,2.02,3.83,3.86,3.28c1.84-0.55,3.09-2.91,2.8-5.28c-0.29-2.36-2.02-3.83-3.86-3.28
				S604.04,52.53,604.33,54.9z"/>
			<path class="st3" d="M607.71,54.23c0.4,0.66,1.15,0.73,1.69,0.16c0.53-0.57,0.64-1.56,0.25-2.22c-0.4-0.66-1.15-0.73-1.69-0.16
				C607.43,52.58,607.32,53.57,607.71,54.23z"/>
		</g>
		<path class="st11" d="M606.53,84.92c0.27-0.12,0.6-0.09,0.85,0.05c0.3,0.56-0.08,1.24-0.54,1.68c-0.46,0.44-1.03,0.81-1.23,1.41
			c-0.16,0.47-0.05,0.99-0.12,1.49c-0.07,0.49-0.46,1.03-0.95,0.93c-0.41-0.08-0.61-0.55-0.71-0.96c-0.28-1.1-0.4-2.32,0.09-3.35
			c0.49-1.03,1.76-1.75,2.81-1.3L606.53,84.92z"/>
		<path class="st11" d="M589.78,79.06c0.27-0.12,0.6-0.09,0.85,0.05c0.3,0.56-0.08,1.24-0.54,1.68c-0.46,0.44-1.03,0.81-1.23,1.41
			c-0.16,0.47-0.05,0.99-0.12,1.49c-0.07,0.49-0.46,1.03-0.95,0.93c-0.41-0.08-0.61-0.55-0.71-0.96c-0.28-1.1-0.4-2.32,0.09-3.35
			c0.49-1.03,1.76-1.75,2.81-1.3L589.78,79.06z"/>
		<path class="st12" d="M617.91,27.64c0.63,0.3,1.39,0.79,1.22,1.46c-0.11,0.44-0.59,0.68-1.03,0.79c-2.37,0.6-4.78-0.72-6.73-2.18
			c-1.43-1.07-2.79-2.26-3.83-3.71c-1.04-1.45-1.74-3.19-1.72-4.97c0-0.39,0.07-0.84,0.39-1.06c0.23-0.16,0.54-0.16,0.81-0.09
			c1.84,0.47,2.74,3.59,4.01,4.92C612.94,24.8,615.42,26.47,617.91,27.64z"/>
		<path class="st12" d="M605.5,10.7c0.6,1.16,0.85,2.51,0.69,3.81c-0.04,0.36-0.14,0.75-0.42,0.98c-0.41,0.35-1.09,0.18-1.44-0.22
			c-0.36-0.4-0.46-0.97-0.49-1.51c-0.06-1.15,0.17-2.32,0.67-3.36c0.25,0.03,0.5,0.07,0.76,0.1L605.5,10.7z"/>
		<path class="st12" d="M680.45,39.92c-1.54,2.11-3.12,4.18-4.75,6.22c-0.5,0.62-1.02,1.26-1.73,1.62
			c-0.71,0.36-1.67,0.36-2.22-0.21c-0.86-0.88-0.23-2.44,0.78-3.13c1.01-0.7,2.28-0.91,3.33-1.55c1.83-1.12,2.42-3.17,3.77-4.71
			C681.7,35.78,681.79,38.06,680.45,39.92z"/>
		<path class="st12" d="M669.01,47.4c0.7,0.68,0.39,1.94-0.37,2.55s-1.78,0.74-2.75,0.85c-0.85,0.1-1.82,0.15-2.42-0.46
			c-0.65-0.66-0.46-1.84,0.2-2.48c0.67-0.64,1.66-0.81,2.58-0.75c0.92,0.06,1.81,0.34,2.73,0.47L669.01,47.4z"/>
		<path class="st16" d="M615.33,31.73c-2.1,4.93-1.08,10.7,1.87,15.24c-0.04-1.54,0.63-3.08,1.81-4.16
			c1.59,4.38,1.27,9.33-0.86,13.5c5-1.66,9.63-4.3,13.49-7.68c0.02,2.21-0.24,4.42-0.77,6.57c4.79-1.06,9-3.63,13.03-6.25
			c3.17-2.06,6.35-4.24,8.54-7.19c2.19-2.95,3.25-6.85,1.8-10.18c-0.76-1.75-2.15-3.21-3.74-4.39
			C641.04,20.1,620.58,19.43,615.33,31.73z"/>
		<g>
			<path class="st17" d="M626.71,45.06c0.46-2.31,1.08-4.58,1.86-6.8c0.14-0.39-0.15-0.83-0.53-0.94c-0.42-0.12-0.8,0.14-0.94,0.53
				c-0.78,2.22-1.4,4.49-1.86,6.8c-0.08,0.4,0.12,0.82,0.53,0.94C626.15,45.69,626.63,45.46,626.71,45.06L626.71,45.06z"/>
		</g>
		<g>
			<path class="st17" d="M619.43,40.44c0.06-1.75,0.11-3.51,0.17-5.26c0.01-0.41-0.36-0.76-0.76-0.76c-0.42,0-0.75,0.35-0.76,0.76
				c-0.06,1.75-0.11,3.51-0.17,5.26c-0.01,0.41,0.36,0.76,0.76,0.76C619.09,41.21,619.42,40.86,619.43,40.44L619.43,40.44z"/>
		</g>
		<g>
			<path class="st17" d="M623.46,44.32c-0.24-1.6-0.15-3.28,0.21-4.87c0.09-0.4-0.12-0.82-0.53-0.94c-0.39-0.11-0.84,0.13-0.94,0.53
				c-0.43,1.87-0.49,3.78-0.21,5.68c0.06,0.41,0.57,0.63,0.94,0.53C623.37,45.14,623.52,44.73,623.46,44.32L623.46,44.32z"/>
		</g>
		<g>
			<path class="st17" d="M622.99,51.86c0.6-0.75,1.27-1.45,1.98-2.1c0.3-0.27,0.29-0.81,0-1.08c-0.32-0.29-0.76-0.29-1.08,0
				c-0.71,0.65-1.37,1.35-1.98,2.1c-0.13,0.16-0.22,0.32-0.22,0.54c0,0.19,0.08,0.41,0.22,0.54c0.15,0.13,0.34,0.23,0.54,0.22
				C622.64,52.08,622.87,52.02,622.99,51.86L622.99,51.86z"/>
		</g>
		<g>
			<path class="st17" d="M634.51,48.79c1.52-1.21,3.13-2.36,4.78-3.43c0.34-0.22,0.49-0.68,0.27-1.04c-0.2-0.34-0.7-0.5-1.04-0.27
				c-1.76,1.14-3.45,2.36-5.09,3.67c-0.32,0.26-0.27,0.81,0,1.08C633.75,49.1,634.19,49.04,634.51,48.79L634.51,48.79z"/>
		</g>
		<g>
			<path class="st17" d="M634.54,41.12c0.01-0.17,0.03-0.34,0.05-0.51c0.01-0.09,0.01-0.1,0-0.01c0.01-0.05,0.01-0.1,0.02-0.14
				c0.01-0.07,0.02-0.14,0.04-0.21c0.06-0.35,0.15-0.69,0.25-1.02c0.05-0.16,0.1-0.32,0.16-0.48c0.03-0.08,0.06-0.16,0.09-0.24
				c0.02-0.04,0.04-0.09,0.05-0.13c-0.03,0.06-0.03,0.06-0.01,0.01c0.14-0.32,0.3-0.63,0.47-0.94c0.2-0.35,0.09-0.85-0.27-1.04
				c-0.36-0.19-0.83-0.1-1.04,0.27c-0.78,1.37-1.23,2.88-1.34,4.45c-0.03,0.4,0.37,0.78,0.76,0.76
				C634.21,41.86,634.51,41.55,634.54,41.12L634.54,41.12z"/>
		</g>
		<g>
			<path class="st17" d="M644.52,44.62c1.43-1.07,2.77-2.27,3.98-3.59c0.27-0.29,0.31-0.79,0-1.08c-0.29-0.27-0.79-0.31-1.08,0
				c-0.57,0.63-1.17,1.23-1.8,1.8c-0.31,0.28-0.63,0.56-0.95,0.82c-0.16,0.13-0.32,0.27-0.49,0.4c-0.04,0.03-0.07,0.06-0.11,0.09
				s-0.12,0.1-0.04,0.03c-0.09,0.07-0.19,0.14-0.28,0.21c-0.32,0.24-0.51,0.67-0.27,1.04C643.68,44.66,644.17,44.88,644.52,44.62
				L644.52,44.62z"/>
		</g>
		<g>
			<path class="st17" d="M644.55,36.74c0.1-0.35,0.21-0.69,0.34-1.04c0.07-0.18,0.14-0.36,0.21-0.54c-0.06,0.13,0.06-0.13,0.07-0.15
				c0.03-0.08,0.07-0.15,0.11-0.23c0.31-0.67,0.68-1.31,1.09-1.93c0.22-0.33,0.08-0.86-0.27-1.04c-0.38-0.2-0.8-0.08-1.04,0.27
				c-0.87,1.3-1.53,2.74-1.96,4.25c-0.11,0.38,0.13,0.85,0.53,0.94C644.02,37.36,644.43,37.15,644.55,36.74L644.55,36.74z"/>
		</g>
		<g>
			<path class="st17" d="M639.07,28.62c0.02-0.03,0.05-0.06,0.07-0.1c0.08-0.1,0.03-0.01-0.02,0.02c0.05-0.03,0.11-0.14,0.15-0.19
				c0.1-0.12,0.21-0.24,0.31-0.36c0.21-0.23,0.43-0.45,0.66-0.66c0.11-0.1,0.23-0.2,0.35-0.29c0.03-0.03,0.06-0.05,0.09-0.07
				c0.07-0.06-0.13,0.1-0.02,0.02c0.06-0.05,0.13-0.1,0.19-0.14c0.26-0.19,0.53-0.36,0.8-0.52c0.35-0.2,0.49-0.7,0.27-1.04
				c-0.22-0.35-0.67-0.48-1.04-0.27c-1.24,0.71-2.3,1.68-3.14,2.84c-0.11,0.15-0.12,0.42-0.08,0.59c0.05,0.18,0.19,0.37,0.35,0.45
				c0.18,0.09,0.39,0.14,0.59,0.08C638.81,28.9,638.94,28.79,639.07,28.62L639.07,28.62z"/>
		</g>
		<g>
			<path class="st17" d="M627.39,31.47c0.11-0.33,0.22-0.66,0.35-0.99c0.03-0.09,0.07-0.17,0.11-0.26
				c-0.06,0.15,0.05-0.12,0.06-0.14c0.07-0.16,0.15-0.32,0.22-0.48c0.31-0.64,0.67-1.26,1.08-1.85c0.22-0.33,0.07-0.86-0.27-1.04
				c-0.39-0.2-0.8-0.08-1.04,0.27c-0.85,1.25-1.51,2.63-1.97,4.08c-0.12,0.38,0.14,0.85,0.53,0.94
				C626.87,32.1,627.26,31.88,627.39,31.47L627.39,31.47z"/>
		</g>
		<g>
			<path class="st17" d="M632.86,33.82c-0.01-0.26-0.01-0.52,0.03-0.78c-0.01,0.07-0.02,0.13-0.03,0.2c0.05-0.37,0.15-0.74,0.3-1.08
				c-0.03,0.06-0.05,0.12-0.08,0.18c0.1-0.24,0.23-0.47,0.37-0.68c0.22-0.33,0.08-0.86-0.27-1.04c-0.38-0.2-0.8-0.08-1.04,0.27
				c-0.57,0.85-0.86,1.91-0.8,2.93c0.02,0.4,0.33,0.78,0.76,0.76C632.5,34.57,632.89,34.25,632.86,33.82L632.86,33.82z"/>
		</g>
		<g>
			<path class="st17" d="M620.15,30.1c0.1-0.16,0.21-0.32,0.32-0.48c0.06-0.08,0.12-0.16,0.18-0.24c0.09-0.11-0.06,0.08,0,0
				c0.03-0.04,0.06-0.07,0.09-0.11c0.24-0.3,0.5-0.59,0.77-0.86s0.54-0.52,0.84-0.75c0.04-0.03,0.07-0.06,0.11-0.09
				c0.15-0.12-0.13,0.1,0.02-0.02c0.07-0.05,0.15-0.11,0.22-0.16c0.16-0.12,0.33-0.23,0.5-0.34c0.34-0.21,0.5-0.69,0.27-1.04
				c-0.22-0.34-0.68-0.5-1.04-0.27c-1.44,0.92-2.67,2.15-3.58,3.59c-0.21,0.34-0.08,0.85,0.27,1.04
				C619.48,30.57,619.92,30.46,620.15,30.1L620.15,30.1z"/>
		</g>
		<g>
			<path class="st17" d="M650.83,35.38c0.2-1.19,0.3-2.39,0.27-3.6c-0.01-0.4-0.34-0.78-0.76-0.76c-0.4,0.02-0.77,0.33-0.76,0.76
				c0.01,0.56,0,1.11-0.04,1.67c-0.02,0.27-0.04,0.54-0.08,0.82c-0.01,0.06-0.02,0.13-0.02,0.2c-0.02,0.18,0.02-0.11-0.01,0.06
				c-0.02,0.15-0.05,0.3-0.07,0.45c-0.07,0.39,0.1,0.84,0.53,0.94C650.26,36,650.76,35.8,650.83,35.38L650.83,35.38z"/>
		</g>
		<g>
			<path class="st17" d="M631.43,25.08c0.74,0,1.47,0,2.21,0c0.4,0,0.78-0.35,0.76-0.76s-0.33-0.76-0.76-0.76c-0.74,0-1.47,0-2.21,0
				c-0.4,0-0.78,0.35-0.76,0.76S631.01,25.08,631.43,25.08L631.43,25.08z"/>
		</g>
		<path class="st8" d="M590.38,103.75c0,0,4.64,4,8.34,3.15c3.7-0.86,6.43-5.87,6.43-5.87s-2.55,6.87-6.1,7.57
			C593,109.8,590.38,103.75,590.38,103.75z"/>
		<path class="st14" d="M675.8,63.09c3.78,4,6.39,9.23,11.06,12.14c-2.95,1.29-6.16,1.89-9.34,2.4c-4.04,0.65-8.13,1.19-12.22,1.07
			c-4.09-0.12-8.22-0.92-11.85-2.8c-2.93-1.52-5.49-3.73-7.42-6.4c-0.74-1.02-1.39-2.12-1.75-3.33c-0.9-3.01,0.21-6.44,2.51-8.57
			c2.94-2.72,7.37-2.98,11.17-2.76c4.31,0.25,8.54,1.57,12.24,3.78C672.25,59.84,674.15,61.35,675.8,63.09z"/>
		<path class="st7" d="M650.48,62.28c0-0.49-0.25-0.97-0.22-1.46c0.06-1.06,1.31-1.62,2.37-1.71c2-0.16,3.97,0.47,5.84,1.18
			c6.76,2.56,13.08,6.26,18.63,10.89c-1.77,0.95-3.71,1.58-5.69,1.87c-2.96,0.43-5.97,0.1-8.92-0.42
			c-5.12-0.91-10.32-2.49-14.22-5.93c-0.52-0.46-1.04-0.99-1.21-1.66c-0.17-0.68,0.16-1.52,0.84-1.68
			C648.68,63.17,650.46,63.75,650.48,62.28z"/>
		<path class="st12" d="M676.09,65.9c0.14,0.3,0.23,0.73-0.05,0.91c-0.09,0.06-0.21,0.07-0.32,0.07c-1.14,0-1.87-1.14-2.58-2.03
			c-2.16-2.7-5.68-3.81-8.74-5.41c-0.33-0.17-0.7-0.54-0.48-0.84c0.1-0.13,0.27-0.17,0.42-0.19c2.3-0.33,4.82,1.07,6.78,2.18
			C673.27,61.81,675.05,63.63,676.09,65.9z"/>
	</g>
</g>
</svg>
