<?xml version="1.0" encoding="utf-8"?>
<!-- Generator: Adobe Illustrator 23.0.0, SVG Export Plug-In . SVG Version: 6.00 Build 0)  -->
<svg version="1.1" id="Capa_1" xmlns="http://www.w3.org/2000/svg" xmlns:xlink="http://www.w3.org/1999/xlink" x="0px" y="0px"
	 viewBox="0 0 167.5 180" style="enable-background:new 0 0 167.5 180;" xml:space="preserve">
<style type="text/css">
	.st0{fill:url(#SVGID_1_);}
	.st1{fill:url(#SVGID_2_);}
	.st2{fill:#C17A49;}
</style>
<g>
	<g>
		
			<image style="overflow:visible;opacity:4.000000e-02;" width="158" height="206" xlink:href="2115CD3B.png"  transform="matrix(1 0 0 1 -8.5283 8)">
		</image>
		<g>
			<linearGradient id="SVGID_1_" gradientUnits="userSpaceOnUse" x1="-9.094947e-13" y1="92.2413" x2="127.3331" y2="92.2413">
				<stop  offset="0" style="stop-color:#C17A49"/>
				<stop  offset="0.9877" style="stop-color:#96603C"/>
			</linearGradient>
			<path class="st0" d="M126.9,118.1c-3.4-26.3-24.8-45.9-50.3-47.8l0-0.1c-4.3-0.3-8-3.6-8.6-8.1c-0.3-2.4,0.3-4.7,1.6-6.5
				c2.6-5.9,3.7-12.5,2.8-19.3c-2.5-19.9-20.8-34-40.7-31.5C11.8,7.3-2.2,25.5,0.3,45.5c0.2,1.7,0.6,3.3,1,4.9L18.4,136l0.2,0
				c5.7,28,32,47.2,60.8,43.6C109.4,175.7,130.7,148.2,126.9,118.1z M69.3,148.3c-10.8,0-19.6-8.8-19.6-19.6
				c0-10.8,8.8-19.6,19.6-19.6s19.6,8.8,19.6,19.6C88.9,139.5,80.1,148.3,69.3,148.3z"/>
		</g>
	</g>
	<g>
		<g>
			
				<image style="overflow:visible;opacity:4.000000e-02;" width="81" height="81" xlink:href="2115CD39.png"  transform="matrix(1 0 0 1 86.4717 4)">
			</image>
			<g>
				<linearGradient id="SVGID_2_" gradientUnits="userSpaceOnUse" x1="94.7287" y1="25.3448" x2="145.4184" y2="25.3448">
					<stop  offset="0" style="stop-color:#F7E8CB"/>
					<stop  offset="0.9877" style="stop-color:#DDCFB8"/>
				</linearGradient>
				<circle class="st1" cx="120.1" cy="25.3" r="25.3"/>
			</g>
		</g>
		<g>
			
				<image style="overflow:visible;opacity:4.000000e-02;" width="49" height="60" xlink:href="2115CD3F.png"  transform="matrix(1 0 0 1 118.4717 20)">
			</image>
			<g>
				<path class="st2" d="M130.9,30c0.2,2.7-1.5,5.2-2.6,7.7c-1.1,2.5-1.2,6.1,1.2,7.4c1.3,0.7,2.9,0.5,4.2,0c1.6-0.6,3-1.5,4.5-2.3
					c6.8-7.1,8.7-17.1,5.6-25.8c-1.3-0.2-2.6,0.3-3.9,0.6c-3.8,0.7-11.5-4.3-12.5,2.5C126.9,23.5,130.6,26.4,130.9,30z"/>
			</g>
		</g>
	</g>
</g>
</svg>
